G04 #@! TF.GenerationSoftware,KiCad,Pcbnew,5.1.0-unknown-9e240db~82~ubuntu18.04.1*
G04 #@! TF.CreationDate,2019-04-04T23:04:56+02:00*
G04 #@! TF.ProjectId,Voltrove MIC1557 PWM,566f6c74-726f-4766-9520-4d4943313535,rev?*
G04 #@! TF.SameCoordinates,Original*
G04 #@! TF.FileFunction,Paste,Bot*
G04 #@! TF.FilePolarity,Positive*
%FSLAX46Y46*%
G04 Gerber Fmt 4.6, Leading zero omitted, Abs format (unit mm)*
G04 Created by KiCad (PCBNEW 5.1.0-unknown-9e240db~82~ubuntu18.04.1) date 2019-04-04 23:04:56*
%MOMM*%
%LPD*%
G04 APERTURE LIST*
%ADD10R,1.000000X0.670000*%
%ADD11R,1.000000X1.000000*%
%ADD12R,1.120000X1.720000*%
%ADD13R,1.525000X0.650000*%
%ADD14R,1.500000X2.200000*%
%ADD15R,3.800000X2.200000*%
%ADD16R,0.620000X0.575000*%
%ADD17R,1.150000X0.700000*%
%ADD18R,3.100000X4.200000*%
%ADD19R,1.500000X4.700000*%
%ADD20R,1.200000X0.600000*%
G04 APERTURE END LIST*
D10*
X168900000Y-103975000D03*
X168900000Y-102225000D03*
X170800000Y-103975000D03*
X170800000Y-102225000D03*
X172600000Y-102225000D03*
X172600000Y-103975000D03*
X174400000Y-102225000D03*
X174400000Y-103975000D03*
D11*
X170300000Y-98050000D03*
X170300000Y-96150000D03*
X172700000Y-96150000D03*
X172700000Y-98050000D03*
D12*
X155225000Y-106600000D03*
X159375000Y-106600000D03*
D13*
X167812000Y-93395000D03*
X167812000Y-94665000D03*
X167812000Y-95935000D03*
X167812000Y-97205000D03*
X162388000Y-97205000D03*
X162388000Y-95935000D03*
X162388000Y-94665000D03*
X162388000Y-93395000D03*
D14*
X166600000Y-100450000D03*
X164300000Y-100450000D03*
X162000000Y-100450000D03*
D15*
X164300000Y-106750000D03*
D16*
X180350000Y-101812000D03*
X182250000Y-101812000D03*
X181300000Y-104188000D03*
D17*
X160025000Y-93295000D03*
X160025000Y-94565000D03*
X160025000Y-95835000D03*
X160025000Y-97105000D03*
D18*
X156850000Y-95200000D03*
D19*
X154550000Y-95200000D03*
D10*
X168400000Y-108275000D03*
X168400000Y-106525000D03*
X170800000Y-106525000D03*
X170800000Y-108275000D03*
X173100000Y-108275000D03*
X173100000Y-106525000D03*
X175400000Y-106525000D03*
X175400000Y-108275000D03*
D20*
X179450000Y-107850000D03*
X179450000Y-106900000D03*
X179450000Y-105950000D03*
X181950000Y-105950000D03*
X181950000Y-107850000D03*
M02*
