G04 #@! TF.GenerationSoftware,KiCad,Pcbnew,5.1.0-unknown-9e240db~82~ubuntu18.04.1*
G04 #@! TF.CreationDate,2019-04-04T23:04:56+02:00*
G04 #@! TF.ProjectId,Voltrove MIC1557 PWM,566f6c74-726f-4766-9520-4d4943313535,rev?*
G04 #@! TF.SameCoordinates,Original*
G04 #@! TF.FileFunction,Legend,Bot*
G04 #@! TF.FilePolarity,Positive*
%FSLAX46Y46*%
G04 Gerber Fmt 4.6, Leading zero omitted, Abs format (unit mm)*
G04 Created by KiCad (PCBNEW 5.1.0-unknown-9e240db~82~ubuntu18.04.1) date 2019-04-04 23:04:56*
%MOMM*%
%LPD*%
G04 APERTURE LIST*
%ADD10C,0.200000*%
%ADD11C,0.120000*%
%ADD12C,0.254000*%
%ADD13C,0.100000*%
%ADD14C,0.150000*%
G04 APERTURE END LIST*
D10*
X121168095Y-98928571D02*
X121501428Y-98928571D01*
X121501428Y-99452380D02*
X121501428Y-98452380D01*
X121025238Y-98452380D01*
X120691904Y-98547619D02*
X120644285Y-98500000D01*
X120549047Y-98452380D01*
X120310952Y-98452380D01*
X120215714Y-98500000D01*
X120168095Y-98547619D01*
X120120476Y-98642857D01*
X120120476Y-98738095D01*
X120168095Y-98880952D01*
X120739523Y-99452380D01*
X120120476Y-99452380D01*
X121168095Y-101408571D02*
X121501428Y-101408571D01*
X121501428Y-101932380D02*
X121501428Y-100932380D01*
X121025238Y-100932380D01*
X120120476Y-101932380D02*
X120691904Y-101932380D01*
X120406190Y-101932380D02*
X120406190Y-100932380D01*
X120501428Y-101075238D01*
X120596666Y-101170476D01*
X120691904Y-101218095D01*
D11*
X169410000Y-103320000D02*
X169410000Y-102880000D01*
X168390000Y-103320000D02*
X168390000Y-102880000D01*
X171310000Y-103320000D02*
X171310000Y-102880000D01*
X170290000Y-103320000D02*
X170290000Y-102880000D01*
X172090000Y-103320000D02*
X172090000Y-102880000D01*
X173110000Y-103320000D02*
X173110000Y-102880000D01*
X173890000Y-103320000D02*
X173890000Y-102880000D01*
X174910000Y-103320000D02*
X174910000Y-102880000D01*
D12*
X171800000Y-98550000D02*
X171200000Y-98550000D01*
X171800000Y-95650000D02*
X171200000Y-95650000D01*
X169529000Y-98088000D02*
G75*
G03X169529000Y-98088000I-52000J0D01*
G01*
D10*
X154665000Y-107850000D02*
X159150000Y-107850000D01*
X155450000Y-105350000D02*
X159150000Y-105350000D01*
X166700000Y-92850000D02*
X163500000Y-92850000D01*
X163500000Y-92850000D02*
X163500000Y-97750000D01*
X163500000Y-97750000D02*
X166700000Y-97750000D01*
X166700000Y-97750000D02*
X166700000Y-92850000D01*
X168575000Y-92720000D02*
X167050000Y-92720000D01*
D13*
X161025000Y-102625000D02*
X161025000Y-102150000D01*
X161025000Y-102150000D02*
X161325000Y-101825000D01*
X161325000Y-101825000D02*
X161325000Y-101630000D01*
X167575000Y-102300000D02*
X167575000Y-101825000D01*
X167575000Y-101825000D02*
X167125000Y-101825000D01*
X161525000Y-105375000D02*
X161025000Y-105375000D01*
X161025000Y-105375000D02*
X161025000Y-104975000D01*
X167200000Y-105375000D02*
X167575000Y-105375000D01*
X167575000Y-105375000D02*
X167575000Y-105075000D01*
D10*
X179850000Y-102450000D02*
X179850000Y-103550000D01*
X179850000Y-103550000D02*
X182750000Y-103550000D01*
X182750000Y-103550000D02*
X182750000Y-102450000D01*
X182750000Y-102450000D02*
X179850000Y-102450000D01*
X179790000Y-101525000D02*
X179790000Y-102100000D01*
D13*
X155600000Y-92750000D02*
X159050000Y-92750000D01*
X159050000Y-92750000D02*
X159050000Y-97650000D01*
X159050000Y-97650000D02*
X155600000Y-97650000D01*
D10*
X161000000Y-93200000D02*
X161000000Y-93200000D01*
X161000000Y-93400000D02*
X161000000Y-93400000D01*
X161000000Y-93400000D02*
G75*
G02X161000000Y-93200000I0J100000D01*
G01*
X161000000Y-93200000D02*
G75*
G02X161000000Y-93400000I0J-100000D01*
G01*
D11*
X168910000Y-107620000D02*
X168910000Y-107180000D01*
X167890000Y-107620000D02*
X167890000Y-107180000D01*
X170290000Y-107620000D02*
X170290000Y-107180000D01*
X171310000Y-107620000D02*
X171310000Y-107180000D01*
X173610000Y-107620000D02*
X173610000Y-107180000D01*
X172590000Y-107620000D02*
X172590000Y-107180000D01*
X174890000Y-107620000D02*
X174890000Y-107180000D01*
X175910000Y-107620000D02*
X175910000Y-107180000D01*
D10*
X180400000Y-108350000D02*
X181000000Y-108350000D01*
X181000000Y-108350000D02*
X181000000Y-105450000D01*
X181000000Y-105450000D02*
X180400000Y-105450000D01*
X180400000Y-105450000D02*
X180400000Y-108350000D01*
X178850000Y-108400000D02*
X180050000Y-108400000D01*
D14*
X169066666Y-105657142D02*
X169114285Y-105704761D01*
X169257142Y-105752380D01*
X169352380Y-105752380D01*
X169495238Y-105704761D01*
X169590476Y-105609523D01*
X169638095Y-105514285D01*
X169685714Y-105323809D01*
X169685714Y-105180952D01*
X169638095Y-104990476D01*
X169590476Y-104895238D01*
X169495238Y-104800000D01*
X169352380Y-104752380D01*
X169257142Y-104752380D01*
X169114285Y-104800000D01*
X169066666Y-104847619D01*
X168114285Y-105752380D02*
X168685714Y-105752380D01*
X168400000Y-105752380D02*
X168400000Y-104752380D01*
X168495238Y-104895238D01*
X168590476Y-104990476D01*
X168685714Y-105038095D01*
X170966666Y-105657142D02*
X171014285Y-105704761D01*
X171157142Y-105752380D01*
X171252380Y-105752380D01*
X171395238Y-105704761D01*
X171490476Y-105609523D01*
X171538095Y-105514285D01*
X171585714Y-105323809D01*
X171585714Y-105180952D01*
X171538095Y-104990476D01*
X171490476Y-104895238D01*
X171395238Y-104800000D01*
X171252380Y-104752380D01*
X171157142Y-104752380D01*
X171014285Y-104800000D01*
X170966666Y-104847619D01*
X170585714Y-104847619D02*
X170538095Y-104800000D01*
X170442857Y-104752380D01*
X170204761Y-104752380D01*
X170109523Y-104800000D01*
X170061904Y-104847619D01*
X170014285Y-104942857D01*
X170014285Y-105038095D01*
X170061904Y-105180952D01*
X170633333Y-105752380D01*
X170014285Y-105752380D01*
X172766666Y-105657142D02*
X172814285Y-105704761D01*
X172957142Y-105752380D01*
X173052380Y-105752380D01*
X173195238Y-105704761D01*
X173290476Y-105609523D01*
X173338095Y-105514285D01*
X173385714Y-105323809D01*
X173385714Y-105180952D01*
X173338095Y-104990476D01*
X173290476Y-104895238D01*
X173195238Y-104800000D01*
X173052380Y-104752380D01*
X172957142Y-104752380D01*
X172814285Y-104800000D01*
X172766666Y-104847619D01*
X172433333Y-104752380D02*
X171814285Y-104752380D01*
X172147619Y-105133333D01*
X172004761Y-105133333D01*
X171909523Y-105180952D01*
X171861904Y-105228571D01*
X171814285Y-105323809D01*
X171814285Y-105561904D01*
X171861904Y-105657142D01*
X171909523Y-105704761D01*
X172004761Y-105752380D01*
X172290476Y-105752380D01*
X172385714Y-105704761D01*
X172433333Y-105657142D01*
X174566666Y-105657142D02*
X174614285Y-105704761D01*
X174757142Y-105752380D01*
X174852380Y-105752380D01*
X174995238Y-105704761D01*
X175090476Y-105609523D01*
X175138095Y-105514285D01*
X175185714Y-105323809D01*
X175185714Y-105180952D01*
X175138095Y-104990476D01*
X175090476Y-104895238D01*
X174995238Y-104800000D01*
X174852380Y-104752380D01*
X174757142Y-104752380D01*
X174614285Y-104800000D01*
X174566666Y-104847619D01*
X173709523Y-105085714D02*
X173709523Y-105752380D01*
X173947619Y-104704761D02*
X174185714Y-105419047D01*
X173566666Y-105419047D01*
X174852380Y-96261904D02*
X173852380Y-96261904D01*
X173852380Y-96500000D01*
X173900000Y-96642857D01*
X173995238Y-96738095D01*
X174090476Y-96785714D01*
X174280952Y-96833333D01*
X174423809Y-96833333D01*
X174614285Y-96785714D01*
X174709523Y-96738095D01*
X174804761Y-96642857D01*
X174852380Y-96500000D01*
X174852380Y-96261904D01*
X174852380Y-97785714D02*
X174852380Y-97214285D01*
X174852380Y-97500000D02*
X173852380Y-97500000D01*
X173995238Y-97404761D01*
X174090476Y-97309523D01*
X174138095Y-97214285D01*
X158038095Y-107352380D02*
X158038095Y-106352380D01*
X157800000Y-106352380D01*
X157657142Y-106400000D01*
X157561904Y-106495238D01*
X157514285Y-106590476D01*
X157466666Y-106780952D01*
X157466666Y-106923809D01*
X157514285Y-107114285D01*
X157561904Y-107209523D01*
X157657142Y-107304761D01*
X157800000Y-107352380D01*
X158038095Y-107352380D01*
X157085714Y-106447619D02*
X157038095Y-106400000D01*
X156942857Y-106352380D01*
X156704761Y-106352380D01*
X156609523Y-106400000D01*
X156561904Y-106447619D01*
X156514285Y-106542857D01*
X156514285Y-106638095D01*
X156561904Y-106780952D01*
X157133333Y-107352380D01*
X156514285Y-107352380D01*
X166076190Y-97252380D02*
X166076190Y-96252380D01*
X165028571Y-97157142D02*
X165076190Y-97204761D01*
X165219047Y-97252380D01*
X165314285Y-97252380D01*
X165457142Y-97204761D01*
X165552380Y-97109523D01*
X165600000Y-97014285D01*
X165647619Y-96823809D01*
X165647619Y-96680952D01*
X165600000Y-96490476D01*
X165552380Y-96395238D01*
X165457142Y-96300000D01*
X165314285Y-96252380D01*
X165219047Y-96252380D01*
X165076190Y-96300000D01*
X165028571Y-96347619D01*
X164076190Y-97252380D02*
X164647619Y-97252380D01*
X164361904Y-97252380D02*
X164361904Y-96252380D01*
X164457142Y-96395238D01*
X164552380Y-96490476D01*
X164647619Y-96538095D01*
X165276190Y-104952380D02*
X165276190Y-103952380D01*
X164228571Y-104857142D02*
X164276190Y-104904761D01*
X164419047Y-104952380D01*
X164514285Y-104952380D01*
X164657142Y-104904761D01*
X164752380Y-104809523D01*
X164800000Y-104714285D01*
X164847619Y-104523809D01*
X164847619Y-104380952D01*
X164800000Y-104190476D01*
X164752380Y-104095238D01*
X164657142Y-104000000D01*
X164514285Y-103952380D01*
X164419047Y-103952380D01*
X164276190Y-104000000D01*
X164228571Y-104047619D01*
X163847619Y-104047619D02*
X163800000Y-104000000D01*
X163704761Y-103952380D01*
X163466666Y-103952380D01*
X163371428Y-104000000D01*
X163323809Y-104047619D01*
X163276190Y-104142857D01*
X163276190Y-104238095D01*
X163323809Y-104380952D01*
X163895238Y-104952380D01*
X163276190Y-104952380D01*
X179447619Y-102804761D02*
X179400000Y-102709523D01*
X179304761Y-102614285D01*
X179161904Y-102471428D01*
X179114285Y-102376190D01*
X179114285Y-102280952D01*
X179352380Y-102328571D02*
X179304761Y-102233333D01*
X179209523Y-102138095D01*
X179019047Y-102090476D01*
X178685714Y-102090476D01*
X178495238Y-102138095D01*
X178400000Y-102233333D01*
X178352380Y-102328571D01*
X178352380Y-102519047D01*
X178400000Y-102614285D01*
X178495238Y-102709523D01*
X178685714Y-102757142D01*
X179019047Y-102757142D01*
X179209523Y-102709523D01*
X179304761Y-102614285D01*
X179352380Y-102519047D01*
X179352380Y-102328571D01*
X179352380Y-103709523D02*
X179352380Y-103138095D01*
X179352380Y-103423809D02*
X178352380Y-103423809D01*
X178495238Y-103328571D01*
X178590476Y-103233333D01*
X178638095Y-103138095D01*
X156995238Y-92247619D02*
X157090476Y-92200000D01*
X157185714Y-92104761D01*
X157328571Y-91961904D01*
X157423809Y-91914285D01*
X157519047Y-91914285D01*
X157471428Y-92152380D02*
X157566666Y-92104761D01*
X157661904Y-92009523D01*
X157709523Y-91819047D01*
X157709523Y-91485714D01*
X157661904Y-91295238D01*
X157566666Y-91200000D01*
X157471428Y-91152380D01*
X157280952Y-91152380D01*
X157185714Y-91200000D01*
X157090476Y-91295238D01*
X157042857Y-91485714D01*
X157042857Y-91819047D01*
X157090476Y-92009523D01*
X157185714Y-92104761D01*
X157280952Y-92152380D01*
X157471428Y-92152380D01*
X156661904Y-91247619D02*
X156614285Y-91200000D01*
X156519047Y-91152380D01*
X156280952Y-91152380D01*
X156185714Y-91200000D01*
X156138095Y-91247619D01*
X156090476Y-91342857D01*
X156090476Y-91438095D01*
X156138095Y-91580952D01*
X156709523Y-92152380D01*
X156090476Y-92152380D01*
X168566666Y-109952380D02*
X168900000Y-109476190D01*
X169138095Y-109952380D02*
X169138095Y-108952380D01*
X168757142Y-108952380D01*
X168661904Y-109000000D01*
X168614285Y-109047619D01*
X168566666Y-109142857D01*
X168566666Y-109285714D01*
X168614285Y-109380952D01*
X168661904Y-109428571D01*
X168757142Y-109476190D01*
X169138095Y-109476190D01*
X167614285Y-109952380D02*
X168185714Y-109952380D01*
X167900000Y-109952380D02*
X167900000Y-108952380D01*
X167995238Y-109095238D01*
X168090476Y-109190476D01*
X168185714Y-109238095D01*
X170966666Y-109952380D02*
X171300000Y-109476190D01*
X171538095Y-109952380D02*
X171538095Y-108952380D01*
X171157142Y-108952380D01*
X171061904Y-109000000D01*
X171014285Y-109047619D01*
X170966666Y-109142857D01*
X170966666Y-109285714D01*
X171014285Y-109380952D01*
X171061904Y-109428571D01*
X171157142Y-109476190D01*
X171538095Y-109476190D01*
X170585714Y-109047619D02*
X170538095Y-109000000D01*
X170442857Y-108952380D01*
X170204761Y-108952380D01*
X170109523Y-109000000D01*
X170061904Y-109047619D01*
X170014285Y-109142857D01*
X170014285Y-109238095D01*
X170061904Y-109380952D01*
X170633333Y-109952380D01*
X170014285Y-109952380D01*
X173266666Y-109952380D02*
X173600000Y-109476190D01*
X173838095Y-109952380D02*
X173838095Y-108952380D01*
X173457142Y-108952380D01*
X173361904Y-109000000D01*
X173314285Y-109047619D01*
X173266666Y-109142857D01*
X173266666Y-109285714D01*
X173314285Y-109380952D01*
X173361904Y-109428571D01*
X173457142Y-109476190D01*
X173838095Y-109476190D01*
X172933333Y-108952380D02*
X172314285Y-108952380D01*
X172647619Y-109333333D01*
X172504761Y-109333333D01*
X172409523Y-109380952D01*
X172361904Y-109428571D01*
X172314285Y-109523809D01*
X172314285Y-109761904D01*
X172361904Y-109857142D01*
X172409523Y-109904761D01*
X172504761Y-109952380D01*
X172790476Y-109952380D01*
X172885714Y-109904761D01*
X172933333Y-109857142D01*
X175566666Y-109952380D02*
X175900000Y-109476190D01*
X176138095Y-109952380D02*
X176138095Y-108952380D01*
X175757142Y-108952380D01*
X175661904Y-109000000D01*
X175614285Y-109047619D01*
X175566666Y-109142857D01*
X175566666Y-109285714D01*
X175614285Y-109380952D01*
X175661904Y-109428571D01*
X175757142Y-109476190D01*
X176138095Y-109476190D01*
X174709523Y-109285714D02*
X174709523Y-109952380D01*
X174947619Y-108904761D02*
X175185714Y-109619047D01*
X174566666Y-109619047D01*
X181361904Y-108652380D02*
X181361904Y-109461904D01*
X181314285Y-109557142D01*
X181266666Y-109604761D01*
X181171428Y-109652380D01*
X180980952Y-109652380D01*
X180885714Y-109604761D01*
X180838095Y-109557142D01*
X180790476Y-109461904D01*
X180790476Y-108652380D01*
X179790476Y-109652380D02*
X180361904Y-109652380D01*
X180076190Y-109652380D02*
X180076190Y-108652380D01*
X180171428Y-108795238D01*
X180266666Y-108890476D01*
X180361904Y-108938095D01*
X126023809Y-106752380D02*
X125690476Y-107752380D01*
X125357142Y-106752380D01*
X125023809Y-107752380D02*
X125023809Y-106752380D01*
X124690476Y-107466666D01*
X124357142Y-106752380D01*
X124357142Y-107752380D01*
X123880952Y-107371428D02*
X123119047Y-107371428D01*
X129523809Y-106752380D02*
X129190476Y-107752380D01*
X128857142Y-106752380D01*
X128523809Y-107752380D02*
X128523809Y-106752380D01*
X128190476Y-107466666D01*
X127857142Y-106752380D01*
X127857142Y-107752380D01*
X127380952Y-107371428D02*
X126619047Y-107371428D01*
X127000000Y-107752380D02*
X127000000Y-106990476D01*
M02*
