G04 #@! TF.GenerationSoftware,KiCad,Pcbnew,5.1.0-unknown-9e240db~82~ubuntu18.04.1*
G04 #@! TF.CreationDate,2019-04-04T00:18:26+02:00*
G04 #@! TF.ProjectId,Voltrove MIC1557 PWM,566f6c74-726f-4766-9520-4d4943313535,rev?*
G04 #@! TF.SameCoordinates,Original*
G04 #@! TF.FileFunction,Soldermask,Top*
G04 #@! TF.FilePolarity,Negative*
%FSLAX46Y46*%
G04 Gerber Fmt 4.6, Leading zero omitted, Abs format (unit mm)*
G04 Created by KiCad (PCBNEW 5.1.0-unknown-9e240db~82~ubuntu18.04.1) date 2019-04-04 00:18:26*
%MOMM*%
%LPD*%
G04 APERTURE LIST*
%ADD10C,0.100000*%
G04 APERTURE END LIST*
D10*
G36*
X176480000Y-97388000D02*
G01*
X176362000Y-97397000D01*
X176248000Y-97425000D01*
X176139000Y-97470000D01*
X176038000Y-97532000D01*
X175948000Y-97608000D01*
X175872000Y-97698000D01*
X175810000Y-97799000D01*
X175765000Y-97908000D01*
X175737000Y-98022000D01*
X175728000Y-98140000D01*
X175737000Y-98258000D01*
X175765000Y-98372000D01*
X175810000Y-98481000D01*
X175872000Y-98582000D01*
X175948000Y-98672000D01*
X176038000Y-98748000D01*
X176139000Y-98810000D01*
X176248000Y-98855000D01*
X176362000Y-98883000D01*
X176480000Y-98892000D01*
X176980000Y-98892000D01*
X177098000Y-98883000D01*
X177212000Y-98855000D01*
X177321000Y-98810000D01*
X177422000Y-98748000D01*
X177512000Y-98672000D01*
X177588000Y-98582000D01*
X177650000Y-98481000D01*
X177695000Y-98372000D01*
X177723000Y-98258000D01*
X177732000Y-98140000D01*
X177723000Y-98022000D01*
X177695000Y-97908000D01*
X177650000Y-97799000D01*
X177588000Y-97698000D01*
X177512000Y-97608000D01*
X177422000Y-97532000D01*
X177321000Y-97470000D01*
X177212000Y-97425000D01*
X177098000Y-97397000D01*
X176980000Y-97388000D01*
X176480000Y-97388000D01*
G37*
G36*
X176480000Y-99388000D02*
G01*
X176362000Y-99397000D01*
X176248000Y-99425000D01*
X176139000Y-99470000D01*
X176038000Y-99532000D01*
X175948000Y-99608000D01*
X175872000Y-99698000D01*
X175810000Y-99799000D01*
X175765000Y-99908000D01*
X175737000Y-100022000D01*
X175728000Y-100140000D01*
X175737000Y-100258000D01*
X175765000Y-100372000D01*
X175810000Y-100481000D01*
X175872000Y-100582000D01*
X175948000Y-100672000D01*
X176038000Y-100748000D01*
X176139000Y-100810000D01*
X176248000Y-100855000D01*
X176362000Y-100883000D01*
X176480000Y-100892000D01*
X176980000Y-100892000D01*
X177098000Y-100883000D01*
X177212000Y-100855000D01*
X177321000Y-100810000D01*
X177422000Y-100748000D01*
X177512000Y-100672000D01*
X177588000Y-100582000D01*
X177650000Y-100481000D01*
X177695000Y-100372000D01*
X177723000Y-100258000D01*
X177732000Y-100140000D01*
X177723000Y-100022000D01*
X177695000Y-99908000D01*
X177650000Y-99799000D01*
X177588000Y-99698000D01*
X177512000Y-99608000D01*
X177422000Y-99532000D01*
X177321000Y-99470000D01*
X177212000Y-99425000D01*
X177098000Y-99397000D01*
X176980000Y-99388000D01*
X176480000Y-99388000D01*
G37*
G36*
X176480000Y-101388000D02*
G01*
X176362000Y-101397000D01*
X176248000Y-101425000D01*
X176139000Y-101470000D01*
X176038000Y-101532000D01*
X175948000Y-101608000D01*
X175872000Y-101698000D01*
X175810000Y-101799000D01*
X175765000Y-101908000D01*
X175737000Y-102022000D01*
X175728000Y-102140000D01*
X175737000Y-102258000D01*
X175765000Y-102372000D01*
X175810000Y-102481000D01*
X175872000Y-102582000D01*
X175948000Y-102672000D01*
X176038000Y-102748000D01*
X176139000Y-102810000D01*
X176248000Y-102855000D01*
X176362000Y-102883000D01*
X176480000Y-102892000D01*
X176980000Y-102892000D01*
X177098000Y-102883000D01*
X177212000Y-102855000D01*
X177321000Y-102810000D01*
X177422000Y-102748000D01*
X177512000Y-102672000D01*
X177588000Y-102582000D01*
X177650000Y-102481000D01*
X177695000Y-102372000D01*
X177723000Y-102258000D01*
X177732000Y-102140000D01*
X177723000Y-102022000D01*
X177695000Y-101908000D01*
X177650000Y-101799000D01*
X177588000Y-101698000D01*
X177512000Y-101608000D01*
X177422000Y-101532000D01*
X177321000Y-101470000D01*
X177212000Y-101425000D01*
X177098000Y-101397000D01*
X176980000Y-101388000D01*
X176480000Y-101388000D01*
G37*
G36*
X176480000Y-95088000D02*
G01*
X176331000Y-95100000D01*
X176186000Y-95135000D01*
X176048000Y-95192000D01*
X175920000Y-95270000D01*
X175807000Y-95367000D01*
X175710000Y-95480000D01*
X175632000Y-95608000D01*
X175575000Y-95746000D01*
X175540000Y-95891000D01*
X175528000Y-96040000D01*
X175540000Y-96189000D01*
X175575000Y-96334000D01*
X175632000Y-96472000D01*
X175710000Y-96600000D01*
X175807000Y-96713000D01*
X175920000Y-96810000D01*
X176048000Y-96888000D01*
X176186000Y-96945000D01*
X176331000Y-96980000D01*
X176480000Y-96992000D01*
X176980000Y-96992000D01*
X177129000Y-96980000D01*
X177274000Y-96945000D01*
X177412000Y-96888000D01*
X177540000Y-96810000D01*
X177653000Y-96713000D01*
X177750000Y-96600000D01*
X177828000Y-96472000D01*
X177885000Y-96334000D01*
X177920000Y-96189000D01*
X177932000Y-96040000D01*
X177920000Y-95891000D01*
X177885000Y-95746000D01*
X177828000Y-95608000D01*
X177750000Y-95480000D01*
X177653000Y-95367000D01*
X177540000Y-95270000D01*
X177412000Y-95192000D01*
X177274000Y-95135000D01*
X177129000Y-95100000D01*
X176980000Y-95088000D01*
X176480000Y-95088000D01*
G37*
G36*
X176480000Y-103288000D02*
G01*
X176331000Y-103300000D01*
X176186000Y-103335000D01*
X176048000Y-103392000D01*
X175920000Y-103470000D01*
X175807000Y-103567000D01*
X175710000Y-103680000D01*
X175632000Y-103808000D01*
X175575000Y-103946000D01*
X175540000Y-104091000D01*
X175528000Y-104240000D01*
X175540000Y-104389000D01*
X175575000Y-104534000D01*
X175632000Y-104672000D01*
X175710000Y-104800000D01*
X175807000Y-104913000D01*
X175920000Y-105010000D01*
X176048000Y-105088000D01*
X176186000Y-105145000D01*
X176331000Y-105180000D01*
X176480000Y-105192000D01*
X176980000Y-105192000D01*
X177129000Y-105180000D01*
X177274000Y-105145000D01*
X177412000Y-105088000D01*
X177540000Y-105010000D01*
X177653000Y-104913000D01*
X177750000Y-104800000D01*
X177828000Y-104672000D01*
X177885000Y-104534000D01*
X177920000Y-104389000D01*
X177932000Y-104240000D01*
X177920000Y-104091000D01*
X177885000Y-103946000D01*
X177828000Y-103808000D01*
X177750000Y-103680000D01*
X177653000Y-103567000D01*
X177540000Y-103470000D01*
X177412000Y-103392000D01*
X177274000Y-103335000D01*
X177129000Y-103300000D01*
X176980000Y-103288000D01*
X176480000Y-103288000D01*
G37*
G36*
X117544256Y-106035298D02*
G01*
X117650579Y-106056447D01*
X117951042Y-106180903D01*
X118221451Y-106361585D01*
X118451415Y-106591549D01*
X118632097Y-106861958D01*
X118756553Y-107162421D01*
X118820000Y-107481391D01*
X118820000Y-107806609D01*
X118756553Y-108125579D01*
X118632097Y-108426042D01*
X118451415Y-108696451D01*
X118221451Y-108926415D01*
X117951042Y-109107097D01*
X117650579Y-109231553D01*
X117544256Y-109252702D01*
X117331611Y-109295000D01*
X117006389Y-109295000D01*
X116793744Y-109252702D01*
X116687421Y-109231553D01*
X116386958Y-109107097D01*
X116116549Y-108926415D01*
X115886585Y-108696451D01*
X115705903Y-108426042D01*
X115581447Y-108125579D01*
X115518000Y-107806609D01*
X115518000Y-107481391D01*
X115581447Y-107162421D01*
X115705903Y-106861958D01*
X115886585Y-106591549D01*
X116116549Y-106361585D01*
X116386958Y-106180903D01*
X116687421Y-106056447D01*
X116793744Y-106035298D01*
X117006389Y-105993000D01*
X117331611Y-105993000D01*
X117544256Y-106035298D01*
X117544256Y-106035298D01*
G37*
G36*
X128195402Y-104017645D02*
G01*
X128292156Y-104036891D01*
X128367658Y-104068165D01*
X128474434Y-104112393D01*
X128474435Y-104112394D01*
X128638483Y-104222007D01*
X128777993Y-104361517D01*
X128777994Y-104361519D01*
X128887607Y-104525566D01*
X128931835Y-104632342D01*
X128956030Y-104690753D01*
X128963109Y-104707845D01*
X129001600Y-104901350D01*
X129001600Y-105098650D01*
X128963109Y-105292155D01*
X128887607Y-105474434D01*
X128887606Y-105474435D01*
X128777993Y-105638483D01*
X128638483Y-105777993D01*
X128555902Y-105833172D01*
X128474434Y-105887607D01*
X128367658Y-105931835D01*
X128292156Y-105963109D01*
X128195402Y-105982355D01*
X128098650Y-106001600D01*
X127901350Y-106001600D01*
X127804598Y-105982355D01*
X127707844Y-105963109D01*
X127632342Y-105931835D01*
X127525566Y-105887607D01*
X127444098Y-105833172D01*
X127361517Y-105777993D01*
X127222007Y-105638483D01*
X127112394Y-105474435D01*
X127112393Y-105474434D01*
X127036891Y-105292155D01*
X126998400Y-105098650D01*
X126998400Y-104901350D01*
X127036891Y-104707845D01*
X127043971Y-104690753D01*
X127068165Y-104632342D01*
X127112393Y-104525566D01*
X127222006Y-104361519D01*
X127222007Y-104361517D01*
X127361517Y-104222007D01*
X127525565Y-104112394D01*
X127525566Y-104112393D01*
X127632342Y-104068165D01*
X127707844Y-104036891D01*
X127804598Y-104017645D01*
X127901350Y-103998400D01*
X128098650Y-103998400D01*
X128195402Y-104017645D01*
X128195402Y-104017645D01*
G37*
G36*
X125195402Y-104017645D02*
G01*
X125292156Y-104036891D01*
X125367658Y-104068165D01*
X125474434Y-104112393D01*
X125474435Y-104112394D01*
X125638483Y-104222007D01*
X125777993Y-104361517D01*
X125777994Y-104361519D01*
X125887607Y-104525566D01*
X125931835Y-104632342D01*
X125956030Y-104690753D01*
X125963109Y-104707845D01*
X126001600Y-104901350D01*
X126001600Y-105098650D01*
X125963109Y-105292155D01*
X125887607Y-105474434D01*
X125887606Y-105474435D01*
X125777993Y-105638483D01*
X125638483Y-105777993D01*
X125555902Y-105833172D01*
X125474434Y-105887607D01*
X125367658Y-105931835D01*
X125292156Y-105963109D01*
X125195402Y-105982355D01*
X125098650Y-106001600D01*
X124901350Y-106001600D01*
X124804598Y-105982355D01*
X124707844Y-105963109D01*
X124632342Y-105931835D01*
X124525566Y-105887607D01*
X124444098Y-105833172D01*
X124361517Y-105777993D01*
X124222007Y-105638483D01*
X124112394Y-105474435D01*
X124112393Y-105474434D01*
X124036891Y-105292155D01*
X123998400Y-105098650D01*
X123998400Y-104901350D01*
X124036891Y-104707845D01*
X124043971Y-104690753D01*
X124068165Y-104632342D01*
X124112393Y-104525566D01*
X124222006Y-104361519D01*
X124222007Y-104361517D01*
X124361517Y-104222007D01*
X124525565Y-104112394D01*
X124525566Y-104112393D01*
X124632342Y-104068165D01*
X124707844Y-104036891D01*
X124804598Y-104017645D01*
X124901350Y-103998400D01*
X125098650Y-103998400D01*
X125195402Y-104017645D01*
X125195402Y-104017645D01*
G37*
G36*
X177007570Y-103324969D02*
G01*
X177180753Y-103396704D01*
X177336607Y-103500842D01*
X177469158Y-103633393D01*
X177573296Y-103789247D01*
X177645031Y-103962430D01*
X177681600Y-104146274D01*
X177681600Y-104333726D01*
X177645031Y-104517570D01*
X177573296Y-104690753D01*
X177469158Y-104846607D01*
X177336607Y-104979158D01*
X177180753Y-105083296D01*
X177007570Y-105155031D01*
X176823726Y-105191600D01*
X176636274Y-105191600D01*
X176452430Y-105155031D01*
X176279247Y-105083296D01*
X176123393Y-104979158D01*
X175990842Y-104846607D01*
X175886704Y-104690753D01*
X175814969Y-104517570D01*
X175778400Y-104333726D01*
X175778400Y-104146274D01*
X175814969Y-103962430D01*
X175886704Y-103789247D01*
X175990842Y-103633393D01*
X176123393Y-103500842D01*
X176279247Y-103396704D01*
X176452430Y-103324969D01*
X176636274Y-103288400D01*
X176823726Y-103288400D01*
X177007570Y-103324969D01*
X177007570Y-103324969D01*
G37*
G36*
X161061000Y-104501000D02*
G01*
X159959000Y-104501000D01*
X159959000Y-101599000D01*
X161061000Y-101599000D01*
X161061000Y-104501000D01*
X161061000Y-104501000D01*
G37*
G36*
X163621000Y-104501000D02*
G01*
X162519000Y-104501000D01*
X162519000Y-101599000D01*
X163621000Y-101599000D01*
X163621000Y-104501000D01*
X163621000Y-104501000D01*
G37*
G36*
X167621000Y-104501000D02*
G01*
X166519000Y-104501000D01*
X166519000Y-101599000D01*
X167621000Y-101599000D01*
X167621000Y-104501000D01*
X167621000Y-104501000D01*
G37*
G36*
X157061000Y-104501000D02*
G01*
X155959000Y-104501000D01*
X155959000Y-101599000D01*
X157061000Y-101599000D01*
X157061000Y-104501000D01*
X157061000Y-104501000D01*
G37*
G36*
X121074000Y-104495000D02*
G01*
X119972000Y-104495000D01*
X119972000Y-101593000D01*
X121074000Y-101593000D01*
X121074000Y-104495000D01*
X121074000Y-104495000D01*
G37*
G36*
X117074000Y-104495000D02*
G01*
X115972000Y-104495000D01*
X115972000Y-101593000D01*
X117074000Y-101593000D01*
X117074000Y-104495000D01*
X117074000Y-104495000D01*
G37*
G36*
X172861000Y-104251000D02*
G01*
X172089000Y-104251000D01*
X172089000Y-103149000D01*
X172861000Y-103149000D01*
X172861000Y-104251000D01*
X172861000Y-104251000D01*
G37*
G36*
X171111000Y-104251000D02*
G01*
X170339000Y-104251000D01*
X170339000Y-103149000D01*
X171111000Y-103149000D01*
X171111000Y-104251000D01*
X171111000Y-104251000D01*
G37*
G36*
X176949234Y-101417283D02*
G01*
X177086016Y-101473940D01*
X177209117Y-101556194D01*
X177313806Y-101660883D01*
X177396060Y-101783984D01*
X177452717Y-101920766D01*
X177481600Y-102065974D01*
X177481600Y-102214026D01*
X177452717Y-102359234D01*
X177396060Y-102496016D01*
X177313806Y-102619117D01*
X177209117Y-102723806D01*
X177086016Y-102806060D01*
X176949234Y-102862717D01*
X176804026Y-102891600D01*
X176655974Y-102891600D01*
X176510766Y-102862717D01*
X176373984Y-102806060D01*
X176250883Y-102723806D01*
X176146194Y-102619117D01*
X176063940Y-102496016D01*
X176007283Y-102359234D01*
X175978400Y-102214026D01*
X175978400Y-102065974D01*
X176007283Y-101920766D01*
X176063940Y-101783984D01*
X176146194Y-101660883D01*
X176250883Y-101556194D01*
X176373984Y-101473940D01*
X176510766Y-101417283D01*
X176655974Y-101388400D01*
X176804026Y-101388400D01*
X176949234Y-101417283D01*
X176949234Y-101417283D01*
G37*
G36*
X123495403Y-100417646D02*
G01*
X123592156Y-100436891D01*
X123667658Y-100468165D01*
X123774434Y-100512393D01*
X123774435Y-100512394D01*
X123938483Y-100622007D01*
X124077993Y-100761517D01*
X124107756Y-100806061D01*
X124187607Y-100925566D01*
X124231835Y-101032342D01*
X124263109Y-101107844D01*
X124301600Y-101301351D01*
X124301600Y-101498649D01*
X124269330Y-101660883D01*
X124263109Y-101692155D01*
X124187607Y-101874434D01*
X124156649Y-101920766D01*
X124077993Y-102038483D01*
X123938483Y-102177993D01*
X123855901Y-102233172D01*
X123774434Y-102287607D01*
X123667658Y-102331835D01*
X123592156Y-102363109D01*
X123495403Y-102382354D01*
X123398650Y-102401600D01*
X123201350Y-102401600D01*
X123104597Y-102382354D01*
X123007844Y-102363109D01*
X122932342Y-102331835D01*
X122825566Y-102287607D01*
X122744098Y-102233172D01*
X122661517Y-102177993D01*
X122522007Y-102038483D01*
X122443351Y-101920766D01*
X122412393Y-101874434D01*
X122336891Y-101692155D01*
X122330671Y-101660883D01*
X122298400Y-101498649D01*
X122298400Y-101301351D01*
X122336891Y-101107844D01*
X122368165Y-101032342D01*
X122412393Y-100925566D01*
X122492244Y-100806061D01*
X122522007Y-100761517D01*
X122661517Y-100622007D01*
X122825565Y-100512394D01*
X122825566Y-100512393D01*
X122932342Y-100468165D01*
X123007844Y-100436891D01*
X123104598Y-100417645D01*
X123201350Y-100398400D01*
X123398650Y-100398400D01*
X123495403Y-100417646D01*
X123495403Y-100417646D01*
G37*
G36*
X127890256Y-98506298D02*
G01*
X127996579Y-98527447D01*
X128297042Y-98651903D01*
X128567451Y-98832585D01*
X128797415Y-99062549D01*
X128978097Y-99332958D01*
X128978098Y-99332960D01*
X129001062Y-99388400D01*
X129102553Y-99633421D01*
X129108016Y-99660884D01*
X129166000Y-99952389D01*
X129166000Y-100277611D01*
X129149764Y-100359234D01*
X129102553Y-100596579D01*
X128978097Y-100897042D01*
X128797415Y-101167451D01*
X128567451Y-101397415D01*
X128297042Y-101578097D01*
X127996579Y-101702553D01*
X127890256Y-101723702D01*
X127677611Y-101766000D01*
X127352389Y-101766000D01*
X127139744Y-101723702D01*
X127033421Y-101702553D01*
X126732958Y-101578097D01*
X126462549Y-101397415D01*
X126232585Y-101167451D01*
X126051903Y-100897042D01*
X125927447Y-100596579D01*
X125880236Y-100359234D01*
X125864000Y-100277611D01*
X125864000Y-99952389D01*
X125921984Y-99660884D01*
X125927447Y-99633421D01*
X126028938Y-99388400D01*
X126051902Y-99332960D01*
X126051903Y-99332958D01*
X126232585Y-99062549D01*
X126462549Y-98832585D01*
X126732958Y-98651903D01*
X127033421Y-98527447D01*
X127139744Y-98506298D01*
X127352389Y-98464000D01*
X127677611Y-98464000D01*
X127890256Y-98506298D01*
X127890256Y-98506298D01*
G37*
G36*
X171291000Y-101095000D02*
G01*
X169389000Y-101095000D01*
X169389000Y-99193000D01*
X171291000Y-99193000D01*
X171291000Y-101095000D01*
X171291000Y-101095000D01*
G37*
G36*
X173831000Y-101095000D02*
G01*
X171929000Y-101095000D01*
X171929000Y-99193000D01*
X173831000Y-99193000D01*
X173831000Y-101095000D01*
X173831000Y-101095000D01*
G37*
G36*
X176949234Y-99417283D02*
G01*
X177086016Y-99473940D01*
X177209117Y-99556194D01*
X177313806Y-99660883D01*
X177396060Y-99783984D01*
X177452717Y-99920766D01*
X177481600Y-100065974D01*
X177481600Y-100214026D01*
X177452717Y-100359234D01*
X177396060Y-100496016D01*
X177313806Y-100619117D01*
X177209117Y-100723806D01*
X177086016Y-100806060D01*
X176949234Y-100862717D01*
X176804026Y-100891600D01*
X176655974Y-100891600D01*
X176510766Y-100862717D01*
X176373984Y-100806060D01*
X176250883Y-100723806D01*
X176146194Y-100619117D01*
X176063940Y-100496016D01*
X176007283Y-100359234D01*
X175978400Y-100214026D01*
X175978400Y-100065974D01*
X176007283Y-99920766D01*
X176063940Y-99783984D01*
X176146194Y-99660883D01*
X176250883Y-99556194D01*
X176373984Y-99473940D01*
X176510766Y-99417283D01*
X176655974Y-99388400D01*
X176804026Y-99388400D01*
X176949234Y-99417283D01*
X176949234Y-99417283D01*
G37*
G36*
X181895403Y-98717646D02*
G01*
X181992156Y-98736891D01*
X182067658Y-98768165D01*
X182174434Y-98812393D01*
X182174435Y-98812394D01*
X182338483Y-98922007D01*
X182477993Y-99061517D01*
X182478684Y-99062551D01*
X182587607Y-99225566D01*
X182631835Y-99332342D01*
X182663109Y-99407844D01*
X182664987Y-99417285D01*
X182701600Y-99601350D01*
X182701600Y-99798650D01*
X182663109Y-99992155D01*
X182587607Y-100174434D01*
X182587606Y-100174435D01*
X182477993Y-100338483D01*
X182338483Y-100477993D01*
X182286998Y-100512394D01*
X182174434Y-100587607D01*
X182067658Y-100631835D01*
X181992156Y-100663109D01*
X181895402Y-100682355D01*
X181798650Y-100701600D01*
X181601350Y-100701600D01*
X181504598Y-100682355D01*
X181407844Y-100663109D01*
X181332342Y-100631835D01*
X181225566Y-100587607D01*
X181113002Y-100512394D01*
X181061517Y-100477993D01*
X180922007Y-100338483D01*
X180812394Y-100174435D01*
X180812393Y-100174434D01*
X180736891Y-99992155D01*
X180698400Y-99798650D01*
X180698400Y-99601350D01*
X180735013Y-99417285D01*
X180736891Y-99407844D01*
X180768165Y-99332342D01*
X180812393Y-99225566D01*
X180921316Y-99062551D01*
X180922007Y-99061517D01*
X181061517Y-98922007D01*
X181225565Y-98812394D01*
X181225566Y-98812393D01*
X181332342Y-98768165D01*
X181407844Y-98736891D01*
X181504597Y-98717646D01*
X181601350Y-98698400D01*
X181798650Y-98698400D01*
X181895403Y-98717646D01*
X181895403Y-98717646D01*
G37*
G36*
X123440812Y-97920765D02*
G01*
X123572156Y-97946891D01*
X123647658Y-97978165D01*
X123754434Y-98022393D01*
X123754435Y-98022394D01*
X123918483Y-98132007D01*
X124057993Y-98271517D01*
X124057994Y-98271519D01*
X124167607Y-98435566D01*
X124192645Y-98496013D01*
X124243109Y-98617844D01*
X124249884Y-98651903D01*
X124281600Y-98811350D01*
X124281600Y-99008650D01*
X124270879Y-99062549D01*
X124243109Y-99202156D01*
X124233412Y-99225566D01*
X124167607Y-99384434D01*
X124113172Y-99465902D01*
X124057993Y-99548483D01*
X123918483Y-99687993D01*
X123835902Y-99743172D01*
X123754434Y-99797607D01*
X123647658Y-99841835D01*
X123572156Y-99873109D01*
X123475402Y-99892355D01*
X123378650Y-99911600D01*
X123181350Y-99911600D01*
X123084598Y-99892355D01*
X122987844Y-99873109D01*
X122912342Y-99841835D01*
X122805566Y-99797607D01*
X122724098Y-99743172D01*
X122641517Y-99687993D01*
X122502007Y-99548483D01*
X122446828Y-99465902D01*
X122392393Y-99384434D01*
X122326588Y-99225566D01*
X122316891Y-99202156D01*
X122289121Y-99062549D01*
X122278400Y-99008650D01*
X122278400Y-98811350D01*
X122310116Y-98651903D01*
X122316891Y-98617844D01*
X122367355Y-98496013D01*
X122392393Y-98435566D01*
X122502006Y-98271519D01*
X122502007Y-98271517D01*
X122641517Y-98132007D01*
X122805565Y-98022394D01*
X122805566Y-98022393D01*
X122912342Y-97978165D01*
X122987844Y-97946891D01*
X123119188Y-97920765D01*
X123181350Y-97908400D01*
X123378650Y-97908400D01*
X123440812Y-97920765D01*
X123440812Y-97920765D01*
G37*
G36*
X176949234Y-97417283D02*
G01*
X177086016Y-97473940D01*
X177209117Y-97556194D01*
X177313806Y-97660883D01*
X177396060Y-97783984D01*
X177452717Y-97920766D01*
X177481600Y-98065974D01*
X177481600Y-98214026D01*
X177452717Y-98359234D01*
X177396060Y-98496016D01*
X177313806Y-98619117D01*
X177209117Y-98723806D01*
X177086016Y-98806060D01*
X176949234Y-98862717D01*
X176804026Y-98891600D01*
X176655974Y-98891600D01*
X176510766Y-98862717D01*
X176373984Y-98806060D01*
X176250883Y-98723806D01*
X176146194Y-98619117D01*
X176063940Y-98496016D01*
X176007283Y-98359234D01*
X175978400Y-98214026D01*
X175978400Y-98065974D01*
X176007283Y-97920766D01*
X176063940Y-97783984D01*
X176146194Y-97660883D01*
X176250883Y-97556194D01*
X176373984Y-97473940D01*
X176510766Y-97417283D01*
X176655974Y-97388400D01*
X176804026Y-97388400D01*
X176949234Y-97417283D01*
X176949234Y-97417283D01*
G37*
G36*
X163621000Y-98701000D02*
G01*
X162519000Y-98701000D01*
X162519000Y-95799000D01*
X163621000Y-95799000D01*
X163621000Y-98701000D01*
X163621000Y-98701000D01*
G37*
G36*
X167621000Y-98701000D02*
G01*
X166519000Y-98701000D01*
X166519000Y-95799000D01*
X167621000Y-95799000D01*
X167621000Y-98701000D01*
X167621000Y-98701000D01*
G37*
G36*
X157061000Y-98701000D02*
G01*
X155959000Y-98701000D01*
X155959000Y-95799000D01*
X157061000Y-95799000D01*
X157061000Y-98701000D01*
X157061000Y-98701000D01*
G37*
G36*
X161061000Y-98701000D02*
G01*
X159959000Y-98701000D01*
X159959000Y-95799000D01*
X161061000Y-95799000D01*
X161061000Y-98701000D01*
X161061000Y-98701000D01*
G37*
G36*
X117074000Y-98695000D02*
G01*
X115972000Y-98695000D01*
X115972000Y-95793000D01*
X117074000Y-95793000D01*
X117074000Y-98695000D01*
X117074000Y-98695000D01*
G37*
G36*
X121074000Y-98695000D02*
G01*
X119972000Y-98695000D01*
X119972000Y-95793000D01*
X121074000Y-95793000D01*
X121074000Y-98695000D01*
X121074000Y-98695000D01*
G37*
G36*
X182344098Y-92747033D02*
G01*
X182808350Y-92939332D01*
X182808352Y-92939333D01*
X183226168Y-93218509D01*
X183581491Y-93573832D01*
X183663155Y-93696051D01*
X183860668Y-93991650D01*
X184052967Y-94455902D01*
X184151000Y-94948747D01*
X184151000Y-95451253D01*
X184052967Y-95944098D01*
X183898270Y-96317570D01*
X183860667Y-96408352D01*
X183581491Y-96826168D01*
X183226168Y-97181491D01*
X182808352Y-97460667D01*
X182808351Y-97460668D01*
X182808350Y-97460668D01*
X182344098Y-97652967D01*
X181851253Y-97751000D01*
X181348747Y-97751000D01*
X180855902Y-97652967D01*
X180391650Y-97460668D01*
X180391649Y-97460668D01*
X180391648Y-97460667D01*
X179973832Y-97181491D01*
X179618509Y-96826168D01*
X179339333Y-96408352D01*
X179301730Y-96317570D01*
X179147033Y-95944098D01*
X179049000Y-95451253D01*
X179049000Y-94948747D01*
X179147033Y-94455902D01*
X179339332Y-93991650D01*
X179536845Y-93696051D01*
X179618509Y-93573832D01*
X179973832Y-93218509D01*
X180391648Y-92939333D01*
X180391650Y-92939332D01*
X180855902Y-92747033D01*
X181348747Y-92649000D01*
X181851253Y-92649000D01*
X182344098Y-92747033D01*
X182344098Y-92747033D01*
G37*
G36*
X125344098Y-92547033D02*
G01*
X125808350Y-92739332D01*
X125808352Y-92739333D01*
X126226168Y-93018509D01*
X126581491Y-93373832D01*
X126796791Y-93696051D01*
X126860668Y-93791650D01*
X127052967Y-94255902D01*
X127151000Y-94748747D01*
X127151000Y-95251253D01*
X127052967Y-95744098D01*
X126970124Y-95944098D01*
X126860667Y-96208352D01*
X126581491Y-96626168D01*
X126226168Y-96981491D01*
X125808352Y-97260667D01*
X125808351Y-97260668D01*
X125808350Y-97260668D01*
X125344098Y-97452967D01*
X124851253Y-97551000D01*
X124348747Y-97551000D01*
X123855902Y-97452967D01*
X123391650Y-97260668D01*
X123391649Y-97260668D01*
X123391648Y-97260667D01*
X122973832Y-96981491D01*
X122618509Y-96626168D01*
X122339333Y-96208352D01*
X122229876Y-95944098D01*
X122147033Y-95744098D01*
X122049000Y-95251253D01*
X122049000Y-94748747D01*
X122147033Y-94255902D01*
X122339332Y-93791650D01*
X122403209Y-93696051D01*
X122618509Y-93373832D01*
X122973832Y-93018509D01*
X123391648Y-92739333D01*
X123391650Y-92739332D01*
X123855902Y-92547033D01*
X124348747Y-92449000D01*
X124851253Y-92449000D01*
X125344098Y-92547033D01*
X125344098Y-92547033D01*
G37*
G36*
X177007570Y-95124969D02*
G01*
X177180753Y-95196704D01*
X177336607Y-95300842D01*
X177469158Y-95433393D01*
X177573296Y-95589247D01*
X177645031Y-95762430D01*
X177681600Y-95946274D01*
X177681600Y-96133726D01*
X177645031Y-96317570D01*
X177573296Y-96490753D01*
X177469158Y-96646607D01*
X177336607Y-96779158D01*
X177180753Y-96883296D01*
X177007570Y-96955031D01*
X176823726Y-96991600D01*
X176636274Y-96991600D01*
X176452430Y-96955031D01*
X176279247Y-96883296D01*
X176123393Y-96779158D01*
X175990842Y-96646607D01*
X175886704Y-96490753D01*
X175814969Y-96317570D01*
X175778400Y-96133726D01*
X175778400Y-95946274D01*
X175814969Y-95762430D01*
X175886704Y-95589247D01*
X175990842Y-95433393D01*
X176123393Y-95300842D01*
X176279247Y-95196704D01*
X176452430Y-95124969D01*
X176636274Y-95088400D01*
X176823726Y-95088400D01*
X177007570Y-95124969D01*
X177007570Y-95124969D01*
G37*
G36*
X171684256Y-91034898D02*
G01*
X171790579Y-91056047D01*
X172091042Y-91180503D01*
X172361451Y-91361185D01*
X172591415Y-91591149D01*
X172591416Y-91591151D01*
X172772098Y-91861560D01*
X172896553Y-92162022D01*
X172960000Y-92480989D01*
X172960000Y-92806211D01*
X172896553Y-93125178D01*
X172793558Y-93373832D01*
X172772097Y-93425642D01*
X172591415Y-93696051D01*
X172361451Y-93926015D01*
X172091042Y-94106697D01*
X171790579Y-94231153D01*
X171684256Y-94252302D01*
X171471611Y-94294600D01*
X171146389Y-94294600D01*
X170933744Y-94252302D01*
X170827421Y-94231153D01*
X170526958Y-94106697D01*
X170256549Y-93926015D01*
X170026585Y-93696051D01*
X169845903Y-93425642D01*
X169824443Y-93373832D01*
X169721447Y-93125178D01*
X169658000Y-92806211D01*
X169658000Y-92480989D01*
X169721447Y-92162022D01*
X169845902Y-91861560D01*
X170026584Y-91591151D01*
X170026585Y-91591149D01*
X170256549Y-91361185D01*
X170526958Y-91180503D01*
X170827421Y-91056047D01*
X170933744Y-91034898D01*
X171146389Y-90992600D01*
X171471611Y-90992600D01*
X171684256Y-91034898D01*
X171684256Y-91034898D01*
G37*
G36*
X117544256Y-91034898D02*
G01*
X117650579Y-91056047D01*
X117951042Y-91180503D01*
X118221451Y-91361185D01*
X118451415Y-91591149D01*
X118451416Y-91591151D01*
X118632098Y-91861560D01*
X118756553Y-92162022D01*
X118820000Y-92480989D01*
X118820000Y-92806211D01*
X118756553Y-93125178D01*
X118653558Y-93373832D01*
X118632097Y-93425642D01*
X118451415Y-93696051D01*
X118221451Y-93926015D01*
X117951042Y-94106697D01*
X117650579Y-94231153D01*
X117544256Y-94252302D01*
X117331611Y-94294600D01*
X117006389Y-94294600D01*
X116793744Y-94252302D01*
X116687421Y-94231153D01*
X116386958Y-94106697D01*
X116116549Y-93926015D01*
X115886585Y-93696051D01*
X115705903Y-93425642D01*
X115684443Y-93373832D01*
X115581447Y-93125178D01*
X115518000Y-92806211D01*
X115518000Y-92480989D01*
X115581447Y-92162022D01*
X115705902Y-91861560D01*
X115886584Y-91591151D01*
X115886585Y-91591149D01*
X116116549Y-91361185D01*
X116386958Y-91180503D01*
X116687421Y-91056047D01*
X116793744Y-91034898D01*
X117006389Y-90992600D01*
X117331611Y-90992600D01*
X117544256Y-91034898D01*
X117544256Y-91034898D01*
G37*
M02*
