M48
; DRILL file {KiCad 5.1.0-unknown-9e240db~82~ubuntu18.04.1} date Thu 04 Apr 2019 12:18:24 AM CEST
; FORMAT={-:-/ absolute / metric / decimal}
; #@! TF.CreationDate,2019-04-04T00:18:24+02:00
; #@! TF.GenerationSoftware,Kicad,Pcbnew,5.1.0-unknown-9e240db~82~ubuntu18.04.1
; #@! TF.FileFunction,Plated,1,2,PTH
FMAT,2
METRIC
T1C0.300
T2C0.900
T3C1.100
T4C1.300
T5C1.700
T6C2.750
%
G90
G05
T1
X125.934Y-108.066
X157.04Y-105.915
X159.375Y-105.081
X161.644Y-108.298
X164.129Y-94.119
X164.3Y-103.301
X165.035Y-95.501
X165.585Y-103.029
X165.598Y-93.632
X165.96Y-95.35
X168.968Y-105.317
X169.187Y-96.334
X171.5Y-98.079
X175.223Y-97.258
X176.531Y-106.639
X179.481Y-109.492
X180.905Y-103.272
X182.11Y-102.851
T2
X170.34Y-100.144
X172.88Y-100.144
X176.73Y-98.14
X176.73Y-100.14
X176.73Y-102.14
T3
X123.3Y-101.4
X123.28Y-98.91
X181.7Y-99.7
X128.0Y-105.0
X125.0Y-105.0
T4
X176.73Y-96.04
X176.73Y-104.24
T5
X117.169Y-92.644
X117.169Y-107.644
X171.309Y-92.644
X127.515Y-100.115
T6
X181.6Y-95.2
X124.6Y-95.0
T0
M30
