M48
; DRILL file {KiCad 5.1.0-unknown-ff73f69~82~ubuntu18.04.1} date Mon 01 Apr 2019 01:27:19 AM CEST
; FORMAT={-:-/ absolute / metric / decimal}
; #@! TF.CreationDate,2019-04-01T01:27:19+02:00
; #@! TF.GenerationSoftware,Kicad,Pcbnew,5.1.0-unknown-ff73f69~82~ubuntu18.04.1
; #@! TF.FileFunction,Plated,1,2,PTH
FMAT,2
METRIC
T1C0.300
T2C0.900
T3C1.100
T4C1.300
T5C1.700
T6C2.750
%
G90
G05
T1
X157.129Y-105.214
X161.47Y-106.712
X161.92Y-102.673
X163.719Y-94.001
X164.193Y-96.759
X165.07Y-103.033
X165.557Y-96.358
X165.589Y-94.914
X165.78Y-97.268
X167.133Y-92.363
X167.77Y-106.053
X168.025Y-99.515
X169.847Y-104.749
X174.1Y-109.372
X175.038Y-97.278
X175.344Y-103.219
X177.365Y-106.565
X178.175Y-95.424
T2
X170.34Y-100.144
X172.88Y-100.144
X176.73Y-98.14
X176.73Y-100.14
X176.73Y-102.14
T3
X123.3Y-101.4
X181.7Y-99.7
X126.6Y-105.9
X123.8Y-105.9
X123.28Y-98.91
T4
X176.73Y-96.04
X176.73Y-104.24
T5
X117.169Y-107.644
X117.169Y-92.644
X171.309Y-92.644
X127.515Y-100.115
T6
X124.6Y-95.0
X181.6Y-95.2
T0
M30
