G04 #@! TF.GenerationSoftware,KiCad,Pcbnew,5.1.0-unknown-9e240db~82~ubuntu18.04.1*
G04 #@! TF.CreationDate,2019-04-04T00:18:26+02:00*
G04 #@! TF.ProjectId,Voltrove MIC1557 PWM,566f6c74-726f-4766-9520-4d4943313535,rev?*
G04 #@! TF.SameCoordinates,Original*
G04 #@! TF.FileFunction,Copper,L1,Top*
G04 #@! TF.FilePolarity,Positive*
%FSLAX46Y46*%
G04 Gerber Fmt 4.6, Leading zero omitted, Abs format (unit mm)*
G04 Created by KiCad (PCBNEW 5.1.0-unknown-9e240db~82~ubuntu18.04.1) date 2019-04-04 00:18:26*
%MOMM*%
%LPD*%
G04 APERTURE LIST*
%ADD10C,0.100000*%
%ADD11R,1.800000X1.800000*%
%ADD12C,1.300000*%
%ADD13C,1.700000*%
%ADD14C,3.200000*%
%ADD15C,5.000000*%
%ADD16R,1.000000X2.800000*%
%ADD17C,1.800000*%
%ADD18R,0.670000X1.000000*%
%ADD19C,0.600000*%
%ADD20C,0.400000*%
%ADD21C,0.600000*%
G04 APERTURE END LIST*
D10*
G36*
X176980000Y-98789000D02*
G01*
X177082000Y-98781000D01*
X177181000Y-98757000D01*
X177275000Y-98718000D01*
X177361000Y-98665000D01*
X177439000Y-98599000D01*
X177505000Y-98521000D01*
X177558000Y-98435000D01*
X177597000Y-98341000D01*
X177621000Y-98242000D01*
X177629000Y-98140000D01*
X177621000Y-98038000D01*
X177597000Y-97939000D01*
X177558000Y-97845000D01*
X177505000Y-97759000D01*
X177439000Y-97681000D01*
X177361000Y-97615000D01*
X177275000Y-97562000D01*
X177181000Y-97523000D01*
X177082000Y-97499000D01*
X176980000Y-97491000D01*
X176480000Y-97491000D01*
X176378000Y-97499000D01*
X176279000Y-97523000D01*
X176185000Y-97562000D01*
X176099000Y-97615000D01*
X176021000Y-97681000D01*
X175955000Y-97759000D01*
X175902000Y-97845000D01*
X175863000Y-97939000D01*
X175839000Y-98038000D01*
X175831000Y-98140000D01*
X175839000Y-98242000D01*
X175863000Y-98341000D01*
X175902000Y-98435000D01*
X175955000Y-98521000D01*
X176021000Y-98599000D01*
X176099000Y-98665000D01*
X176185000Y-98718000D01*
X176279000Y-98757000D01*
X176378000Y-98781000D01*
X176480000Y-98789000D01*
X176980000Y-98789000D01*
G37*
G36*
X176980000Y-100789000D02*
G01*
X177082000Y-100781000D01*
X177181000Y-100757000D01*
X177275000Y-100718000D01*
X177361000Y-100665000D01*
X177439000Y-100599000D01*
X177505000Y-100521000D01*
X177558000Y-100435000D01*
X177597000Y-100341000D01*
X177621000Y-100242000D01*
X177629000Y-100140000D01*
X177621000Y-100038000D01*
X177597000Y-99939000D01*
X177558000Y-99845000D01*
X177505000Y-99759000D01*
X177439000Y-99681000D01*
X177361000Y-99615000D01*
X177275000Y-99562000D01*
X177181000Y-99523000D01*
X177082000Y-99499000D01*
X176980000Y-99491000D01*
X176480000Y-99491000D01*
X176378000Y-99499000D01*
X176279000Y-99523000D01*
X176185000Y-99562000D01*
X176099000Y-99615000D01*
X176021000Y-99681000D01*
X175955000Y-99759000D01*
X175902000Y-99845000D01*
X175863000Y-99939000D01*
X175839000Y-100038000D01*
X175831000Y-100140000D01*
X175839000Y-100242000D01*
X175863000Y-100341000D01*
X175902000Y-100435000D01*
X175955000Y-100521000D01*
X176021000Y-100599000D01*
X176099000Y-100665000D01*
X176185000Y-100718000D01*
X176279000Y-100757000D01*
X176378000Y-100781000D01*
X176480000Y-100789000D01*
X176980000Y-100789000D01*
G37*
G36*
X176980000Y-102789000D02*
G01*
X177082000Y-102781000D01*
X177181000Y-102757000D01*
X177275000Y-102718000D01*
X177361000Y-102665000D01*
X177439000Y-102599000D01*
X177505000Y-102521000D01*
X177558000Y-102435000D01*
X177597000Y-102341000D01*
X177621000Y-102242000D01*
X177629000Y-102140000D01*
X177621000Y-102038000D01*
X177597000Y-101939000D01*
X177558000Y-101845000D01*
X177505000Y-101759000D01*
X177439000Y-101681000D01*
X177361000Y-101615000D01*
X177275000Y-101562000D01*
X177181000Y-101523000D01*
X177082000Y-101499000D01*
X176980000Y-101491000D01*
X176480000Y-101491000D01*
X176378000Y-101499000D01*
X176279000Y-101523000D01*
X176185000Y-101562000D01*
X176099000Y-101615000D01*
X176021000Y-101681000D01*
X175955000Y-101759000D01*
X175902000Y-101845000D01*
X175863000Y-101939000D01*
X175839000Y-102038000D01*
X175831000Y-102140000D01*
X175839000Y-102242000D01*
X175863000Y-102341000D01*
X175902000Y-102435000D01*
X175955000Y-102521000D01*
X176021000Y-102599000D01*
X176099000Y-102665000D01*
X176185000Y-102718000D01*
X176279000Y-102757000D01*
X176378000Y-102781000D01*
X176480000Y-102789000D01*
X176980000Y-102789000D01*
G37*
G36*
X176980000Y-96889000D02*
G01*
X177113000Y-96879000D01*
X177242000Y-96847000D01*
X177365000Y-96796000D01*
X177479000Y-96727000D01*
X177580000Y-96640000D01*
X177667000Y-96539000D01*
X177736000Y-96425000D01*
X177787000Y-96302000D01*
X177819000Y-96173000D01*
X177829000Y-96040000D01*
X177819000Y-95907000D01*
X177787000Y-95778000D01*
X177736000Y-95655000D01*
X177667000Y-95541000D01*
X177580000Y-95440000D01*
X177479000Y-95353000D01*
X177365000Y-95284000D01*
X177242000Y-95233000D01*
X177113000Y-95201000D01*
X176980000Y-95191000D01*
X176480000Y-95191000D01*
X176347000Y-95201000D01*
X176218000Y-95233000D01*
X176095000Y-95284000D01*
X175981000Y-95353000D01*
X175880000Y-95440000D01*
X175793000Y-95541000D01*
X175724000Y-95655000D01*
X175673000Y-95778000D01*
X175641000Y-95907000D01*
X175631000Y-96040000D01*
X175641000Y-96173000D01*
X175673000Y-96302000D01*
X175724000Y-96425000D01*
X175793000Y-96539000D01*
X175880000Y-96640000D01*
X175981000Y-96727000D01*
X176095000Y-96796000D01*
X176218000Y-96847000D01*
X176347000Y-96879000D01*
X176480000Y-96889000D01*
X176980000Y-96889000D01*
G37*
G36*
X176980000Y-105089000D02*
G01*
X177113000Y-105079000D01*
X177242000Y-105047000D01*
X177365000Y-104996000D01*
X177479000Y-104927000D01*
X177580000Y-104840000D01*
X177667000Y-104739000D01*
X177736000Y-104625000D01*
X177787000Y-104502000D01*
X177819000Y-104373000D01*
X177829000Y-104240000D01*
X177819000Y-104107000D01*
X177787000Y-103978000D01*
X177736000Y-103855000D01*
X177667000Y-103741000D01*
X177580000Y-103640000D01*
X177479000Y-103553000D01*
X177365000Y-103484000D01*
X177242000Y-103433000D01*
X177113000Y-103401000D01*
X176980000Y-103391000D01*
X176480000Y-103391000D01*
X176347000Y-103401000D01*
X176218000Y-103433000D01*
X176095000Y-103484000D01*
X175981000Y-103553000D01*
X175880000Y-103640000D01*
X175793000Y-103741000D01*
X175724000Y-103855000D01*
X175673000Y-103978000D01*
X175641000Y-104107000D01*
X175631000Y-104240000D01*
X175641000Y-104373000D01*
X175673000Y-104502000D01*
X175724000Y-104625000D01*
X175793000Y-104739000D01*
X175880000Y-104840000D01*
X175981000Y-104927000D01*
X176095000Y-104996000D01*
X176218000Y-105047000D01*
X176347000Y-105079000D01*
X176480000Y-105089000D01*
X176980000Y-105089000D01*
G37*
D11*
X170340000Y-100144000D03*
X172880000Y-100144000D03*
D12*
X176730000Y-98140000D03*
X176730000Y-100140000D03*
X176730000Y-102140000D03*
D13*
X176730000Y-96040000D03*
X176730000Y-104240000D03*
D14*
X127515000Y-100115000D03*
X171309000Y-92643600D03*
X117169000Y-107644000D03*
X117169000Y-92643600D03*
D15*
X181600000Y-95200000D03*
X124600000Y-95000000D03*
D16*
X120523000Y-97244000D03*
X120523000Y-103044000D03*
X116523000Y-97244000D03*
X116523000Y-103044000D03*
X160510000Y-97250000D03*
X160510000Y-103050000D03*
X156510000Y-97250000D03*
X156510000Y-103050000D03*
X167070000Y-97250000D03*
X167070000Y-103050000D03*
X163070000Y-97250000D03*
X163070000Y-103050000D03*
D17*
X181700000Y-99700000D03*
X123300000Y-101400000D03*
X123280000Y-98910000D03*
D18*
X170725000Y-103700000D03*
X172475000Y-103700000D03*
D17*
X125000000Y-105000000D03*
X128000000Y-105000000D03*
D19*
X165034600Y-95500900D03*
X171500000Y-98079400D03*
X176531500Y-106639200D03*
X168968400Y-105317100D03*
X164300000Y-103301500D03*
X165597800Y-93632200D03*
X182110400Y-102851000D03*
X161643800Y-108298300D03*
X125934306Y-108065692D03*
X180905500Y-103272400D03*
X159375000Y-105081200D03*
X165585000Y-103029500D03*
X164129091Y-94119291D03*
X179481400Y-109492200D03*
X165960300Y-95349700D03*
X157040500Y-105915300D03*
X169187300Y-96333800D03*
X175223000Y-97258000D03*
D20*
X167070000Y-97250000D02*
X166677700Y-97250000D01*
X166677700Y-97250000D02*
X165034700Y-95607000D01*
X165034700Y-95607000D02*
X165034700Y-95500900D01*
X165034700Y-95500900D02*
X165034600Y-95500900D01*
X167070000Y-103050000D02*
X167070000Y-97250000D01*
X168968400Y-105317100D02*
X170290500Y-106639200D01*
X170290500Y-106639200D02*
X176531500Y-106639200D01*
X168968400Y-105317100D02*
X168939600Y-105288300D01*
X168939600Y-105288300D02*
X168939600Y-98952800D01*
X168939600Y-98952800D02*
X169813000Y-98079400D01*
X169813000Y-98079400D02*
X171500000Y-98079400D01*
X161790000Y-99150300D02*
X160510000Y-99150300D01*
X163070000Y-99150300D02*
X161790000Y-99150300D01*
X161790000Y-101149700D02*
X160510000Y-101149700D01*
X163070000Y-101149700D02*
X161790000Y-101149700D01*
X161790000Y-99150300D02*
X161790000Y-101149700D01*
X160510000Y-103050000D02*
X160510000Y-101149700D01*
X163070000Y-103050000D02*
X163070000Y-101149700D01*
X164300000Y-103301500D02*
X164048500Y-103050000D01*
X164048500Y-103050000D02*
X163070000Y-103050000D01*
X160510000Y-97250000D02*
X160510000Y-99150300D01*
X163070000Y-97250000D02*
X163070000Y-99150300D01*
X156510000Y-97250000D02*
X156510000Y-95349700D01*
X156510000Y-95349700D02*
X158947500Y-92912200D01*
X158947500Y-92912200D02*
X164877800Y-92912200D01*
X164877800Y-92912200D02*
X165597800Y-93632200D01*
X156510000Y-103050000D02*
X156510000Y-97250000D01*
X122457600Y-104477900D02*
X121991200Y-104944300D01*
X121991200Y-104944300D02*
X120523000Y-104944300D01*
X123045700Y-99144300D02*
X124704800Y-100803400D01*
X124704800Y-100803400D02*
X124704800Y-102230700D01*
X124704800Y-102230700D02*
X122457600Y-104477900D01*
X120523000Y-103044000D02*
X120523000Y-104944300D01*
X123045700Y-99144300D02*
X120523000Y-99144300D01*
X123280000Y-98910000D02*
X123045700Y-99144300D01*
X120523000Y-97244000D02*
X120523000Y-99144300D01*
X124979700Y-107000000D02*
X122457600Y-104477900D01*
X126000000Y-107000000D02*
X124979700Y-107000000D01*
X153032886Y-108000000D02*
X127000000Y-108000000D01*
X153292186Y-107740700D02*
X153032886Y-108000000D01*
X176855700Y-107498000D02*
X161312400Y-107498000D01*
X177338700Y-106314600D02*
X177338700Y-107015000D01*
X176863000Y-105838900D02*
X177338700Y-106314600D01*
X173035800Y-105838900D02*
X176863000Y-105838900D01*
X161312400Y-107498000D02*
X161069700Y-107740700D01*
X171639600Y-104442700D02*
X173035800Y-105838900D01*
X127000000Y-108000000D02*
X126000000Y-107000000D01*
X161069700Y-107740700D02*
X153292186Y-107740700D01*
X172880000Y-100144000D02*
X172880000Y-101544300D01*
X177338700Y-107015000D02*
X176855700Y-107498000D01*
X171639600Y-102784700D02*
X171639600Y-104442700D01*
X172880000Y-101544300D02*
X171639600Y-102784700D01*
D21*
X172475000Y-103700000D02*
X173170000Y-103700000D01*
X173310300Y-103559700D02*
X176730000Y-100140000D01*
X173170000Y-103700000D02*
X173310300Y-103559700D01*
D20*
X170725000Y-103700000D02*
X170725000Y-102699700D01*
X170725000Y-102699700D02*
X170340000Y-102314700D01*
X170340000Y-102314700D02*
X170340000Y-100144000D01*
X182110400Y-102851000D02*
X181685500Y-102426100D01*
X181685500Y-102426100D02*
X180582000Y-102426100D01*
X180582000Y-102426100D02*
X179273400Y-103734700D01*
X179273400Y-103734700D02*
X179273400Y-106071200D01*
X179273400Y-106071200D02*
X177046300Y-108298300D01*
X177046300Y-108298300D02*
X161643800Y-108298300D01*
X126568639Y-108700025D02*
X126234305Y-108365691D01*
X153581451Y-108441400D02*
X153322826Y-108700025D01*
X126234305Y-108365691D02*
X125934306Y-108065692D01*
X161643800Y-108298300D02*
X161500700Y-108441400D01*
X153322826Y-108700025D02*
X126568639Y-108700025D01*
X161500700Y-108441400D02*
X153581451Y-108441400D01*
X118940000Y-101084900D02*
X118007000Y-101084900D01*
X118007000Y-101084900D02*
X116523000Y-102568900D01*
X123300000Y-101400000D02*
X122984900Y-101084900D01*
X122984900Y-101084900D02*
X118940000Y-101084900D01*
X116523000Y-103044000D02*
X116523000Y-102568900D01*
X116523000Y-97244000D02*
X116523000Y-103044000D01*
X180905500Y-103696664D02*
X180905500Y-103272400D01*
X116523000Y-102568900D02*
X123386867Y-109432767D01*
X153771116Y-109241700D02*
X177093200Y-109241700D01*
X180905500Y-105429400D02*
X180905500Y-103696664D01*
X123386867Y-109432767D02*
X153580049Y-109432767D01*
X153580049Y-109432767D02*
X153771116Y-109241700D01*
X177093200Y-109241700D02*
X180905500Y-105429400D01*
X165585000Y-103029500D02*
X165585000Y-103148800D01*
X165585000Y-103148800D02*
X163652600Y-105081200D01*
X163652600Y-105081200D02*
X159375000Y-105081200D01*
X164129091Y-94543555D02*
X164129091Y-94119291D01*
X164129091Y-101573591D02*
X164129091Y-94543555D01*
X165585000Y-103029500D02*
X164129091Y-101573591D01*
X165960300Y-95349700D02*
X175345100Y-95349700D01*
X175345100Y-95349700D02*
X176012300Y-94682500D01*
X176012300Y-94682500D02*
X177346800Y-94682500D01*
X177346800Y-94682500D02*
X178080400Y-95416100D01*
X178080400Y-95416100D02*
X178080400Y-98060600D01*
X178080400Y-98060600D02*
X181185100Y-101165300D01*
X181185100Y-101165300D02*
X181573300Y-101165300D01*
X181573300Y-101165300D02*
X182928700Y-102520700D01*
X182928700Y-102520700D02*
X182928700Y-106044900D01*
X182928700Y-106044900D02*
X179481400Y-109492200D01*
X169187300Y-96333800D02*
X169187300Y-96801400D01*
X169187300Y-96801400D02*
X169643900Y-97258000D01*
X169643900Y-97258000D02*
X168168000Y-98733900D01*
X168168000Y-98733900D02*
X168168000Y-104559500D01*
X168168000Y-104559500D02*
X166812200Y-105915300D01*
X166812200Y-105915300D02*
X157040500Y-105915300D01*
X169643900Y-97258000D02*
X175223000Y-97258000D01*
M02*
