G04 #@! TF.GenerationSoftware,KiCad,Pcbnew,5.1.0-unknown-ff73f69~82~ubuntu18.04.1*
G04 #@! TF.CreationDate,2019-04-01T01:27:23+02:00*
G04 #@! TF.ProjectId,Voltrove MIC1557 PWM,566f6c74-726f-4766-9520-4d4943313535,rev?*
G04 #@! TF.SameCoordinates,Original*
G04 #@! TF.FileFunction,Copper,L1,Top*
G04 #@! TF.FilePolarity,Positive*
%FSLAX46Y46*%
G04 Gerber Fmt 4.6, Leading zero omitted, Abs format (unit mm)*
G04 Created by KiCad (PCBNEW 5.1.0-unknown-ff73f69~82~ubuntu18.04.1) date 2019-04-01 01:27:23*
%MOMM*%
%LPD*%
G04 APERTURE LIST*
%ADD10C,0.100000*%
%ADD11R,1.800000X1.800000*%
%ADD12C,1.300000*%
%ADD13C,1.700000*%
%ADD14C,3.200000*%
%ADD15C,5.000000*%
%ADD16R,1.000000X2.800000*%
%ADD17C,1.800000*%
%ADD18R,0.670000X1.000000*%
%ADD19C,0.600000*%
%ADD20C,0.400000*%
G04 APERTURE END LIST*
D10*
G36*
X176980000Y-98789000D02*
G01*
X177082000Y-98781000D01*
X177181000Y-98757000D01*
X177275000Y-98718000D01*
X177361000Y-98665000D01*
X177439000Y-98599000D01*
X177505000Y-98521000D01*
X177558000Y-98435000D01*
X177597000Y-98341000D01*
X177621000Y-98242000D01*
X177629000Y-98140000D01*
X177621000Y-98038000D01*
X177597000Y-97939000D01*
X177558000Y-97845000D01*
X177505000Y-97759000D01*
X177439000Y-97681000D01*
X177361000Y-97615000D01*
X177275000Y-97562000D01*
X177181000Y-97523000D01*
X177082000Y-97499000D01*
X176980000Y-97491000D01*
X176480000Y-97491000D01*
X176378000Y-97499000D01*
X176279000Y-97523000D01*
X176185000Y-97562000D01*
X176099000Y-97615000D01*
X176021000Y-97681000D01*
X175955000Y-97759000D01*
X175902000Y-97845000D01*
X175863000Y-97939000D01*
X175839000Y-98038000D01*
X175831000Y-98140000D01*
X175839000Y-98242000D01*
X175863000Y-98341000D01*
X175902000Y-98435000D01*
X175955000Y-98521000D01*
X176021000Y-98599000D01*
X176099000Y-98665000D01*
X176185000Y-98718000D01*
X176279000Y-98757000D01*
X176378000Y-98781000D01*
X176480000Y-98789000D01*
X176980000Y-98789000D01*
G37*
G36*
X176980000Y-100789000D02*
G01*
X177082000Y-100781000D01*
X177181000Y-100757000D01*
X177275000Y-100718000D01*
X177361000Y-100665000D01*
X177439000Y-100599000D01*
X177505000Y-100521000D01*
X177558000Y-100435000D01*
X177597000Y-100341000D01*
X177621000Y-100242000D01*
X177629000Y-100140000D01*
X177621000Y-100038000D01*
X177597000Y-99939000D01*
X177558000Y-99845000D01*
X177505000Y-99759000D01*
X177439000Y-99681000D01*
X177361000Y-99615000D01*
X177275000Y-99562000D01*
X177181000Y-99523000D01*
X177082000Y-99499000D01*
X176980000Y-99491000D01*
X176480000Y-99491000D01*
X176378000Y-99499000D01*
X176279000Y-99523000D01*
X176185000Y-99562000D01*
X176099000Y-99615000D01*
X176021000Y-99681000D01*
X175955000Y-99759000D01*
X175902000Y-99845000D01*
X175863000Y-99939000D01*
X175839000Y-100038000D01*
X175831000Y-100140000D01*
X175839000Y-100242000D01*
X175863000Y-100341000D01*
X175902000Y-100435000D01*
X175955000Y-100521000D01*
X176021000Y-100599000D01*
X176099000Y-100665000D01*
X176185000Y-100718000D01*
X176279000Y-100757000D01*
X176378000Y-100781000D01*
X176480000Y-100789000D01*
X176980000Y-100789000D01*
G37*
G36*
X176980000Y-102789000D02*
G01*
X177082000Y-102781000D01*
X177181000Y-102757000D01*
X177275000Y-102718000D01*
X177361000Y-102665000D01*
X177439000Y-102599000D01*
X177505000Y-102521000D01*
X177558000Y-102435000D01*
X177597000Y-102341000D01*
X177621000Y-102242000D01*
X177629000Y-102140000D01*
X177621000Y-102038000D01*
X177597000Y-101939000D01*
X177558000Y-101845000D01*
X177505000Y-101759000D01*
X177439000Y-101681000D01*
X177361000Y-101615000D01*
X177275000Y-101562000D01*
X177181000Y-101523000D01*
X177082000Y-101499000D01*
X176980000Y-101491000D01*
X176480000Y-101491000D01*
X176378000Y-101499000D01*
X176279000Y-101523000D01*
X176185000Y-101562000D01*
X176099000Y-101615000D01*
X176021000Y-101681000D01*
X175955000Y-101759000D01*
X175902000Y-101845000D01*
X175863000Y-101939000D01*
X175839000Y-102038000D01*
X175831000Y-102140000D01*
X175839000Y-102242000D01*
X175863000Y-102341000D01*
X175902000Y-102435000D01*
X175955000Y-102521000D01*
X176021000Y-102599000D01*
X176099000Y-102665000D01*
X176185000Y-102718000D01*
X176279000Y-102757000D01*
X176378000Y-102781000D01*
X176480000Y-102789000D01*
X176980000Y-102789000D01*
G37*
G36*
X176980000Y-96889000D02*
G01*
X177113000Y-96879000D01*
X177242000Y-96847000D01*
X177365000Y-96796000D01*
X177479000Y-96727000D01*
X177580000Y-96640000D01*
X177667000Y-96539000D01*
X177736000Y-96425000D01*
X177787000Y-96302000D01*
X177819000Y-96173000D01*
X177829000Y-96040000D01*
X177819000Y-95907000D01*
X177787000Y-95778000D01*
X177736000Y-95655000D01*
X177667000Y-95541000D01*
X177580000Y-95440000D01*
X177479000Y-95353000D01*
X177365000Y-95284000D01*
X177242000Y-95233000D01*
X177113000Y-95201000D01*
X176980000Y-95191000D01*
X176480000Y-95191000D01*
X176347000Y-95201000D01*
X176218000Y-95233000D01*
X176095000Y-95284000D01*
X175981000Y-95353000D01*
X175880000Y-95440000D01*
X175793000Y-95541000D01*
X175724000Y-95655000D01*
X175673000Y-95778000D01*
X175641000Y-95907000D01*
X175631000Y-96040000D01*
X175641000Y-96173000D01*
X175673000Y-96302000D01*
X175724000Y-96425000D01*
X175793000Y-96539000D01*
X175880000Y-96640000D01*
X175981000Y-96727000D01*
X176095000Y-96796000D01*
X176218000Y-96847000D01*
X176347000Y-96879000D01*
X176480000Y-96889000D01*
X176980000Y-96889000D01*
G37*
G36*
X176980000Y-105089000D02*
G01*
X177113000Y-105079000D01*
X177242000Y-105047000D01*
X177365000Y-104996000D01*
X177479000Y-104927000D01*
X177580000Y-104840000D01*
X177667000Y-104739000D01*
X177736000Y-104625000D01*
X177787000Y-104502000D01*
X177819000Y-104373000D01*
X177829000Y-104240000D01*
X177819000Y-104107000D01*
X177787000Y-103978000D01*
X177736000Y-103855000D01*
X177667000Y-103741000D01*
X177580000Y-103640000D01*
X177479000Y-103553000D01*
X177365000Y-103484000D01*
X177242000Y-103433000D01*
X177113000Y-103401000D01*
X176980000Y-103391000D01*
X176480000Y-103391000D01*
X176347000Y-103401000D01*
X176218000Y-103433000D01*
X176095000Y-103484000D01*
X175981000Y-103553000D01*
X175880000Y-103640000D01*
X175793000Y-103741000D01*
X175724000Y-103855000D01*
X175673000Y-103978000D01*
X175641000Y-104107000D01*
X175631000Y-104240000D01*
X175641000Y-104373000D01*
X175673000Y-104502000D01*
X175724000Y-104625000D01*
X175793000Y-104739000D01*
X175880000Y-104840000D01*
X175981000Y-104927000D01*
X176095000Y-104996000D01*
X176218000Y-105047000D01*
X176347000Y-105079000D01*
X176480000Y-105089000D01*
X176980000Y-105089000D01*
G37*
D11*
X170340000Y-100144000D03*
X172880000Y-100144000D03*
D12*
X176730000Y-98140000D03*
X176730000Y-100140000D03*
X176730000Y-102140000D03*
D13*
X176730000Y-96040000D03*
X176730000Y-104240000D03*
D14*
X127515000Y-100115000D03*
X171309000Y-92643600D03*
X117169000Y-107644000D03*
X117169000Y-92643600D03*
D15*
X181600000Y-95200000D03*
X124600000Y-95000000D03*
D16*
X120523000Y-97244000D03*
X120523000Y-103044000D03*
X116523000Y-97244000D03*
X116523000Y-103044000D03*
X160510000Y-97250000D03*
X160510000Y-103050000D03*
X156510000Y-97250000D03*
X156510000Y-103050000D03*
X167070000Y-97250000D03*
X167070000Y-103050000D03*
X163070000Y-97250000D03*
X163070000Y-103050000D03*
D17*
X181700000Y-99700000D03*
X123300000Y-101400000D03*
X123280000Y-98910000D03*
D18*
X172475000Y-103700000D03*
X170725000Y-103700000D03*
D17*
X123800000Y-105900000D03*
X126600000Y-105900000D03*
D19*
X165557000Y-96358500D03*
X177364900Y-106564900D03*
X178175500Y-95424300D03*
X167769800Y-106053500D03*
X167133400Y-92362600D03*
X161469900Y-106711800D03*
X161919700Y-102672800D03*
X169847000Y-104749200D03*
X168025000Y-99515200D03*
X163718800Y-94001000D03*
X157128800Y-105213600D03*
X165069500Y-103032900D03*
X175344500Y-103219100D03*
X165779600Y-97267700D03*
X165589200Y-94914400D03*
X174099800Y-109372000D03*
X164193300Y-96759200D03*
X175037800Y-97278200D03*
D20*
X167070000Y-97250000D02*
X166178500Y-96358500D01*
X166178500Y-96358500D02*
X165557000Y-96358500D01*
X167070000Y-103050000D02*
X167070000Y-97250000D01*
X177364900Y-106334900D02*
X178175500Y-105524300D01*
X178175500Y-105524300D02*
X178175500Y-95424300D01*
X167769800Y-106053500D02*
X168051200Y-106334900D01*
X168051200Y-106334900D02*
X177364900Y-106334900D01*
X177364900Y-106564900D02*
X177364900Y-106334900D01*
X160510000Y-104950300D02*
X160510000Y-105751900D01*
X160510000Y-105751900D02*
X161469900Y-106711800D01*
X160510000Y-104950300D02*
X157696800Y-107763500D01*
X157696800Y-107763500D02*
X125663500Y-107763500D01*
X125663500Y-107763500D02*
X123800000Y-105900000D01*
X160510000Y-103050000D02*
X160510000Y-104950300D01*
X161919700Y-102672800D02*
X161542500Y-103050000D01*
X161542500Y-103050000D02*
X160510000Y-103050000D01*
X181600000Y-95200000D02*
X181016800Y-94616800D01*
X181016800Y-94616800D02*
X175506800Y-94616800D01*
X175506800Y-94616800D02*
X175379600Y-94744000D01*
X175379600Y-94744000D02*
X169514800Y-94744000D01*
X169514800Y-94744000D02*
X167133400Y-92362600D01*
X161919700Y-102672800D02*
X161919700Y-102547300D01*
X161919700Y-102547300D02*
X161985200Y-102481800D01*
X161985200Y-102481800D02*
X161985200Y-99150300D01*
X161985200Y-102481800D02*
X162539000Y-102481800D01*
X162539000Y-102481800D02*
X163070000Y-103012800D01*
X161985200Y-99150300D02*
X163070000Y-99150300D01*
X160510000Y-98200100D02*
X161460200Y-99150300D01*
X161460200Y-99150300D02*
X161985200Y-99150300D01*
X163070000Y-103050000D02*
X163070000Y-103012800D01*
X163070000Y-97250000D02*
X163070000Y-99150300D01*
X160510000Y-97250000D02*
X160510000Y-98200100D01*
X169871400Y-98026400D02*
X169400200Y-97555300D01*
X169400200Y-97555300D02*
X169400200Y-96970700D01*
X169400200Y-96970700D02*
X166543400Y-94113900D01*
X166543400Y-94113900D02*
X165553100Y-94113900D01*
X165553100Y-94113900D02*
X165427700Y-93988500D01*
X165427700Y-93988500D02*
X165152000Y-93988500D01*
X165152000Y-93988500D02*
X164390000Y-93226500D01*
X164390000Y-93226500D02*
X164280000Y-93226500D01*
X164280000Y-93226500D02*
X164254200Y-93200700D01*
X164254200Y-93200700D02*
X164144700Y-93200700D01*
X164144700Y-93200700D02*
X164074900Y-93130900D01*
X164074900Y-93130900D02*
X163579800Y-93130900D01*
X163579800Y-93130900D02*
X163579700Y-93130800D01*
X163579700Y-93130800D02*
X162589400Y-93130800D01*
X162589400Y-93130800D02*
X161889200Y-92430600D01*
X161889200Y-92430600D02*
X130019000Y-92430600D01*
X130019000Y-92430600D02*
X129697600Y-92752000D01*
X129697600Y-92752000D02*
X129697600Y-102802400D01*
X129697600Y-102802400D02*
X126600000Y-105900000D01*
X176730000Y-98140000D02*
X169984900Y-98140000D01*
X169984900Y-98140000D02*
X169871400Y-98026400D01*
X169871400Y-98026400D02*
X168382600Y-99515200D01*
X168382600Y-99515200D02*
X168382600Y-103284800D01*
X168382600Y-103284800D02*
X169847000Y-104749200D01*
X168382600Y-99515200D02*
X168025000Y-99515200D01*
X116523000Y-101143700D02*
X116523000Y-97244000D01*
X116523000Y-102093800D02*
X116523000Y-101143700D01*
X116523000Y-103044000D02*
X116523000Y-102093800D01*
X123300000Y-101400000D02*
X123043700Y-101143700D01*
X123043700Y-101143700D02*
X116523000Y-101143700D01*
X157128800Y-105213600D02*
X156015600Y-105213600D01*
X156015600Y-105213600D02*
X155509600Y-104707600D01*
X155509600Y-104707600D02*
X155509600Y-95640100D01*
X155509600Y-95640100D02*
X157148700Y-94001000D01*
X157148700Y-94001000D02*
X163718800Y-94001000D01*
X165489500Y-103032900D02*
X165489500Y-97557800D01*
X165489500Y-97557800D02*
X165779600Y-97267700D01*
X175344500Y-103219100D02*
X175344500Y-103437600D01*
X175344500Y-103437600D02*
X173200000Y-105582100D01*
X173200000Y-105582100D02*
X168430200Y-105582100D01*
X168430200Y-105582100D02*
X168101300Y-105253200D01*
X168101300Y-105253200D02*
X166610600Y-105253200D01*
X166610600Y-105253200D02*
X165489500Y-104132100D01*
X165489500Y-104132100D02*
X165489500Y-103032900D01*
X165489500Y-103032900D02*
X165069500Y-103032900D01*
X156510000Y-97250000D02*
X158845600Y-94914400D01*
X158845600Y-94914400D02*
X165589200Y-94914400D01*
X156510000Y-97250000D02*
X156510000Y-99150300D01*
X156510000Y-103050000D02*
X156510000Y-101149700D01*
X156510000Y-101149700D02*
X156510000Y-99150300D01*
X164193300Y-96759200D02*
X164193300Y-103888300D01*
X164193300Y-103888300D02*
X169677000Y-109372000D01*
X169677000Y-109372000D02*
X174099800Y-109372000D01*
X124203300Y-99747100D02*
X124117100Y-99747100D01*
X124117100Y-99747100D02*
X123280000Y-98910000D01*
X120523000Y-103044000D02*
X123682600Y-103044000D01*
X123682600Y-103044000D02*
X124704800Y-102021800D01*
X124704800Y-102021800D02*
X124704800Y-100248600D01*
X124704800Y-100248600D02*
X124203300Y-99747100D01*
X175037800Y-97278200D02*
X170804700Y-97278200D01*
X170804700Y-97278200D02*
X165247000Y-91720500D01*
X165247000Y-91720500D02*
X129711300Y-91720500D01*
X129711300Y-91720500D02*
X128546500Y-92885300D01*
X128546500Y-92885300D02*
X128546500Y-95403900D01*
X128546500Y-95403900D02*
X124203300Y-99747100D01*
X123280000Y-98910000D02*
X123045700Y-99144300D01*
X123045700Y-99144300D02*
X120523000Y-99144300D01*
X120523000Y-97244000D02*
X120523000Y-99144300D01*
X172475000Y-103700000D02*
X172475000Y-102699700D01*
X170340000Y-100144000D02*
X170340000Y-101544300D01*
X172475000Y-102699700D02*
X171495400Y-102699700D01*
X171495400Y-102699700D02*
X170340000Y-101544300D01*
X170725000Y-103700000D02*
X171560300Y-103700000D01*
X171560300Y-103700000D02*
X171560300Y-104339500D01*
X171560300Y-104339500D02*
X171921200Y-104700400D01*
X171921200Y-104700400D02*
X173020800Y-104700400D01*
X173020800Y-104700400D02*
X174004400Y-103716800D01*
X174004400Y-103716800D02*
X174004400Y-102865600D01*
X174004400Y-102865600D02*
X176730000Y-100140000D01*
M02*
