G04 #@! TF.GenerationSoftware,KiCad,Pcbnew,5.1.0-unknown-9e240db~82~ubuntu18.04.1*
G04 #@! TF.CreationDate,2019-04-05T08:38:07+02:00*
G04 #@! TF.ProjectId,Voltrove MIC1557 PWM,566f6c74-726f-4766-9520-4d4943313535,rev?*
G04 #@! TF.SameCoordinates,Original*
G04 #@! TF.FileFunction,Paste,Bot*
G04 #@! TF.FilePolarity,Positive*
%FSLAX46Y46*%
G04 Gerber Fmt 4.6, Leading zero omitted, Abs format (unit mm)*
G04 Created by KiCad (PCBNEW 5.1.0-unknown-9e240db~82~ubuntu18.04.1) date 2019-04-05 08:38:07*
%MOMM*%
%LPD*%
G04 APERTURE LIST*
%ADD10R,1.000000X0.670000*%
%ADD11R,1.000000X1.000000*%
%ADD12R,1.120000X1.720000*%
%ADD13R,1.525000X0.650000*%
%ADD14R,2.200000X1.500000*%
%ADD15R,2.200000X3.800000*%
%ADD16R,0.620000X0.575000*%
%ADD17R,0.700000X1.150000*%
%ADD18R,4.200000X3.100000*%
%ADD19R,4.700000X1.500000*%
%ADD20R,0.600000X1.200000*%
G04 APERTURE END LIST*
D10*
X168900000Y-103975000D03*
X168900000Y-102225000D03*
X170800000Y-103975000D03*
X170800000Y-102225000D03*
X172600000Y-102225000D03*
X172600000Y-103975000D03*
X174400000Y-102225000D03*
X174400000Y-103975000D03*
D11*
X160150000Y-96000000D03*
X158250000Y-96000000D03*
X158250000Y-93600000D03*
X160150000Y-93600000D03*
D12*
X122725000Y-95100000D03*
X126875000Y-95100000D03*
D13*
X162488000Y-98305000D03*
X162488000Y-97035000D03*
X162488000Y-95765000D03*
X162488000Y-94495000D03*
X167912000Y-94495000D03*
X167912000Y-95765000D03*
X167912000Y-97035000D03*
X167912000Y-98305000D03*
D14*
X159350000Y-101500000D03*
X159350000Y-103800000D03*
X159350000Y-106100000D03*
D15*
X165650000Y-103800000D03*
D16*
X154650000Y-104612000D03*
X156550000Y-104612000D03*
X155600000Y-106988000D03*
D17*
X183405000Y-102675000D03*
X182135000Y-102675000D03*
X180865000Y-102675000D03*
X179595000Y-102675000D03*
D18*
X181500000Y-99500000D03*
D19*
X181500000Y-97200000D03*
D10*
X168400000Y-108275000D03*
X168400000Y-106525000D03*
X170800000Y-106525000D03*
X170800000Y-108275000D03*
X173100000Y-108275000D03*
X173100000Y-106525000D03*
X175400000Y-106525000D03*
X175400000Y-108275000D03*
D20*
X156350000Y-96050000D03*
X155400000Y-96050000D03*
X154450000Y-96050000D03*
X154450000Y-93550000D03*
X156350000Y-93550000D03*
M02*
