G04 #@! TF.GenerationSoftware,KiCad,Pcbnew,5.1.0-unknown-9e240db~82~ubuntu18.04.1*
G04 #@! TF.CreationDate,2019-04-04T00:18:26+02:00*
G04 #@! TF.ProjectId,Voltrove MIC1557 PWM,566f6c74-726f-4766-9520-4d4943313535,rev?*
G04 #@! TF.SameCoordinates,Original*
G04 #@! TF.FileFunction,Copper,L2,Bot*
G04 #@! TF.FilePolarity,Positive*
%FSLAX46Y46*%
G04 Gerber Fmt 4.6, Leading zero omitted, Abs format (unit mm)*
G04 Created by KiCad (PCBNEW 5.1.0-unknown-9e240db~82~ubuntu18.04.1) date 2019-04-04 00:18:26*
%MOMM*%
%LPD*%
G04 APERTURE LIST*
%ADD10C,0.100000*%
%ADD11R,1.800000X1.800000*%
%ADD12C,1.300000*%
%ADD13C,1.700000*%
%ADD14C,3.200000*%
%ADD15R,1.000000X0.670000*%
%ADD16R,1.000000X1.000000*%
%ADD17R,1.120000X1.720000*%
%ADD18R,1.525000X0.650000*%
%ADD19R,1.500000X2.200000*%
%ADD20R,3.800000X2.200000*%
%ADD21C,5.000000*%
%ADD22R,0.620000X0.575000*%
%ADD23R,1.150000X0.700000*%
%ADD24R,3.100000X4.200000*%
%ADD25R,1.500000X4.700000*%
%ADD26R,1.200000X0.600000*%
%ADD27C,1.800000*%
%ADD28C,0.600000*%
%ADD29C,0.400000*%
%ADD30C,0.600000*%
%ADD31C,1.000000*%
G04 APERTURE END LIST*
D10*
G36*
X176980000Y-98789000D02*
G01*
X177082000Y-98781000D01*
X177181000Y-98757000D01*
X177275000Y-98718000D01*
X177361000Y-98665000D01*
X177439000Y-98599000D01*
X177505000Y-98521000D01*
X177558000Y-98435000D01*
X177597000Y-98341000D01*
X177621000Y-98242000D01*
X177629000Y-98140000D01*
X177621000Y-98038000D01*
X177597000Y-97939000D01*
X177558000Y-97845000D01*
X177505000Y-97759000D01*
X177439000Y-97681000D01*
X177361000Y-97615000D01*
X177275000Y-97562000D01*
X177181000Y-97523000D01*
X177082000Y-97499000D01*
X176980000Y-97491000D01*
X176480000Y-97491000D01*
X176378000Y-97499000D01*
X176279000Y-97523000D01*
X176185000Y-97562000D01*
X176099000Y-97615000D01*
X176021000Y-97681000D01*
X175955000Y-97759000D01*
X175902000Y-97845000D01*
X175863000Y-97939000D01*
X175839000Y-98038000D01*
X175831000Y-98140000D01*
X175839000Y-98242000D01*
X175863000Y-98341000D01*
X175902000Y-98435000D01*
X175955000Y-98521000D01*
X176021000Y-98599000D01*
X176099000Y-98665000D01*
X176185000Y-98718000D01*
X176279000Y-98757000D01*
X176378000Y-98781000D01*
X176480000Y-98789000D01*
X176980000Y-98789000D01*
G37*
G36*
X176980000Y-100789000D02*
G01*
X177082000Y-100781000D01*
X177181000Y-100757000D01*
X177275000Y-100718000D01*
X177361000Y-100665000D01*
X177439000Y-100599000D01*
X177505000Y-100521000D01*
X177558000Y-100435000D01*
X177597000Y-100341000D01*
X177621000Y-100242000D01*
X177629000Y-100140000D01*
X177621000Y-100038000D01*
X177597000Y-99939000D01*
X177558000Y-99845000D01*
X177505000Y-99759000D01*
X177439000Y-99681000D01*
X177361000Y-99615000D01*
X177275000Y-99562000D01*
X177181000Y-99523000D01*
X177082000Y-99499000D01*
X176980000Y-99491000D01*
X176480000Y-99491000D01*
X176378000Y-99499000D01*
X176279000Y-99523000D01*
X176185000Y-99562000D01*
X176099000Y-99615000D01*
X176021000Y-99681000D01*
X175955000Y-99759000D01*
X175902000Y-99845000D01*
X175863000Y-99939000D01*
X175839000Y-100038000D01*
X175831000Y-100140000D01*
X175839000Y-100242000D01*
X175863000Y-100341000D01*
X175902000Y-100435000D01*
X175955000Y-100521000D01*
X176021000Y-100599000D01*
X176099000Y-100665000D01*
X176185000Y-100718000D01*
X176279000Y-100757000D01*
X176378000Y-100781000D01*
X176480000Y-100789000D01*
X176980000Y-100789000D01*
G37*
G36*
X176980000Y-102789000D02*
G01*
X177082000Y-102781000D01*
X177181000Y-102757000D01*
X177275000Y-102718000D01*
X177361000Y-102665000D01*
X177439000Y-102599000D01*
X177505000Y-102521000D01*
X177558000Y-102435000D01*
X177597000Y-102341000D01*
X177621000Y-102242000D01*
X177629000Y-102140000D01*
X177621000Y-102038000D01*
X177597000Y-101939000D01*
X177558000Y-101845000D01*
X177505000Y-101759000D01*
X177439000Y-101681000D01*
X177361000Y-101615000D01*
X177275000Y-101562000D01*
X177181000Y-101523000D01*
X177082000Y-101499000D01*
X176980000Y-101491000D01*
X176480000Y-101491000D01*
X176378000Y-101499000D01*
X176279000Y-101523000D01*
X176185000Y-101562000D01*
X176099000Y-101615000D01*
X176021000Y-101681000D01*
X175955000Y-101759000D01*
X175902000Y-101845000D01*
X175863000Y-101939000D01*
X175839000Y-102038000D01*
X175831000Y-102140000D01*
X175839000Y-102242000D01*
X175863000Y-102341000D01*
X175902000Y-102435000D01*
X175955000Y-102521000D01*
X176021000Y-102599000D01*
X176099000Y-102665000D01*
X176185000Y-102718000D01*
X176279000Y-102757000D01*
X176378000Y-102781000D01*
X176480000Y-102789000D01*
X176980000Y-102789000D01*
G37*
G36*
X176980000Y-96889000D02*
G01*
X177113000Y-96879000D01*
X177242000Y-96847000D01*
X177365000Y-96796000D01*
X177479000Y-96727000D01*
X177580000Y-96640000D01*
X177667000Y-96539000D01*
X177736000Y-96425000D01*
X177787000Y-96302000D01*
X177819000Y-96173000D01*
X177829000Y-96040000D01*
X177819000Y-95907000D01*
X177787000Y-95778000D01*
X177736000Y-95655000D01*
X177667000Y-95541000D01*
X177580000Y-95440000D01*
X177479000Y-95353000D01*
X177365000Y-95284000D01*
X177242000Y-95233000D01*
X177113000Y-95201000D01*
X176980000Y-95191000D01*
X176480000Y-95191000D01*
X176347000Y-95201000D01*
X176218000Y-95233000D01*
X176095000Y-95284000D01*
X175981000Y-95353000D01*
X175880000Y-95440000D01*
X175793000Y-95541000D01*
X175724000Y-95655000D01*
X175673000Y-95778000D01*
X175641000Y-95907000D01*
X175631000Y-96040000D01*
X175641000Y-96173000D01*
X175673000Y-96302000D01*
X175724000Y-96425000D01*
X175793000Y-96539000D01*
X175880000Y-96640000D01*
X175981000Y-96727000D01*
X176095000Y-96796000D01*
X176218000Y-96847000D01*
X176347000Y-96879000D01*
X176480000Y-96889000D01*
X176980000Y-96889000D01*
G37*
G36*
X176980000Y-105089000D02*
G01*
X177113000Y-105079000D01*
X177242000Y-105047000D01*
X177365000Y-104996000D01*
X177479000Y-104927000D01*
X177580000Y-104840000D01*
X177667000Y-104739000D01*
X177736000Y-104625000D01*
X177787000Y-104502000D01*
X177819000Y-104373000D01*
X177829000Y-104240000D01*
X177819000Y-104107000D01*
X177787000Y-103978000D01*
X177736000Y-103855000D01*
X177667000Y-103741000D01*
X177580000Y-103640000D01*
X177479000Y-103553000D01*
X177365000Y-103484000D01*
X177242000Y-103433000D01*
X177113000Y-103401000D01*
X176980000Y-103391000D01*
X176480000Y-103391000D01*
X176347000Y-103401000D01*
X176218000Y-103433000D01*
X176095000Y-103484000D01*
X175981000Y-103553000D01*
X175880000Y-103640000D01*
X175793000Y-103741000D01*
X175724000Y-103855000D01*
X175673000Y-103978000D01*
X175641000Y-104107000D01*
X175631000Y-104240000D01*
X175641000Y-104373000D01*
X175673000Y-104502000D01*
X175724000Y-104625000D01*
X175793000Y-104739000D01*
X175880000Y-104840000D01*
X175981000Y-104927000D01*
X176095000Y-104996000D01*
X176218000Y-105047000D01*
X176347000Y-105079000D01*
X176480000Y-105089000D01*
X176980000Y-105089000D01*
G37*
D11*
X170340000Y-100144000D03*
X172880000Y-100144000D03*
D12*
X176730000Y-98140000D03*
X176730000Y-100140000D03*
X176730000Y-102140000D03*
D13*
X176730000Y-96040000D03*
X176730000Y-104240000D03*
D14*
X127515000Y-100115000D03*
X171309000Y-92643600D03*
X117169000Y-107644000D03*
X117169000Y-92643600D03*
D15*
X168900000Y-103975000D03*
X168900000Y-102225000D03*
X170800000Y-103975000D03*
X170800000Y-102225000D03*
X172600000Y-102225000D03*
X172600000Y-103975000D03*
X174400000Y-102225000D03*
X174400000Y-103975000D03*
D16*
X170300000Y-98050000D03*
X170300000Y-96150000D03*
X172700000Y-96150000D03*
X172700000Y-98050000D03*
D17*
X155225000Y-106600000D03*
X159375000Y-106600000D03*
D18*
X167812000Y-93395000D03*
X167812000Y-94665000D03*
X167812000Y-95935000D03*
X167812000Y-97205000D03*
X162388000Y-97205000D03*
X162388000Y-95935000D03*
X162388000Y-94665000D03*
X162388000Y-93395000D03*
D19*
X166600000Y-100450000D03*
X164300000Y-100450000D03*
X162000000Y-100450000D03*
D20*
X164300000Y-106750000D03*
D21*
X181600000Y-95200000D03*
X124600000Y-95000000D03*
D22*
X180350000Y-101812000D03*
X182250000Y-101812000D03*
X181300000Y-104188000D03*
D23*
X160025000Y-93295000D03*
X160025000Y-94565000D03*
X160025000Y-95835000D03*
X160025000Y-97105000D03*
D24*
X156850000Y-95200000D03*
D25*
X154550000Y-95200000D03*
D15*
X168400000Y-108275000D03*
X168400000Y-106525000D03*
X170800000Y-106525000D03*
X170800000Y-108275000D03*
X173100000Y-108275000D03*
X173100000Y-106525000D03*
X175400000Y-106525000D03*
X175400000Y-108275000D03*
D26*
X179450000Y-107850000D03*
X179450000Y-106900000D03*
X179450000Y-105950000D03*
X181950000Y-105950000D03*
X181950000Y-107850000D03*
D27*
X181700000Y-99700000D03*
X123300000Y-101400000D03*
X123280000Y-98910000D03*
X125000000Y-105000000D03*
X128000000Y-105000000D03*
D28*
X165034600Y-95500900D03*
X171500000Y-98079400D03*
X176531500Y-106639200D03*
X168968400Y-105317100D03*
X164300000Y-103301500D03*
X165597800Y-93632200D03*
X182110400Y-102851000D03*
X161643800Y-108298300D03*
X125934306Y-108065692D03*
X180905500Y-103272400D03*
X159375000Y-105081200D03*
X165585000Y-103029500D03*
X164129091Y-94119291D03*
X179481400Y-109492200D03*
X165960300Y-95349700D03*
X157040500Y-105915300D03*
X169187300Y-96333800D03*
X175223000Y-97258000D03*
D29*
X165034600Y-95500900D02*
X164326696Y-95500900D01*
X164326696Y-95500900D02*
X163490796Y-94665000D01*
X163490796Y-94665000D02*
X162388000Y-94665000D01*
X179450000Y-107850000D02*
X177742300Y-107850000D01*
X177742300Y-107850000D02*
X176531500Y-106639200D01*
X171500000Y-98079400D02*
X171500000Y-97350000D01*
X171500000Y-97350000D02*
X170300000Y-96150000D01*
X171500000Y-98079400D02*
X171670300Y-98079400D01*
X171670300Y-98079400D02*
X171699700Y-98050000D01*
X172700000Y-98050000D02*
X171699700Y-98050000D01*
X168900000Y-103975000D02*
X168900000Y-105248700D01*
X168900000Y-105248700D02*
X168968400Y-105317100D01*
X170800000Y-102225000D02*
X169799700Y-102225000D01*
X164300000Y-98849700D02*
X167649200Y-98849700D01*
X167649200Y-98849700D02*
X168900000Y-100100500D01*
X168900000Y-100100500D02*
X168900000Y-102225000D01*
X164300000Y-100450000D02*
X164300000Y-103301500D01*
X164300000Y-106525000D02*
X164300000Y-103301500D01*
X159487400Y-95835000D02*
X158900400Y-96422000D01*
X158900400Y-96422000D02*
X158900400Y-100774200D01*
X158900400Y-100774200D02*
X153831500Y-105843100D01*
X153831500Y-105843100D02*
X153831500Y-107101300D01*
X153831500Y-107101300D02*
X153208900Y-107723900D01*
X153208900Y-107723900D02*
X127723900Y-107723900D01*
X127723900Y-107723900D02*
X125000000Y-105000000D01*
X180550300Y-106751400D02*
X180550300Y-105203500D01*
X180550300Y-105203500D02*
X180105200Y-104758400D01*
X180105200Y-104758400D02*
X180105200Y-102844600D01*
X180105200Y-102844600D02*
X180350000Y-102599800D01*
X164300000Y-106525000D02*
X164300000Y-106750000D01*
X164300000Y-106525000D02*
X167399700Y-106525000D01*
X168400000Y-106525000D02*
X167399700Y-106525000D01*
X160025000Y-95835000D02*
X159487400Y-95835000D01*
X164300000Y-99024800D02*
X164300000Y-98849700D01*
X164300000Y-100450000D02*
X164300000Y-99024800D01*
X162388000Y-97205000D02*
X161125200Y-97205000D01*
X160025000Y-95835000D02*
X161100300Y-95835000D01*
X161100300Y-95835000D02*
X161100300Y-97180100D01*
X161100300Y-97180100D02*
X161125200Y-97205000D01*
X180550300Y-106751400D02*
X180550300Y-106900000D01*
X180550300Y-106751400D02*
X182786900Y-106751400D01*
X182786900Y-106751400D02*
X183184400Y-106353900D01*
X183184400Y-106353900D02*
X183184400Y-96784400D01*
X183184400Y-96784400D02*
X181600000Y-95200000D01*
X179450000Y-106900000D02*
X180550300Y-106900000D01*
X174400000Y-102225000D02*
X173600300Y-102225000D01*
X172600000Y-102225000D02*
X173600300Y-102225000D01*
X181062500Y-94662500D02*
X181600000Y-95200000D01*
X172600000Y-102225000D02*
X170800000Y-102225000D01*
X162388000Y-97205000D02*
X163650800Y-97205000D01*
X163650800Y-97205000D02*
X163650800Y-98200500D01*
X163650800Y-98200500D02*
X164300000Y-98849700D01*
X180350000Y-101812000D02*
X180350000Y-102599800D01*
X160025000Y-93295000D02*
X159705000Y-93295000D01*
D30*
X160025000Y-93295000D02*
X160025000Y-95835000D01*
D29*
X168900000Y-102225000D02*
X169799700Y-102225000D01*
X176197700Y-94662500D02*
X181062500Y-94662500D01*
X174400000Y-102225000D02*
X174400000Y-96460200D01*
X174400000Y-96460200D02*
X176197700Y-94662500D01*
X166630600Y-94665000D02*
X165597800Y-93632200D01*
X167812000Y-94665000D02*
X166630600Y-94665000D01*
D31*
X156850000Y-95200000D02*
X156850000Y-92599700D01*
X156850000Y-92599700D02*
X156586500Y-92336200D01*
X127263800Y-92336200D02*
X124600000Y-95000000D01*
X127600000Y-92000000D02*
X127263800Y-92336200D01*
X156586500Y-92336200D02*
X156250300Y-92000000D01*
X156250300Y-92000000D02*
X127600000Y-92000000D01*
D29*
X168400000Y-108935100D02*
X168577600Y-109112700D01*
X168577600Y-109112700D02*
X171520000Y-109112700D01*
X171520000Y-109112700D02*
X172099700Y-108533000D01*
X172099700Y-108533000D02*
X172099700Y-106525000D01*
X173100000Y-106525000D02*
X172099700Y-106525000D01*
X160025000Y-97105000D02*
X160025000Y-103769300D01*
X160025000Y-103769300D02*
X160843500Y-104587800D01*
X160843500Y-104587800D02*
X160843500Y-108629700D01*
X160843500Y-108629700D02*
X161324000Y-109110200D01*
X161324000Y-109110200D02*
X168224900Y-109110200D01*
X168224900Y-109110200D02*
X168400000Y-108935100D01*
X168400000Y-108275000D02*
X168400000Y-108935100D01*
D30*
X181700000Y-99700000D02*
X180140000Y-98140000D01*
X180140000Y-98140000D02*
X176730000Y-98140000D01*
D29*
X182250000Y-101812000D02*
X182250000Y-102599800D01*
X182110400Y-102851000D02*
X182110400Y-105789600D01*
X182110400Y-105789600D02*
X181950000Y-105950000D01*
X182250000Y-102599800D02*
X182110400Y-102739400D01*
X182110400Y-102739400D02*
X182110400Y-102851000D01*
X169768800Y-107439700D02*
X169768800Y-105841500D01*
X169768800Y-105841500D02*
X170800000Y-104810300D01*
X161889900Y-108128500D02*
X161889900Y-102160400D01*
X161889900Y-102160400D02*
X162000000Y-102050300D01*
X169768800Y-107439700D02*
X167360500Y-107439700D01*
X167360500Y-107439700D02*
X166390400Y-108409800D01*
X166390400Y-108409800D02*
X162171200Y-108409800D01*
X162171200Y-108409800D02*
X161889900Y-108128500D01*
X161643800Y-108298300D02*
X161720100Y-108298300D01*
X161720100Y-108298300D02*
X161889900Y-108128500D01*
X169768800Y-107439700D02*
X170800000Y-107439700D01*
X170800000Y-103975000D02*
X170800000Y-104810300D01*
X170800000Y-108275000D02*
X170800000Y-107439700D01*
X162000000Y-100450000D02*
X162000000Y-102050300D01*
X125634307Y-107765693D02*
X125934306Y-108065692D01*
X128000000Y-105000000D02*
X126570000Y-103570000D01*
X123577000Y-104398200D02*
X123577000Y-105708386D01*
X124405200Y-103570000D02*
X123577000Y-104398200D01*
X123577000Y-105708386D02*
X125634307Y-107765693D01*
X126570000Y-103570000D02*
X124405200Y-103570000D01*
X181300000Y-103400200D02*
X181033300Y-103400200D01*
X181033300Y-103400200D02*
X180905500Y-103272400D01*
X181300000Y-104188000D02*
X181300000Y-103400200D01*
X179450000Y-105950000D02*
X178349700Y-105950000D01*
X178349700Y-105950000D02*
X178089300Y-105689600D01*
X178089300Y-105689600D02*
X171635400Y-105689600D01*
X171635400Y-105689600D02*
X170800000Y-106525000D01*
X159375000Y-106600000D02*
X159375000Y-105081200D01*
X165585000Y-103029500D02*
X165620800Y-103029500D01*
X165620800Y-103029500D02*
X166600000Y-102050300D01*
X172600000Y-103975000D02*
X172600000Y-103139700D01*
X166600000Y-100450000D02*
X166600000Y-102050300D01*
X166600000Y-102050300D02*
X167689400Y-103139700D01*
X167689400Y-103139700D02*
X172600000Y-103139700D01*
X164129091Y-93973591D02*
X164129091Y-94119291D01*
X163550500Y-93395000D02*
X164129091Y-93973591D01*
X162388000Y-93395000D02*
X163550500Y-93395000D01*
X167812000Y-97205000D02*
X169074800Y-97205000D01*
X170300000Y-98050000D02*
X169299700Y-98050000D01*
X169074800Y-97205000D02*
X169074800Y-97825100D01*
X169074800Y-97825100D02*
X169299700Y-98050000D01*
X172700000Y-96150000D02*
X172700000Y-95250000D01*
X172700000Y-95250000D02*
X172450000Y-95000000D01*
X168974500Y-93395000D02*
X167812000Y-93395000D01*
X170579500Y-95000000D02*
X168974500Y-93395000D01*
X172450000Y-95000000D02*
X170579500Y-95000000D01*
X162388000Y-95935000D02*
X163650800Y-95935000D01*
X163650800Y-95935000D02*
X164063000Y-96347200D01*
X164063000Y-96347200D02*
X165406200Y-96347200D01*
X165406200Y-96347200D02*
X165960300Y-95793100D01*
X165960300Y-95793100D02*
X165960300Y-95349700D01*
X175400000Y-108275000D02*
X175400000Y-109110300D01*
X179481400Y-109492200D02*
X175781900Y-109492200D01*
X175781900Y-109492200D02*
X175400000Y-109110300D01*
X155225000Y-106600000D02*
X156285300Y-106600000D01*
X157040500Y-105915300D02*
X156970000Y-105915300D01*
X156970000Y-105915300D02*
X156285300Y-106600000D01*
X167812000Y-95935000D02*
X168974500Y-95935000D01*
X169187300Y-96147800D02*
X169187300Y-96333800D01*
X168974500Y-95935000D02*
X169187300Y-96147800D01*
X174400000Y-103139700D02*
X175039500Y-103139700D01*
X174400000Y-103975000D02*
X174400000Y-103139700D01*
X175039500Y-103139700D02*
X175436100Y-102743100D01*
X175436100Y-102743100D02*
X175436100Y-97471100D01*
X175436100Y-97471100D02*
X175223000Y-97258000D01*
X173100000Y-108275000D02*
X173100000Y-107439700D01*
X175400000Y-106525000D02*
X174399700Y-106525000D01*
X174399700Y-106525000D02*
X174399700Y-106778300D01*
X174399700Y-106778300D02*
X173738300Y-107439700D01*
X173738300Y-107439700D02*
X173100000Y-107439700D01*
X176120700Y-107360300D02*
X175400000Y-107360300D01*
X180274500Y-108650400D02*
X177410800Y-108650400D01*
X180849700Y-107850000D02*
X180849700Y-108075200D01*
X177410800Y-108650400D02*
X176120700Y-107360300D01*
X180849700Y-108075200D02*
X180274500Y-108650400D01*
X181950000Y-107850000D02*
X180849700Y-107850000D01*
X175400000Y-106525000D02*
X175400000Y-107360300D01*
M02*
