M48
; DRILL file {KiCad 5.1.0-unknown-9e240db~82~ubuntu18.04.1} date Fri 05 Apr 2019 08:38:06 AM CEST
; FORMAT={-:-/ absolute / metric / decimal}
; #@! TF.CreationDate,2019-04-05T08:38:06+02:00
; #@! TF.GenerationSoftware,Kicad,Pcbnew,5.1.0-unknown-9e240db~82~ubuntu18.04.1
; #@! TF.FileFunction,Plated,1,2,PTH
FMAT,2
METRIC
T1C0.300
T2C0.900
T3C1.100
T4C1.300
T5C1.700
T6C2.750
%
G90
G05
T1
X154.525Y-97.675
X155.541Y-94.8
X157.753Y-98.2
X158.986Y-97.447
X159.35Y-100.017
X159.615Y-92.106
X161.006Y-105.05
X163.524Y-105.05
X165.575Y-101.236
X165.779Y-95.365
X165.969Y-97.099
X166.64Y-99.875
X167.517Y-105.358
X169.828Y-94.744
X171.962Y-105.425
X173.947Y-107.427
X174.707Y-98.99
X178.08Y-103.516
X178.08Y-106.223
T2
X170.34Y-100.144
X172.88Y-100.144
X176.73Y-98.14
X176.73Y-100.14
X176.73Y-102.14
T3
X122.98Y-98.91
X122.8Y-105.7
X123.0Y-101.4
X173.1Y-96.5
X125.5Y-105.7
T4
X176.73Y-96.04
X176.73Y-104.24
T5
X171.309Y-92.644
X117.169Y-107.644
X117.169Y-92.644
X127.515Y-100.115
T6
X181.4Y-93.3
X181.4Y-107.0
T0
M30
