G04 #@! TF.GenerationSoftware,KiCad,Pcbnew,5.1.0-unknown-9e240db~82~ubuntu18.04.1*
G04 #@! TF.CreationDate,2019-04-05T08:38:07+02:00*
G04 #@! TF.ProjectId,Voltrove MIC1557 PWM,566f6c74-726f-4766-9520-4d4943313535,rev?*
G04 #@! TF.SameCoordinates,Original*
G04 #@! TF.FileFunction,Copper,L1,Top*
G04 #@! TF.FilePolarity,Positive*
%FSLAX46Y46*%
G04 Gerber Fmt 4.6, Leading zero omitted, Abs format (unit mm)*
G04 Created by KiCad (PCBNEW 5.1.0-unknown-9e240db~82~ubuntu18.04.1) date 2019-04-05 08:38:07*
%MOMM*%
%LPD*%
G04 APERTURE LIST*
%ADD10C,0.100000*%
%ADD11C,3.200000*%
%ADD12R,1.800000X1.800000*%
%ADD13C,1.300000*%
%ADD14C,1.700000*%
%ADD15C,5.000000*%
%ADD16R,1.000000X2.800000*%
%ADD17C,1.800000*%
%ADD18R,0.670000X1.000000*%
%ADD19C,0.600000*%
%ADD20C,0.400000*%
%ADD21C,0.500000*%
G04 APERTURE END LIST*
D10*
G36*
X176980000Y-98789000D02*
G01*
X177082000Y-98781000D01*
X177181000Y-98757000D01*
X177275000Y-98718000D01*
X177361000Y-98665000D01*
X177439000Y-98599000D01*
X177505000Y-98521000D01*
X177558000Y-98435000D01*
X177597000Y-98341000D01*
X177621000Y-98242000D01*
X177629000Y-98140000D01*
X177621000Y-98038000D01*
X177597000Y-97939000D01*
X177558000Y-97845000D01*
X177505000Y-97759000D01*
X177439000Y-97681000D01*
X177361000Y-97615000D01*
X177275000Y-97562000D01*
X177181000Y-97523000D01*
X177082000Y-97499000D01*
X176980000Y-97491000D01*
X176480000Y-97491000D01*
X176378000Y-97499000D01*
X176279000Y-97523000D01*
X176185000Y-97562000D01*
X176099000Y-97615000D01*
X176021000Y-97681000D01*
X175955000Y-97759000D01*
X175902000Y-97845000D01*
X175863000Y-97939000D01*
X175839000Y-98038000D01*
X175831000Y-98140000D01*
X175839000Y-98242000D01*
X175863000Y-98341000D01*
X175902000Y-98435000D01*
X175955000Y-98521000D01*
X176021000Y-98599000D01*
X176099000Y-98665000D01*
X176185000Y-98718000D01*
X176279000Y-98757000D01*
X176378000Y-98781000D01*
X176480000Y-98789000D01*
X176980000Y-98789000D01*
G37*
G36*
X176980000Y-100789000D02*
G01*
X177082000Y-100781000D01*
X177181000Y-100757000D01*
X177275000Y-100718000D01*
X177361000Y-100665000D01*
X177439000Y-100599000D01*
X177505000Y-100521000D01*
X177558000Y-100435000D01*
X177597000Y-100341000D01*
X177621000Y-100242000D01*
X177629000Y-100140000D01*
X177621000Y-100038000D01*
X177597000Y-99939000D01*
X177558000Y-99845000D01*
X177505000Y-99759000D01*
X177439000Y-99681000D01*
X177361000Y-99615000D01*
X177275000Y-99562000D01*
X177181000Y-99523000D01*
X177082000Y-99499000D01*
X176980000Y-99491000D01*
X176480000Y-99491000D01*
X176378000Y-99499000D01*
X176279000Y-99523000D01*
X176185000Y-99562000D01*
X176099000Y-99615000D01*
X176021000Y-99681000D01*
X175955000Y-99759000D01*
X175902000Y-99845000D01*
X175863000Y-99939000D01*
X175839000Y-100038000D01*
X175831000Y-100140000D01*
X175839000Y-100242000D01*
X175863000Y-100341000D01*
X175902000Y-100435000D01*
X175955000Y-100521000D01*
X176021000Y-100599000D01*
X176099000Y-100665000D01*
X176185000Y-100718000D01*
X176279000Y-100757000D01*
X176378000Y-100781000D01*
X176480000Y-100789000D01*
X176980000Y-100789000D01*
G37*
G36*
X176980000Y-102789000D02*
G01*
X177082000Y-102781000D01*
X177181000Y-102757000D01*
X177275000Y-102718000D01*
X177361000Y-102665000D01*
X177439000Y-102599000D01*
X177505000Y-102521000D01*
X177558000Y-102435000D01*
X177597000Y-102341000D01*
X177621000Y-102242000D01*
X177629000Y-102140000D01*
X177621000Y-102038000D01*
X177597000Y-101939000D01*
X177558000Y-101845000D01*
X177505000Y-101759000D01*
X177439000Y-101681000D01*
X177361000Y-101615000D01*
X177275000Y-101562000D01*
X177181000Y-101523000D01*
X177082000Y-101499000D01*
X176980000Y-101491000D01*
X176480000Y-101491000D01*
X176378000Y-101499000D01*
X176279000Y-101523000D01*
X176185000Y-101562000D01*
X176099000Y-101615000D01*
X176021000Y-101681000D01*
X175955000Y-101759000D01*
X175902000Y-101845000D01*
X175863000Y-101939000D01*
X175839000Y-102038000D01*
X175831000Y-102140000D01*
X175839000Y-102242000D01*
X175863000Y-102341000D01*
X175902000Y-102435000D01*
X175955000Y-102521000D01*
X176021000Y-102599000D01*
X176099000Y-102665000D01*
X176185000Y-102718000D01*
X176279000Y-102757000D01*
X176378000Y-102781000D01*
X176480000Y-102789000D01*
X176980000Y-102789000D01*
G37*
G36*
X176980000Y-96889000D02*
G01*
X177113000Y-96879000D01*
X177242000Y-96847000D01*
X177365000Y-96796000D01*
X177479000Y-96727000D01*
X177580000Y-96640000D01*
X177667000Y-96539000D01*
X177736000Y-96425000D01*
X177787000Y-96302000D01*
X177819000Y-96173000D01*
X177829000Y-96040000D01*
X177819000Y-95907000D01*
X177787000Y-95778000D01*
X177736000Y-95655000D01*
X177667000Y-95541000D01*
X177580000Y-95440000D01*
X177479000Y-95353000D01*
X177365000Y-95284000D01*
X177242000Y-95233000D01*
X177113000Y-95201000D01*
X176980000Y-95191000D01*
X176480000Y-95191000D01*
X176347000Y-95201000D01*
X176218000Y-95233000D01*
X176095000Y-95284000D01*
X175981000Y-95353000D01*
X175880000Y-95440000D01*
X175793000Y-95541000D01*
X175724000Y-95655000D01*
X175673000Y-95778000D01*
X175641000Y-95907000D01*
X175631000Y-96040000D01*
X175641000Y-96173000D01*
X175673000Y-96302000D01*
X175724000Y-96425000D01*
X175793000Y-96539000D01*
X175880000Y-96640000D01*
X175981000Y-96727000D01*
X176095000Y-96796000D01*
X176218000Y-96847000D01*
X176347000Y-96879000D01*
X176480000Y-96889000D01*
X176980000Y-96889000D01*
G37*
G36*
X176980000Y-105089000D02*
G01*
X177113000Y-105079000D01*
X177242000Y-105047000D01*
X177365000Y-104996000D01*
X177479000Y-104927000D01*
X177580000Y-104840000D01*
X177667000Y-104739000D01*
X177736000Y-104625000D01*
X177787000Y-104502000D01*
X177819000Y-104373000D01*
X177829000Y-104240000D01*
X177819000Y-104107000D01*
X177787000Y-103978000D01*
X177736000Y-103855000D01*
X177667000Y-103741000D01*
X177580000Y-103640000D01*
X177479000Y-103553000D01*
X177365000Y-103484000D01*
X177242000Y-103433000D01*
X177113000Y-103401000D01*
X176980000Y-103391000D01*
X176480000Y-103391000D01*
X176347000Y-103401000D01*
X176218000Y-103433000D01*
X176095000Y-103484000D01*
X175981000Y-103553000D01*
X175880000Y-103640000D01*
X175793000Y-103741000D01*
X175724000Y-103855000D01*
X175673000Y-103978000D01*
X175641000Y-104107000D01*
X175631000Y-104240000D01*
X175641000Y-104373000D01*
X175673000Y-104502000D01*
X175724000Y-104625000D01*
X175793000Y-104739000D01*
X175880000Y-104840000D01*
X175981000Y-104927000D01*
X176095000Y-104996000D01*
X176218000Y-105047000D01*
X176347000Y-105079000D01*
X176480000Y-105089000D01*
X176980000Y-105089000D01*
G37*
D11*
X127515000Y-100115000D03*
D12*
X170340000Y-100144000D03*
X172880000Y-100144000D03*
D13*
X176730000Y-98140000D03*
X176730000Y-100140000D03*
X176730000Y-102140000D03*
D14*
X176730000Y-96040000D03*
X176730000Y-104240000D03*
D11*
X171309000Y-92643600D03*
X117169000Y-107644000D03*
X117169000Y-92643600D03*
D15*
X181400000Y-107000000D03*
X181400000Y-93300000D03*
D16*
X120523000Y-97244000D03*
X120523000Y-103044000D03*
X116523000Y-97244000D03*
X116523000Y-103044000D03*
X160510000Y-97250000D03*
X160510000Y-103050000D03*
X156510000Y-97250000D03*
X156510000Y-103050000D03*
X167070000Y-97250000D03*
X167070000Y-103050000D03*
X163070000Y-97250000D03*
X163070000Y-103050000D03*
D17*
X173100000Y-96500000D03*
X123000000Y-101400000D03*
X122980000Y-98910000D03*
D18*
X170725000Y-103700000D03*
X172475000Y-103700000D03*
D17*
X122800000Y-105700000D03*
X125500000Y-105700000D03*
D19*
X165969200Y-97099300D03*
X159350500Y-100016900D03*
X167516900Y-105358100D03*
X158986100Y-97447500D03*
X163523800Y-105050500D03*
X155540600Y-94800000D03*
X161006100Y-105050500D03*
X166639900Y-99874800D03*
X165778700Y-95365500D03*
X165574700Y-101235700D03*
X157753300Y-98200100D03*
X171961500Y-105424900D03*
X154524800Y-97675400D03*
X178080400Y-106222600D03*
X178080400Y-103516500D03*
X169827600Y-94744000D03*
X174707300Y-98990000D03*
X173947500Y-107427500D03*
X159615400Y-92105600D03*
D20*
X167070000Y-98200100D02*
X165969200Y-97099300D01*
X167070000Y-98200100D02*
X167070000Y-99150300D01*
X167070000Y-97250000D02*
X167070000Y-98200100D01*
X167070000Y-103050000D02*
X167070000Y-101149700D01*
X167070000Y-101149700D02*
X167446000Y-100773700D01*
X167446000Y-100773700D02*
X167446000Y-99526300D01*
X167446000Y-99526300D02*
X167070000Y-99150300D01*
X159350500Y-100016900D02*
X162720400Y-100016900D01*
X162720400Y-100016900D02*
X166069700Y-103366200D01*
X166069700Y-103366200D02*
X166069700Y-104657300D01*
X166069700Y-104657300D02*
X166770500Y-105358100D01*
X166770500Y-105358100D02*
X167516900Y-105358100D01*
X158986100Y-97447500D02*
X158986100Y-99652500D01*
X158986100Y-99652500D02*
X159350500Y-100016900D01*
X163070000Y-103050000D02*
X163523800Y-103503800D01*
X163523800Y-103503800D02*
X163523800Y-105050500D01*
X161006100Y-105050500D02*
X165241000Y-109285400D01*
X165241000Y-109285400D02*
X179950000Y-109285400D01*
X163070000Y-96299800D02*
X163070000Y-95349700D01*
X163070000Y-97250000D02*
X163070000Y-96299800D01*
X160510000Y-96299800D02*
X160510000Y-95349700D01*
X160510000Y-97250000D02*
X160510000Y-96299800D01*
X163070000Y-96299800D02*
X160510000Y-96299800D01*
X160510000Y-95349700D02*
X156090300Y-95349700D01*
X156090300Y-95349700D02*
X155540600Y-94800000D01*
X160510000Y-104950300D02*
X160610200Y-105050500D01*
X160610200Y-105050500D02*
X161006100Y-105050500D01*
X122800000Y-105700000D02*
X124863500Y-107763500D01*
X124863500Y-107763500D02*
X157696800Y-107763500D01*
X157696800Y-107763500D02*
X160510000Y-104950300D01*
X165574700Y-101235700D02*
X165574700Y-100423500D01*
X160510000Y-103050000D02*
X160510000Y-104950300D01*
X163070000Y-95349700D02*
X165762900Y-95349700D01*
X165762900Y-95349700D02*
X165778700Y-95365500D01*
X165574700Y-100423500D02*
X164301500Y-99150300D01*
X164301500Y-99150300D02*
X163070000Y-99150300D01*
X165574700Y-100423500D02*
X166091200Y-100423500D01*
X166091200Y-100423500D02*
X166639900Y-99874800D01*
X163070000Y-97250000D02*
X163070000Y-99150300D01*
X156510000Y-101149700D02*
X156510000Y-99150300D01*
X156510000Y-98200100D02*
X157753300Y-98200100D01*
X156510000Y-98200100D02*
X156510000Y-99150300D01*
X156510000Y-97250000D02*
X156510000Y-98200100D01*
X156510000Y-103050000D02*
X156510000Y-101149700D01*
X172880000Y-100144000D02*
X172880000Y-98743700D01*
X122980000Y-98910000D02*
X130592400Y-91297600D01*
X130592400Y-91297600D02*
X164723600Y-91297600D01*
X164723600Y-91297600D02*
X172169700Y-98743700D01*
X172169700Y-98743700D02*
X172880000Y-98743700D01*
X122745700Y-99144300D02*
X122980000Y-98910000D01*
X122745700Y-99144300D02*
X120523000Y-99144300D01*
X120523000Y-103044000D02*
X123369700Y-103044000D01*
X123369700Y-103044000D02*
X124415100Y-101998600D01*
X124415100Y-101998600D02*
X124415100Y-100813700D01*
X124415100Y-100813700D02*
X122745700Y-99144300D01*
X120523000Y-97244000D02*
X120523000Y-99144300D01*
X173170000Y-103700000D02*
X176730000Y-100140000D01*
X172475000Y-103700000D02*
X173170000Y-103700000D01*
X170725000Y-103700000D02*
X170725000Y-102699700D01*
X170725000Y-102699700D02*
X170340000Y-102314700D01*
X170340000Y-102314700D02*
X170340000Y-100144000D01*
X116523000Y-101143700D02*
X116523000Y-97244000D01*
X116523000Y-102093800D02*
X116523000Y-101143700D01*
X116523000Y-103044000D02*
X116523000Y-102093800D01*
X123000000Y-101400000D02*
X122743700Y-101143700D01*
X122743700Y-101143700D02*
X116523000Y-101143700D01*
X154524800Y-97675400D02*
X154524800Y-103715200D01*
X154524800Y-103715200D02*
X155760000Y-104950400D01*
X155760000Y-104950400D02*
X157217200Y-104950400D01*
X157217200Y-104950400D02*
X159349800Y-102817800D01*
X159349800Y-102817800D02*
X159349800Y-101548100D01*
X159349800Y-101548100D02*
X159758800Y-101139100D01*
X159758800Y-101139100D02*
X161212600Y-101139100D01*
X161212600Y-101139100D02*
X162069600Y-101996100D01*
X162069600Y-101996100D02*
X162069600Y-104736000D01*
X162069600Y-104736000D02*
X165572800Y-108239200D01*
X165572800Y-108239200D02*
X174298300Y-108239200D01*
X174298300Y-108239200D02*
X174792200Y-107745300D01*
X174792200Y-107745300D02*
X174792200Y-107081600D01*
X174792200Y-107081600D02*
X173135500Y-105424900D01*
X173135500Y-105424900D02*
X171961500Y-105424900D01*
X178080400Y-103516500D02*
X178080400Y-106222600D01*
X174707300Y-98990000D02*
X174707300Y-96110200D01*
X174707300Y-96110200D02*
X173341100Y-94744000D01*
X173341100Y-94744000D02*
X169827600Y-94744000D01*
X159615400Y-92105600D02*
X164534800Y-92105600D01*
X164534800Y-92105600D02*
X168317300Y-95888100D01*
X168317300Y-95888100D02*
X168317300Y-102932400D01*
X168317300Y-102932400D02*
X172812400Y-107427500D01*
X172812400Y-107427500D02*
X173947500Y-107427500D01*
D21*
G36*
X183271097Y-90786278D02*
G01*
X183415306Y-90829798D01*
X183548321Y-90900502D01*
X183665061Y-90995689D01*
X183761095Y-91111745D01*
X183832758Y-91244245D01*
X183877319Y-91388135D01*
X183896101Y-91566618D01*
X183896100Y-101250000D01*
X178850000Y-101250000D01*
X178850000Y-90768600D01*
X183090577Y-90768600D01*
X183271097Y-90786278D01*
X183271097Y-90786278D01*
G37*
X183271097Y-90786278D02*
X183415306Y-90829798D01*
X183548321Y-90900502D01*
X183665061Y-90995689D01*
X183761095Y-91111745D01*
X183832758Y-91244245D01*
X183877319Y-91388135D01*
X183896101Y-91566618D01*
X183896100Y-101250000D01*
X178850000Y-101250000D01*
X178850000Y-90768600D01*
X183090577Y-90768600D01*
X183271097Y-90786278D01*
G36*
X183896100Y-106324303D02*
G01*
X183896101Y-106324313D01*
X183896100Y-108713066D01*
X183878421Y-108893595D01*
X183834901Y-109037805D01*
X183764199Y-109170817D01*
X183669009Y-109287561D01*
X183552954Y-109383594D01*
X183420452Y-109455259D01*
X183276565Y-109499819D01*
X183098091Y-109518600D01*
X178850000Y-109518600D01*
X178850000Y-106585778D01*
X178897735Y-106470536D01*
X178930400Y-106306318D01*
X178930400Y-106138882D01*
X178897735Y-105974664D01*
X178850000Y-105859422D01*
X178850000Y-103879678D01*
X178897735Y-103764436D01*
X178930400Y-103600218D01*
X178930400Y-103432782D01*
X178897735Y-103268564D01*
X178850000Y-103153322D01*
X178850000Y-102055047D01*
X183896100Y-102055047D01*
X183896100Y-106324303D01*
X183896100Y-106324303D01*
G37*
X183896100Y-106324303D02*
X183896101Y-106324313D01*
X183896100Y-108713066D01*
X183878421Y-108893595D01*
X183834901Y-109037805D01*
X183764199Y-109170817D01*
X183669009Y-109287561D01*
X183552954Y-109383594D01*
X183420452Y-109455259D01*
X183276565Y-109499819D01*
X183098091Y-109518600D01*
X178850000Y-109518600D01*
X178850000Y-106585778D01*
X178897735Y-106470536D01*
X178930400Y-106306318D01*
X178930400Y-106138882D01*
X178897735Y-105974664D01*
X178850000Y-105859422D01*
X178850000Y-103879678D01*
X178897735Y-103764436D01*
X178930400Y-103600218D01*
X178930400Y-103432782D01*
X178897735Y-103268564D01*
X178850000Y-103153322D01*
X178850000Y-102055047D01*
X183896100Y-102055047D01*
X183896100Y-106324303D01*
M02*
