G04 #@! TF.GenerationSoftware,KiCad,Pcbnew,5.1.0-unknown-9e240db~82~ubuntu18.04.1*
G04 #@! TF.CreationDate,2019-04-05T08:38:07+02:00*
G04 #@! TF.ProjectId,Voltrove MIC1557 PWM,566f6c74-726f-4766-9520-4d4943313535,rev?*
G04 #@! TF.SameCoordinates,Original*
G04 #@! TF.FileFunction,Legend,Bot*
G04 #@! TF.FilePolarity,Positive*
%FSLAX46Y46*%
G04 Gerber Fmt 4.6, Leading zero omitted, Abs format (unit mm)*
G04 Created by KiCad (PCBNEW 5.1.0-unknown-9e240db~82~ubuntu18.04.1) date 2019-04-05 08:38:07*
%MOMM*%
%LPD*%
G04 APERTURE LIST*
%ADD10C,0.200000*%
%ADD11C,0.120000*%
%ADD12C,0.254000*%
%ADD13C,0.100000*%
%ADD14C,0.150000*%
G04 APERTURE END LIST*
D10*
X121168095Y-98928571D02*
X121501428Y-98928571D01*
X121501428Y-99452380D02*
X121501428Y-98452380D01*
X121025238Y-98452380D01*
X120691904Y-98547619D02*
X120644285Y-98500000D01*
X120549047Y-98452380D01*
X120310952Y-98452380D01*
X120215714Y-98500000D01*
X120168095Y-98547619D01*
X120120476Y-98642857D01*
X120120476Y-98738095D01*
X120168095Y-98880952D01*
X120739523Y-99452380D01*
X120120476Y-99452380D01*
X121168095Y-101408571D02*
X121501428Y-101408571D01*
X121501428Y-101932380D02*
X121501428Y-100932380D01*
X121025238Y-100932380D01*
X120120476Y-101932380D02*
X120691904Y-101932380D01*
X120406190Y-101932380D02*
X120406190Y-100932380D01*
X120501428Y-101075238D01*
X120596666Y-101170476D01*
X120691904Y-101218095D01*
D11*
X169410000Y-103320000D02*
X169410000Y-102880000D01*
X168390000Y-103320000D02*
X168390000Y-102880000D01*
X171310000Y-103320000D02*
X171310000Y-102880000D01*
X170290000Y-103320000D02*
X170290000Y-102880000D01*
X172090000Y-103320000D02*
X172090000Y-102880000D01*
X173110000Y-103320000D02*
X173110000Y-102880000D01*
X173890000Y-103320000D02*
X173890000Y-102880000D01*
X174910000Y-103320000D02*
X174910000Y-102880000D01*
D12*
X160650000Y-94500000D02*
X160650000Y-95100000D01*
X157750000Y-94500000D02*
X157750000Y-95100000D01*
X160240000Y-96823000D02*
G75*
G03X160240000Y-96823000I-52000J0D01*
G01*
D10*
X122165000Y-96350000D02*
X126650000Y-96350000D01*
X122950000Y-93850000D02*
X126650000Y-93850000D01*
X163600000Y-98850000D02*
X166800000Y-98850000D01*
X166800000Y-98850000D02*
X166800000Y-93950000D01*
X166800000Y-93950000D02*
X163600000Y-93950000D01*
X163600000Y-93950000D02*
X163600000Y-98850000D01*
X161725000Y-98980000D02*
X163250000Y-98980000D01*
D13*
X161525000Y-107075000D02*
X161050000Y-107075000D01*
X161050000Y-107075000D02*
X160725000Y-106775000D01*
X160725000Y-106775000D02*
X160530000Y-106775000D01*
X161200000Y-100525000D02*
X160725000Y-100525000D01*
X160725000Y-100525000D02*
X160725000Y-100975000D01*
X164275000Y-106575000D02*
X164275000Y-107075000D01*
X164275000Y-107075000D02*
X163875000Y-107075000D01*
X164275000Y-100900000D02*
X164275000Y-100525000D01*
X164275000Y-100525000D02*
X163975000Y-100525000D01*
D10*
X154150000Y-105250000D02*
X154150000Y-106350000D01*
X154150000Y-106350000D02*
X157050000Y-106350000D01*
X157050000Y-106350000D02*
X157050000Y-105250000D01*
X157050000Y-105250000D02*
X154150000Y-105250000D01*
X154090000Y-104325000D02*
X154090000Y-104900000D01*
D13*
X183950000Y-98250000D02*
X183950000Y-101700000D01*
X183950000Y-101700000D02*
X179050000Y-101700000D01*
X179050000Y-101700000D02*
X179050000Y-98250000D01*
D10*
X183500000Y-103650000D02*
X183500000Y-103650000D01*
X183300000Y-103650000D02*
X183300000Y-103650000D01*
X183300000Y-103650000D02*
G75*
G02X183500000Y-103650000I100000J0D01*
G01*
X183500000Y-103650000D02*
G75*
G02X183300000Y-103650000I-100000J0D01*
G01*
D11*
X168910000Y-107620000D02*
X168910000Y-107180000D01*
X167890000Y-107620000D02*
X167890000Y-107180000D01*
X170290000Y-107620000D02*
X170290000Y-107180000D01*
X171310000Y-107620000D02*
X171310000Y-107180000D01*
X173610000Y-107620000D02*
X173610000Y-107180000D01*
X172590000Y-107620000D02*
X172590000Y-107180000D01*
X174890000Y-107620000D02*
X174890000Y-107180000D01*
X175910000Y-107620000D02*
X175910000Y-107180000D01*
D10*
X156850000Y-95100000D02*
X156850000Y-94500000D01*
X156850000Y-94500000D02*
X153950000Y-94500000D01*
X153950000Y-94500000D02*
X153950000Y-95100000D01*
X153950000Y-95100000D02*
X156850000Y-95100000D01*
X156900000Y-96650000D02*
X156900000Y-95450000D01*
D14*
X169066666Y-105657142D02*
X169114285Y-105704761D01*
X169257142Y-105752380D01*
X169352380Y-105752380D01*
X169495238Y-105704761D01*
X169590476Y-105609523D01*
X169638095Y-105514285D01*
X169685714Y-105323809D01*
X169685714Y-105180952D01*
X169638095Y-104990476D01*
X169590476Y-104895238D01*
X169495238Y-104800000D01*
X169352380Y-104752380D01*
X169257142Y-104752380D01*
X169114285Y-104800000D01*
X169066666Y-104847619D01*
X168114285Y-105752380D02*
X168685714Y-105752380D01*
X168400000Y-105752380D02*
X168400000Y-104752380D01*
X168495238Y-104895238D01*
X168590476Y-104990476D01*
X168685714Y-105038095D01*
X170966666Y-105657142D02*
X171014285Y-105704761D01*
X171157142Y-105752380D01*
X171252380Y-105752380D01*
X171395238Y-105704761D01*
X171490476Y-105609523D01*
X171538095Y-105514285D01*
X171585714Y-105323809D01*
X171585714Y-105180952D01*
X171538095Y-104990476D01*
X171490476Y-104895238D01*
X171395238Y-104800000D01*
X171252380Y-104752380D01*
X171157142Y-104752380D01*
X171014285Y-104800000D01*
X170966666Y-104847619D01*
X170585714Y-104847619D02*
X170538095Y-104800000D01*
X170442857Y-104752380D01*
X170204761Y-104752380D01*
X170109523Y-104800000D01*
X170061904Y-104847619D01*
X170014285Y-104942857D01*
X170014285Y-105038095D01*
X170061904Y-105180952D01*
X170633333Y-105752380D01*
X170014285Y-105752380D01*
X172766666Y-105657142D02*
X172814285Y-105704761D01*
X172957142Y-105752380D01*
X173052380Y-105752380D01*
X173195238Y-105704761D01*
X173290476Y-105609523D01*
X173338095Y-105514285D01*
X173385714Y-105323809D01*
X173385714Y-105180952D01*
X173338095Y-104990476D01*
X173290476Y-104895238D01*
X173195238Y-104800000D01*
X173052380Y-104752380D01*
X172957142Y-104752380D01*
X172814285Y-104800000D01*
X172766666Y-104847619D01*
X172433333Y-104752380D02*
X171814285Y-104752380D01*
X172147619Y-105133333D01*
X172004761Y-105133333D01*
X171909523Y-105180952D01*
X171861904Y-105228571D01*
X171814285Y-105323809D01*
X171814285Y-105561904D01*
X171861904Y-105657142D01*
X171909523Y-105704761D01*
X172004761Y-105752380D01*
X172290476Y-105752380D01*
X172385714Y-105704761D01*
X172433333Y-105657142D01*
X174566666Y-105657142D02*
X174614285Y-105704761D01*
X174757142Y-105752380D01*
X174852380Y-105752380D01*
X174995238Y-105704761D01*
X175090476Y-105609523D01*
X175138095Y-105514285D01*
X175185714Y-105323809D01*
X175185714Y-105180952D01*
X175138095Y-104990476D01*
X175090476Y-104895238D01*
X174995238Y-104800000D01*
X174852380Y-104752380D01*
X174757142Y-104752380D01*
X174614285Y-104800000D01*
X174566666Y-104847619D01*
X173709523Y-105085714D02*
X173709523Y-105752380D01*
X173947619Y-104704761D02*
X174185714Y-105419047D01*
X173566666Y-105419047D01*
X159838095Y-92352380D02*
X159838095Y-91352380D01*
X159600000Y-91352380D01*
X159457142Y-91400000D01*
X159361904Y-91495238D01*
X159314285Y-91590476D01*
X159266666Y-91780952D01*
X159266666Y-91923809D01*
X159314285Y-92114285D01*
X159361904Y-92209523D01*
X159457142Y-92304761D01*
X159600000Y-92352380D01*
X159838095Y-92352380D01*
X158314285Y-92352380D02*
X158885714Y-92352380D01*
X158600000Y-92352380D02*
X158600000Y-91352380D01*
X158695238Y-91495238D01*
X158790476Y-91590476D01*
X158885714Y-91638095D01*
X125538095Y-95852380D02*
X125538095Y-94852380D01*
X125300000Y-94852380D01*
X125157142Y-94900000D01*
X125061904Y-94995238D01*
X125014285Y-95090476D01*
X124966666Y-95280952D01*
X124966666Y-95423809D01*
X125014285Y-95614285D01*
X125061904Y-95709523D01*
X125157142Y-95804761D01*
X125300000Y-95852380D01*
X125538095Y-95852380D01*
X124585714Y-94947619D02*
X124538095Y-94900000D01*
X124442857Y-94852380D01*
X124204761Y-94852380D01*
X124109523Y-94900000D01*
X124061904Y-94947619D01*
X124014285Y-95042857D01*
X124014285Y-95138095D01*
X124061904Y-95280952D01*
X124633333Y-95852380D01*
X124014285Y-95852380D01*
X166176190Y-95352380D02*
X166176190Y-94352380D01*
X165128571Y-95257142D02*
X165176190Y-95304761D01*
X165319047Y-95352380D01*
X165414285Y-95352380D01*
X165557142Y-95304761D01*
X165652380Y-95209523D01*
X165700000Y-95114285D01*
X165747619Y-94923809D01*
X165747619Y-94780952D01*
X165700000Y-94590476D01*
X165652380Y-94495238D01*
X165557142Y-94400000D01*
X165414285Y-94352380D01*
X165319047Y-94352380D01*
X165176190Y-94400000D01*
X165128571Y-94447619D01*
X164176190Y-95352380D02*
X164747619Y-95352380D01*
X164461904Y-95352380D02*
X164461904Y-94352380D01*
X164557142Y-94495238D01*
X164652380Y-94590476D01*
X164747619Y-94638095D01*
X163852380Y-102823809D02*
X162852380Y-102823809D01*
X163757142Y-103871428D02*
X163804761Y-103823809D01*
X163852380Y-103680952D01*
X163852380Y-103585714D01*
X163804761Y-103442857D01*
X163709523Y-103347619D01*
X163614285Y-103300000D01*
X163423809Y-103252380D01*
X163280952Y-103252380D01*
X163090476Y-103300000D01*
X162995238Y-103347619D01*
X162900000Y-103442857D01*
X162852380Y-103585714D01*
X162852380Y-103680952D01*
X162900000Y-103823809D01*
X162947619Y-103871428D01*
X162947619Y-104252380D02*
X162900000Y-104300000D01*
X162852380Y-104395238D01*
X162852380Y-104633333D01*
X162900000Y-104728571D01*
X162947619Y-104776190D01*
X163042857Y-104823809D01*
X163138095Y-104823809D01*
X163280952Y-104776190D01*
X163852380Y-104204761D01*
X163852380Y-104823809D01*
X155795238Y-109347619D02*
X155890476Y-109300000D01*
X155985714Y-109204761D01*
X156128571Y-109061904D01*
X156223809Y-109014285D01*
X156319047Y-109014285D01*
X156271428Y-109252380D02*
X156366666Y-109204761D01*
X156461904Y-109109523D01*
X156509523Y-108919047D01*
X156509523Y-108585714D01*
X156461904Y-108395238D01*
X156366666Y-108300000D01*
X156271428Y-108252380D01*
X156080952Y-108252380D01*
X155985714Y-108300000D01*
X155890476Y-108395238D01*
X155842857Y-108585714D01*
X155842857Y-108919047D01*
X155890476Y-109109523D01*
X155985714Y-109204761D01*
X156080952Y-109252380D01*
X156271428Y-109252380D01*
X154890476Y-109252380D02*
X155461904Y-109252380D01*
X155176190Y-109252380D02*
X155176190Y-108252380D01*
X155271428Y-108395238D01*
X155366666Y-108490476D01*
X155461904Y-108538095D01*
X178947619Y-99504761D02*
X178900000Y-99409523D01*
X178804761Y-99314285D01*
X178661904Y-99171428D01*
X178614285Y-99076190D01*
X178614285Y-98980952D01*
X178852380Y-99028571D02*
X178804761Y-98933333D01*
X178709523Y-98838095D01*
X178519047Y-98790476D01*
X178185714Y-98790476D01*
X177995238Y-98838095D01*
X177900000Y-98933333D01*
X177852380Y-99028571D01*
X177852380Y-99219047D01*
X177900000Y-99314285D01*
X177995238Y-99409523D01*
X178185714Y-99457142D01*
X178519047Y-99457142D01*
X178709523Y-99409523D01*
X178804761Y-99314285D01*
X178852380Y-99219047D01*
X178852380Y-99028571D01*
X177947619Y-99838095D02*
X177900000Y-99885714D01*
X177852380Y-99980952D01*
X177852380Y-100219047D01*
X177900000Y-100314285D01*
X177947619Y-100361904D01*
X178042857Y-100409523D01*
X178138095Y-100409523D01*
X178280952Y-100361904D01*
X178852380Y-99790476D01*
X178852380Y-100409523D01*
X168566666Y-109952380D02*
X168900000Y-109476190D01*
X169138095Y-109952380D02*
X169138095Y-108952380D01*
X168757142Y-108952380D01*
X168661904Y-109000000D01*
X168614285Y-109047619D01*
X168566666Y-109142857D01*
X168566666Y-109285714D01*
X168614285Y-109380952D01*
X168661904Y-109428571D01*
X168757142Y-109476190D01*
X169138095Y-109476190D01*
X167614285Y-109952380D02*
X168185714Y-109952380D01*
X167900000Y-109952380D02*
X167900000Y-108952380D01*
X167995238Y-109095238D01*
X168090476Y-109190476D01*
X168185714Y-109238095D01*
X170966666Y-109952380D02*
X171300000Y-109476190D01*
X171538095Y-109952380D02*
X171538095Y-108952380D01*
X171157142Y-108952380D01*
X171061904Y-109000000D01*
X171014285Y-109047619D01*
X170966666Y-109142857D01*
X170966666Y-109285714D01*
X171014285Y-109380952D01*
X171061904Y-109428571D01*
X171157142Y-109476190D01*
X171538095Y-109476190D01*
X170585714Y-109047619D02*
X170538095Y-109000000D01*
X170442857Y-108952380D01*
X170204761Y-108952380D01*
X170109523Y-109000000D01*
X170061904Y-109047619D01*
X170014285Y-109142857D01*
X170014285Y-109238095D01*
X170061904Y-109380952D01*
X170633333Y-109952380D01*
X170014285Y-109952380D01*
X173266666Y-109952380D02*
X173600000Y-109476190D01*
X173838095Y-109952380D02*
X173838095Y-108952380D01*
X173457142Y-108952380D01*
X173361904Y-109000000D01*
X173314285Y-109047619D01*
X173266666Y-109142857D01*
X173266666Y-109285714D01*
X173314285Y-109380952D01*
X173361904Y-109428571D01*
X173457142Y-109476190D01*
X173838095Y-109476190D01*
X172933333Y-108952380D02*
X172314285Y-108952380D01*
X172647619Y-109333333D01*
X172504761Y-109333333D01*
X172409523Y-109380952D01*
X172361904Y-109428571D01*
X172314285Y-109523809D01*
X172314285Y-109761904D01*
X172361904Y-109857142D01*
X172409523Y-109904761D01*
X172504761Y-109952380D01*
X172790476Y-109952380D01*
X172885714Y-109904761D01*
X172933333Y-109857142D01*
X175566666Y-109952380D02*
X175900000Y-109476190D01*
X176138095Y-109952380D02*
X176138095Y-108952380D01*
X175757142Y-108952380D01*
X175661904Y-109000000D01*
X175614285Y-109047619D01*
X175566666Y-109142857D01*
X175566666Y-109285714D01*
X175614285Y-109380952D01*
X175661904Y-109428571D01*
X175757142Y-109476190D01*
X176138095Y-109476190D01*
X174709523Y-109285714D02*
X174709523Y-109952380D01*
X174947619Y-108904761D02*
X175185714Y-109619047D01*
X174566666Y-109619047D01*
X156061904Y-91152380D02*
X156061904Y-91961904D01*
X156014285Y-92057142D01*
X155966666Y-92104761D01*
X155871428Y-92152380D01*
X155680952Y-92152380D01*
X155585714Y-92104761D01*
X155538095Y-92057142D01*
X155490476Y-91961904D01*
X155490476Y-91152380D01*
X154490476Y-92152380D02*
X155061904Y-92152380D01*
X154776190Y-92152380D02*
X154776190Y-91152380D01*
X154871428Y-91295238D01*
X154966666Y-91390476D01*
X155061904Y-91438095D01*
X123823809Y-107452380D02*
X123490476Y-108452380D01*
X123157142Y-107452380D01*
X122823809Y-108452380D02*
X122823809Y-107452380D01*
X122490476Y-108166666D01*
X122157142Y-107452380D01*
X122157142Y-108452380D01*
X121680952Y-108071428D02*
X120919047Y-108071428D01*
X127023809Y-107452380D02*
X126690476Y-108452380D01*
X126357142Y-107452380D01*
X126023809Y-108452380D02*
X126023809Y-107452380D01*
X125690476Y-108166666D01*
X125357142Y-107452380D01*
X125357142Y-108452380D01*
X124880952Y-108071428D02*
X124119047Y-108071428D01*
X124500000Y-108452380D02*
X124500000Y-107690476D01*
M02*
