G04 #@! TF.GenerationSoftware,KiCad,Pcbnew,5.1.0-unknown-ff73f69~82~ubuntu18.04.1*
G04 #@! TF.CreationDate,2019-04-01T01:27:23+02:00*
G04 #@! TF.ProjectId,Voltrove MIC1557 PWM,566f6c74-726f-4766-9520-4d4943313535,rev?*
G04 #@! TF.SameCoordinates,Original*
G04 #@! TF.FileFunction,Copper,L2,Bot*
G04 #@! TF.FilePolarity,Positive*
%FSLAX46Y46*%
G04 Gerber Fmt 4.6, Leading zero omitted, Abs format (unit mm)*
G04 Created by KiCad (PCBNEW 5.1.0-unknown-ff73f69~82~ubuntu18.04.1) date 2019-04-01 01:27:23*
%MOMM*%
%LPD*%
G04 APERTURE LIST*
%ADD10C,0.100000*%
%ADD11R,1.800000X1.800000*%
%ADD12C,1.300000*%
%ADD13C,1.700000*%
%ADD14C,3.200000*%
%ADD15R,1.000000X0.670000*%
%ADD16R,1.000000X1.000000*%
%ADD17R,1.120000X1.720000*%
%ADD18R,1.525000X0.650000*%
%ADD19R,1.500000X2.200000*%
%ADD20R,3.800000X2.200000*%
%ADD21C,5.000000*%
%ADD22R,0.620000X0.575000*%
%ADD23R,1.150000X0.700000*%
%ADD24R,3.100000X4.200000*%
%ADD25R,1.500000X4.700000*%
%ADD26R,1.200000X0.600000*%
%ADD27C,1.800000*%
%ADD28C,0.600000*%
%ADD29C,0.400000*%
G04 APERTURE END LIST*
D10*
G36*
X176980000Y-98789000D02*
G01*
X177082000Y-98781000D01*
X177181000Y-98757000D01*
X177275000Y-98718000D01*
X177361000Y-98665000D01*
X177439000Y-98599000D01*
X177505000Y-98521000D01*
X177558000Y-98435000D01*
X177597000Y-98341000D01*
X177621000Y-98242000D01*
X177629000Y-98140000D01*
X177621000Y-98038000D01*
X177597000Y-97939000D01*
X177558000Y-97845000D01*
X177505000Y-97759000D01*
X177439000Y-97681000D01*
X177361000Y-97615000D01*
X177275000Y-97562000D01*
X177181000Y-97523000D01*
X177082000Y-97499000D01*
X176980000Y-97491000D01*
X176480000Y-97491000D01*
X176378000Y-97499000D01*
X176279000Y-97523000D01*
X176185000Y-97562000D01*
X176099000Y-97615000D01*
X176021000Y-97681000D01*
X175955000Y-97759000D01*
X175902000Y-97845000D01*
X175863000Y-97939000D01*
X175839000Y-98038000D01*
X175831000Y-98140000D01*
X175839000Y-98242000D01*
X175863000Y-98341000D01*
X175902000Y-98435000D01*
X175955000Y-98521000D01*
X176021000Y-98599000D01*
X176099000Y-98665000D01*
X176185000Y-98718000D01*
X176279000Y-98757000D01*
X176378000Y-98781000D01*
X176480000Y-98789000D01*
X176980000Y-98789000D01*
G37*
G36*
X176980000Y-100789000D02*
G01*
X177082000Y-100781000D01*
X177181000Y-100757000D01*
X177275000Y-100718000D01*
X177361000Y-100665000D01*
X177439000Y-100599000D01*
X177505000Y-100521000D01*
X177558000Y-100435000D01*
X177597000Y-100341000D01*
X177621000Y-100242000D01*
X177629000Y-100140000D01*
X177621000Y-100038000D01*
X177597000Y-99939000D01*
X177558000Y-99845000D01*
X177505000Y-99759000D01*
X177439000Y-99681000D01*
X177361000Y-99615000D01*
X177275000Y-99562000D01*
X177181000Y-99523000D01*
X177082000Y-99499000D01*
X176980000Y-99491000D01*
X176480000Y-99491000D01*
X176378000Y-99499000D01*
X176279000Y-99523000D01*
X176185000Y-99562000D01*
X176099000Y-99615000D01*
X176021000Y-99681000D01*
X175955000Y-99759000D01*
X175902000Y-99845000D01*
X175863000Y-99939000D01*
X175839000Y-100038000D01*
X175831000Y-100140000D01*
X175839000Y-100242000D01*
X175863000Y-100341000D01*
X175902000Y-100435000D01*
X175955000Y-100521000D01*
X176021000Y-100599000D01*
X176099000Y-100665000D01*
X176185000Y-100718000D01*
X176279000Y-100757000D01*
X176378000Y-100781000D01*
X176480000Y-100789000D01*
X176980000Y-100789000D01*
G37*
G36*
X176980000Y-102789000D02*
G01*
X177082000Y-102781000D01*
X177181000Y-102757000D01*
X177275000Y-102718000D01*
X177361000Y-102665000D01*
X177439000Y-102599000D01*
X177505000Y-102521000D01*
X177558000Y-102435000D01*
X177597000Y-102341000D01*
X177621000Y-102242000D01*
X177629000Y-102140000D01*
X177621000Y-102038000D01*
X177597000Y-101939000D01*
X177558000Y-101845000D01*
X177505000Y-101759000D01*
X177439000Y-101681000D01*
X177361000Y-101615000D01*
X177275000Y-101562000D01*
X177181000Y-101523000D01*
X177082000Y-101499000D01*
X176980000Y-101491000D01*
X176480000Y-101491000D01*
X176378000Y-101499000D01*
X176279000Y-101523000D01*
X176185000Y-101562000D01*
X176099000Y-101615000D01*
X176021000Y-101681000D01*
X175955000Y-101759000D01*
X175902000Y-101845000D01*
X175863000Y-101939000D01*
X175839000Y-102038000D01*
X175831000Y-102140000D01*
X175839000Y-102242000D01*
X175863000Y-102341000D01*
X175902000Y-102435000D01*
X175955000Y-102521000D01*
X176021000Y-102599000D01*
X176099000Y-102665000D01*
X176185000Y-102718000D01*
X176279000Y-102757000D01*
X176378000Y-102781000D01*
X176480000Y-102789000D01*
X176980000Y-102789000D01*
G37*
G36*
X176980000Y-96889000D02*
G01*
X177113000Y-96879000D01*
X177242000Y-96847000D01*
X177365000Y-96796000D01*
X177479000Y-96727000D01*
X177580000Y-96640000D01*
X177667000Y-96539000D01*
X177736000Y-96425000D01*
X177787000Y-96302000D01*
X177819000Y-96173000D01*
X177829000Y-96040000D01*
X177819000Y-95907000D01*
X177787000Y-95778000D01*
X177736000Y-95655000D01*
X177667000Y-95541000D01*
X177580000Y-95440000D01*
X177479000Y-95353000D01*
X177365000Y-95284000D01*
X177242000Y-95233000D01*
X177113000Y-95201000D01*
X176980000Y-95191000D01*
X176480000Y-95191000D01*
X176347000Y-95201000D01*
X176218000Y-95233000D01*
X176095000Y-95284000D01*
X175981000Y-95353000D01*
X175880000Y-95440000D01*
X175793000Y-95541000D01*
X175724000Y-95655000D01*
X175673000Y-95778000D01*
X175641000Y-95907000D01*
X175631000Y-96040000D01*
X175641000Y-96173000D01*
X175673000Y-96302000D01*
X175724000Y-96425000D01*
X175793000Y-96539000D01*
X175880000Y-96640000D01*
X175981000Y-96727000D01*
X176095000Y-96796000D01*
X176218000Y-96847000D01*
X176347000Y-96879000D01*
X176480000Y-96889000D01*
X176980000Y-96889000D01*
G37*
G36*
X176980000Y-105089000D02*
G01*
X177113000Y-105079000D01*
X177242000Y-105047000D01*
X177365000Y-104996000D01*
X177479000Y-104927000D01*
X177580000Y-104840000D01*
X177667000Y-104739000D01*
X177736000Y-104625000D01*
X177787000Y-104502000D01*
X177819000Y-104373000D01*
X177829000Y-104240000D01*
X177819000Y-104107000D01*
X177787000Y-103978000D01*
X177736000Y-103855000D01*
X177667000Y-103741000D01*
X177580000Y-103640000D01*
X177479000Y-103553000D01*
X177365000Y-103484000D01*
X177242000Y-103433000D01*
X177113000Y-103401000D01*
X176980000Y-103391000D01*
X176480000Y-103391000D01*
X176347000Y-103401000D01*
X176218000Y-103433000D01*
X176095000Y-103484000D01*
X175981000Y-103553000D01*
X175880000Y-103640000D01*
X175793000Y-103741000D01*
X175724000Y-103855000D01*
X175673000Y-103978000D01*
X175641000Y-104107000D01*
X175631000Y-104240000D01*
X175641000Y-104373000D01*
X175673000Y-104502000D01*
X175724000Y-104625000D01*
X175793000Y-104739000D01*
X175880000Y-104840000D01*
X175981000Y-104927000D01*
X176095000Y-104996000D01*
X176218000Y-105047000D01*
X176347000Y-105079000D01*
X176480000Y-105089000D01*
X176980000Y-105089000D01*
G37*
D11*
X170340000Y-100144000D03*
X172880000Y-100144000D03*
D12*
X176730000Y-98140000D03*
X176730000Y-100140000D03*
X176730000Y-102140000D03*
D13*
X176730000Y-96040000D03*
X176730000Y-104240000D03*
D14*
X127515000Y-100115000D03*
X171309000Y-92643600D03*
X117169000Y-107644000D03*
X117169000Y-92643600D03*
D15*
X168900000Y-103975000D03*
X168900000Y-102225000D03*
X170800000Y-103975000D03*
X170800000Y-102225000D03*
X172600000Y-102225000D03*
X172600000Y-103975000D03*
X174400000Y-102225000D03*
X174400000Y-103975000D03*
D16*
X170300000Y-98050000D03*
X170300000Y-96150000D03*
X172700000Y-96150000D03*
X172700000Y-98050000D03*
D17*
X155225000Y-106600000D03*
X159375000Y-106600000D03*
D18*
X167812000Y-93395000D03*
X167812000Y-94665000D03*
X167812000Y-95935000D03*
X167812000Y-97205000D03*
X162388000Y-97205000D03*
X162388000Y-95935000D03*
X162388000Y-94665000D03*
X162388000Y-93395000D03*
D19*
X166600000Y-100450000D03*
X164300000Y-100450000D03*
X162000000Y-100450000D03*
D20*
X164300000Y-106750000D03*
D21*
X181600000Y-95200000D03*
X124600000Y-95000000D03*
D22*
X182250000Y-104188000D03*
X180350000Y-104188000D03*
X181300000Y-101812000D03*
D23*
X160025000Y-93295000D03*
X160025000Y-94565000D03*
X160025000Y-95835000D03*
X160025000Y-97105000D03*
D24*
X156850000Y-95200000D03*
D25*
X154550000Y-95200000D03*
D15*
X168900000Y-108275000D03*
X168900000Y-106525000D03*
X170800000Y-106525000D03*
X170800000Y-108275000D03*
X172600000Y-108275000D03*
X172600000Y-106525000D03*
X174400000Y-106525000D03*
X174400000Y-108275000D03*
D26*
X179450000Y-107850000D03*
X179450000Y-106900000D03*
X179450000Y-105950000D03*
X181950000Y-105950000D03*
X181950000Y-107850000D03*
D27*
X181700000Y-99700000D03*
X123300000Y-101400000D03*
X123280000Y-98910000D03*
X123800000Y-105900000D03*
X126600000Y-105900000D03*
D28*
X165557000Y-96358500D03*
X177364900Y-106564900D03*
X178175500Y-95424300D03*
X167769800Y-106053500D03*
X167133400Y-92362600D03*
X161469900Y-106711800D03*
X161919700Y-102672800D03*
X169847000Y-104749200D03*
X168025000Y-99515200D03*
X163718800Y-94001000D03*
X157128800Y-105213600D03*
X165069500Y-103032900D03*
X175344500Y-103219100D03*
X165779600Y-97267700D03*
X165589200Y-94914400D03*
X174099800Y-109372000D03*
X164193300Y-96759200D03*
X175037800Y-97278200D03*
D29*
X162388000Y-94665000D02*
X162594100Y-94871100D01*
X162594100Y-94871100D02*
X164069600Y-94871100D01*
X164069600Y-94871100D02*
X165557000Y-96358500D01*
X179450000Y-107850000D02*
X178349700Y-107850000D01*
X178349700Y-107850000D02*
X178349700Y-107549700D01*
X178349700Y-107549700D02*
X177364900Y-106564900D01*
X172700000Y-98050000D02*
X173700300Y-98050000D01*
X173700300Y-98050000D02*
X173700300Y-97049700D01*
X173700300Y-97049700D02*
X176113100Y-94636900D01*
X176113100Y-94636900D02*
X177388100Y-94636900D01*
X177388100Y-94636900D02*
X178175500Y-95424300D01*
X172700000Y-98050000D02*
X171699700Y-98050000D01*
X171699700Y-98050000D02*
X171699700Y-97549700D01*
X171699700Y-97549700D02*
X170300000Y-96150000D01*
X168900000Y-103975000D02*
X168900000Y-104810300D01*
X167769800Y-106053500D02*
X167769800Y-105940500D01*
X167769800Y-105940500D02*
X168900000Y-104810300D01*
X168900000Y-102225000D02*
X169799700Y-102225000D01*
X170800000Y-102225000D02*
X169799700Y-102225000D01*
X163475700Y-97205000D02*
X164338700Y-98068000D01*
X164338700Y-98068000D02*
X167765900Y-98068000D01*
X167765900Y-98068000D02*
X168900000Y-99202100D01*
X168900000Y-99202100D02*
X168900000Y-102225000D01*
X160293900Y-95835000D02*
X160440300Y-95835000D01*
X160440300Y-95835000D02*
X161125200Y-96519900D01*
X161125200Y-96519900D02*
X161125200Y-97205000D01*
X160159500Y-95835000D02*
X160293900Y-95835000D01*
X160025000Y-95835000D02*
X160159500Y-95835000D01*
X162388000Y-97205000D02*
X161125200Y-97205000D01*
X161919700Y-102672800D02*
X161627100Y-102672800D01*
X161627100Y-102672800D02*
X160749600Y-101795300D01*
X160749600Y-101795300D02*
X160749600Y-98843400D01*
X160749600Y-98843400D02*
X161125200Y-98467800D01*
X161125200Y-98467800D02*
X161125200Y-97205000D01*
X164300000Y-102050300D02*
X163677500Y-102672800D01*
X163677500Y-102672800D02*
X161919700Y-102672800D01*
X160293900Y-94565000D02*
X160562700Y-94565000D01*
X160025000Y-94565000D02*
X160293900Y-94565000D01*
X160293900Y-94565000D02*
X160293900Y-95835000D01*
X161899700Y-106750000D02*
X161508100Y-106750000D01*
X161508100Y-106750000D02*
X161469900Y-106711800D01*
X160562700Y-93295000D02*
X161100300Y-93295000D01*
X160025000Y-93295000D02*
X160562700Y-93295000D01*
X160562700Y-94565000D02*
X160562700Y-93295000D01*
X161100300Y-93295000D02*
X161100300Y-92869800D01*
X161100300Y-92869800D02*
X161607500Y-92362600D01*
X161607500Y-92362600D02*
X167133400Y-92362600D01*
X166700300Y-106750000D02*
X166804100Y-106853800D01*
X166804100Y-106853800D02*
X168101300Y-106853800D01*
X168101300Y-106853800D02*
X168430100Y-106525000D01*
X168430100Y-106525000D02*
X168900000Y-106525000D01*
X164300000Y-106750000D02*
X161899700Y-106750000D01*
X164300000Y-106750000D02*
X166700300Y-106750000D01*
X164300000Y-100450000D02*
X164300000Y-102050300D01*
X182250000Y-104188000D02*
X182250000Y-104975800D01*
X179450000Y-106900000D02*
X182612900Y-106900000D01*
X182612900Y-106900000D02*
X183050400Y-106462500D01*
X183050400Y-106462500D02*
X183050400Y-105382300D01*
X183050400Y-105382300D02*
X182643900Y-104975800D01*
X182643900Y-104975800D02*
X182250000Y-104975800D01*
X182250000Y-104188000D02*
X182250000Y-103400200D01*
X181600000Y-95200000D02*
X183130300Y-96730300D01*
X183130300Y-96730300D02*
X183130300Y-102519900D01*
X183130300Y-102519900D02*
X182250000Y-103400200D01*
X162388000Y-97205000D02*
X163475700Y-97205000D01*
X174400000Y-102225000D02*
X172600000Y-102225000D01*
X172600000Y-102225000D02*
X170800000Y-102225000D01*
X126600000Y-105900000D02*
X129810300Y-109110300D01*
X129810300Y-109110300D02*
X170800000Y-109110300D01*
X180350000Y-104188000D02*
X180350000Y-103400200D01*
X181300000Y-101812000D02*
X181300000Y-102599800D01*
X181300000Y-102599800D02*
X180499600Y-103400200D01*
X180499600Y-103400200D02*
X180350000Y-103400200D01*
X181300000Y-101812000D02*
X181300000Y-99700000D01*
X170800000Y-103975000D02*
X170025800Y-104749200D01*
X170025800Y-104749200D02*
X169847000Y-104749200D01*
X162000000Y-100450000D02*
X162000000Y-98849700D01*
X162000000Y-98849700D02*
X167557300Y-98849700D01*
X167557300Y-98849700D02*
X168025000Y-99317400D01*
X168025000Y-99317400D02*
X168025000Y-99515200D01*
X123300000Y-101400000D02*
X126600000Y-104700000D01*
X126600000Y-104700000D02*
X126600000Y-105900000D01*
X170800000Y-108275000D02*
X170800000Y-109110300D01*
X181950000Y-105950000D02*
X180849700Y-105950000D01*
X180350000Y-104188000D02*
X180350000Y-104975800D01*
X180350000Y-104975800D02*
X180849700Y-105475500D01*
X180849700Y-105475500D02*
X180849700Y-105950000D01*
X181300000Y-99700000D02*
X179740000Y-98140000D01*
X179740000Y-98140000D02*
X176730000Y-98140000D01*
X181700000Y-99700000D02*
X181300000Y-99700000D01*
X166794300Y-102497500D02*
X167436400Y-103139700D01*
X167436400Y-103139700D02*
X172600000Y-103139700D01*
X166600000Y-102050300D02*
X166600000Y-102303300D01*
X166600000Y-102303300D02*
X166794300Y-102497500D01*
X166794300Y-102497500D02*
X164439900Y-104851900D01*
X164439900Y-104851900D02*
X162183400Y-104851900D01*
X162183400Y-104851900D02*
X160435300Y-106600000D01*
X159375000Y-106600000D02*
X160435300Y-106600000D01*
X159375000Y-106600000D02*
X158314700Y-106600000D01*
X162388000Y-93395000D02*
X163650800Y-93395000D01*
X163650800Y-93395000D02*
X163650800Y-93933000D01*
X163650800Y-93933000D02*
X163718800Y-94001000D01*
X158314700Y-106600000D02*
X158314700Y-106399500D01*
X158314700Y-106399500D02*
X157128800Y-105213600D01*
X172600000Y-103975000D02*
X172600000Y-103139700D01*
X166600000Y-100450000D02*
X166600000Y-102050300D01*
X165069500Y-103032900D02*
X164035600Y-104066800D01*
X164035600Y-104066800D02*
X156397800Y-104066800D01*
X156397800Y-104066800D02*
X156397800Y-104066900D01*
X156397800Y-104066900D02*
X155225000Y-105239700D01*
X155225000Y-106600000D02*
X155225000Y-105239700D01*
X165779600Y-97267700D02*
X166549200Y-96498100D01*
X166549200Y-96498100D02*
X166549200Y-95935000D01*
X174400000Y-103975000D02*
X174588600Y-103975000D01*
X174588600Y-103975000D02*
X175344500Y-103219100D01*
X167812000Y-95935000D02*
X166549200Y-95935000D01*
X167812000Y-97205000D02*
X169074800Y-97205000D01*
X170300000Y-98050000D02*
X169299700Y-98050000D01*
X169074800Y-97205000D02*
X169074800Y-97825100D01*
X169074800Y-97825100D02*
X169299700Y-98050000D01*
X172700000Y-96150000D02*
X171699700Y-96150000D01*
X167812000Y-93395000D02*
X169074800Y-93395000D01*
X169074800Y-93395000D02*
X170829500Y-95149700D01*
X170829500Y-95149700D02*
X171047200Y-95149700D01*
X171047200Y-95149700D02*
X171699700Y-95802200D01*
X171699700Y-95802200D02*
X171699700Y-96150000D01*
X166549200Y-94665000D02*
X165838600Y-94665000D01*
X165838600Y-94665000D02*
X165589200Y-94914400D01*
X167812000Y-94665000D02*
X166549200Y-94665000D01*
X174400000Y-108275000D02*
X174400000Y-109110300D01*
X162388000Y-95935000D02*
X163650800Y-95935000D01*
X163650800Y-95935000D02*
X163650800Y-96216700D01*
X163650800Y-96216700D02*
X164193300Y-96759200D01*
X174099800Y-109372000D02*
X174361500Y-109110300D01*
X174361500Y-109110300D02*
X174400000Y-109110300D01*
X156850000Y-95200000D02*
X156850000Y-92599700D01*
X156850000Y-92599700D02*
X156574600Y-92324300D01*
X156574600Y-92324300D02*
X127275700Y-92324300D01*
X127275700Y-92324300D02*
X124600000Y-95000000D01*
X168900000Y-108275000D02*
X167899700Y-108275000D01*
X160025000Y-97105000D02*
X158949700Y-97105000D01*
X158949700Y-97105000D02*
X158949700Y-98180300D01*
X158949700Y-98180300D02*
X154113900Y-103016100D01*
X154113900Y-103016100D02*
X154113900Y-107659500D01*
X154113900Y-107659500D02*
X154804800Y-108350400D01*
X154804800Y-108350400D02*
X167824300Y-108350400D01*
X167824300Y-108350400D02*
X167899700Y-108275000D01*
X168900000Y-108137500D02*
X168900000Y-108275000D01*
X168900000Y-108137500D02*
X168900000Y-107439700D01*
X172600000Y-106525000D02*
X172477500Y-106525000D01*
X172477500Y-106525000D02*
X171562800Y-107439700D01*
X171562800Y-107439700D02*
X168900000Y-107439700D01*
X170800000Y-106525000D02*
X170800000Y-105689700D01*
X179450000Y-105950000D02*
X178349700Y-105950000D01*
X178349700Y-105950000D02*
X178089400Y-105689700D01*
X178089400Y-105689700D02*
X170800000Y-105689700D01*
X181950000Y-107850000D02*
X180849700Y-107850000D01*
X180849700Y-107850000D02*
X180849700Y-108075200D01*
X180849700Y-108075200D02*
X180274500Y-108650400D01*
X180274500Y-108650400D02*
X178086900Y-108650400D01*
X178086900Y-108650400D02*
X176379100Y-106942600D01*
X176379100Y-106942600D02*
X174400000Y-106942600D01*
X172600000Y-108275000D02*
X172600000Y-107439700D01*
X174400000Y-106942600D02*
X173902900Y-107439700D01*
X173902900Y-107439700D02*
X172600000Y-107439700D01*
X174400000Y-106525000D02*
X174400000Y-106942600D01*
X175037800Y-97278200D02*
X175037800Y-97986200D01*
X175037800Y-97986200D02*
X172880000Y-100144000D01*
M02*
