G04 #@! TF.GenerationSoftware,KiCad,Pcbnew,5.1.0-unknown-9e240db~82~ubuntu18.04.1*
G04 #@! TF.CreationDate,2019-04-19T11:11:27+02:00*
G04 #@! TF.ProjectId,VoltMax PWM Board A,566f6c74-4d61-4782-9050-574d20426f61,rev?*
G04 #@! TF.SameCoordinates,Original*
G04 #@! TF.FileFunction,Copper,L1,Top*
G04 #@! TF.FilePolarity,Positive*
%FSLAX46Y46*%
G04 Gerber Fmt 4.6, Leading zero omitted, Abs format (unit mm)*
G04 Created by KiCad (PCBNEW 5.1.0-unknown-9e240db~82~ubuntu18.04.1) date 2019-04-19 11:11:27*
%MOMM*%
%LPD*%
G04 APERTURE LIST*
%ADD10C,0.100000*%
%ADD11C,1.700000*%
%ADD12C,1.300000*%
%ADD13C,4.000000*%
%ADD14C,3.200000*%
%ADD15R,1.800000X1.800000*%
%ADD16C,1.800000*%
%ADD17R,0.670000X1.000000*%
%ADD18R,1.000000X2.800000*%
%ADD19C,0.400000*%
%ADD20C,0.400000*%
%ADD21C,0.500000*%
G04 APERTURE END LIST*
D10*
G36*
X176980000Y-105089000D02*
G01*
X177113000Y-105079000D01*
X177242000Y-105047000D01*
X177365000Y-104996000D01*
X177479000Y-104927000D01*
X177580000Y-104840000D01*
X177667000Y-104739000D01*
X177736000Y-104625000D01*
X177787000Y-104502000D01*
X177819000Y-104373000D01*
X177829000Y-104240000D01*
X177819000Y-104107000D01*
X177787000Y-103978000D01*
X177736000Y-103855000D01*
X177667000Y-103741000D01*
X177580000Y-103640000D01*
X177479000Y-103553000D01*
X177365000Y-103484000D01*
X177242000Y-103433000D01*
X177113000Y-103401000D01*
X176980000Y-103391000D01*
X176480000Y-103391000D01*
X176347000Y-103401000D01*
X176218000Y-103433000D01*
X176095000Y-103484000D01*
X175981000Y-103553000D01*
X175880000Y-103640000D01*
X175793000Y-103741000D01*
X175724000Y-103855000D01*
X175673000Y-103978000D01*
X175641000Y-104107000D01*
X175631000Y-104240000D01*
X175641000Y-104373000D01*
X175673000Y-104502000D01*
X175724000Y-104625000D01*
X175793000Y-104739000D01*
X175880000Y-104840000D01*
X175981000Y-104927000D01*
X176095000Y-104996000D01*
X176218000Y-105047000D01*
X176347000Y-105079000D01*
X176480000Y-105089000D01*
X176980000Y-105089000D01*
G37*
G36*
X176980000Y-96889000D02*
G01*
X177113000Y-96879000D01*
X177242000Y-96847000D01*
X177365000Y-96796000D01*
X177479000Y-96727000D01*
X177580000Y-96640000D01*
X177667000Y-96539000D01*
X177736000Y-96425000D01*
X177787000Y-96302000D01*
X177819000Y-96173000D01*
X177829000Y-96040000D01*
X177819000Y-95907000D01*
X177787000Y-95778000D01*
X177736000Y-95655000D01*
X177667000Y-95541000D01*
X177580000Y-95440000D01*
X177479000Y-95353000D01*
X177365000Y-95284000D01*
X177242000Y-95233000D01*
X177113000Y-95201000D01*
X176980000Y-95191000D01*
X176480000Y-95191000D01*
X176347000Y-95201000D01*
X176218000Y-95233000D01*
X176095000Y-95284000D01*
X175981000Y-95353000D01*
X175880000Y-95440000D01*
X175793000Y-95541000D01*
X175724000Y-95655000D01*
X175673000Y-95778000D01*
X175641000Y-95907000D01*
X175631000Y-96040000D01*
X175641000Y-96173000D01*
X175673000Y-96302000D01*
X175724000Y-96425000D01*
X175793000Y-96539000D01*
X175880000Y-96640000D01*
X175981000Y-96727000D01*
X176095000Y-96796000D01*
X176218000Y-96847000D01*
X176347000Y-96879000D01*
X176480000Y-96889000D01*
X176980000Y-96889000D01*
G37*
G36*
X176980000Y-102789000D02*
G01*
X177082000Y-102781000D01*
X177181000Y-102757000D01*
X177275000Y-102718000D01*
X177361000Y-102665000D01*
X177439000Y-102599000D01*
X177505000Y-102521000D01*
X177558000Y-102435000D01*
X177597000Y-102341000D01*
X177621000Y-102242000D01*
X177629000Y-102140000D01*
X177621000Y-102038000D01*
X177597000Y-101939000D01*
X177558000Y-101845000D01*
X177505000Y-101759000D01*
X177439000Y-101681000D01*
X177361000Y-101615000D01*
X177275000Y-101562000D01*
X177181000Y-101523000D01*
X177082000Y-101499000D01*
X176980000Y-101491000D01*
X176480000Y-101491000D01*
X176378000Y-101499000D01*
X176279000Y-101523000D01*
X176185000Y-101562000D01*
X176099000Y-101615000D01*
X176021000Y-101681000D01*
X175955000Y-101759000D01*
X175902000Y-101845000D01*
X175863000Y-101939000D01*
X175839000Y-102038000D01*
X175831000Y-102140000D01*
X175839000Y-102242000D01*
X175863000Y-102341000D01*
X175902000Y-102435000D01*
X175955000Y-102521000D01*
X176021000Y-102599000D01*
X176099000Y-102665000D01*
X176185000Y-102718000D01*
X176279000Y-102757000D01*
X176378000Y-102781000D01*
X176480000Y-102789000D01*
X176980000Y-102789000D01*
G37*
G36*
X176980000Y-100789000D02*
G01*
X177082000Y-100781000D01*
X177181000Y-100757000D01*
X177275000Y-100718000D01*
X177361000Y-100665000D01*
X177439000Y-100599000D01*
X177505000Y-100521000D01*
X177558000Y-100435000D01*
X177597000Y-100341000D01*
X177621000Y-100242000D01*
X177629000Y-100140000D01*
X177621000Y-100038000D01*
X177597000Y-99939000D01*
X177558000Y-99845000D01*
X177505000Y-99759000D01*
X177439000Y-99681000D01*
X177361000Y-99615000D01*
X177275000Y-99562000D01*
X177181000Y-99523000D01*
X177082000Y-99499000D01*
X176980000Y-99491000D01*
X176480000Y-99491000D01*
X176378000Y-99499000D01*
X176279000Y-99523000D01*
X176185000Y-99562000D01*
X176099000Y-99615000D01*
X176021000Y-99681000D01*
X175955000Y-99759000D01*
X175902000Y-99845000D01*
X175863000Y-99939000D01*
X175839000Y-100038000D01*
X175831000Y-100140000D01*
X175839000Y-100242000D01*
X175863000Y-100341000D01*
X175902000Y-100435000D01*
X175955000Y-100521000D01*
X176021000Y-100599000D01*
X176099000Y-100665000D01*
X176185000Y-100718000D01*
X176279000Y-100757000D01*
X176378000Y-100781000D01*
X176480000Y-100789000D01*
X176980000Y-100789000D01*
G37*
G36*
X176980000Y-98789000D02*
G01*
X177082000Y-98781000D01*
X177181000Y-98757000D01*
X177275000Y-98718000D01*
X177361000Y-98665000D01*
X177439000Y-98599000D01*
X177505000Y-98521000D01*
X177558000Y-98435000D01*
X177597000Y-98341000D01*
X177621000Y-98242000D01*
X177629000Y-98140000D01*
X177621000Y-98038000D01*
X177597000Y-97939000D01*
X177558000Y-97845000D01*
X177505000Y-97759000D01*
X177439000Y-97681000D01*
X177361000Y-97615000D01*
X177275000Y-97562000D01*
X177181000Y-97523000D01*
X177082000Y-97499000D01*
X176980000Y-97491000D01*
X176480000Y-97491000D01*
X176378000Y-97499000D01*
X176279000Y-97523000D01*
X176185000Y-97562000D01*
X176099000Y-97615000D01*
X176021000Y-97681000D01*
X175955000Y-97759000D01*
X175902000Y-97845000D01*
X175863000Y-97939000D01*
X175839000Y-98038000D01*
X175831000Y-98140000D01*
X175839000Y-98242000D01*
X175863000Y-98341000D01*
X175902000Y-98435000D01*
X175955000Y-98521000D01*
X176021000Y-98599000D01*
X176099000Y-98665000D01*
X176185000Y-98718000D01*
X176279000Y-98757000D01*
X176378000Y-98781000D01*
X176480000Y-98789000D01*
X176980000Y-98789000D01*
G37*
D11*
X176730000Y-104240000D03*
X176730000Y-96040000D03*
D12*
X176730000Y-102140000D03*
X176730000Y-100140000D03*
X176730000Y-98140000D03*
D13*
X181600000Y-93090000D03*
X181600000Y-107220000D03*
D14*
X117169000Y-107644000D03*
X117169000Y-92643600D03*
X171309000Y-92643600D03*
X127515000Y-100115000D03*
D15*
X170340000Y-100144000D03*
X172880000Y-100144000D03*
D16*
X173100000Y-96500000D03*
X123000000Y-101400000D03*
X122980000Y-98910000D03*
D17*
X172475000Y-103700000D03*
X170725000Y-103700000D03*
D16*
X122800000Y-106200000D03*
X125500000Y-106200000D03*
D18*
X120523000Y-97244000D03*
X120523000Y-103044000D03*
X116523000Y-97244000D03*
X116523000Y-103044000D03*
X160510000Y-97250000D03*
X160510000Y-103050000D03*
X156510000Y-97250000D03*
X156510000Y-103050000D03*
X167070000Y-97250000D03*
X167070000Y-103050000D03*
X163070000Y-97250000D03*
X163070000Y-103050000D03*
D19*
X166200000Y-99500000D03*
X167316200Y-94592000D03*
X161571400Y-103161200D03*
X179500000Y-109200000D03*
X178100000Y-109200000D03*
X178800000Y-109200000D03*
X178800000Y-108500000D03*
X178100000Y-108500000D03*
X178100000Y-107800000D03*
X178800000Y-107800000D03*
X178100000Y-107100000D03*
X178800000Y-107100000D03*
X178800000Y-106400000D03*
X183800000Y-105000000D03*
X179600000Y-105000000D03*
X179600000Y-104300000D03*
X180300000Y-104300000D03*
X183800000Y-104300000D03*
X183100000Y-104300000D03*
X181700000Y-104300000D03*
X181000000Y-104300000D03*
X182400000Y-104300000D03*
X183100000Y-103600000D03*
X181000000Y-103600000D03*
X181700000Y-103600000D03*
X182400000Y-103600000D03*
X183800000Y-103600000D03*
X182400000Y-102900000D03*
X181000000Y-102900000D03*
X183800000Y-102900000D03*
X181700000Y-102900000D03*
X183100000Y-102900000D03*
X183800000Y-102200000D03*
X183100000Y-102200000D03*
X182400000Y-102200000D03*
X181700000Y-102200000D03*
X181000000Y-102200000D03*
X178100000Y-106400000D03*
X175634150Y-105865850D03*
X157100004Y-95199996D03*
X164000000Y-99500000D03*
X164599982Y-105199979D03*
X179600000Y-95400000D03*
X183800000Y-95400000D03*
X183800000Y-96100000D03*
X183100000Y-96100000D03*
X182400000Y-96100000D03*
X183100000Y-96800000D03*
X182400000Y-96800000D03*
X183800000Y-96800000D03*
X183100000Y-97500000D03*
X183800000Y-97500000D03*
X182400000Y-97500000D03*
X182400000Y-98200000D03*
X182400000Y-98900000D03*
X183800000Y-98200000D03*
X183800000Y-100300000D03*
X183800000Y-99600000D03*
X183800000Y-98900000D03*
X183800000Y-101000000D03*
X180300000Y-101000000D03*
X183100000Y-100300000D03*
X181000000Y-101000000D03*
X182400000Y-100300000D03*
X181000000Y-100300000D03*
X181700000Y-99600000D03*
X183100000Y-101000000D03*
X183100000Y-98200000D03*
X181700000Y-100300000D03*
X181000000Y-99600000D03*
X179600000Y-99600000D03*
X179600000Y-101000000D03*
X182400000Y-101000000D03*
X180300000Y-100300000D03*
X182400000Y-99600000D03*
X180300000Y-99600000D03*
X179600000Y-100300000D03*
X183100000Y-99600000D03*
X183100000Y-98900000D03*
X181700000Y-101000000D03*
X180300000Y-96800000D03*
X181700000Y-98900000D03*
X181700000Y-96800000D03*
X180300000Y-97500000D03*
X181000000Y-98900000D03*
X181700000Y-97500000D03*
X181700000Y-96100000D03*
X180300000Y-98900000D03*
X181000000Y-96800000D03*
X181000000Y-96100000D03*
X179600000Y-97500000D03*
X179600000Y-98900000D03*
X181000000Y-97500000D03*
X181700000Y-98200000D03*
X179600000Y-96100000D03*
X180300000Y-96100000D03*
X179600000Y-96800000D03*
X179600000Y-98200000D03*
X180300000Y-98200000D03*
X181000000Y-98200000D03*
X178400000Y-93700000D03*
X176400000Y-93700000D03*
X177100000Y-93700000D03*
X177750000Y-93700000D03*
X177100000Y-93000000D03*
X178400000Y-93000000D03*
X176400000Y-93000000D03*
X177750000Y-93000000D03*
X177100000Y-92300000D03*
X178400000Y-92300000D03*
X177750000Y-92300000D03*
X176400000Y-92300000D03*
X178400000Y-91600000D03*
X177750000Y-91600000D03*
X177100000Y-91600000D03*
X179100000Y-90900000D03*
X178400000Y-90900000D03*
X176400000Y-91600000D03*
X177750000Y-90900000D03*
X177100000Y-90900000D03*
X176400000Y-90900000D03*
X165801800Y-105446000D03*
X157500000Y-105400000D03*
X156782600Y-92702700D03*
X174300001Y-105064490D03*
X165100000Y-104000000D03*
X169532000Y-105488900D03*
X154860500Y-103049700D03*
D20*
X167070000Y-99875500D02*
X167070000Y-99150300D01*
X167070000Y-103050000D02*
X167070000Y-99875500D01*
X167070000Y-97250000D02*
X167070000Y-99150300D01*
X167070000Y-99875500D02*
X167070000Y-99530000D01*
X167040000Y-99500000D02*
X166200000Y-99500000D01*
X172880000Y-100144000D02*
X172880000Y-98743700D01*
X172880000Y-98743700D02*
X168728300Y-94592000D01*
X168728300Y-94592000D02*
X167316200Y-94592000D01*
X160510000Y-97250000D02*
X160510000Y-96925200D01*
X163070000Y-97590700D02*
X163070000Y-97931400D01*
X163070000Y-97250000D02*
X163070000Y-97590700D01*
X177982900Y-107129200D02*
X176897500Y-107129200D01*
X176897500Y-107129200D02*
X175834149Y-106065849D01*
X175834149Y-106065849D02*
X175634150Y-105865850D01*
X163070000Y-97250000D02*
X163070000Y-99124000D01*
X164000000Y-99500000D02*
X163200000Y-99500000D01*
X163070000Y-99124000D02*
X163070000Y-99370000D01*
X163200000Y-99500000D02*
X163070000Y-99370000D01*
X163070000Y-99370000D02*
X163070000Y-103050000D01*
X160884800Y-97300000D02*
X160510000Y-96925200D01*
X163070000Y-97590700D02*
X162779300Y-97300000D01*
X162779300Y-97300000D02*
X160884800Y-97300000D01*
X160621200Y-103161200D02*
X160510000Y-103050000D01*
X161571400Y-103161200D02*
X160621200Y-103161200D01*
X162958800Y-103161200D02*
X161571400Y-103161200D01*
X163070000Y-103050000D02*
X162958800Y-103161200D01*
X157900000Y-95999992D02*
X157100004Y-95199996D01*
X160684800Y-97300000D02*
X159200008Y-97300000D01*
X159200008Y-97300000D02*
X157900000Y-95999992D01*
X156900005Y-94999997D02*
X157100004Y-95199996D01*
X154286598Y-92386590D02*
X156900005Y-94999997D01*
X124900000Y-104100000D02*
X127200000Y-104100000D01*
X122800000Y-106200000D02*
X124900000Y-104100000D01*
X127200000Y-104100000D02*
X129623090Y-101676910D01*
X129623090Y-101676910D02*
X129623090Y-92723424D01*
X129623090Y-92723424D02*
X129959924Y-92386590D01*
X129959924Y-92386590D02*
X154286598Y-92386590D01*
X156510000Y-97250000D02*
X156510000Y-99150300D01*
X156510000Y-103050000D02*
X156510000Y-101149700D01*
X156510000Y-101149700D02*
X156510000Y-99150300D01*
X156510000Y-103050000D02*
X157410000Y-103050000D01*
X159559979Y-105199979D02*
X164317140Y-105199979D01*
X157410000Y-103050000D02*
X159559979Y-105199979D01*
X164317140Y-105199979D02*
X164599982Y-105199979D01*
X174800000Y-100500000D02*
X175160000Y-100140000D01*
X172475000Y-103700000D02*
X173170000Y-103700000D01*
X175160000Y-100140000D02*
X176730000Y-100140000D01*
X174800000Y-102070000D02*
X174800000Y-100500000D01*
X173170000Y-103700000D02*
X174800000Y-102070000D01*
X170700000Y-103675000D02*
X170700000Y-100829300D01*
X170725000Y-103700000D02*
X170700000Y-103675000D01*
X157699999Y-105599999D02*
X157500000Y-105400000D01*
X158143400Y-106043400D02*
X157699999Y-105599999D01*
X165801800Y-105446000D02*
X165204400Y-106043400D01*
X165204400Y-106043400D02*
X158143400Y-106043400D01*
X165124000Y-95327000D02*
X167801700Y-95327000D01*
X174017159Y-105064490D02*
X174300001Y-105064490D01*
X168939700Y-96465000D02*
X168939700Y-103471700D01*
X167801700Y-95327000D02*
X168939700Y-96465000D01*
X168939700Y-103471700D02*
X170532490Y-105064490D01*
X170532490Y-105064490D02*
X174017159Y-105064490D01*
X159406900Y-95327000D02*
X156782600Y-92702700D01*
X165124000Y-95327000D02*
X159406900Y-95327000D01*
X165100000Y-103717158D02*
X165100000Y-104000000D01*
X165100000Y-95351000D02*
X165100000Y-103717158D01*
X165124000Y-95327000D02*
X165100000Y-95351000D01*
X154860500Y-106752400D02*
X154860500Y-103049700D01*
X154860500Y-107639500D02*
X154860500Y-106752400D01*
X154703390Y-107796610D02*
X154860500Y-107639500D01*
X125500000Y-106200000D02*
X127096610Y-107796610D01*
X127096610Y-107796610D02*
X154703390Y-107796610D01*
X169332001Y-105688899D02*
X169532000Y-105488900D01*
X154860500Y-106939500D02*
X168081400Y-106939500D01*
X168081400Y-106939500D02*
X169332001Y-105688899D01*
X120523000Y-103044000D02*
X123369700Y-103044000D01*
X123369700Y-103044000D02*
X124415100Y-101998600D01*
X124415100Y-101998600D02*
X124415100Y-100345100D01*
X124415100Y-100345100D02*
X122980000Y-98910000D01*
X120523000Y-99144300D02*
X122745700Y-99144300D01*
X122745700Y-99144300D02*
X122980000Y-98910000D01*
X120523000Y-97244000D02*
X120523000Y-99144300D01*
X116523000Y-97244000D02*
X116523000Y-101143700D01*
X116523000Y-103044000D02*
X116523000Y-101143700D01*
X116523000Y-101143700D02*
X122743700Y-101143700D01*
X122743700Y-101143700D02*
X123000000Y-101400000D01*
D21*
G36*
X183271097Y-90786278D02*
G01*
X183415306Y-90829798D01*
X183548321Y-90900502D01*
X183665061Y-90995689D01*
X183761095Y-91111745D01*
X183832758Y-91244245D01*
X183877319Y-91388135D01*
X183896101Y-91566618D01*
X183896100Y-101250000D01*
X179450000Y-101250000D01*
X179450000Y-94100000D01*
X179445196Y-94051227D01*
X179430970Y-94004329D01*
X179407867Y-93961107D01*
X179376777Y-93923223D01*
X179338893Y-93892133D01*
X179295671Y-93869030D01*
X179248773Y-93854804D01*
X179200000Y-93850000D01*
X176239151Y-93850000D01*
X176259423Y-90768600D01*
X183090577Y-90768600D01*
X183271097Y-90786278D01*
X183271097Y-90786278D01*
G37*
X183271097Y-90786278D02*
X183415306Y-90829798D01*
X183548321Y-90900502D01*
X183665061Y-90995689D01*
X183761095Y-91111745D01*
X183832758Y-91244245D01*
X183877319Y-91388135D01*
X183896101Y-91566618D01*
X183896100Y-101250000D01*
X179450000Y-101250000D01*
X179450000Y-94100000D01*
X179445196Y-94051227D01*
X179430970Y-94004329D01*
X179407867Y-93961107D01*
X179376777Y-93923223D01*
X179338893Y-93892133D01*
X179295671Y-93869030D01*
X179248773Y-93854804D01*
X179200000Y-93850000D01*
X176239151Y-93850000D01*
X176259423Y-90768600D01*
X183090577Y-90768600D01*
X183271097Y-90786278D01*
G36*
X183896100Y-106324303D02*
G01*
X183896101Y-106324313D01*
X183896100Y-108713066D01*
X183878421Y-108893595D01*
X183834901Y-109037805D01*
X183764199Y-109170817D01*
X183669009Y-109287561D01*
X183552954Y-109383594D01*
X183420452Y-109455259D01*
X183276565Y-109499819D01*
X183098091Y-109518600D01*
X178050000Y-109518600D01*
X178050000Y-106150000D01*
X179200000Y-106150000D01*
X179248773Y-106145196D01*
X179295671Y-106130970D01*
X179338893Y-106107867D01*
X179376777Y-106076777D01*
X179407867Y-106038893D01*
X179430970Y-105995671D01*
X179445196Y-105948773D01*
X179450000Y-105900000D01*
X179450000Y-102150000D01*
X183896100Y-102150000D01*
X183896100Y-106324303D01*
X183896100Y-106324303D01*
G37*
X183896100Y-106324303D02*
X183896101Y-106324313D01*
X183896100Y-108713066D01*
X183878421Y-108893595D01*
X183834901Y-109037805D01*
X183764199Y-109170817D01*
X183669009Y-109287561D01*
X183552954Y-109383594D01*
X183420452Y-109455259D01*
X183276565Y-109499819D01*
X183098091Y-109518600D01*
X178050000Y-109518600D01*
X178050000Y-106150000D01*
X179200000Y-106150000D01*
X179248773Y-106145196D01*
X179295671Y-106130970D01*
X179338893Y-106107867D01*
X179376777Y-106076777D01*
X179407867Y-106038893D01*
X179430970Y-105995671D01*
X179445196Y-105948773D01*
X179450000Y-105900000D01*
X179450000Y-102150000D01*
X183896100Y-102150000D01*
X183896100Y-106324303D01*
M02*
