%FSLAX45Y45*%
G04 Gerber Fmt 4.5, Leading zero omitted, Abs format (unit mm)*
G04 Created by KiCad (PCBNEW 5.1.0-unknown-9e240db~82~ubuntu18.04.1) date 2019-04-20 17:34:24*
%MOMM*%
%LPD*%
G04 APERTURE LIST*
%ADD10C,0.150000*%
%ADD11C,0.200000*%
%ADD12C,0.300000*%
G04 APERTURE END LIST*
D10*
X11769610Y-11014360D02*
X18312110Y-11014360D01*
X11769610Y-11014360D02*
G75*
G02X11452110Y-10696860I22J317522D01*
G01*
X15299810Y-9296160D02*
X13019810Y-9296160D01*
X13019810Y-10722160D02*
X15299810Y-10722160D01*
X15299810Y-10722160D02*
X15299810Y-9296160D01*
X13019810Y-9296160D02*
X13019810Y-10722160D01*
X18312110Y-11014360D02*
X18312110Y-11014360D01*
X11452110Y-9331860D02*
X11452110Y-10696860D01*
X18312110Y-9014360D02*
G75*
G02X18452110Y-9154360I17J-139983D01*
G01*
X18452110Y-10629360D02*
X18452110Y-9154360D01*
X11452110Y-9331860D02*
G75*
G02X11769610Y-9014360I317522J-22D01*
G01*
X18452110Y-10874360D02*
G75*
G02X18312110Y-11014360I-139983J-17D01*
G01*
X18452110Y-10874360D02*
X18452110Y-10629360D01*
X18312110Y-9014360D02*
X11769610Y-9014360D01*
D11*
X15471050Y-10289970D02*
X15501050Y-10319970D01*
X15501050Y-10289970D02*
X15471050Y-10319970D01*
X15663260Y-9255270D02*
X15693260Y-9285270D01*
X15693260Y-9255270D02*
X15663260Y-9285270D01*
X15695000Y-9505000D02*
X15725000Y-9535000D01*
X15725000Y-9505000D02*
X15695000Y-9535000D01*
X15735000Y-10525000D02*
X15765000Y-10555000D01*
X15765000Y-10525000D02*
X15735000Y-10555000D01*
X16142140Y-10301120D02*
X16172140Y-10331120D01*
X16172140Y-10301120D02*
X16142140Y-10331120D01*
X16385000Y-9935000D02*
X16415000Y-9965000D01*
X16415000Y-9935000D02*
X16385000Y-9965000D01*
X16444998Y-10504998D02*
X16474998Y-10534998D01*
X16474998Y-10504998D02*
X16444998Y-10534998D01*
X16495000Y-10385000D02*
X16525000Y-10415000D01*
X16525000Y-10385000D02*
X16495000Y-10415000D01*
X16565180Y-10529600D02*
X16595180Y-10559600D01*
X16595180Y-10529600D02*
X16565180Y-10559600D01*
X16605000Y-9935000D02*
X16635000Y-9965000D01*
X16635000Y-9935000D02*
X16605000Y-9965000D01*
X16716620Y-9444200D02*
X16746620Y-9474200D01*
X16746620Y-9444200D02*
X16716620Y-9474200D01*
X16938200Y-10533890D02*
X16968200Y-10563890D01*
X16968200Y-10533890D02*
X16938200Y-10563890D01*
X17415000Y-10491449D02*
X17445000Y-10521449D01*
X17445000Y-10491449D02*
X17415000Y-10521449D01*
X17548415Y-10571585D02*
X17578415Y-10601585D01*
X17578415Y-10571585D02*
X17548415Y-10601585D01*
X17625000Y-9075000D02*
X17655000Y-9105000D01*
X17655000Y-9075000D02*
X17625000Y-9105000D01*
X17625000Y-9145000D02*
X17655000Y-9175000D01*
X17655000Y-9145000D02*
X17625000Y-9175000D01*
X17625000Y-9215000D02*
X17655000Y-9245000D01*
X17655000Y-9215000D02*
X17625000Y-9245000D01*
X17625000Y-9285000D02*
X17655000Y-9315000D01*
X17655000Y-9285000D02*
X17625000Y-9315000D01*
X17625000Y-9355000D02*
X17655000Y-9385000D01*
X17655000Y-9355000D02*
X17625000Y-9385000D01*
X17695000Y-9075000D02*
X17725000Y-9105000D01*
X17725000Y-9075000D02*
X17695000Y-9105000D01*
X17695000Y-9145000D02*
X17725000Y-9175000D01*
X17725000Y-9145000D02*
X17695000Y-9175000D01*
X17695000Y-9215000D02*
X17725000Y-9245000D01*
X17725000Y-9215000D02*
X17695000Y-9245000D01*
X17695000Y-9285000D02*
X17725000Y-9315000D01*
X17725000Y-9285000D02*
X17695000Y-9315000D01*
X17695000Y-9355000D02*
X17725000Y-9385000D01*
X17725000Y-9355000D02*
X17695000Y-9385000D01*
X17760000Y-9075000D02*
X17790000Y-9105000D01*
X17790000Y-9075000D02*
X17760000Y-9105000D01*
X17760000Y-9145000D02*
X17790000Y-9175000D01*
X17790000Y-9145000D02*
X17760000Y-9175000D01*
X17760000Y-9215000D02*
X17790000Y-9245000D01*
X17790000Y-9215000D02*
X17760000Y-9245000D01*
X17760000Y-9285000D02*
X17790000Y-9315000D01*
X17790000Y-9285000D02*
X17760000Y-9315000D01*
X17760000Y-9355000D02*
X17790000Y-9385000D01*
X17790000Y-9355000D02*
X17760000Y-9385000D01*
X17795000Y-10625000D02*
X17825000Y-10655000D01*
X17825000Y-10625000D02*
X17795000Y-10655000D01*
X17795000Y-10695000D02*
X17825000Y-10725000D01*
X17825000Y-10695000D02*
X17795000Y-10725000D01*
X17795000Y-10765000D02*
X17825000Y-10795000D01*
X17825000Y-10765000D02*
X17795000Y-10795000D01*
X17795000Y-10835000D02*
X17825000Y-10865000D01*
X17825000Y-10835000D02*
X17795000Y-10865000D01*
X17795000Y-10905000D02*
X17825000Y-10935000D01*
X17825000Y-10905000D02*
X17795000Y-10935000D01*
X17825000Y-9075000D02*
X17855000Y-9105000D01*
X17855000Y-9075000D02*
X17825000Y-9105000D01*
X17825000Y-9145000D02*
X17855000Y-9175000D01*
X17855000Y-9145000D02*
X17825000Y-9175000D01*
X17825000Y-9215000D02*
X17855000Y-9245000D01*
X17855000Y-9215000D02*
X17825000Y-9245000D01*
X17825000Y-9285000D02*
X17855000Y-9315000D01*
X17855000Y-9285000D02*
X17825000Y-9315000D01*
X17825000Y-9355000D02*
X17855000Y-9385000D01*
X17855000Y-9355000D02*
X17825000Y-9385000D01*
X17865000Y-10625000D02*
X17895000Y-10655000D01*
X17895000Y-10625000D02*
X17865000Y-10655000D01*
X17865000Y-10695000D02*
X17895000Y-10725000D01*
X17895000Y-10695000D02*
X17865000Y-10725000D01*
X17865000Y-10765000D02*
X17895000Y-10795000D01*
X17895000Y-10765000D02*
X17865000Y-10795000D01*
X17865000Y-10835000D02*
X17895000Y-10865000D01*
X17895000Y-10835000D02*
X17865000Y-10865000D01*
X17865000Y-10905000D02*
X17895000Y-10935000D01*
X17895000Y-10905000D02*
X17865000Y-10935000D01*
X17895000Y-9075000D02*
X17925000Y-9105000D01*
X17925000Y-9075000D02*
X17895000Y-9105000D01*
X17935000Y-10905000D02*
X17965000Y-10935000D01*
X17965000Y-10905000D02*
X17935000Y-10935000D01*
X17945000Y-9525000D02*
X17975000Y-9555000D01*
X17975000Y-9525000D02*
X17945000Y-9555000D01*
X17945000Y-9595000D02*
X17975000Y-9625000D01*
X17975000Y-9595000D02*
X17945000Y-9625000D01*
X17945000Y-9665000D02*
X17975000Y-9695000D01*
X17975000Y-9665000D02*
X17945000Y-9695000D01*
X17945000Y-9735000D02*
X17975000Y-9765000D01*
X17975000Y-9735000D02*
X17945000Y-9765000D01*
X17945000Y-9805000D02*
X17975000Y-9835000D01*
X17975000Y-9805000D02*
X17945000Y-9835000D01*
X17945000Y-9875000D02*
X17975000Y-9905000D01*
X17975000Y-9875000D02*
X17945000Y-9905000D01*
X17945000Y-9945000D02*
X17975000Y-9975000D01*
X17975000Y-9945000D02*
X17945000Y-9975000D01*
X17945000Y-10015000D02*
X17975000Y-10045000D01*
X17975000Y-10015000D02*
X17945000Y-10045000D01*
X17945000Y-10085000D02*
X17975000Y-10115000D01*
X17975000Y-10085000D02*
X17945000Y-10115000D01*
X17945000Y-10415000D02*
X17975000Y-10445000D01*
X17975000Y-10415000D02*
X17945000Y-10445000D01*
X17945000Y-10485000D02*
X17975000Y-10515000D01*
X17975000Y-10485000D02*
X17945000Y-10515000D01*
X18015000Y-9595000D02*
X18045000Y-9625000D01*
X18045000Y-9595000D02*
X18015000Y-9625000D01*
X18015000Y-9665000D02*
X18045000Y-9695000D01*
X18045000Y-9665000D02*
X18015000Y-9695000D01*
X18015000Y-9735000D02*
X18045000Y-9765000D01*
X18045000Y-9735000D02*
X18015000Y-9765000D01*
X18015000Y-9805000D02*
X18045000Y-9835000D01*
X18045000Y-9805000D02*
X18015000Y-9835000D01*
X18015000Y-9875000D02*
X18045000Y-9905000D01*
X18045000Y-9875000D02*
X18015000Y-9905000D01*
X18015000Y-9945000D02*
X18045000Y-9975000D01*
X18045000Y-9945000D02*
X18015000Y-9975000D01*
X18015000Y-10015000D02*
X18045000Y-10045000D01*
X18045000Y-10015000D02*
X18015000Y-10045000D01*
X18015000Y-10085000D02*
X18045000Y-10115000D01*
X18045000Y-10085000D02*
X18015000Y-10115000D01*
X18015000Y-10415000D02*
X18045000Y-10445000D01*
X18045000Y-10415000D02*
X18015000Y-10445000D01*
X18085000Y-9595000D02*
X18115000Y-9625000D01*
X18115000Y-9595000D02*
X18085000Y-9625000D01*
X18085000Y-9665000D02*
X18115000Y-9695000D01*
X18115000Y-9665000D02*
X18085000Y-9695000D01*
X18085000Y-9735000D02*
X18115000Y-9765000D01*
X18115000Y-9735000D02*
X18085000Y-9765000D01*
X18085000Y-9805000D02*
X18115000Y-9835000D01*
X18115000Y-9805000D02*
X18085000Y-9835000D01*
X18085000Y-9875000D02*
X18115000Y-9905000D01*
X18115000Y-9875000D02*
X18085000Y-9905000D01*
X18085000Y-9945000D02*
X18115000Y-9975000D01*
X18115000Y-9945000D02*
X18085000Y-9975000D01*
X18085000Y-10015000D02*
X18115000Y-10045000D01*
X18115000Y-10015000D02*
X18085000Y-10045000D01*
X18085000Y-10085000D02*
X18115000Y-10115000D01*
X18115000Y-10085000D02*
X18085000Y-10115000D01*
X18085000Y-10205000D02*
X18115000Y-10235000D01*
X18115000Y-10205000D02*
X18085000Y-10235000D01*
X18085000Y-10275000D02*
X18115000Y-10305000D01*
X18115000Y-10275000D02*
X18085000Y-10305000D01*
X18085000Y-10345000D02*
X18115000Y-10375000D01*
X18115000Y-10345000D02*
X18085000Y-10375000D01*
X18085000Y-10415000D02*
X18115000Y-10445000D01*
X18115000Y-10415000D02*
X18085000Y-10445000D01*
X18155000Y-9595000D02*
X18185000Y-9625000D01*
X18185000Y-9595000D02*
X18155000Y-9625000D01*
X18155000Y-9665000D02*
X18185000Y-9695000D01*
X18185000Y-9665000D02*
X18155000Y-9695000D01*
X18155000Y-9735000D02*
X18185000Y-9765000D01*
X18185000Y-9735000D02*
X18155000Y-9765000D01*
X18155000Y-9805000D02*
X18185000Y-9835000D01*
X18185000Y-9805000D02*
X18155000Y-9835000D01*
X18155000Y-9875000D02*
X18185000Y-9905000D01*
X18185000Y-9875000D02*
X18155000Y-9905000D01*
X18155000Y-9945000D02*
X18185000Y-9975000D01*
X18185000Y-9945000D02*
X18155000Y-9975000D01*
X18155000Y-10015000D02*
X18185000Y-10045000D01*
X18185000Y-10015000D02*
X18155000Y-10045000D01*
X18155000Y-10085000D02*
X18185000Y-10115000D01*
X18185000Y-10085000D02*
X18155000Y-10115000D01*
X18155000Y-10205000D02*
X18185000Y-10235000D01*
X18185000Y-10205000D02*
X18155000Y-10235000D01*
X18155000Y-10275000D02*
X18185000Y-10305000D01*
X18185000Y-10275000D02*
X18155000Y-10305000D01*
X18155000Y-10345000D02*
X18185000Y-10375000D01*
X18185000Y-10345000D02*
X18155000Y-10375000D01*
X18155000Y-10415000D02*
X18185000Y-10445000D01*
X18185000Y-10415000D02*
X18155000Y-10445000D01*
X18225000Y-9595000D02*
X18255000Y-9625000D01*
X18255000Y-9595000D02*
X18225000Y-9625000D01*
X18225000Y-9665000D02*
X18255000Y-9695000D01*
X18255000Y-9665000D02*
X18225000Y-9695000D01*
X18225000Y-9735000D02*
X18255000Y-9765000D01*
X18255000Y-9735000D02*
X18225000Y-9765000D01*
X18225000Y-9805000D02*
X18255000Y-9835000D01*
X18255000Y-9805000D02*
X18225000Y-9835000D01*
X18225000Y-9875000D02*
X18255000Y-9905000D01*
X18255000Y-9875000D02*
X18225000Y-9905000D01*
X18225000Y-9945000D02*
X18255000Y-9975000D01*
X18255000Y-9945000D02*
X18225000Y-9975000D01*
X18225000Y-10015000D02*
X18255000Y-10045000D01*
X18255000Y-10015000D02*
X18225000Y-10045000D01*
X18225000Y-10085000D02*
X18255000Y-10115000D01*
X18255000Y-10085000D02*
X18225000Y-10115000D01*
X18225000Y-10205000D02*
X18255000Y-10235000D01*
X18255000Y-10205000D02*
X18225000Y-10235000D01*
X18225000Y-10275000D02*
X18255000Y-10305000D01*
X18255000Y-10275000D02*
X18225000Y-10305000D01*
X18225000Y-10345000D02*
X18255000Y-10375000D01*
X18255000Y-10345000D02*
X18225000Y-10375000D01*
X18225000Y-10415000D02*
X18255000Y-10445000D01*
X18255000Y-10415000D02*
X18225000Y-10445000D01*
X18295000Y-9595000D02*
X18325000Y-9625000D01*
X18325000Y-9595000D02*
X18295000Y-9625000D01*
X18295000Y-9665000D02*
X18325000Y-9695000D01*
X18325000Y-9665000D02*
X18295000Y-9695000D01*
X18295000Y-9735000D02*
X18325000Y-9765000D01*
X18325000Y-9735000D02*
X18295000Y-9765000D01*
X18295000Y-9805000D02*
X18325000Y-9835000D01*
X18325000Y-9805000D02*
X18295000Y-9835000D01*
X18295000Y-9875000D02*
X18325000Y-9905000D01*
X18325000Y-9875000D02*
X18295000Y-9905000D01*
X18295000Y-9945000D02*
X18325000Y-9975000D01*
X18325000Y-9945000D02*
X18295000Y-9975000D01*
X18295000Y-10015000D02*
X18325000Y-10045000D01*
X18325000Y-10015000D02*
X18295000Y-10045000D01*
X18295000Y-10085000D02*
X18325000Y-10115000D01*
X18325000Y-10085000D02*
X18295000Y-10115000D01*
X18295000Y-10205000D02*
X18325000Y-10235000D01*
X18325000Y-10205000D02*
X18295000Y-10235000D01*
X18295000Y-10275000D02*
X18325000Y-10305000D01*
X18325000Y-10275000D02*
X18295000Y-10305000D01*
X18295000Y-10345000D02*
X18325000Y-10375000D01*
X18325000Y-10345000D02*
X18295000Y-10375000D01*
X18295000Y-10415000D02*
X18325000Y-10445000D01*
X18325000Y-10415000D02*
X18295000Y-10445000D01*
X18365000Y-9525000D02*
X18395000Y-9555000D01*
X18395000Y-9525000D02*
X18365000Y-9555000D01*
X18365000Y-9595000D02*
X18395000Y-9625000D01*
X18395000Y-9595000D02*
X18365000Y-9625000D01*
X18365000Y-9665000D02*
X18395000Y-9695000D01*
X18395000Y-9665000D02*
X18365000Y-9695000D01*
X18365000Y-9735000D02*
X18395000Y-9765000D01*
X18395000Y-9735000D02*
X18365000Y-9765000D01*
X18365000Y-9805000D02*
X18395000Y-9835000D01*
X18395000Y-9805000D02*
X18365000Y-9835000D01*
X18365000Y-9875000D02*
X18395000Y-9905000D01*
X18395000Y-9875000D02*
X18365000Y-9905000D01*
X18365000Y-9945000D02*
X18395000Y-9975000D01*
X18395000Y-9945000D02*
X18365000Y-9975000D01*
X18365000Y-10015000D02*
X18395000Y-10045000D01*
X18395000Y-10015000D02*
X18365000Y-10045000D01*
X18365000Y-10085000D02*
X18395000Y-10115000D01*
X18395000Y-10085000D02*
X18365000Y-10115000D01*
X18365000Y-10205000D02*
X18395000Y-10235000D01*
X18395000Y-10205000D02*
X18365000Y-10235000D01*
X18365000Y-10275000D02*
X18395000Y-10305000D01*
X18395000Y-10275000D02*
X18365000Y-10305000D01*
X18365000Y-10345000D02*
X18395000Y-10375000D01*
X18395000Y-10345000D02*
X18365000Y-10375000D01*
X18365000Y-10415000D02*
X18395000Y-10445000D01*
X18395000Y-10415000D02*
X18365000Y-10445000D01*
X18365000Y-10485000D02*
X18395000Y-10515000D01*
X18395000Y-10485000D02*
X18365000Y-10515000D01*
X17718000Y-9814000D02*
G75*
G03X17718000Y-9814000I-45000J0D01*
G01*
X17718000Y-10014000D02*
G75*
G03X17718000Y-10014000I-45000J0D01*
G01*
X17718000Y-10214000D02*
G75*
G03X17718000Y-10214000I-45000J0D01*
G01*
X17079000Y-10014400D02*
G75*
G03X17079000Y-10014400I-45000J0D01*
G01*
X17333000Y-10014400D02*
G75*
G03X17333000Y-10014400I-45000J0D01*
G01*
X12300000Y-10085000D02*
X12300000Y-10195000D01*
X12245000Y-10140000D02*
X12355000Y-10140000D01*
X12550000Y-10565000D02*
X12550000Y-10675000D01*
X12495000Y-10620000D02*
X12605000Y-10620000D01*
X17310000Y-9595000D02*
X17310000Y-9705000D01*
X17255000Y-9650000D02*
X17365000Y-9650000D01*
X12298000Y-9836000D02*
X12298000Y-9946000D01*
X12243000Y-9891000D02*
X12353000Y-9891000D01*
X12280000Y-10565000D02*
X12280000Y-10675000D01*
X12225000Y-10620000D02*
X12335000Y-10620000D01*
X17718962Y-9649962D02*
X17718962Y-9558038D01*
X17627038Y-9558038D01*
X17627038Y-9649962D01*
X17718962Y-9649962D01*
X17718962Y-10469962D02*
X17718962Y-10378038D01*
X17627038Y-10378038D01*
X17627038Y-10469962D01*
X17718962Y-10469962D01*
X11716900Y-9349360D02*
X11801900Y-9264360D01*
X11716900Y-9179360D01*
X11631900Y-9264360D01*
X11716900Y-9349360D01*
X11716900Y-10849400D02*
X11801900Y-10764400D01*
X11716900Y-10679400D01*
X11631900Y-10764400D01*
X11716900Y-10849400D01*
X17130900Y-9349360D02*
X17215900Y-9264360D01*
X17130900Y-9179360D01*
X17045900Y-9264360D01*
X17130900Y-9349360D01*
X12751500Y-10096500D02*
X12836500Y-10011500D01*
X12751500Y-9926500D01*
X12666500Y-10011500D01*
X12751500Y-10096500D01*
X18047500Y-10609500D02*
X18272500Y-10834500D01*
X18272500Y-10609500D02*
X18047500Y-10834500D01*
X18272500Y-10722000D02*
G75*
G03X18272500Y-10722000I-112500J0D01*
G01*
X18047500Y-9196500D02*
X18272500Y-9421500D01*
X18272500Y-9196500D02*
X18047500Y-9421500D01*
X18272500Y-9309000D02*
G75*
G03X18272500Y-9309000I-112500J0D01*
G01*
D12*
X11731038Y-11487574D02*
X11731038Y-11187574D01*
X11802467Y-11187574D01*
X11845324Y-11201860D01*
X11873896Y-11230431D01*
X11888181Y-11259003D01*
X11902467Y-11316146D01*
X11902467Y-11359003D01*
X11888181Y-11416146D01*
X11873896Y-11444717D01*
X11845324Y-11473289D01*
X11802467Y-11487574D01*
X11731038Y-11487574D01*
X12031038Y-11487574D02*
X12031038Y-11287574D01*
X12031038Y-11344717D02*
X12045324Y-11316146D01*
X12059610Y-11301860D01*
X12088181Y-11287574D01*
X12116753Y-11287574D01*
X12216753Y-11487574D02*
X12216753Y-11287574D01*
X12216753Y-11187574D02*
X12202467Y-11201860D01*
X12216753Y-11216146D01*
X12231038Y-11201860D01*
X12216753Y-11187574D01*
X12216753Y-11216146D01*
X12402467Y-11487574D02*
X12373896Y-11473289D01*
X12359610Y-11444717D01*
X12359610Y-11187574D01*
X12559610Y-11487574D02*
X12531038Y-11473289D01*
X12516753Y-11444717D01*
X12516753Y-11187574D01*
X12902467Y-11487574D02*
X12902467Y-11187574D01*
X13002467Y-11401860D01*
X13102467Y-11187574D01*
X13102467Y-11487574D01*
X13373896Y-11487574D02*
X13373896Y-11330431D01*
X13359610Y-11301860D01*
X13331038Y-11287574D01*
X13273896Y-11287574D01*
X13245324Y-11301860D01*
X13373896Y-11473289D02*
X13345324Y-11487574D01*
X13273896Y-11487574D01*
X13245324Y-11473289D01*
X13231038Y-11444717D01*
X13231038Y-11416146D01*
X13245324Y-11387574D01*
X13273896Y-11373289D01*
X13345324Y-11373289D01*
X13373896Y-11359003D01*
X13516753Y-11287574D02*
X13516753Y-11587574D01*
X13516753Y-11301860D02*
X13545324Y-11287574D01*
X13602467Y-11287574D01*
X13631038Y-11301860D01*
X13645324Y-11316146D01*
X13659610Y-11344717D01*
X13659610Y-11430431D01*
X13645324Y-11459003D01*
X13631038Y-11473289D01*
X13602467Y-11487574D01*
X13545324Y-11487574D01*
X13516753Y-11473289D01*
X13788181Y-11459003D02*
X13802467Y-11473289D01*
X13788181Y-11487574D01*
X13773896Y-11473289D01*
X13788181Y-11459003D01*
X13788181Y-11487574D01*
X13788181Y-11301860D02*
X13802467Y-11316146D01*
X13788181Y-11330431D01*
X13773896Y-11316146D01*
X13788181Y-11301860D01*
X13788181Y-11330431D01*
X11414610Y-11966860D02*
X11444610Y-11996860D01*
X11444610Y-11966860D02*
X11414610Y-11996860D01*
X11788181Y-11817574D02*
X11816753Y-11817574D01*
X11845324Y-11831860D01*
X11859610Y-11846146D01*
X11873896Y-11874717D01*
X11888181Y-11931860D01*
X11888181Y-12003289D01*
X11873896Y-12060431D01*
X11859610Y-12089003D01*
X11845324Y-12103289D01*
X11816753Y-12117574D01*
X11788181Y-12117574D01*
X11759610Y-12103289D01*
X11745324Y-12089003D01*
X11731038Y-12060431D01*
X11716753Y-12003289D01*
X11716753Y-11931860D01*
X11731038Y-11874717D01*
X11745324Y-11846146D01*
X11759610Y-11831860D01*
X11788181Y-11817574D01*
X12016753Y-12089003D02*
X12031038Y-12103289D01*
X12016753Y-12117574D01*
X12002467Y-12103289D01*
X12016753Y-12089003D01*
X12016753Y-12117574D01*
X12131038Y-11817574D02*
X12316753Y-11817574D01*
X12216753Y-11931860D01*
X12259610Y-11931860D01*
X12288181Y-11946146D01*
X12302467Y-11960431D01*
X12316753Y-11989003D01*
X12316753Y-12060431D01*
X12302467Y-12089003D01*
X12288181Y-12103289D01*
X12259610Y-12117574D01*
X12173896Y-12117574D01*
X12145324Y-12103289D01*
X12131038Y-12089003D01*
X12502467Y-11817574D02*
X12531038Y-11817574D01*
X12559610Y-11831860D01*
X12573896Y-11846146D01*
X12588181Y-11874717D01*
X12602467Y-11931860D01*
X12602467Y-12003289D01*
X12588181Y-12060431D01*
X12573896Y-12089003D01*
X12559610Y-12103289D01*
X12531038Y-12117574D01*
X12502467Y-12117574D01*
X12473896Y-12103289D01*
X12459610Y-12089003D01*
X12445324Y-12060431D01*
X12431038Y-12003289D01*
X12431038Y-11931860D01*
X12445324Y-11874717D01*
X12459610Y-11846146D01*
X12473896Y-11831860D01*
X12502467Y-11817574D01*
X12731038Y-12117574D02*
X12731038Y-11917574D01*
X12731038Y-11946146D02*
X12745324Y-11931860D01*
X12773896Y-11917574D01*
X12816753Y-11917574D01*
X12845324Y-11931860D01*
X12859610Y-11960431D01*
X12859610Y-12117574D01*
X12859610Y-11960431D02*
X12873896Y-11931860D01*
X12902467Y-11917574D01*
X12945324Y-11917574D01*
X12973896Y-11931860D01*
X12988181Y-11960431D01*
X12988181Y-12117574D01*
X13131038Y-12117574D02*
X13131038Y-11917574D01*
X13131038Y-11946146D02*
X13145324Y-11931860D01*
X13173896Y-11917574D01*
X13216753Y-11917574D01*
X13245324Y-11931860D01*
X13259610Y-11960431D01*
X13259610Y-12117574D01*
X13259610Y-11960431D02*
X13273896Y-11931860D01*
X13302467Y-11917574D01*
X13345324Y-11917574D01*
X13373896Y-11931860D01*
X13388181Y-11960431D01*
X13388181Y-12117574D01*
X13973896Y-11803289D02*
X13716753Y-12189003D01*
X14359610Y-11817574D02*
X14388181Y-11817574D01*
X14416753Y-11831860D01*
X14431038Y-11846146D01*
X14445324Y-11874717D01*
X14459610Y-11931860D01*
X14459610Y-12003289D01*
X14445324Y-12060431D01*
X14431038Y-12089003D01*
X14416753Y-12103289D01*
X14388181Y-12117574D01*
X14359610Y-12117574D01*
X14331038Y-12103289D01*
X14316753Y-12089003D01*
X14302467Y-12060431D01*
X14288181Y-12003289D01*
X14288181Y-11931860D01*
X14302467Y-11874717D01*
X14316753Y-11846146D01*
X14331038Y-11831860D01*
X14359610Y-11817574D01*
X14588181Y-12089003D02*
X14602467Y-12103289D01*
X14588181Y-12117574D01*
X14573896Y-12103289D01*
X14588181Y-12089003D01*
X14588181Y-12117574D01*
X14788181Y-11817574D02*
X14816753Y-11817574D01*
X14845324Y-11831860D01*
X14859610Y-11846146D01*
X14873896Y-11874717D01*
X14888181Y-11931860D01*
X14888181Y-12003289D01*
X14873896Y-12060431D01*
X14859610Y-12089003D01*
X14845324Y-12103289D01*
X14816753Y-12117574D01*
X14788181Y-12117574D01*
X14759610Y-12103289D01*
X14745324Y-12089003D01*
X14731038Y-12060431D01*
X14716753Y-12003289D01*
X14716753Y-11931860D01*
X14731038Y-11874717D01*
X14745324Y-11846146D01*
X14759610Y-11831860D01*
X14788181Y-11817574D01*
X15173896Y-12117574D02*
X15002467Y-12117574D01*
X15088181Y-12117574D02*
X15088181Y-11817574D01*
X15059610Y-11860431D01*
X15031038Y-11889003D01*
X15002467Y-11903289D01*
X15288181Y-11846146D02*
X15302467Y-11831860D01*
X15331038Y-11817574D01*
X15402467Y-11817574D01*
X15431038Y-11831860D01*
X15445324Y-11846146D01*
X15459610Y-11874717D01*
X15459610Y-11903289D01*
X15445324Y-11946146D01*
X15273896Y-12117574D01*
X15459610Y-12117574D01*
X15573896Y-11817574D02*
X15573896Y-11874717D01*
X15688181Y-11817574D02*
X15688181Y-11874717D01*
X16131038Y-12231860D02*
X16116753Y-12217574D01*
X16088181Y-12174717D01*
X16073896Y-12146146D01*
X16059610Y-12103289D01*
X16045324Y-12031860D01*
X16045324Y-11974717D01*
X16059610Y-11903289D01*
X16073896Y-11860431D01*
X16088181Y-11831860D01*
X16116753Y-11789003D01*
X16131038Y-11774717D01*
X16402467Y-12117574D02*
X16231038Y-12117574D01*
X16316753Y-12117574D02*
X16316753Y-11817574D01*
X16288181Y-11860431D01*
X16259610Y-11889003D01*
X16231038Y-11903289D01*
X16516753Y-11846146D02*
X16531038Y-11831860D01*
X16559610Y-11817574D01*
X16631038Y-11817574D01*
X16659610Y-11831860D01*
X16673896Y-11846146D01*
X16688181Y-11874717D01*
X16688181Y-11903289D01*
X16673896Y-11946146D01*
X16502467Y-12117574D01*
X16688181Y-12117574D01*
X16859610Y-11946146D02*
X16831038Y-11931860D01*
X16816753Y-11917574D01*
X16802467Y-11889003D01*
X16802467Y-11874717D01*
X16816753Y-11846146D01*
X16831038Y-11831860D01*
X16859610Y-11817574D01*
X16916753Y-11817574D01*
X16945324Y-11831860D01*
X16959610Y-11846146D01*
X16973896Y-11874717D01*
X16973896Y-11889003D01*
X16959610Y-11917574D01*
X16945324Y-11931860D01*
X16916753Y-11946146D01*
X16859610Y-11946146D01*
X16831038Y-11960431D01*
X16816753Y-11974717D01*
X16802467Y-12003289D01*
X16802467Y-12060431D01*
X16816753Y-12089003D01*
X16831038Y-12103289D01*
X16859610Y-12117574D01*
X16916753Y-12117574D01*
X16945324Y-12103289D01*
X16959610Y-12089003D01*
X16973896Y-12060431D01*
X16973896Y-12003289D01*
X16959610Y-11974717D01*
X16945324Y-11960431D01*
X16916753Y-11946146D01*
X17331038Y-12117574D02*
X17331038Y-11817574D01*
X17459610Y-12117574D02*
X17459610Y-11960431D01*
X17445324Y-11931860D01*
X17416753Y-11917574D01*
X17373896Y-11917574D01*
X17345324Y-11931860D01*
X17331038Y-11946146D01*
X17645324Y-12117574D02*
X17616753Y-12103289D01*
X17602467Y-12089003D01*
X17588181Y-12060431D01*
X17588181Y-11974717D01*
X17602467Y-11946146D01*
X17616753Y-11931860D01*
X17645324Y-11917574D01*
X17688181Y-11917574D01*
X17716753Y-11931860D01*
X17731038Y-11946146D01*
X17745324Y-11974717D01*
X17745324Y-12060431D01*
X17731038Y-12089003D01*
X17716753Y-12103289D01*
X17688181Y-12117574D01*
X17645324Y-12117574D01*
X17916753Y-12117574D02*
X17888181Y-12103289D01*
X17873896Y-12074717D01*
X17873896Y-11817574D01*
X18145324Y-12103289D02*
X18116753Y-12117574D01*
X18059610Y-12117574D01*
X18031038Y-12103289D01*
X18016753Y-12074717D01*
X18016753Y-11960431D01*
X18031038Y-11931860D01*
X18059610Y-11917574D01*
X18116753Y-11917574D01*
X18145324Y-11931860D01*
X18159610Y-11960431D01*
X18159610Y-11989003D01*
X18016753Y-12017574D01*
X18273896Y-12103289D02*
X18302467Y-12117574D01*
X18359610Y-12117574D01*
X18388181Y-12103289D01*
X18402467Y-12074717D01*
X18402467Y-12060431D01*
X18388181Y-12031860D01*
X18359610Y-12017574D01*
X18316753Y-12017574D01*
X18288181Y-12003289D01*
X18273896Y-11974717D01*
X18273896Y-11960431D01*
X18288181Y-11931860D01*
X18316753Y-11917574D01*
X18359610Y-11917574D01*
X18388181Y-11931860D01*
X18502467Y-12231860D02*
X18516753Y-12217574D01*
X18545324Y-12174717D01*
X18559610Y-12146146D01*
X18573896Y-12103289D01*
X18588181Y-12031860D01*
X18588181Y-11974717D01*
X18573896Y-11903289D01*
X18559610Y-11860431D01*
X18545324Y-11831860D01*
X18516753Y-11789003D01*
X18502467Y-11774717D01*
X11444610Y-12377860D02*
G75*
G03X11444610Y-12377860I-45000J0D01*
G01*
X11788181Y-12213574D02*
X11816753Y-12213574D01*
X11845324Y-12227860D01*
X11859610Y-12242146D01*
X11873896Y-12270717D01*
X11888181Y-12327860D01*
X11888181Y-12399289D01*
X11873896Y-12456431D01*
X11859610Y-12485003D01*
X11845324Y-12499289D01*
X11816753Y-12513574D01*
X11788181Y-12513574D01*
X11759610Y-12499289D01*
X11745324Y-12485003D01*
X11731038Y-12456431D01*
X11716753Y-12399289D01*
X11716753Y-12327860D01*
X11731038Y-12270717D01*
X11745324Y-12242146D01*
X11759610Y-12227860D01*
X11788181Y-12213574D01*
X12016753Y-12485003D02*
X12031038Y-12499289D01*
X12016753Y-12513574D01*
X12002467Y-12499289D01*
X12016753Y-12485003D01*
X12016753Y-12513574D01*
X12173896Y-12513574D02*
X12231038Y-12513574D01*
X12259610Y-12499289D01*
X12273896Y-12485003D01*
X12302467Y-12442146D01*
X12316753Y-12385003D01*
X12316753Y-12270717D01*
X12302467Y-12242146D01*
X12288181Y-12227860D01*
X12259610Y-12213574D01*
X12202467Y-12213574D01*
X12173896Y-12227860D01*
X12159610Y-12242146D01*
X12145324Y-12270717D01*
X12145324Y-12342146D01*
X12159610Y-12370717D01*
X12173896Y-12385003D01*
X12202467Y-12399289D01*
X12259610Y-12399289D01*
X12288181Y-12385003D01*
X12302467Y-12370717D01*
X12316753Y-12342146D01*
X12502467Y-12213574D02*
X12531038Y-12213574D01*
X12559610Y-12227860D01*
X12573896Y-12242146D01*
X12588181Y-12270717D01*
X12602467Y-12327860D01*
X12602467Y-12399289D01*
X12588181Y-12456431D01*
X12573896Y-12485003D01*
X12559610Y-12499289D01*
X12531038Y-12513574D01*
X12502467Y-12513574D01*
X12473896Y-12499289D01*
X12459610Y-12485003D01*
X12445324Y-12456431D01*
X12431038Y-12399289D01*
X12431038Y-12327860D01*
X12445324Y-12270717D01*
X12459610Y-12242146D01*
X12473896Y-12227860D01*
X12502467Y-12213574D01*
X12731038Y-12513574D02*
X12731038Y-12313574D01*
X12731038Y-12342146D02*
X12745324Y-12327860D01*
X12773896Y-12313574D01*
X12816753Y-12313574D01*
X12845324Y-12327860D01*
X12859610Y-12356431D01*
X12859610Y-12513574D01*
X12859610Y-12356431D02*
X12873896Y-12327860D01*
X12902467Y-12313574D01*
X12945324Y-12313574D01*
X12973896Y-12327860D01*
X12988181Y-12356431D01*
X12988181Y-12513574D01*
X13131038Y-12513574D02*
X13131038Y-12313574D01*
X13131038Y-12342146D02*
X13145324Y-12327860D01*
X13173896Y-12313574D01*
X13216753Y-12313574D01*
X13245324Y-12327860D01*
X13259610Y-12356431D01*
X13259610Y-12513574D01*
X13259610Y-12356431D02*
X13273896Y-12327860D01*
X13302467Y-12313574D01*
X13345324Y-12313574D01*
X13373896Y-12327860D01*
X13388181Y-12356431D01*
X13388181Y-12513574D01*
X13973896Y-12199289D02*
X13716753Y-12585003D01*
X14359610Y-12213574D02*
X14388181Y-12213574D01*
X14416753Y-12227860D01*
X14431038Y-12242146D01*
X14445324Y-12270717D01*
X14459610Y-12327860D01*
X14459610Y-12399289D01*
X14445324Y-12456431D01*
X14431038Y-12485003D01*
X14416753Y-12499289D01*
X14388181Y-12513574D01*
X14359610Y-12513574D01*
X14331038Y-12499289D01*
X14316753Y-12485003D01*
X14302467Y-12456431D01*
X14288181Y-12399289D01*
X14288181Y-12327860D01*
X14302467Y-12270717D01*
X14316753Y-12242146D01*
X14331038Y-12227860D01*
X14359610Y-12213574D01*
X14588181Y-12485003D02*
X14602467Y-12499289D01*
X14588181Y-12513574D01*
X14573896Y-12499289D01*
X14588181Y-12485003D01*
X14588181Y-12513574D01*
X14788181Y-12213574D02*
X14816753Y-12213574D01*
X14845324Y-12227860D01*
X14859610Y-12242146D01*
X14873896Y-12270717D01*
X14888181Y-12327860D01*
X14888181Y-12399289D01*
X14873896Y-12456431D01*
X14859610Y-12485003D01*
X14845324Y-12499289D01*
X14816753Y-12513574D01*
X14788181Y-12513574D01*
X14759610Y-12499289D01*
X14745324Y-12485003D01*
X14731038Y-12456431D01*
X14716753Y-12399289D01*
X14716753Y-12327860D01*
X14731038Y-12270717D01*
X14745324Y-12242146D01*
X14759610Y-12227860D01*
X14788181Y-12213574D01*
X14988181Y-12213574D02*
X15173896Y-12213574D01*
X15073896Y-12327860D01*
X15116753Y-12327860D01*
X15145324Y-12342146D01*
X15159610Y-12356431D01*
X15173896Y-12385003D01*
X15173896Y-12456431D01*
X15159610Y-12485003D01*
X15145324Y-12499289D01*
X15116753Y-12513574D01*
X15031038Y-12513574D01*
X15002467Y-12499289D01*
X14988181Y-12485003D01*
X15445324Y-12213574D02*
X15302467Y-12213574D01*
X15288181Y-12356431D01*
X15302467Y-12342146D01*
X15331038Y-12327860D01*
X15402467Y-12327860D01*
X15431038Y-12342146D01*
X15445324Y-12356431D01*
X15459610Y-12385003D01*
X15459610Y-12456431D01*
X15445324Y-12485003D01*
X15431038Y-12499289D01*
X15402467Y-12513574D01*
X15331038Y-12513574D01*
X15302467Y-12499289D01*
X15288181Y-12485003D01*
X15573896Y-12213574D02*
X15573896Y-12270717D01*
X15688181Y-12213574D02*
X15688181Y-12270717D01*
X16131038Y-12627860D02*
X16116753Y-12613574D01*
X16088181Y-12570717D01*
X16073896Y-12542146D01*
X16059610Y-12499289D01*
X16045324Y-12427860D01*
X16045324Y-12370717D01*
X16059610Y-12299289D01*
X16073896Y-12256431D01*
X16088181Y-12227860D01*
X16116753Y-12185003D01*
X16131038Y-12170717D01*
X16388181Y-12213574D02*
X16245324Y-12213574D01*
X16231038Y-12356431D01*
X16245324Y-12342146D01*
X16273896Y-12327860D01*
X16345324Y-12327860D01*
X16373896Y-12342146D01*
X16388181Y-12356431D01*
X16402467Y-12385003D01*
X16402467Y-12456431D01*
X16388181Y-12485003D01*
X16373896Y-12499289D01*
X16345324Y-12513574D01*
X16273896Y-12513574D01*
X16245324Y-12499289D01*
X16231038Y-12485003D01*
X16759610Y-12513574D02*
X16759610Y-12213574D01*
X16888181Y-12513574D02*
X16888181Y-12356431D01*
X16873896Y-12327860D01*
X16845324Y-12313574D01*
X16802467Y-12313574D01*
X16773896Y-12327860D01*
X16759610Y-12342146D01*
X17073896Y-12513574D02*
X17045324Y-12499289D01*
X17031038Y-12485003D01*
X17016753Y-12456431D01*
X17016753Y-12370717D01*
X17031038Y-12342146D01*
X17045324Y-12327860D01*
X17073896Y-12313574D01*
X17116753Y-12313574D01*
X17145324Y-12327860D01*
X17159610Y-12342146D01*
X17173896Y-12370717D01*
X17173896Y-12456431D01*
X17159610Y-12485003D01*
X17145324Y-12499289D01*
X17116753Y-12513574D01*
X17073896Y-12513574D01*
X17345324Y-12513574D02*
X17316753Y-12499289D01*
X17302467Y-12470717D01*
X17302467Y-12213574D01*
X17573896Y-12499289D02*
X17545324Y-12513574D01*
X17488181Y-12513574D01*
X17459610Y-12499289D01*
X17445324Y-12470717D01*
X17445324Y-12356431D01*
X17459610Y-12327860D01*
X17488181Y-12313574D01*
X17545324Y-12313574D01*
X17573896Y-12327860D01*
X17588181Y-12356431D01*
X17588181Y-12385003D01*
X17445324Y-12413574D01*
X17702467Y-12499289D02*
X17731038Y-12513574D01*
X17788181Y-12513574D01*
X17816753Y-12499289D01*
X17831038Y-12470717D01*
X17831038Y-12456431D01*
X17816753Y-12427860D01*
X17788181Y-12413574D01*
X17745324Y-12413574D01*
X17716753Y-12399289D01*
X17702467Y-12370717D01*
X17702467Y-12356431D01*
X17716753Y-12327860D01*
X17745324Y-12313574D01*
X17788181Y-12313574D01*
X17816753Y-12327860D01*
X17931038Y-12627860D02*
X17945324Y-12613574D01*
X17973896Y-12570717D01*
X17988181Y-12542146D01*
X18002467Y-12499289D01*
X18016753Y-12427860D01*
X18016753Y-12370717D01*
X18002467Y-12299289D01*
X17988181Y-12256431D01*
X17973896Y-12227860D01*
X17945324Y-12185003D01*
X17931038Y-12170717D01*
X11389610Y-12718860D02*
X11389610Y-12828860D01*
X11334610Y-12773860D02*
X11444610Y-12773860D01*
X11888181Y-12909574D02*
X11716753Y-12909574D01*
X11802467Y-12909574D02*
X11802467Y-12609574D01*
X11773896Y-12652431D01*
X11745324Y-12681003D01*
X11716753Y-12695289D01*
X12016753Y-12881003D02*
X12031038Y-12895289D01*
X12016753Y-12909574D01*
X12002467Y-12895289D01*
X12016753Y-12881003D01*
X12016753Y-12909574D01*
X12316753Y-12909574D02*
X12145324Y-12909574D01*
X12231038Y-12909574D02*
X12231038Y-12609574D01*
X12202467Y-12652431D01*
X12173896Y-12681003D01*
X12145324Y-12695289D01*
X12502467Y-12609574D02*
X12531038Y-12609574D01*
X12559610Y-12623860D01*
X12573896Y-12638146D01*
X12588181Y-12666717D01*
X12602467Y-12723860D01*
X12602467Y-12795289D01*
X12588181Y-12852431D01*
X12573896Y-12881003D01*
X12559610Y-12895289D01*
X12531038Y-12909574D01*
X12502467Y-12909574D01*
X12473896Y-12895289D01*
X12459610Y-12881003D01*
X12445324Y-12852431D01*
X12431038Y-12795289D01*
X12431038Y-12723860D01*
X12445324Y-12666717D01*
X12459610Y-12638146D01*
X12473896Y-12623860D01*
X12502467Y-12609574D01*
X12731038Y-12909574D02*
X12731038Y-12709574D01*
X12731038Y-12738146D02*
X12745324Y-12723860D01*
X12773896Y-12709574D01*
X12816753Y-12709574D01*
X12845324Y-12723860D01*
X12859610Y-12752431D01*
X12859610Y-12909574D01*
X12859610Y-12752431D02*
X12873896Y-12723860D01*
X12902467Y-12709574D01*
X12945324Y-12709574D01*
X12973896Y-12723860D01*
X12988181Y-12752431D01*
X12988181Y-12909574D01*
X13131038Y-12909574D02*
X13131038Y-12709574D01*
X13131038Y-12738146D02*
X13145324Y-12723860D01*
X13173896Y-12709574D01*
X13216753Y-12709574D01*
X13245324Y-12723860D01*
X13259610Y-12752431D01*
X13259610Y-12909574D01*
X13259610Y-12752431D02*
X13273896Y-12723860D01*
X13302467Y-12709574D01*
X13345324Y-12709574D01*
X13373896Y-12723860D01*
X13388181Y-12752431D01*
X13388181Y-12909574D01*
X13973896Y-12595289D02*
X13716753Y-12981003D01*
X14359610Y-12609574D02*
X14388181Y-12609574D01*
X14416753Y-12623860D01*
X14431038Y-12638146D01*
X14445324Y-12666717D01*
X14459610Y-12723860D01*
X14459610Y-12795289D01*
X14445324Y-12852431D01*
X14431038Y-12881003D01*
X14416753Y-12895289D01*
X14388181Y-12909574D01*
X14359610Y-12909574D01*
X14331038Y-12895289D01*
X14316753Y-12881003D01*
X14302467Y-12852431D01*
X14288181Y-12795289D01*
X14288181Y-12723860D01*
X14302467Y-12666717D01*
X14316753Y-12638146D01*
X14331038Y-12623860D01*
X14359610Y-12609574D01*
X14588181Y-12881003D02*
X14602467Y-12895289D01*
X14588181Y-12909574D01*
X14573896Y-12895289D01*
X14588181Y-12881003D01*
X14588181Y-12909574D01*
X14788181Y-12609574D02*
X14816753Y-12609574D01*
X14845324Y-12623860D01*
X14859610Y-12638146D01*
X14873896Y-12666717D01*
X14888181Y-12723860D01*
X14888181Y-12795289D01*
X14873896Y-12852431D01*
X14859610Y-12881003D01*
X14845324Y-12895289D01*
X14816753Y-12909574D01*
X14788181Y-12909574D01*
X14759610Y-12895289D01*
X14745324Y-12881003D01*
X14731038Y-12852431D01*
X14716753Y-12795289D01*
X14716753Y-12723860D01*
X14731038Y-12666717D01*
X14745324Y-12638146D01*
X14759610Y-12623860D01*
X14788181Y-12609574D01*
X15145324Y-12709574D02*
X15145324Y-12909574D01*
X15073896Y-12595289D02*
X15002467Y-12809574D01*
X15188181Y-12809574D01*
X15273896Y-12609574D02*
X15459610Y-12609574D01*
X15359610Y-12723860D01*
X15402467Y-12723860D01*
X15431038Y-12738146D01*
X15445324Y-12752431D01*
X15459610Y-12781003D01*
X15459610Y-12852431D01*
X15445324Y-12881003D01*
X15431038Y-12895289D01*
X15402467Y-12909574D01*
X15316753Y-12909574D01*
X15288181Y-12895289D01*
X15273896Y-12881003D01*
X15573896Y-12609574D02*
X15573896Y-12666717D01*
X15688181Y-12609574D02*
X15688181Y-12666717D01*
X16131038Y-13023860D02*
X16116753Y-13009574D01*
X16088181Y-12966717D01*
X16073896Y-12938146D01*
X16059610Y-12895289D01*
X16045324Y-12823860D01*
X16045324Y-12766717D01*
X16059610Y-12695289D01*
X16073896Y-12652431D01*
X16088181Y-12623860D01*
X16116753Y-12581003D01*
X16131038Y-12566717D01*
X16388181Y-12609574D02*
X16245324Y-12609574D01*
X16231038Y-12752431D01*
X16245324Y-12738146D01*
X16273896Y-12723860D01*
X16345324Y-12723860D01*
X16373896Y-12738146D01*
X16388181Y-12752431D01*
X16402467Y-12781003D01*
X16402467Y-12852431D01*
X16388181Y-12881003D01*
X16373896Y-12895289D01*
X16345324Y-12909574D01*
X16273896Y-12909574D01*
X16245324Y-12895289D01*
X16231038Y-12881003D01*
X16759610Y-12909574D02*
X16759610Y-12609574D01*
X16888181Y-12909574D02*
X16888181Y-12752431D01*
X16873896Y-12723860D01*
X16845324Y-12709574D01*
X16802467Y-12709574D01*
X16773896Y-12723860D01*
X16759610Y-12738146D01*
X17073896Y-12909574D02*
X17045324Y-12895289D01*
X17031038Y-12881003D01*
X17016753Y-12852431D01*
X17016753Y-12766717D01*
X17031038Y-12738146D01*
X17045324Y-12723860D01*
X17073896Y-12709574D01*
X17116753Y-12709574D01*
X17145324Y-12723860D01*
X17159610Y-12738146D01*
X17173896Y-12766717D01*
X17173896Y-12852431D01*
X17159610Y-12881003D01*
X17145324Y-12895289D01*
X17116753Y-12909574D01*
X17073896Y-12909574D01*
X17345324Y-12909574D02*
X17316753Y-12895289D01*
X17302467Y-12866717D01*
X17302467Y-12609574D01*
X17573896Y-12895289D02*
X17545324Y-12909574D01*
X17488181Y-12909574D01*
X17459610Y-12895289D01*
X17445324Y-12866717D01*
X17445324Y-12752431D01*
X17459610Y-12723860D01*
X17488181Y-12709574D01*
X17545324Y-12709574D01*
X17573896Y-12723860D01*
X17588181Y-12752431D01*
X17588181Y-12781003D01*
X17445324Y-12809574D01*
X17702467Y-12895289D02*
X17731038Y-12909574D01*
X17788181Y-12909574D01*
X17816753Y-12895289D01*
X17831038Y-12866717D01*
X17831038Y-12852431D01*
X17816753Y-12823860D01*
X17788181Y-12809574D01*
X17745324Y-12809574D01*
X17716753Y-12795289D01*
X17702467Y-12766717D01*
X17702467Y-12752431D01*
X17716753Y-12723860D01*
X17745324Y-12709574D01*
X17788181Y-12709574D01*
X17816753Y-12723860D01*
X17931038Y-13023860D02*
X17945324Y-13009574D01*
X17973896Y-12966717D01*
X17988181Y-12938146D01*
X18002467Y-12895289D01*
X18016753Y-12823860D01*
X18016753Y-12766717D01*
X18002467Y-12695289D01*
X17988181Y-12652431D01*
X17973896Y-12623860D01*
X17945324Y-12581003D01*
X17931038Y-12566717D01*
X11425572Y-13215822D02*
X11425572Y-13123898D01*
X11333647Y-13123898D01*
X11333647Y-13215822D01*
X11425572Y-13215822D01*
X11888181Y-13305574D02*
X11716753Y-13305574D01*
X11802467Y-13305574D02*
X11802467Y-13005574D01*
X11773896Y-13048431D01*
X11745324Y-13077003D01*
X11716753Y-13091289D01*
X12016753Y-13277003D02*
X12031038Y-13291289D01*
X12016753Y-13305574D01*
X12002467Y-13291289D01*
X12016753Y-13277003D01*
X12016753Y-13305574D01*
X12131038Y-13005574D02*
X12316753Y-13005574D01*
X12216753Y-13119860D01*
X12259610Y-13119860D01*
X12288181Y-13134146D01*
X12302467Y-13148431D01*
X12316753Y-13177003D01*
X12316753Y-13248431D01*
X12302467Y-13277003D01*
X12288181Y-13291289D01*
X12259610Y-13305574D01*
X12173896Y-13305574D01*
X12145324Y-13291289D01*
X12131038Y-13277003D01*
X12502467Y-13005574D02*
X12531038Y-13005574D01*
X12559610Y-13019860D01*
X12573896Y-13034146D01*
X12588181Y-13062717D01*
X12602467Y-13119860D01*
X12602467Y-13191289D01*
X12588181Y-13248431D01*
X12573896Y-13277003D01*
X12559610Y-13291289D01*
X12531038Y-13305574D01*
X12502467Y-13305574D01*
X12473896Y-13291289D01*
X12459610Y-13277003D01*
X12445324Y-13248431D01*
X12431038Y-13191289D01*
X12431038Y-13119860D01*
X12445324Y-13062717D01*
X12459610Y-13034146D01*
X12473896Y-13019860D01*
X12502467Y-13005574D01*
X12731038Y-13305574D02*
X12731038Y-13105574D01*
X12731038Y-13134146D02*
X12745324Y-13119860D01*
X12773896Y-13105574D01*
X12816753Y-13105574D01*
X12845324Y-13119860D01*
X12859610Y-13148431D01*
X12859610Y-13305574D01*
X12859610Y-13148431D02*
X12873896Y-13119860D01*
X12902467Y-13105574D01*
X12945324Y-13105574D01*
X12973896Y-13119860D01*
X12988181Y-13148431D01*
X12988181Y-13305574D01*
X13131038Y-13305574D02*
X13131038Y-13105574D01*
X13131038Y-13134146D02*
X13145324Y-13119860D01*
X13173896Y-13105574D01*
X13216753Y-13105574D01*
X13245324Y-13119860D01*
X13259610Y-13148431D01*
X13259610Y-13305574D01*
X13259610Y-13148431D02*
X13273896Y-13119860D01*
X13302467Y-13105574D01*
X13345324Y-13105574D01*
X13373896Y-13119860D01*
X13388181Y-13148431D01*
X13388181Y-13305574D01*
X13973896Y-12991289D02*
X13716753Y-13377003D01*
X14359610Y-13005574D02*
X14388181Y-13005574D01*
X14416753Y-13019860D01*
X14431038Y-13034146D01*
X14445324Y-13062717D01*
X14459610Y-13119860D01*
X14459610Y-13191289D01*
X14445324Y-13248431D01*
X14431038Y-13277003D01*
X14416753Y-13291289D01*
X14388181Y-13305574D01*
X14359610Y-13305574D01*
X14331038Y-13291289D01*
X14316753Y-13277003D01*
X14302467Y-13248431D01*
X14288181Y-13191289D01*
X14288181Y-13119860D01*
X14302467Y-13062717D01*
X14316753Y-13034146D01*
X14331038Y-13019860D01*
X14359610Y-13005574D01*
X14588181Y-13277003D02*
X14602467Y-13291289D01*
X14588181Y-13305574D01*
X14573896Y-13291289D01*
X14588181Y-13277003D01*
X14588181Y-13305574D01*
X14788181Y-13005574D02*
X14816753Y-13005574D01*
X14845324Y-13019860D01*
X14859610Y-13034146D01*
X14873896Y-13062717D01*
X14888181Y-13119860D01*
X14888181Y-13191289D01*
X14873896Y-13248431D01*
X14859610Y-13277003D01*
X14845324Y-13291289D01*
X14816753Y-13305574D01*
X14788181Y-13305574D01*
X14759610Y-13291289D01*
X14745324Y-13277003D01*
X14731038Y-13248431D01*
X14716753Y-13191289D01*
X14716753Y-13119860D01*
X14731038Y-13062717D01*
X14745324Y-13034146D01*
X14759610Y-13019860D01*
X14788181Y-13005574D01*
X15159610Y-13005574D02*
X15016753Y-13005574D01*
X15002467Y-13148431D01*
X15016753Y-13134146D01*
X15045324Y-13119860D01*
X15116753Y-13119860D01*
X15145324Y-13134146D01*
X15159610Y-13148431D01*
X15173896Y-13177003D01*
X15173896Y-13248431D01*
X15159610Y-13277003D01*
X15145324Y-13291289D01*
X15116753Y-13305574D01*
X15045324Y-13305574D01*
X15016753Y-13291289D01*
X15002467Y-13277003D01*
X15459610Y-13305574D02*
X15288181Y-13305574D01*
X15373896Y-13305574D02*
X15373896Y-13005574D01*
X15345324Y-13048431D01*
X15316753Y-13077003D01*
X15288181Y-13091289D01*
X15573896Y-13005574D02*
X15573896Y-13062717D01*
X15688181Y-13005574D02*
X15688181Y-13062717D01*
X16131038Y-13419860D02*
X16116753Y-13405574D01*
X16088181Y-13362717D01*
X16073896Y-13334146D01*
X16059610Y-13291289D01*
X16045324Y-13219860D01*
X16045324Y-13162717D01*
X16059610Y-13091289D01*
X16073896Y-13048431D01*
X16088181Y-13019860D01*
X16116753Y-12977003D01*
X16131038Y-12962717D01*
X16231038Y-13034146D02*
X16245324Y-13019860D01*
X16273896Y-13005574D01*
X16345324Y-13005574D01*
X16373896Y-13019860D01*
X16388181Y-13034146D01*
X16402467Y-13062717D01*
X16402467Y-13091289D01*
X16388181Y-13134146D01*
X16216753Y-13305574D01*
X16402467Y-13305574D01*
X16759610Y-13305574D02*
X16759610Y-13005574D01*
X16888181Y-13305574D02*
X16888181Y-13148431D01*
X16873896Y-13119860D01*
X16845324Y-13105574D01*
X16802467Y-13105574D01*
X16773896Y-13119860D01*
X16759610Y-13134146D01*
X17073896Y-13305574D02*
X17045324Y-13291289D01*
X17031038Y-13277003D01*
X17016753Y-13248431D01*
X17016753Y-13162717D01*
X17031038Y-13134146D01*
X17045324Y-13119860D01*
X17073896Y-13105574D01*
X17116753Y-13105574D01*
X17145324Y-13119860D01*
X17159610Y-13134146D01*
X17173896Y-13162717D01*
X17173896Y-13248431D01*
X17159610Y-13277003D01*
X17145324Y-13291289D01*
X17116753Y-13305574D01*
X17073896Y-13305574D01*
X17345324Y-13305574D02*
X17316753Y-13291289D01*
X17302467Y-13262717D01*
X17302467Y-13005574D01*
X17573896Y-13291289D02*
X17545324Y-13305574D01*
X17488181Y-13305574D01*
X17459610Y-13291289D01*
X17445324Y-13262717D01*
X17445324Y-13148431D01*
X17459610Y-13119860D01*
X17488181Y-13105574D01*
X17545324Y-13105574D01*
X17573896Y-13119860D01*
X17588181Y-13148431D01*
X17588181Y-13177003D01*
X17445324Y-13205574D01*
X17702467Y-13291289D02*
X17731038Y-13305574D01*
X17788181Y-13305574D01*
X17816753Y-13291289D01*
X17831038Y-13262717D01*
X17831038Y-13248431D01*
X17816753Y-13219860D01*
X17788181Y-13205574D01*
X17745324Y-13205574D01*
X17716753Y-13191289D01*
X17702467Y-13162717D01*
X17702467Y-13148431D01*
X17716753Y-13119860D01*
X17745324Y-13105574D01*
X17788181Y-13105574D01*
X17816753Y-13119860D01*
X17931038Y-13419860D02*
X17945324Y-13405574D01*
X17973896Y-13362717D01*
X17988181Y-13334146D01*
X18002467Y-13291289D01*
X18016753Y-13219860D01*
X18016753Y-13162717D01*
X18002467Y-13091289D01*
X17988181Y-13048431D01*
X17973896Y-13019860D01*
X17945324Y-12977003D01*
X17931038Y-12962717D01*
X11359610Y-13650860D02*
X11444610Y-13565860D01*
X11359610Y-13480860D01*
X11274610Y-13565860D01*
X11359610Y-13650860D01*
X11888181Y-13701574D02*
X11716753Y-13701574D01*
X11802467Y-13701574D02*
X11802467Y-13401574D01*
X11773896Y-13444431D01*
X11745324Y-13473003D01*
X11716753Y-13487289D01*
X12016753Y-13673003D02*
X12031038Y-13687289D01*
X12016753Y-13701574D01*
X12002467Y-13687289D01*
X12016753Y-13673003D01*
X12016753Y-13701574D01*
X12131038Y-13401574D02*
X12331038Y-13401574D01*
X12202467Y-13701574D01*
X12502467Y-13401574D02*
X12531038Y-13401574D01*
X12559610Y-13415860D01*
X12573896Y-13430146D01*
X12588181Y-13458717D01*
X12602467Y-13515860D01*
X12602467Y-13587289D01*
X12588181Y-13644431D01*
X12573896Y-13673003D01*
X12559610Y-13687289D01*
X12531038Y-13701574D01*
X12502467Y-13701574D01*
X12473896Y-13687289D01*
X12459610Y-13673003D01*
X12445324Y-13644431D01*
X12431038Y-13587289D01*
X12431038Y-13515860D01*
X12445324Y-13458717D01*
X12459610Y-13430146D01*
X12473896Y-13415860D01*
X12502467Y-13401574D01*
X12731038Y-13701574D02*
X12731038Y-13501574D01*
X12731038Y-13530146D02*
X12745324Y-13515860D01*
X12773896Y-13501574D01*
X12816753Y-13501574D01*
X12845324Y-13515860D01*
X12859610Y-13544431D01*
X12859610Y-13701574D01*
X12859610Y-13544431D02*
X12873896Y-13515860D01*
X12902467Y-13501574D01*
X12945324Y-13501574D01*
X12973896Y-13515860D01*
X12988181Y-13544431D01*
X12988181Y-13701574D01*
X13131038Y-13701574D02*
X13131038Y-13501574D01*
X13131038Y-13530146D02*
X13145324Y-13515860D01*
X13173896Y-13501574D01*
X13216753Y-13501574D01*
X13245324Y-13515860D01*
X13259610Y-13544431D01*
X13259610Y-13701574D01*
X13259610Y-13544431D02*
X13273896Y-13515860D01*
X13302467Y-13501574D01*
X13345324Y-13501574D01*
X13373896Y-13515860D01*
X13388181Y-13544431D01*
X13388181Y-13701574D01*
X13973896Y-13387289D02*
X13716753Y-13773003D01*
X14359610Y-13401574D02*
X14388181Y-13401574D01*
X14416753Y-13415860D01*
X14431038Y-13430146D01*
X14445324Y-13458717D01*
X14459610Y-13515860D01*
X14459610Y-13587289D01*
X14445324Y-13644431D01*
X14431038Y-13673003D01*
X14416753Y-13687289D01*
X14388181Y-13701574D01*
X14359610Y-13701574D01*
X14331038Y-13687289D01*
X14316753Y-13673003D01*
X14302467Y-13644431D01*
X14288181Y-13587289D01*
X14288181Y-13515860D01*
X14302467Y-13458717D01*
X14316753Y-13430146D01*
X14331038Y-13415860D01*
X14359610Y-13401574D01*
X14588181Y-13673003D02*
X14602467Y-13687289D01*
X14588181Y-13701574D01*
X14573896Y-13687289D01*
X14588181Y-13673003D01*
X14588181Y-13701574D01*
X14788181Y-13401574D02*
X14816753Y-13401574D01*
X14845324Y-13415860D01*
X14859610Y-13430146D01*
X14873896Y-13458717D01*
X14888181Y-13515860D01*
X14888181Y-13587289D01*
X14873896Y-13644431D01*
X14859610Y-13673003D01*
X14845324Y-13687289D01*
X14816753Y-13701574D01*
X14788181Y-13701574D01*
X14759610Y-13687289D01*
X14745324Y-13673003D01*
X14731038Y-13644431D01*
X14716753Y-13587289D01*
X14716753Y-13515860D01*
X14731038Y-13458717D01*
X14745324Y-13430146D01*
X14759610Y-13415860D01*
X14788181Y-13401574D01*
X15145324Y-13401574D02*
X15088181Y-13401574D01*
X15059610Y-13415860D01*
X15045324Y-13430146D01*
X15016753Y-13473003D01*
X15002467Y-13530146D01*
X15002467Y-13644431D01*
X15016753Y-13673003D01*
X15031038Y-13687289D01*
X15059610Y-13701574D01*
X15116753Y-13701574D01*
X15145324Y-13687289D01*
X15159610Y-13673003D01*
X15173896Y-13644431D01*
X15173896Y-13573003D01*
X15159610Y-13544431D01*
X15145324Y-13530146D01*
X15116753Y-13515860D01*
X15059610Y-13515860D01*
X15031038Y-13530146D01*
X15016753Y-13544431D01*
X15002467Y-13573003D01*
X15273896Y-13401574D02*
X15473896Y-13401574D01*
X15345324Y-13701574D01*
X15573896Y-13401574D02*
X15573896Y-13458717D01*
X15688181Y-13401574D02*
X15688181Y-13458717D01*
X16131038Y-13815860D02*
X16116753Y-13801574D01*
X16088181Y-13758717D01*
X16073896Y-13730146D01*
X16059610Y-13687289D01*
X16045324Y-13615860D01*
X16045324Y-13558717D01*
X16059610Y-13487289D01*
X16073896Y-13444431D01*
X16088181Y-13415860D01*
X16116753Y-13373003D01*
X16131038Y-13358717D01*
X16373896Y-13501574D02*
X16373896Y-13701574D01*
X16302467Y-13387289D02*
X16231038Y-13601574D01*
X16416753Y-13601574D01*
X16759610Y-13701574D02*
X16759610Y-13401574D01*
X16888181Y-13701574D02*
X16888181Y-13544431D01*
X16873896Y-13515860D01*
X16845324Y-13501574D01*
X16802467Y-13501574D01*
X16773896Y-13515860D01*
X16759610Y-13530146D01*
X17073896Y-13701574D02*
X17045324Y-13687289D01*
X17031038Y-13673003D01*
X17016753Y-13644431D01*
X17016753Y-13558717D01*
X17031038Y-13530146D01*
X17045324Y-13515860D01*
X17073896Y-13501574D01*
X17116753Y-13501574D01*
X17145324Y-13515860D01*
X17159610Y-13530146D01*
X17173896Y-13558717D01*
X17173896Y-13644431D01*
X17159610Y-13673003D01*
X17145324Y-13687289D01*
X17116753Y-13701574D01*
X17073896Y-13701574D01*
X17345324Y-13701574D02*
X17316753Y-13687289D01*
X17302467Y-13658717D01*
X17302467Y-13401574D01*
X17573896Y-13687289D02*
X17545324Y-13701574D01*
X17488181Y-13701574D01*
X17459610Y-13687289D01*
X17445324Y-13658717D01*
X17445324Y-13544431D01*
X17459610Y-13515860D01*
X17488181Y-13501574D01*
X17545324Y-13501574D01*
X17573896Y-13515860D01*
X17588181Y-13544431D01*
X17588181Y-13573003D01*
X17445324Y-13601574D01*
X17702467Y-13687289D02*
X17731038Y-13701574D01*
X17788181Y-13701574D01*
X17816753Y-13687289D01*
X17831038Y-13658717D01*
X17831038Y-13644431D01*
X17816753Y-13615860D01*
X17788181Y-13601574D01*
X17745324Y-13601574D01*
X17716753Y-13587289D01*
X17702467Y-13558717D01*
X17702467Y-13544431D01*
X17716753Y-13515860D01*
X17745324Y-13501574D01*
X17788181Y-13501574D01*
X17816753Y-13515860D01*
X17931038Y-13815860D02*
X17945324Y-13801574D01*
X17973896Y-13758717D01*
X17988181Y-13730146D01*
X18002467Y-13687289D01*
X18016753Y-13615860D01*
X18016753Y-13558717D01*
X18002467Y-13487289D01*
X17988181Y-13444431D01*
X17973896Y-13415860D01*
X17945324Y-13373003D01*
X17931038Y-13358717D01*
X11219610Y-13849360D02*
X11444610Y-14074360D01*
X11444610Y-13849360D02*
X11219610Y-14074360D01*
X11444610Y-13961860D02*
G75*
G03X11444610Y-13961860I-112500J0D01*
G01*
X11716753Y-13826146D02*
X11731038Y-13811860D01*
X11759610Y-13797574D01*
X11831038Y-13797574D01*
X11859610Y-13811860D01*
X11873896Y-13826146D01*
X11888181Y-13854717D01*
X11888181Y-13883289D01*
X11873896Y-13926146D01*
X11702467Y-14097574D01*
X11888181Y-14097574D01*
X12016753Y-14069003D02*
X12031038Y-14083289D01*
X12016753Y-14097574D01*
X12002467Y-14083289D01*
X12016753Y-14069003D01*
X12016753Y-14097574D01*
X12145324Y-13826146D02*
X12159610Y-13811860D01*
X12188181Y-13797574D01*
X12259610Y-13797574D01*
X12288181Y-13811860D01*
X12302467Y-13826146D01*
X12316753Y-13854717D01*
X12316753Y-13883289D01*
X12302467Y-13926146D01*
X12131038Y-14097574D01*
X12316753Y-14097574D01*
X12588181Y-13797574D02*
X12445324Y-13797574D01*
X12431038Y-13940431D01*
X12445324Y-13926146D01*
X12473896Y-13911860D01*
X12545324Y-13911860D01*
X12573896Y-13926146D01*
X12588181Y-13940431D01*
X12602467Y-13969003D01*
X12602467Y-14040431D01*
X12588181Y-14069003D01*
X12573896Y-14083289D01*
X12545324Y-14097574D01*
X12473896Y-14097574D01*
X12445324Y-14083289D01*
X12431038Y-14069003D01*
X12731038Y-14097574D02*
X12731038Y-13897574D01*
X12731038Y-13926146D02*
X12745324Y-13911860D01*
X12773896Y-13897574D01*
X12816753Y-13897574D01*
X12845324Y-13911860D01*
X12859610Y-13940431D01*
X12859610Y-14097574D01*
X12859610Y-13940431D02*
X12873896Y-13911860D01*
X12902467Y-13897574D01*
X12945324Y-13897574D01*
X12973896Y-13911860D01*
X12988181Y-13940431D01*
X12988181Y-14097574D01*
X13131038Y-14097574D02*
X13131038Y-13897574D01*
X13131038Y-13926146D02*
X13145324Y-13911860D01*
X13173896Y-13897574D01*
X13216753Y-13897574D01*
X13245324Y-13911860D01*
X13259610Y-13940431D01*
X13259610Y-14097574D01*
X13259610Y-13940431D02*
X13273896Y-13911860D01*
X13302467Y-13897574D01*
X13345324Y-13897574D01*
X13373896Y-13911860D01*
X13388181Y-13940431D01*
X13388181Y-14097574D01*
X13973896Y-13783289D02*
X13716753Y-14169003D01*
X14359610Y-13797574D02*
X14388181Y-13797574D01*
X14416753Y-13811860D01*
X14431038Y-13826146D01*
X14445324Y-13854717D01*
X14459610Y-13911860D01*
X14459610Y-13983289D01*
X14445324Y-14040431D01*
X14431038Y-14069003D01*
X14416753Y-14083289D01*
X14388181Y-14097574D01*
X14359610Y-14097574D01*
X14331038Y-14083289D01*
X14316753Y-14069003D01*
X14302467Y-14040431D01*
X14288181Y-13983289D01*
X14288181Y-13911860D01*
X14302467Y-13854717D01*
X14316753Y-13826146D01*
X14331038Y-13811860D01*
X14359610Y-13797574D01*
X14588181Y-14069003D02*
X14602467Y-14083289D01*
X14588181Y-14097574D01*
X14573896Y-14083289D01*
X14588181Y-14069003D01*
X14588181Y-14097574D01*
X14788181Y-13797574D02*
X14816753Y-13797574D01*
X14845324Y-13811860D01*
X14859610Y-13826146D01*
X14873896Y-13854717D01*
X14888181Y-13911860D01*
X14888181Y-13983289D01*
X14873896Y-14040431D01*
X14859610Y-14069003D01*
X14845324Y-14083289D01*
X14816753Y-14097574D01*
X14788181Y-14097574D01*
X14759610Y-14083289D01*
X14745324Y-14069003D01*
X14731038Y-14040431D01*
X14716753Y-13983289D01*
X14716753Y-13911860D01*
X14731038Y-13854717D01*
X14745324Y-13826146D01*
X14759610Y-13811860D01*
X14788181Y-13797574D01*
X15059610Y-13926146D02*
X15031038Y-13911860D01*
X15016753Y-13897574D01*
X15002467Y-13869003D01*
X15002467Y-13854717D01*
X15016753Y-13826146D01*
X15031038Y-13811860D01*
X15059610Y-13797574D01*
X15116753Y-13797574D01*
X15145324Y-13811860D01*
X15159610Y-13826146D01*
X15173896Y-13854717D01*
X15173896Y-13869003D01*
X15159610Y-13897574D01*
X15145324Y-13911860D01*
X15116753Y-13926146D01*
X15059610Y-13926146D01*
X15031038Y-13940431D01*
X15016753Y-13954717D01*
X15002467Y-13983289D01*
X15002467Y-14040431D01*
X15016753Y-14069003D01*
X15031038Y-14083289D01*
X15059610Y-14097574D01*
X15116753Y-14097574D01*
X15145324Y-14083289D01*
X15159610Y-14069003D01*
X15173896Y-14040431D01*
X15173896Y-13983289D01*
X15159610Y-13954717D01*
X15145324Y-13940431D01*
X15116753Y-13926146D01*
X15316753Y-14097574D02*
X15373896Y-14097574D01*
X15402467Y-14083289D01*
X15416753Y-14069003D01*
X15445324Y-14026146D01*
X15459610Y-13969003D01*
X15459610Y-13854717D01*
X15445324Y-13826146D01*
X15431038Y-13811860D01*
X15402467Y-13797574D01*
X15345324Y-13797574D01*
X15316753Y-13811860D01*
X15302467Y-13826146D01*
X15288181Y-13854717D01*
X15288181Y-13926146D01*
X15302467Y-13954717D01*
X15316753Y-13969003D01*
X15345324Y-13983289D01*
X15402467Y-13983289D01*
X15431038Y-13969003D01*
X15445324Y-13954717D01*
X15459610Y-13926146D01*
X15573896Y-13797574D02*
X15573896Y-13854717D01*
X15688181Y-13797574D02*
X15688181Y-13854717D01*
X16131038Y-14211860D02*
X16116753Y-14197574D01*
X16088181Y-14154717D01*
X16073896Y-14126146D01*
X16059610Y-14083289D01*
X16045324Y-14011860D01*
X16045324Y-13954717D01*
X16059610Y-13883289D01*
X16073896Y-13840431D01*
X16088181Y-13811860D01*
X16116753Y-13769003D01*
X16131038Y-13754717D01*
X16231038Y-13826146D02*
X16245324Y-13811860D01*
X16273896Y-13797574D01*
X16345324Y-13797574D01*
X16373896Y-13811860D01*
X16388181Y-13826146D01*
X16402467Y-13854717D01*
X16402467Y-13883289D01*
X16388181Y-13926146D01*
X16216753Y-14097574D01*
X16402467Y-14097574D01*
X16759610Y-14097574D02*
X16759610Y-13797574D01*
X16888181Y-14097574D02*
X16888181Y-13940431D01*
X16873896Y-13911860D01*
X16845324Y-13897574D01*
X16802467Y-13897574D01*
X16773896Y-13911860D01*
X16759610Y-13926146D01*
X17073896Y-14097574D02*
X17045324Y-14083289D01*
X17031038Y-14069003D01*
X17016753Y-14040431D01*
X17016753Y-13954717D01*
X17031038Y-13926146D01*
X17045324Y-13911860D01*
X17073896Y-13897574D01*
X17116753Y-13897574D01*
X17145324Y-13911860D01*
X17159610Y-13926146D01*
X17173896Y-13954717D01*
X17173896Y-14040431D01*
X17159610Y-14069003D01*
X17145324Y-14083289D01*
X17116753Y-14097574D01*
X17073896Y-14097574D01*
X17345324Y-14097574D02*
X17316753Y-14083289D01*
X17302467Y-14054717D01*
X17302467Y-13797574D01*
X17573896Y-14083289D02*
X17545324Y-14097574D01*
X17488181Y-14097574D01*
X17459610Y-14083289D01*
X17445324Y-14054717D01*
X17445324Y-13940431D01*
X17459610Y-13911860D01*
X17488181Y-13897574D01*
X17545324Y-13897574D01*
X17573896Y-13911860D01*
X17588181Y-13940431D01*
X17588181Y-13969003D01*
X17445324Y-13997574D01*
X17702467Y-14083289D02*
X17731038Y-14097574D01*
X17788181Y-14097574D01*
X17816753Y-14083289D01*
X17831038Y-14054717D01*
X17831038Y-14040431D01*
X17816753Y-14011860D01*
X17788181Y-13997574D01*
X17745324Y-13997574D01*
X17716753Y-13983289D01*
X17702467Y-13954717D01*
X17702467Y-13940431D01*
X17716753Y-13911860D01*
X17745324Y-13897574D01*
X17788181Y-13897574D01*
X17816753Y-13911860D01*
X17931038Y-14211860D02*
X17945324Y-14197574D01*
X17973896Y-14154717D01*
X17988181Y-14126146D01*
X18002467Y-14083289D01*
X18016753Y-14011860D01*
X18016753Y-13954717D01*
X18002467Y-13883289D01*
X17988181Y-13840431D01*
X17973896Y-13811860D01*
X17945324Y-13769003D01*
X17931038Y-13754717D01*
M02*
