G04 #@! TF.GenerationSoftware,KiCad,Pcbnew,5.1.0-unknown-9e240db~82~ubuntu18.04.1*
G04 #@! TF.CreationDate,2019-04-20T17:34:27+02:00*
G04 #@! TF.ProjectId,VoltMax PWM Board A,566f6c74-4d61-4782-9050-574d20426f61,rev?*
G04 #@! TF.SameCoordinates,Original*
G04 #@! TF.FileFunction,Paste,Bot*
G04 #@! TF.FilePolarity,Positive*
%FSLAX46Y46*%
G04 Gerber Fmt 4.6, Leading zero omitted, Abs format (unit mm)*
G04 Created by KiCad (PCBNEW 5.1.0-unknown-9e240db~82~ubuntu18.04.1) date 2019-04-20 17:34:27*
%MOMM*%
%LPD*%
G04 APERTURE LIST*
%ADD10R,4.700000X1.500000*%
%ADD11R,4.200000X3.100000*%
%ADD12R,0.700000X1.150000*%
%ADD13R,1.000000X0.670000*%
%ADD14R,1.000000X1.000000*%
%ADD15R,1.720000X1.120000*%
%ADD16R,0.650000X1.525000*%
%ADD17R,2.200000X3.800000*%
%ADD18R,2.200000X1.500000*%
%ADD19R,0.575000X0.620000*%
%ADD20R,0.670000X1.000000*%
%ADD21R,0.600000X1.200000*%
G04 APERTURE END LIST*
D10*
X181650000Y-97450000D03*
D11*
X181650000Y-99750000D03*
D12*
X179745000Y-102925000D03*
X181015000Y-102925000D03*
X182285000Y-102925000D03*
X183555000Y-102925000D03*
D13*
X168300000Y-102225000D03*
X168300000Y-103975000D03*
X170300000Y-102225000D03*
X170300000Y-103975000D03*
X172300000Y-102225000D03*
X172300000Y-103975000D03*
X174300000Y-102225000D03*
X174300000Y-103975000D03*
D14*
X160050000Y-104300000D03*
X158150000Y-104300000D03*
X158150000Y-106700000D03*
X160050000Y-106700000D03*
D15*
X155400000Y-96875000D03*
X155400000Y-92725000D03*
D16*
X165805000Y-101288000D03*
X164535000Y-101288000D03*
X163265000Y-101288000D03*
X161995000Y-101288000D03*
X161995000Y-106712000D03*
X163265000Y-106712000D03*
X164535000Y-106712000D03*
X165805000Y-106712000D03*
D17*
X165450000Y-96100000D03*
D18*
X159150000Y-98400000D03*
X159150000Y-96100000D03*
X159150000Y-93800000D03*
D19*
X170888000Y-96800000D03*
X168512000Y-95850000D03*
X168512000Y-97750000D03*
D20*
X174725000Y-107000000D03*
X176475000Y-107000000D03*
X172975000Y-107000000D03*
X171225000Y-107000000D03*
X169375000Y-107000000D03*
X167625000Y-107000000D03*
D21*
X156050000Y-104150000D03*
X154150000Y-104150000D03*
X154150000Y-106650000D03*
X155100000Y-106650000D03*
X156050000Y-106650000D03*
M02*
