G04 #@! TF.GenerationSoftware,KiCad,Pcbnew,(5.1.0-rc1-70-gd15876595)*
G04 #@! TF.CreationDate,2019-03-07T00:00:13+01:00
G04 #@! TF.ProjectId,spwm3.3,7370776d-332e-4332-9e6b-696361645f70,rev?*
G04 #@! TF.SameCoordinates,Original*
G04 #@! TF.FileFunction,Legend,Top*
G04 #@! TF.FilePolarity,Positive*
%FSLAX46Y46*%
G04 Gerber Fmt 4.6, Leading zero omitted, Abs format (unit mm)*
G04 Created by KiCad (PCBNEW (5.1.0-rc1-70-gd15876595)) date 2019-03-07 00:00:13*
%MOMM*%
%LPD*%
G04 APERTURE LIST*
%ADD10C,0.175750*%
%ADD11C,0.150000*%
%ADD12C,0.200000*%
%ADD13C,0.250000*%
G04 APERTURE END LIST*
D10*
X137552475Y-113102380D02*
X137552475Y-113816666D01*
X137518999Y-113959523D01*
X137452047Y-114054761D01*
X137351618Y-114102380D01*
X137284666Y-114102380D01*
X138221999Y-114102380D02*
X137887237Y-114102380D01*
X137887237Y-113102380D01*
X138858047Y-114007142D02*
X138824570Y-114054761D01*
X138724142Y-114102380D01*
X138657189Y-114102380D01*
X138556761Y-114054761D01*
X138489808Y-113959523D01*
X138456332Y-113864285D01*
X138422856Y-113673809D01*
X138422856Y-113530952D01*
X138456332Y-113340476D01*
X138489808Y-113245238D01*
X138556761Y-113150000D01*
X138657189Y-113102380D01*
X138724142Y-113102380D01*
X138824570Y-113150000D01*
X138858047Y-113197619D01*
X139360189Y-113102380D02*
X139360189Y-113816666D01*
X139326713Y-113959523D01*
X139259761Y-114054761D01*
X139159332Y-114102380D01*
X139092380Y-114102380D01*
X140029713Y-114102380D02*
X139694951Y-114102380D01*
X139694951Y-113102380D01*
X140665761Y-114007142D02*
X140632285Y-114054761D01*
X140531856Y-114102380D01*
X140464904Y-114102380D01*
X140364475Y-114054761D01*
X140297523Y-113959523D01*
X140264047Y-113864285D01*
X140230570Y-113673809D01*
X140230570Y-113530952D01*
X140264047Y-113340476D01*
X140297523Y-113245238D01*
X140364475Y-113150000D01*
X140464904Y-113102380D01*
X140531856Y-113102380D01*
X140632285Y-113150000D01*
X140665761Y-113197619D01*
X141167904Y-113102380D02*
X141167904Y-113816666D01*
X141134427Y-113959523D01*
X141067475Y-114054761D01*
X140967047Y-114102380D01*
X140900094Y-114102380D01*
X141837427Y-114102380D02*
X141502666Y-114102380D01*
X141502666Y-113102380D01*
X142473475Y-114007142D02*
X142439999Y-114054761D01*
X142339570Y-114102380D01*
X142272618Y-114102380D01*
X142172189Y-114054761D01*
X142105237Y-113959523D01*
X142071761Y-113864285D01*
X142038285Y-113673809D01*
X142038285Y-113530952D01*
X142071761Y-113340476D01*
X142105237Y-113245238D01*
X142172189Y-113150000D01*
X142272618Y-113102380D01*
X142339570Y-113102380D01*
X142439999Y-113150000D01*
X142473475Y-113197619D01*
X142975618Y-113102380D02*
X142975618Y-113816666D01*
X142942142Y-113959523D01*
X142875189Y-114054761D01*
X142774761Y-114102380D01*
X142707808Y-114102380D01*
X143645142Y-114102380D02*
X143310380Y-114102380D01*
X143310380Y-113102380D01*
X144281189Y-114007142D02*
X144247713Y-114054761D01*
X144147285Y-114102380D01*
X144080332Y-114102380D01*
X143979904Y-114054761D01*
X143912951Y-113959523D01*
X143879475Y-113864285D01*
X143845999Y-113673809D01*
X143845999Y-113530952D01*
X143879475Y-113340476D01*
X143912951Y-113245238D01*
X143979904Y-113150000D01*
X144080332Y-113102380D01*
X144147285Y-113102380D01*
X144247713Y-113150000D01*
X144281189Y-113197619D01*
D11*
X183501100Y-113603599D02*
G75*
G02X182101100Y-115003600I-1399828J-173D01*
G01*
X183501100Y-113603600D02*
X183501100Y-111153600D01*
X183501100Y-111153600D02*
X183501100Y-96403600D01*
X182101100Y-95003599D02*
G75*
G02X183501100Y-96403600I172J-1399828D01*
G01*
X182101100Y-95003600D02*
X116676100Y-95003600D01*
X113501100Y-98178599D02*
G75*
G02X116676100Y-95003600I3175218J-219D01*
G01*
X113501100Y-98178600D02*
X113501100Y-111828600D01*
X116676100Y-115003599D02*
G75*
G02X113501100Y-111828600I218J3175218D01*
G01*
X116676100Y-115003600D02*
X182101100Y-115003600D01*
X182101100Y-115003600D02*
X182101100Y-115003600D01*
X151978100Y-112081600D02*
X151978100Y-97821600D01*
X151978100Y-97821600D02*
X129178100Y-97821600D01*
X129178100Y-97821600D02*
X129178100Y-112081600D01*
X129178100Y-112081600D02*
X151978100Y-112081600D01*
D10*
X156961242Y-109563647D02*
X157061670Y-109597123D01*
X157229051Y-109597123D01*
X157296004Y-109563647D01*
X157329480Y-109530171D01*
X157362956Y-109463219D01*
X157362956Y-109396266D01*
X157329480Y-109329314D01*
X157296004Y-109295838D01*
X157229051Y-109262361D01*
X157095147Y-109228885D01*
X157028194Y-109195409D01*
X156994718Y-109161933D01*
X156961242Y-109094980D01*
X156961242Y-109028028D01*
X156994718Y-108961076D01*
X157028194Y-108927600D01*
X157095147Y-108894123D01*
X157262527Y-108894123D01*
X157362956Y-108927600D01*
X158032480Y-109597123D02*
X157630766Y-109597123D01*
X157831623Y-109597123D02*
X157831623Y-108894123D01*
X157764670Y-108994552D01*
X157697718Y-109061504D01*
X157630766Y-109094980D01*
X163511242Y-109563647D02*
X163611670Y-109597123D01*
X163779051Y-109597123D01*
X163846004Y-109563647D01*
X163879480Y-109530171D01*
X163912956Y-109463219D01*
X163912956Y-109396266D01*
X163879480Y-109329314D01*
X163846004Y-109295838D01*
X163779051Y-109262361D01*
X163645147Y-109228885D01*
X163578194Y-109195409D01*
X163544718Y-109161933D01*
X163511242Y-109094980D01*
X163511242Y-109028028D01*
X163544718Y-108961076D01*
X163578194Y-108927600D01*
X163645147Y-108894123D01*
X163812527Y-108894123D01*
X163912956Y-108927600D01*
X164180766Y-108961076D02*
X164214242Y-108927600D01*
X164281194Y-108894123D01*
X164448575Y-108894123D01*
X164515527Y-108927600D01*
X164549004Y-108961076D01*
X164582480Y-109028028D01*
X164582480Y-109094980D01*
X164549004Y-109195409D01*
X164147289Y-109597123D01*
X164582480Y-109597123D01*
X175211242Y-111013647D02*
X175311670Y-111047123D01*
X175479051Y-111047123D01*
X175546004Y-111013647D01*
X175579480Y-110980171D01*
X175612956Y-110913219D01*
X175612956Y-110846266D01*
X175579480Y-110779314D01*
X175546004Y-110745838D01*
X175479051Y-110712361D01*
X175345147Y-110678885D01*
X175278194Y-110645409D01*
X175244718Y-110611933D01*
X175211242Y-110544980D01*
X175211242Y-110478028D01*
X175244718Y-110411076D01*
X175278194Y-110377600D01*
X175345147Y-110344123D01*
X175512527Y-110344123D01*
X175612956Y-110377600D01*
X176215527Y-110578457D02*
X176215527Y-111047123D01*
X176048147Y-110310647D02*
X175880766Y-110812790D01*
X176315956Y-110812790D01*
X170596432Y-110297123D02*
X170362099Y-109962361D01*
X170194718Y-110297123D02*
X170194718Y-109594123D01*
X170462527Y-109594123D01*
X170529480Y-109627600D01*
X170562956Y-109661076D01*
X170596432Y-109728028D01*
X170596432Y-109828457D01*
X170562956Y-109895409D01*
X170529480Y-109928885D01*
X170462527Y-109962361D01*
X170194718Y-109962361D01*
X171265956Y-110297123D02*
X170864242Y-110297123D01*
X171065099Y-110297123D02*
X171065099Y-109594123D01*
X170998147Y-109694552D01*
X170931194Y-109761504D01*
X170864242Y-109794980D01*
X157394718Y-99894123D02*
X157394718Y-100463219D01*
X157428194Y-100530171D01*
X157461670Y-100563647D01*
X157528623Y-100597123D01*
X157662527Y-100597123D01*
X157729480Y-100563647D01*
X157762956Y-100530171D01*
X157796432Y-100463219D01*
X157796432Y-99894123D01*
X163944718Y-100597123D02*
X163944718Y-99894123D01*
X164112099Y-99894123D01*
X164212527Y-99927600D01*
X164279480Y-99994552D01*
X164312956Y-100061504D01*
X164346432Y-100195409D01*
X164346432Y-100295838D01*
X164312956Y-100429742D01*
X164279480Y-100496695D01*
X164212527Y-100563647D01*
X164112099Y-100597123D01*
X163944718Y-100597123D01*
X170294718Y-101947123D02*
X170294718Y-101244123D01*
X170462099Y-101244123D01*
X170562527Y-101277600D01*
X170629480Y-101344552D01*
X170662956Y-101411504D01*
X170696432Y-101545409D01*
X170696432Y-101645838D01*
X170662956Y-101779742D01*
X170629480Y-101846695D01*
X170562527Y-101913647D01*
X170462099Y-101947123D01*
X170294718Y-101947123D01*
X171365956Y-101947123D02*
X170964242Y-101947123D01*
X171165099Y-101947123D02*
X171165099Y-101244123D01*
X171098147Y-101344552D01*
X171031194Y-101411504D01*
X170964242Y-101444980D01*
X175378623Y-98444123D02*
X175512527Y-98444123D01*
X175579480Y-98477600D01*
X175646432Y-98544552D01*
X175679908Y-98678457D01*
X175679908Y-98912790D01*
X175646432Y-99046695D01*
X175579480Y-99113647D01*
X175512527Y-99147123D01*
X175378623Y-99147123D01*
X175311670Y-99113647D01*
X175244718Y-99046695D01*
X175211242Y-98912790D01*
X175211242Y-98678457D01*
X175244718Y-98544552D01*
X175311670Y-98477600D01*
X175378623Y-98444123D01*
X175981194Y-99147123D02*
X175981194Y-98444123D01*
X176382908Y-99147123D01*
X176382908Y-98444123D01*
D12*
G04 #@! TO.C,D1*
X172899100Y-104053600D02*
X172899100Y-105253600D01*
X173399100Y-105903600D02*
X172199100Y-105903600D01*
X172199100Y-105903600D02*
G75*
G02X168999100Y-105903600I-1600000J1331591D01*
G01*
X168999100Y-103403600D02*
G75*
G02X172199100Y-103403600I1600000J-1331591D01*
G01*
X173399100Y-103403600D02*
X173399100Y-105903600D01*
X173399100Y-103403600D02*
X172199100Y-103403600D01*
D13*
G04 #@! TO.C,S2*
X157488500Y-104003567D02*
X157488500Y-106003567D01*
X158488500Y-105003567D02*
X156488500Y-105003567D01*
X154488500Y-108003567D02*
X154688500Y-108003567D01*
X154488500Y-102003567D02*
X154688500Y-102003567D01*
X160488500Y-108003567D02*
X160288500Y-108003567D01*
X158688500Y-108003567D02*
X156288500Y-108003567D01*
X158688500Y-102003567D02*
X156288500Y-102003567D01*
X154488500Y-102003567D02*
X154488500Y-108003567D01*
X160488500Y-102003567D02*
X160488500Y-108003567D01*
X160488500Y-102003567D02*
X160288500Y-102003567D01*
G04 #@! TO.C,S3*
X164043000Y-106003567D02*
X164043000Y-104003567D01*
X163043000Y-105003567D02*
X165043000Y-105003567D01*
X167043000Y-102003567D02*
X166843000Y-102003567D01*
X167043000Y-108003567D02*
X166843000Y-108003567D01*
X161043000Y-102003567D02*
X161243000Y-102003567D01*
X162843000Y-102003567D02*
X165243000Y-102003567D01*
X162843000Y-108003567D02*
X165243000Y-108003567D01*
X167043000Y-108003567D02*
X167043000Y-102003567D01*
X161043000Y-108003567D02*
X161043000Y-102003567D01*
X161043000Y-108003567D02*
X161243000Y-108003567D01*
D12*
G04 #@! TO.C,S4*
X174279100Y-109304600D02*
X173629100Y-109304600D01*
X174279100Y-100702600D02*
X173629100Y-100702600D01*
X177929100Y-109304600D02*
X177279100Y-109304600D01*
X173629100Y-100702600D02*
X173629100Y-109304600D01*
X177929100Y-100702600D02*
X177929100Y-109304600D01*
X177929100Y-100702600D02*
X177279100Y-100702600D01*
G04 #@! TD*
M02*
