M48
; DRILL file {KiCad (5.1.0-rc1-70-gd15876595)} date 3/9/2019 9:05:38 PM
; FORMAT={-:-/ absolute / metric / decimal}
; #@! TF.CreationDate,2019-03-09T21:05:38+01:00
; #@! TF.GenerationSoftware,Kicad,Pcbnew,(5.1.0-rc1-70-gd15876595)
; #@! TF.FileFunction,Plated,1,2,PTH
FMAT,2
METRIC
T1C0.500
T2C0.700
T3C0.900
T4C1.000
T5C1.100
T6C1.200
T7C1.300
T8C1.400
T9C1.700
T10C2.000
%
G90
G05
T1
X155.488Y-99.425
X157.487Y-107.254
X159.479Y-105.004
X162.039Y-105.004
X164.037Y-107.254
X164.591Y-111.854
X167.797Y-102.821
X167.797Y-109.449
T2
X169.329Y-104.654
X171.869Y-104.654
T3
X175.779Y-103.004
X175.779Y-105.004
X175.779Y-107.004
T4
X166.901Y-113.554
X169.441Y-113.554
X171.981Y-113.554
X174.521Y-113.554
X177.061Y-113.554
X179.601Y-113.554
X182.141Y-105.934
X182.141Y-108.474
X182.141Y-111.014
X182.141Y-113.554
T5
X157.88Y-113.63
X154.779Y-113.63
X160.98Y-113.63
T6
X122.6Y-107.92
X122.6Y-102.06
T7
X175.779Y-100.904
X175.779Y-109.104
T8
X182.141Y-100.854
T9
X116.149Y-112.504
X116.149Y-97.504
X170.289Y-97.504
T10
X126.6Y-104.975
T0
M30
