G04 #@! TF.GenerationSoftware,KiCad,Pcbnew,5.1.0-unknown-9bfce26~82~ubuntu18.04.1*
G04 #@! TF.CreationDate,2019-03-12T00:27:46+01:00*
G04 #@! TF.ProjectId,spwm3.3,7370776d-332e-4332-9e6b-696361645f70,rev?*
G04 #@! TF.SameCoordinates,Original*
G04 #@! TF.FileFunction,Soldermask,Top*
G04 #@! TF.FilePolarity,Negative*
%FSLAX46Y46*%
G04 Gerber Fmt 4.6, Leading zero omitted, Abs format (unit mm)*
G04 Created by KiCad (PCBNEW 5.1.0-unknown-9bfce26~82~ubuntu18.04.1) date 2019-03-12 00:27:46*
%MOMM*%
%LPD*%
G04 APERTURE LIST*
%ADD10C,0.150000*%
G04 APERTURE END LIST*
D10*
X183501100Y-113603599D02*
G75*
G02X182101100Y-115003600I-1399828J-173D01*
G01*
X183501100Y-113603600D02*
X183501100Y-111153600D01*
X183501100Y-111153600D02*
X183501100Y-96403600D01*
X182101100Y-95003599D02*
G75*
G02X183501100Y-96403600I172J-1399828D01*
G01*
X182101100Y-95003600D02*
X116676100Y-95003600D01*
X113501100Y-98178599D02*
G75*
G02X116676100Y-95003600I3175218J-219D01*
G01*
X113501100Y-98178600D02*
X113501100Y-111828600D01*
X116676100Y-115003599D02*
G75*
G02X113501100Y-111828600I218J3175218D01*
G01*
X116676100Y-115003600D02*
X182101100Y-115003600D01*
X182101100Y-115003600D02*
X182101100Y-115003600D01*
X151978100Y-112081600D02*
X151978100Y-97821600D01*
X151978100Y-97821600D02*
X129178100Y-97821600D01*
X129178100Y-97821600D02*
X129178100Y-112081600D01*
X129178100Y-112081600D02*
X151978100Y-112081600D01*
G04 #@! TO.C,D1*
G36*
X168627100Y-104953600D02*
G01*
X168636100Y-105063600D01*
X168661100Y-105170600D01*
X168704100Y-105272600D01*
X168761100Y-105366600D01*
X168833100Y-105449600D01*
X168916100Y-105521600D01*
X169010100Y-105578600D01*
X169112100Y-105621600D01*
X169219100Y-105646600D01*
X169329100Y-105655600D01*
X169439100Y-105646600D01*
X169546100Y-105621600D01*
X169648100Y-105578600D01*
X169742100Y-105521600D01*
X169825100Y-105449600D01*
X169897100Y-105366600D01*
X169954100Y-105272600D01*
X169997100Y-105170600D01*
X170022100Y-105063600D01*
X170031100Y-104953600D01*
X170031100Y-104353600D01*
X170022100Y-104243600D01*
X169997100Y-104136600D01*
X169954100Y-104034600D01*
X169897100Y-103940600D01*
X169825100Y-103857600D01*
X169742100Y-103785600D01*
X169648100Y-103728600D01*
X169546100Y-103685600D01*
X169439100Y-103660600D01*
X169329100Y-103651600D01*
X169219100Y-103660600D01*
X169112100Y-103685600D01*
X169010100Y-103728600D01*
X168916100Y-103785600D01*
X168833100Y-103857600D01*
X168761100Y-103940600D01*
X168704100Y-104034600D01*
X168661100Y-104136600D01*
X168636100Y-104243600D01*
X168627100Y-104353600D01*
X168627100Y-104953600D01*
G37*
G36*
X171167100Y-104953600D02*
G01*
X171176100Y-105063600D01*
X171201100Y-105170600D01*
X171244100Y-105272600D01*
X171301100Y-105366600D01*
X171373100Y-105449600D01*
X171456100Y-105521600D01*
X171550100Y-105578600D01*
X171652100Y-105621600D01*
X171759100Y-105646600D01*
X171869100Y-105655600D01*
X171979100Y-105646600D01*
X172086100Y-105621600D01*
X172188100Y-105578600D01*
X172282100Y-105521600D01*
X172365100Y-105449600D01*
X172437100Y-105366600D01*
X172494100Y-105272600D01*
X172537100Y-105170600D01*
X172562100Y-105063600D01*
X172571100Y-104953600D01*
X172571100Y-104353600D01*
X172562100Y-104243600D01*
X172537100Y-104136600D01*
X172494100Y-104034600D01*
X172437100Y-103940600D01*
X172365100Y-103857600D01*
X172282100Y-103785600D01*
X172188100Y-103728600D01*
X172086100Y-103685600D01*
X171979100Y-103660600D01*
X171869100Y-103651600D01*
X171759100Y-103660600D01*
X171652100Y-103685600D01*
X171550100Y-103728600D01*
X171456100Y-103785600D01*
X171373100Y-103857600D01*
X171301100Y-103940600D01*
X171244100Y-104034600D01*
X171201100Y-104136600D01*
X171176100Y-104243600D01*
X171167100Y-104353600D01*
X171167100Y-104953600D01*
G37*
G04 #@! TO.C,S4*
G36*
X175529100Y-108151600D02*
G01*
X175380100Y-108163600D01*
X175235100Y-108198600D01*
X175097100Y-108255600D01*
X174969100Y-108333600D01*
X174856100Y-108430600D01*
X174759100Y-108543600D01*
X174681100Y-108671600D01*
X174624100Y-108809600D01*
X174589100Y-108954600D01*
X174577100Y-109103600D01*
X174589100Y-109252600D01*
X174624100Y-109397600D01*
X174681100Y-109535600D01*
X174759100Y-109663600D01*
X174856100Y-109776600D01*
X174969100Y-109873600D01*
X175097100Y-109951600D01*
X175235100Y-110008600D01*
X175380100Y-110043600D01*
X175529100Y-110055600D01*
X176029100Y-110055600D01*
X176178100Y-110043600D01*
X176323100Y-110008600D01*
X176461100Y-109951600D01*
X176589100Y-109873600D01*
X176702100Y-109776600D01*
X176799100Y-109663600D01*
X176877100Y-109535600D01*
X176934100Y-109397600D01*
X176969100Y-109252600D01*
X176981100Y-109103600D01*
X176969100Y-108954600D01*
X176934100Y-108809600D01*
X176877100Y-108671600D01*
X176799100Y-108543600D01*
X176702100Y-108430600D01*
X176589100Y-108333600D01*
X176461100Y-108255600D01*
X176323100Y-108198600D01*
X176178100Y-108163600D01*
X176029100Y-108151600D01*
X175529100Y-108151600D01*
G37*
G36*
X175529100Y-99951600D02*
G01*
X175380100Y-99963600D01*
X175235100Y-99998600D01*
X175097100Y-100055600D01*
X174969100Y-100133600D01*
X174856100Y-100230600D01*
X174759100Y-100343600D01*
X174681100Y-100471600D01*
X174624100Y-100609600D01*
X174589100Y-100754600D01*
X174577100Y-100903600D01*
X174589100Y-101052600D01*
X174624100Y-101197600D01*
X174681100Y-101335600D01*
X174759100Y-101463600D01*
X174856100Y-101576600D01*
X174969100Y-101673600D01*
X175097100Y-101751600D01*
X175235100Y-101808600D01*
X175380100Y-101843600D01*
X175529100Y-101855600D01*
X176029100Y-101855600D01*
X176178100Y-101843600D01*
X176323100Y-101808600D01*
X176461100Y-101751600D01*
X176589100Y-101673600D01*
X176702100Y-101576600D01*
X176799100Y-101463600D01*
X176877100Y-101335600D01*
X176934100Y-101197600D01*
X176969100Y-101052600D01*
X176981100Y-100903600D01*
X176969100Y-100754600D01*
X176934100Y-100609600D01*
X176877100Y-100471600D01*
X176799100Y-100343600D01*
X176702100Y-100230600D01*
X176589100Y-100133600D01*
X176461100Y-100055600D01*
X176323100Y-99998600D01*
X176178100Y-99963600D01*
X176029100Y-99951600D01*
X175529100Y-99951600D01*
G37*
G36*
X175529100Y-106251600D02*
G01*
X175411100Y-106260600D01*
X175297100Y-106288600D01*
X175188100Y-106333600D01*
X175087100Y-106395600D01*
X174997100Y-106471600D01*
X174921100Y-106561600D01*
X174859100Y-106662600D01*
X174814100Y-106771600D01*
X174786100Y-106885600D01*
X174777100Y-107003600D01*
X174786100Y-107121600D01*
X174814100Y-107235600D01*
X174859100Y-107344600D01*
X174921100Y-107445600D01*
X174997100Y-107535600D01*
X175087100Y-107611600D01*
X175188100Y-107673600D01*
X175297100Y-107718600D01*
X175411100Y-107746600D01*
X175529100Y-107755600D01*
X176029100Y-107755600D01*
X176147100Y-107746600D01*
X176261100Y-107718600D01*
X176370100Y-107673600D01*
X176471100Y-107611600D01*
X176561100Y-107535600D01*
X176637100Y-107445600D01*
X176699100Y-107344600D01*
X176744100Y-107235600D01*
X176772100Y-107121600D01*
X176781100Y-107003600D01*
X176772100Y-106885600D01*
X176744100Y-106771600D01*
X176699100Y-106662600D01*
X176637100Y-106561600D01*
X176561100Y-106471600D01*
X176471100Y-106395600D01*
X176370100Y-106333600D01*
X176261100Y-106288600D01*
X176147100Y-106260600D01*
X176029100Y-106251600D01*
X175529100Y-106251600D01*
G37*
G36*
X175529100Y-104251600D02*
G01*
X175411100Y-104260600D01*
X175297100Y-104288600D01*
X175188100Y-104333600D01*
X175087100Y-104395600D01*
X174997100Y-104471600D01*
X174921100Y-104561600D01*
X174859100Y-104662600D01*
X174814100Y-104771600D01*
X174786100Y-104885600D01*
X174777100Y-105003600D01*
X174786100Y-105121600D01*
X174814100Y-105235600D01*
X174859100Y-105344600D01*
X174921100Y-105445600D01*
X174997100Y-105535600D01*
X175087100Y-105611600D01*
X175188100Y-105673600D01*
X175297100Y-105718600D01*
X175411100Y-105746600D01*
X175529100Y-105755600D01*
X176029100Y-105755600D01*
X176147100Y-105746600D01*
X176261100Y-105718600D01*
X176370100Y-105673600D01*
X176471100Y-105611600D01*
X176561100Y-105535600D01*
X176637100Y-105445600D01*
X176699100Y-105344600D01*
X176744100Y-105235600D01*
X176772100Y-105121600D01*
X176781100Y-105003600D01*
X176772100Y-104885600D01*
X176744100Y-104771600D01*
X176699100Y-104662600D01*
X176637100Y-104561600D01*
X176561100Y-104471600D01*
X176471100Y-104395600D01*
X176370100Y-104333600D01*
X176261100Y-104288600D01*
X176147100Y-104260600D01*
X176029100Y-104251600D01*
X175529100Y-104251600D01*
G37*
G36*
X175529100Y-102251600D02*
G01*
X175411100Y-102260600D01*
X175297100Y-102288600D01*
X175188100Y-102333600D01*
X175087100Y-102395600D01*
X174997100Y-102471600D01*
X174921100Y-102561600D01*
X174859100Y-102662600D01*
X174814100Y-102771600D01*
X174786100Y-102885600D01*
X174777100Y-103003600D01*
X174786100Y-103121600D01*
X174814100Y-103235600D01*
X174859100Y-103344600D01*
X174921100Y-103445600D01*
X174997100Y-103535600D01*
X175087100Y-103611600D01*
X175188100Y-103673600D01*
X175297100Y-103718600D01*
X175411100Y-103746600D01*
X175529100Y-103755600D01*
X176029100Y-103755600D01*
X176147100Y-103746600D01*
X176261100Y-103718600D01*
X176370100Y-103673600D01*
X176471100Y-103611600D01*
X176561100Y-103535600D01*
X176637100Y-103445600D01*
X176699100Y-103344600D01*
X176744100Y-103235600D01*
X176772100Y-103121600D01*
X176781100Y-103003600D01*
X176772100Y-102885600D01*
X176744100Y-102771600D01*
X176699100Y-102662600D01*
X176637100Y-102561600D01*
X176561100Y-102471600D01*
X176471100Y-102395600D01*
X176370100Y-102333600D01*
X176261100Y-102288600D01*
X176147100Y-102260600D01*
X176029100Y-102251600D01*
X175529100Y-102251600D01*
G37*
G04 #@! TO.C,U5*
G36*
X156928000Y-113830000D02*
G01*
X156940000Y-113979000D01*
X156975000Y-114124000D01*
X157032000Y-114262000D01*
X157110000Y-114390000D01*
X157207000Y-114503000D01*
X157320000Y-114600000D01*
X157448000Y-114678000D01*
X157586000Y-114735000D01*
X157731000Y-114770000D01*
X157880000Y-114782000D01*
X158029000Y-114770000D01*
X158174000Y-114735000D01*
X158312000Y-114678000D01*
X158440000Y-114600000D01*
X158553000Y-114503000D01*
X158650000Y-114390000D01*
X158728000Y-114262000D01*
X158785000Y-114124000D01*
X158820000Y-113979000D01*
X158832000Y-113830000D01*
X158832000Y-113430000D01*
X158820000Y-113281000D01*
X158785000Y-113136000D01*
X158728000Y-112998000D01*
X158650000Y-112870000D01*
X158553000Y-112757000D01*
X158440000Y-112660000D01*
X158312000Y-112582000D01*
X158174000Y-112525000D01*
X158029000Y-112490000D01*
X157880000Y-112478000D01*
X157731000Y-112490000D01*
X157586000Y-112525000D01*
X157448000Y-112582000D01*
X157320000Y-112660000D01*
X157207000Y-112757000D01*
X157110000Y-112870000D01*
X157032000Y-112998000D01*
X156975000Y-113136000D01*
X156940000Y-113281000D01*
X156928000Y-113430000D01*
X156928000Y-113830000D01*
G37*
G04 #@! TO.C,U6*
G36*
X160028000Y-113820000D02*
G01*
X160040000Y-113969000D01*
X160075000Y-114114000D01*
X160132000Y-114252000D01*
X160210000Y-114380000D01*
X160307000Y-114493000D01*
X160420000Y-114590000D01*
X160548000Y-114668000D01*
X160686000Y-114725000D01*
X160831000Y-114760000D01*
X160980000Y-114772000D01*
X161129000Y-114760000D01*
X161274000Y-114725000D01*
X161412000Y-114668000D01*
X161540000Y-114590000D01*
X161653000Y-114493000D01*
X161750000Y-114380000D01*
X161828000Y-114252000D01*
X161885000Y-114114000D01*
X161920000Y-113969000D01*
X161932000Y-113820000D01*
X161932000Y-113420000D01*
X161920000Y-113271000D01*
X161885000Y-113126000D01*
X161828000Y-112988000D01*
X161750000Y-112860000D01*
X161653000Y-112747000D01*
X161540000Y-112650000D01*
X161412000Y-112572000D01*
X161274000Y-112515000D01*
X161129000Y-112480000D01*
X160980000Y-112468000D01*
X160831000Y-112480000D01*
X160686000Y-112515000D01*
X160548000Y-112572000D01*
X160420000Y-112650000D01*
X160307000Y-112747000D01*
X160210000Y-112860000D01*
X160132000Y-112988000D01*
X160075000Y-113126000D01*
X160040000Y-113271000D01*
X160028000Y-113420000D01*
X160028000Y-113820000D01*
G37*
G04 #@! TO.C,U7*
G36*
X153827100Y-113823600D02*
G01*
X153839100Y-113972600D01*
X153874100Y-114117600D01*
X153931100Y-114255600D01*
X154009100Y-114383600D01*
X154106100Y-114496600D01*
X154219100Y-114593600D01*
X154347100Y-114671600D01*
X154485100Y-114728600D01*
X154630100Y-114763600D01*
X154779100Y-114775600D01*
X154928100Y-114763600D01*
X155073100Y-114728600D01*
X155211100Y-114671600D01*
X155339100Y-114593600D01*
X155452100Y-114496600D01*
X155549100Y-114383600D01*
X155627100Y-114255600D01*
X155684100Y-114117600D01*
X155719100Y-113972600D01*
X155731100Y-113823600D01*
X155731100Y-113423600D01*
X155719100Y-113274600D01*
X155684100Y-113129600D01*
X155627100Y-112991600D01*
X155549100Y-112863600D01*
X155452100Y-112750600D01*
X155339100Y-112653600D01*
X155211100Y-112575600D01*
X155073100Y-112518600D01*
X154928100Y-112483600D01*
X154779100Y-112471600D01*
X154630100Y-112483600D01*
X154485100Y-112518600D01*
X154347100Y-112575600D01*
X154219100Y-112653600D01*
X154106100Y-112750600D01*
X154009100Y-112863600D01*
X153931100Y-112991600D01*
X153874100Y-113129600D01*
X153839100Y-113274600D01*
X153827100Y-113423600D01*
X153827100Y-113823600D01*
G37*
G04 #@! TO.C,U4*
G36*
X181189100Y-101253600D02*
G01*
X181201100Y-101402600D01*
X181236100Y-101547600D01*
X181293100Y-101685600D01*
X181371100Y-101813600D01*
X181468100Y-101926600D01*
X181581100Y-102023600D01*
X181709100Y-102101600D01*
X181847100Y-102158600D01*
X181992100Y-102193600D01*
X182141100Y-102205600D01*
X182290100Y-102193600D01*
X182435100Y-102158600D01*
X182573100Y-102101600D01*
X182701100Y-102023600D01*
X182814100Y-101926600D01*
X182911100Y-101813600D01*
X182989100Y-101685600D01*
X183046100Y-101547600D01*
X183081100Y-101402600D01*
X183093100Y-101253600D01*
X183093100Y-100453600D01*
X183081100Y-100304600D01*
X183046100Y-100159600D01*
X182989100Y-100021600D01*
X182911100Y-99893600D01*
X182814100Y-99780600D01*
X182701100Y-99683600D01*
X182573100Y-99605600D01*
X182435100Y-99548600D01*
X182290100Y-99513600D01*
X182141100Y-99501600D01*
X181992100Y-99513600D01*
X181847100Y-99548600D01*
X181709100Y-99605600D01*
X181581100Y-99683600D01*
X181468100Y-99780600D01*
X181371100Y-99893600D01*
X181293100Y-100021600D01*
X181236100Y-100159600D01*
X181201100Y-100304600D01*
X181189100Y-100453600D01*
X181189100Y-101253600D01*
G37*
G04 #@! TO.C,Pad7*
G36*
X123322000Y-107920000D02*
G01*
X123278000Y-107579000D01*
X123150000Y-107272000D01*
X122950000Y-107028000D01*
X122699000Y-106872000D01*
X122420000Y-106818000D01*
X122141000Y-106872000D01*
X121890000Y-107028000D01*
X121690000Y-107272000D01*
X121562000Y-107579000D01*
X121518000Y-107920000D01*
X121562000Y-108261000D01*
X121690000Y-108568000D01*
X121890000Y-108812000D01*
X122141000Y-108968000D01*
X122420000Y-109022000D01*
X122699000Y-108968000D01*
X122950000Y-108812000D01*
X123150000Y-108568000D01*
X123278000Y-108261000D01*
X123322000Y-107920000D01*
G37*
G04 #@! TO.C,Pad4*
G36*
X121568000Y-102260000D02*
G01*
X121579000Y-102401000D01*
X121612000Y-102539000D01*
X121666000Y-102669000D01*
X121740000Y-102790000D01*
X121832000Y-102898000D01*
X121940000Y-102990000D01*
X122061000Y-103064000D01*
X122191000Y-103118000D01*
X122329000Y-103151000D01*
X122470000Y-103162000D01*
X122611000Y-103151000D01*
X122749000Y-103118000D01*
X122879000Y-103064000D01*
X123000000Y-102990000D01*
X123108000Y-102898000D01*
X123200000Y-102790000D01*
X123274000Y-102669000D01*
X123328000Y-102539000D01*
X123361000Y-102401000D01*
X123372000Y-102260000D01*
X123372000Y-101860000D01*
X123361000Y-101719000D01*
X123328000Y-101581000D01*
X123274000Y-101451000D01*
X123200000Y-101330000D01*
X123108000Y-101222000D01*
X123000000Y-101130000D01*
X122879000Y-101056000D01*
X122749000Y-101002000D01*
X122611000Y-100969000D01*
X122470000Y-100958000D01*
X122329000Y-100969000D01*
X122191000Y-101002000D01*
X122061000Y-101056000D01*
X121940000Y-101130000D01*
X121832000Y-101222000D01*
X121740000Y-101330000D01*
X121666000Y-101451000D01*
X121612000Y-101581000D01*
X121579000Y-101719000D01*
X121568000Y-101860000D01*
X121568000Y-102260000D01*
G37*
G36*
X158157570Y-112714969D02*
G01*
X158330753Y-112786704D01*
X158486607Y-112890842D01*
X158619158Y-113023393D01*
X158723296Y-113179247D01*
X158795031Y-113352430D01*
X158831600Y-113536274D01*
X158831600Y-113723726D01*
X158795031Y-113907570D01*
X158723296Y-114080753D01*
X158619158Y-114236607D01*
X158486607Y-114369158D01*
X158330753Y-114473296D01*
X158157570Y-114545031D01*
X157973726Y-114581600D01*
X157786274Y-114581600D01*
X157602430Y-114545031D01*
X157429247Y-114473296D01*
X157273393Y-114369158D01*
X157140842Y-114236607D01*
X157036704Y-114080753D01*
X156964969Y-113907570D01*
X156928400Y-113723726D01*
X156928400Y-113536274D01*
X156964969Y-113352430D01*
X157036704Y-113179247D01*
X157140842Y-113023393D01*
X157273393Y-112890842D01*
X157429247Y-112786704D01*
X157602430Y-112714969D01*
X157786274Y-112678400D01*
X157973726Y-112678400D01*
X158157570Y-112714969D01*
X158157570Y-112714969D01*
G37*
G36*
X155056670Y-112708569D02*
G01*
X155190619Y-112764053D01*
X155221160Y-112776703D01*
X155229853Y-112780304D01*
X155385707Y-112884442D01*
X155518258Y-113016993D01*
X155622396Y-113172847D01*
X155694131Y-113346030D01*
X155730700Y-113529874D01*
X155730700Y-113717326D01*
X155694131Y-113901170D01*
X155622396Y-114074353D01*
X155518258Y-114230207D01*
X155385707Y-114362758D01*
X155229853Y-114466896D01*
X155229852Y-114466897D01*
X155229851Y-114466897D01*
X155214402Y-114473296D01*
X155056670Y-114538631D01*
X154872826Y-114575200D01*
X154685374Y-114575200D01*
X154501530Y-114538631D01*
X154343798Y-114473296D01*
X154328349Y-114466897D01*
X154328348Y-114466897D01*
X154328347Y-114466896D01*
X154172493Y-114362758D01*
X154039942Y-114230207D01*
X153935804Y-114074353D01*
X153864069Y-113901170D01*
X153827500Y-113717326D01*
X153827500Y-113529874D01*
X153864069Y-113346030D01*
X153935804Y-113172847D01*
X154039942Y-113016993D01*
X154172493Y-112884442D01*
X154328347Y-112780304D01*
X154337041Y-112776703D01*
X154367581Y-112764053D01*
X154501530Y-112708569D01*
X154685374Y-112672000D01*
X154872826Y-112672000D01*
X155056670Y-112708569D01*
X155056670Y-112708569D01*
G37*
G36*
X161257570Y-112704969D02*
G01*
X161430753Y-112776704D01*
X161586607Y-112880842D01*
X161719158Y-113013393D01*
X161823296Y-113169247D01*
X161895031Y-113342430D01*
X161931600Y-113526274D01*
X161931600Y-113713726D01*
X161895031Y-113897570D01*
X161823296Y-114070753D01*
X161719158Y-114226607D01*
X161586607Y-114359158D01*
X161430753Y-114463296D01*
X161430752Y-114463297D01*
X161430751Y-114463297D01*
X161418383Y-114468420D01*
X161257570Y-114535031D01*
X161073726Y-114571600D01*
X160886274Y-114571600D01*
X160702430Y-114535031D01*
X160541617Y-114468420D01*
X160529249Y-114463297D01*
X160529248Y-114463297D01*
X160529247Y-114463296D01*
X160373393Y-114359158D01*
X160240842Y-114226607D01*
X160136704Y-114070753D01*
X160064969Y-113897570D01*
X160028400Y-113713726D01*
X160028400Y-113526274D01*
X160064969Y-113342430D01*
X160136704Y-113169247D01*
X160240842Y-113013393D01*
X160373393Y-112880842D01*
X160529247Y-112776704D01*
X160702430Y-112704969D01*
X160886274Y-112668400D01*
X161073726Y-112668400D01*
X161257570Y-112704969D01*
X161257570Y-112704969D01*
G37*
G36*
X177338095Y-112639513D02*
G01*
X177511166Y-112711201D01*
X177588518Y-112762886D01*
X177666927Y-112815277D01*
X177799390Y-112947740D01*
X177824405Y-112985178D01*
X177903466Y-113103501D01*
X177975154Y-113276572D01*
X178011700Y-113460300D01*
X178011700Y-113647634D01*
X177975154Y-113831362D01*
X177903466Y-114004433D01*
X177884577Y-114032702D01*
X177799390Y-114160194D01*
X177666927Y-114292657D01*
X177588518Y-114345048D01*
X177511166Y-114396733D01*
X177338095Y-114468421D01*
X177154367Y-114504967D01*
X176967033Y-114504967D01*
X176783305Y-114468421D01*
X176610234Y-114396733D01*
X176532882Y-114345048D01*
X176454473Y-114292657D01*
X176322010Y-114160194D01*
X176236823Y-114032702D01*
X176217934Y-114004433D01*
X176146246Y-113831362D01*
X176109700Y-113647634D01*
X176109700Y-113460300D01*
X176146246Y-113276572D01*
X176217934Y-113103501D01*
X176296995Y-112985178D01*
X176322010Y-112947740D01*
X176454473Y-112815277D01*
X176532882Y-112762886D01*
X176610234Y-112711201D01*
X176783305Y-112639513D01*
X176967033Y-112602967D01*
X177154367Y-112602967D01*
X177338095Y-112639513D01*
X177338095Y-112639513D01*
G37*
G36*
X172258095Y-112639513D02*
G01*
X172431166Y-112711201D01*
X172508518Y-112762886D01*
X172586927Y-112815277D01*
X172719390Y-112947740D01*
X172744405Y-112985178D01*
X172823466Y-113103501D01*
X172895154Y-113276572D01*
X172931700Y-113460300D01*
X172931700Y-113647634D01*
X172895154Y-113831362D01*
X172823466Y-114004433D01*
X172804577Y-114032702D01*
X172719390Y-114160194D01*
X172586927Y-114292657D01*
X172508518Y-114345048D01*
X172431166Y-114396733D01*
X172258095Y-114468421D01*
X172074367Y-114504967D01*
X171887033Y-114504967D01*
X171703305Y-114468421D01*
X171530234Y-114396733D01*
X171452882Y-114345048D01*
X171374473Y-114292657D01*
X171242010Y-114160194D01*
X171156823Y-114032702D01*
X171137934Y-114004433D01*
X171066246Y-113831362D01*
X171029700Y-113647634D01*
X171029700Y-113460300D01*
X171066246Y-113276572D01*
X171137934Y-113103501D01*
X171216995Y-112985178D01*
X171242010Y-112947740D01*
X171374473Y-112815277D01*
X171452882Y-112762886D01*
X171530234Y-112711201D01*
X171703305Y-112639513D01*
X171887033Y-112602967D01*
X172074367Y-112602967D01*
X172258095Y-112639513D01*
X172258095Y-112639513D01*
G37*
G36*
X182418095Y-112639513D02*
G01*
X182591166Y-112711201D01*
X182668518Y-112762886D01*
X182746927Y-112815277D01*
X182879390Y-112947740D01*
X182904405Y-112985178D01*
X182983466Y-113103501D01*
X183055154Y-113276572D01*
X183091700Y-113460300D01*
X183091700Y-113647634D01*
X183055154Y-113831362D01*
X182983466Y-114004433D01*
X182964577Y-114032702D01*
X182879390Y-114160194D01*
X182746927Y-114292657D01*
X182668518Y-114345048D01*
X182591166Y-114396733D01*
X182418095Y-114468421D01*
X182234367Y-114504967D01*
X182047033Y-114504967D01*
X181863305Y-114468421D01*
X181690234Y-114396733D01*
X181612882Y-114345048D01*
X181534473Y-114292657D01*
X181402010Y-114160194D01*
X181316823Y-114032702D01*
X181297934Y-114004433D01*
X181226246Y-113831362D01*
X181189700Y-113647634D01*
X181189700Y-113460300D01*
X181226246Y-113276572D01*
X181297934Y-113103501D01*
X181376995Y-112985178D01*
X181402010Y-112947740D01*
X181534473Y-112815277D01*
X181612882Y-112762886D01*
X181690234Y-112711201D01*
X181863305Y-112639513D01*
X182047033Y-112602967D01*
X182234367Y-112602967D01*
X182418095Y-112639513D01*
X182418095Y-112639513D01*
G37*
G36*
X179878095Y-112639513D02*
G01*
X180051166Y-112711201D01*
X180128518Y-112762886D01*
X180206927Y-112815277D01*
X180339390Y-112947740D01*
X180364405Y-112985178D01*
X180443466Y-113103501D01*
X180515154Y-113276572D01*
X180551700Y-113460300D01*
X180551700Y-113647634D01*
X180515154Y-113831362D01*
X180443466Y-114004433D01*
X180424577Y-114032702D01*
X180339390Y-114160194D01*
X180206927Y-114292657D01*
X180128518Y-114345048D01*
X180051166Y-114396733D01*
X179878095Y-114468421D01*
X179694367Y-114504967D01*
X179507033Y-114504967D01*
X179323305Y-114468421D01*
X179150234Y-114396733D01*
X179072882Y-114345048D01*
X178994473Y-114292657D01*
X178862010Y-114160194D01*
X178776823Y-114032702D01*
X178757934Y-114004433D01*
X178686246Y-113831362D01*
X178649700Y-113647634D01*
X178649700Y-113460300D01*
X178686246Y-113276572D01*
X178757934Y-113103501D01*
X178836995Y-112985178D01*
X178862010Y-112947740D01*
X178994473Y-112815277D01*
X179072882Y-112762886D01*
X179150234Y-112711201D01*
X179323305Y-112639513D01*
X179507033Y-112602967D01*
X179694367Y-112602967D01*
X179878095Y-112639513D01*
X179878095Y-112639513D01*
G37*
G36*
X167801700Y-114454967D02*
G01*
X165999700Y-114454967D01*
X165999700Y-112652967D01*
X167801700Y-112652967D01*
X167801700Y-114454967D01*
X167801700Y-114454967D01*
G37*
G36*
X169659759Y-112831827D02*
G01*
X169786788Y-112884444D01*
X169796432Y-112888439D01*
X169919435Y-112970627D01*
X170024040Y-113075232D01*
X170093542Y-113179249D01*
X170106229Y-113198237D01*
X170162840Y-113334908D01*
X170191700Y-113479999D01*
X170191700Y-113627935D01*
X170162840Y-113773026D01*
X170107110Y-113907571D01*
X170106228Y-113909699D01*
X170024040Y-114032702D01*
X169919435Y-114137307D01*
X169796432Y-114219495D01*
X169796431Y-114219496D01*
X169796430Y-114219496D01*
X169659759Y-114276107D01*
X169514668Y-114304967D01*
X169366732Y-114304967D01*
X169221641Y-114276107D01*
X169084970Y-114219496D01*
X169084969Y-114219496D01*
X169084968Y-114219495D01*
X168961965Y-114137307D01*
X168857360Y-114032702D01*
X168775172Y-113909699D01*
X168774291Y-113907571D01*
X168718560Y-113773026D01*
X168689700Y-113627935D01*
X168689700Y-113479999D01*
X168718560Y-113334908D01*
X168775171Y-113198237D01*
X168787858Y-113179249D01*
X168857360Y-113075232D01*
X168961965Y-112970627D01*
X169084968Y-112888439D01*
X169094613Y-112884444D01*
X169221641Y-112831827D01*
X169366732Y-112802967D01*
X169514668Y-112802967D01*
X169659759Y-112831827D01*
X169659759Y-112831827D01*
G37*
G36*
X174739759Y-112831827D02*
G01*
X174866788Y-112884444D01*
X174876432Y-112888439D01*
X174999435Y-112970627D01*
X175104040Y-113075232D01*
X175173542Y-113179249D01*
X175186229Y-113198237D01*
X175242840Y-113334908D01*
X175271700Y-113479999D01*
X175271700Y-113627935D01*
X175242840Y-113773026D01*
X175187110Y-113907571D01*
X175186228Y-113909699D01*
X175104040Y-114032702D01*
X174999435Y-114137307D01*
X174876432Y-114219495D01*
X174876431Y-114219496D01*
X174876430Y-114219496D01*
X174739759Y-114276107D01*
X174594668Y-114304967D01*
X174446732Y-114304967D01*
X174301641Y-114276107D01*
X174164970Y-114219496D01*
X174164969Y-114219496D01*
X174164968Y-114219495D01*
X174041965Y-114137307D01*
X173937360Y-114032702D01*
X173855172Y-113909699D01*
X173854291Y-113907571D01*
X173798560Y-113773026D01*
X173769700Y-113627935D01*
X173769700Y-113479999D01*
X173798560Y-113334908D01*
X173855171Y-113198237D01*
X173867858Y-113179249D01*
X173937360Y-113075232D01*
X174041965Y-112970627D01*
X174164968Y-112888439D01*
X174174613Y-112884444D01*
X174301641Y-112831827D01*
X174446732Y-112802967D01*
X174594668Y-112802967D01*
X174739759Y-112831827D01*
X174739759Y-112831827D01*
G37*
G36*
X116524356Y-110894898D02*
G01*
X116630679Y-110916047D01*
X116931142Y-111040503D01*
X117201551Y-111221185D01*
X117431515Y-111451149D01*
X117612197Y-111721558D01*
X117697883Y-111928421D01*
X117736653Y-112022022D01*
X117800100Y-112340989D01*
X117800100Y-112666211D01*
X117777405Y-112780304D01*
X117736653Y-112985179D01*
X117612197Y-113285642D01*
X117431515Y-113556051D01*
X117201551Y-113786015D01*
X116931142Y-113966697D01*
X116630679Y-114091153D01*
X116524356Y-114112302D01*
X116311711Y-114154600D01*
X115986489Y-114154600D01*
X115773844Y-114112302D01*
X115667521Y-114091153D01*
X115367058Y-113966697D01*
X115096649Y-113786015D01*
X114866685Y-113556051D01*
X114686003Y-113285642D01*
X114561547Y-112985179D01*
X114520795Y-112780304D01*
X114498100Y-112666211D01*
X114498100Y-112340989D01*
X114561547Y-112022022D01*
X114600318Y-111928421D01*
X114686003Y-111721558D01*
X114866685Y-111451149D01*
X115096649Y-111221185D01*
X115367058Y-111040503D01*
X115667521Y-110916047D01*
X115773844Y-110894898D01*
X115986489Y-110852600D01*
X116311711Y-110852600D01*
X116524356Y-110894898D01*
X116524356Y-110894898D01*
G37*
G36*
X182418095Y-110099513D02*
G01*
X182591166Y-110171201D01*
X182591167Y-110171202D01*
X182746927Y-110275277D01*
X182879390Y-110407740D01*
X182879391Y-110407742D01*
X182983466Y-110563501D01*
X183055154Y-110736572D01*
X183091700Y-110920300D01*
X183091700Y-111107634D01*
X183055154Y-111291362D01*
X182983466Y-111464433D01*
X182983465Y-111464434D01*
X182879390Y-111620194D01*
X182746927Y-111752657D01*
X182668518Y-111805048D01*
X182591166Y-111856733D01*
X182418095Y-111928421D01*
X182234367Y-111964967D01*
X182047033Y-111964967D01*
X181863305Y-111928421D01*
X181690234Y-111856733D01*
X181612882Y-111805048D01*
X181534473Y-111752657D01*
X181402010Y-111620194D01*
X181297935Y-111464434D01*
X181297934Y-111464433D01*
X181226246Y-111291362D01*
X181189700Y-111107634D01*
X181189700Y-110920300D01*
X181226246Y-110736572D01*
X181297934Y-110563501D01*
X181402009Y-110407742D01*
X181402010Y-110407740D01*
X181534473Y-110275277D01*
X181690233Y-110171202D01*
X181690234Y-110171201D01*
X181863305Y-110099513D01*
X182047033Y-110062967D01*
X182234367Y-110062967D01*
X182418095Y-110099513D01*
X182418095Y-110099513D01*
G37*
G36*
X176056670Y-108188569D02*
G01*
X176229853Y-108260304D01*
X176385707Y-108364442D01*
X176518258Y-108496993D01*
X176622396Y-108652847D01*
X176694131Y-108826030D01*
X176730700Y-109009874D01*
X176730700Y-109197326D01*
X176694131Y-109381170D01*
X176622396Y-109554353D01*
X176518258Y-109710207D01*
X176385707Y-109842758D01*
X176229853Y-109946896D01*
X176056670Y-110018631D01*
X175872826Y-110055200D01*
X175685374Y-110055200D01*
X175501530Y-110018631D01*
X175328347Y-109946896D01*
X175172493Y-109842758D01*
X175039942Y-109710207D01*
X174935804Y-109554353D01*
X174864069Y-109381170D01*
X174827500Y-109197326D01*
X174827500Y-109009874D01*
X174864069Y-108826030D01*
X174935804Y-108652847D01*
X175039942Y-108496993D01*
X175172493Y-108364442D01*
X175328347Y-108260304D01*
X175501530Y-108188569D01*
X175685374Y-108152000D01*
X175872826Y-108152000D01*
X176056670Y-108188569D01*
X176056670Y-108188569D01*
G37*
G36*
X182418095Y-107559513D02*
G01*
X182591166Y-107631201D01*
X182591167Y-107631202D01*
X182746927Y-107735277D01*
X182879390Y-107867740D01*
X182879391Y-107867742D01*
X182983466Y-108023501D01*
X183055154Y-108196572D01*
X183091700Y-108380300D01*
X183091700Y-108567634D01*
X183055154Y-108751362D01*
X182983466Y-108924433D01*
X182983465Y-108924434D01*
X182879390Y-109080194D01*
X182746927Y-109212657D01*
X182668518Y-109265048D01*
X182591166Y-109316733D01*
X182418095Y-109388421D01*
X182234367Y-109424967D01*
X182047033Y-109424967D01*
X181863305Y-109388421D01*
X181690234Y-109316733D01*
X181612882Y-109265048D01*
X181534473Y-109212657D01*
X181402010Y-109080194D01*
X181297935Y-108924434D01*
X181297934Y-108924433D01*
X181226246Y-108751362D01*
X181189700Y-108567634D01*
X181189700Y-108380300D01*
X181226246Y-108196572D01*
X181297934Y-108023501D01*
X181402009Y-107867742D01*
X181402010Y-107867740D01*
X181534473Y-107735277D01*
X181690233Y-107631202D01*
X181690234Y-107631201D01*
X181863305Y-107559513D01*
X182047033Y-107522967D01*
X182234367Y-107522967D01*
X182418095Y-107559513D01*
X182418095Y-107559513D01*
G37*
G36*
X156039500Y-109354567D02*
G01*
X154937500Y-109354567D01*
X154937500Y-106452567D01*
X156039500Y-106452567D01*
X156039500Y-109354567D01*
X156039500Y-109354567D01*
G37*
G36*
X162594000Y-109354567D02*
G01*
X161492000Y-109354567D01*
X161492000Y-106452567D01*
X162594000Y-106452567D01*
X162594000Y-109354567D01*
X162594000Y-109354567D01*
G37*
G36*
X166594000Y-109354567D02*
G01*
X165492000Y-109354567D01*
X165492000Y-106452567D01*
X166594000Y-106452567D01*
X166594000Y-109354567D01*
X166594000Y-109354567D01*
G37*
G36*
X160039500Y-109354567D02*
G01*
X158937500Y-109354567D01*
X158937500Y-106452567D01*
X160039500Y-106452567D01*
X160039500Y-109354567D01*
X160039500Y-109354567D01*
G37*
G36*
X116048000Y-109354567D02*
G01*
X114946000Y-109354567D01*
X114946000Y-106452567D01*
X116048000Y-106452567D01*
X116048000Y-109354567D01*
X116048000Y-109354567D01*
G37*
G36*
X120048000Y-109354567D02*
G01*
X118946000Y-109354567D01*
X118946000Y-106452567D01*
X120048000Y-106452567D01*
X120048000Y-109354567D01*
X120048000Y-109354567D01*
G37*
G36*
X170175100Y-109349600D02*
G01*
X168873100Y-109349600D01*
X168873100Y-107747600D01*
X170175100Y-107747600D01*
X170175100Y-109349600D01*
X170175100Y-109349600D01*
G37*
G36*
X172175100Y-109349600D02*
G01*
X170873100Y-109349600D01*
X170873100Y-107747600D01*
X172175100Y-107747600D01*
X172175100Y-109349600D01*
X172175100Y-109349600D01*
G37*
G36*
X122611786Y-106834967D02*
G01*
X122741325Y-106860734D01*
X122824365Y-106895130D01*
X122941802Y-106943774D01*
X123122228Y-107064331D01*
X123275669Y-107217772D01*
X123396226Y-107398198D01*
X123444870Y-107515635D01*
X123479266Y-107598675D01*
X123521600Y-107811502D01*
X123521600Y-108028498D01*
X123479266Y-108241325D01*
X123444870Y-108324365D01*
X123396226Y-108441802D01*
X123275669Y-108622228D01*
X123122228Y-108775669D01*
X122941802Y-108896226D01*
X122873701Y-108924434D01*
X122741325Y-108979266D01*
X122528499Y-109021600D01*
X122311501Y-109021600D01*
X122098675Y-108979266D01*
X121966299Y-108924434D01*
X121898198Y-108896226D01*
X121717772Y-108775669D01*
X121564331Y-108622228D01*
X121443774Y-108441802D01*
X121395130Y-108324365D01*
X121360734Y-108241325D01*
X121318400Y-108028498D01*
X121318400Y-107811502D01*
X121360734Y-107598675D01*
X121395130Y-107515635D01*
X121443774Y-107398198D01*
X121564331Y-107217772D01*
X121717772Y-107064331D01*
X121898198Y-106943774D01*
X122015635Y-106895130D01*
X122098675Y-106860734D01*
X122228214Y-106834967D01*
X122311501Y-106818400D01*
X122528499Y-106818400D01*
X122611786Y-106834967D01*
X122611786Y-106834967D01*
G37*
G36*
X175998334Y-106280883D02*
G01*
X176135116Y-106337540D01*
X176258217Y-106419794D01*
X176362906Y-106524483D01*
X176445160Y-106647584D01*
X176501817Y-106784366D01*
X176530700Y-106929574D01*
X176530700Y-107077626D01*
X176501817Y-107222834D01*
X176445160Y-107359616D01*
X176362906Y-107482717D01*
X176258217Y-107587406D01*
X176135116Y-107669660D01*
X175998334Y-107726317D01*
X175853126Y-107755200D01*
X175705074Y-107755200D01*
X175559866Y-107726317D01*
X175423084Y-107669660D01*
X175299983Y-107587406D01*
X175195294Y-107482717D01*
X175113040Y-107359616D01*
X175056383Y-107222834D01*
X175027500Y-107077626D01*
X175027500Y-106929574D01*
X175056383Y-106784366D01*
X175113040Y-106647584D01*
X175195294Y-106524483D01*
X175299983Y-106419794D01*
X175423084Y-106337540D01*
X175559866Y-106280883D01*
X175705074Y-106252000D01*
X175853126Y-106252000D01*
X175998334Y-106280883D01*
X175998334Y-106280883D01*
G37*
G36*
X183041700Y-106834967D02*
G01*
X181239700Y-106834967D01*
X181239700Y-105032967D01*
X183041700Y-105032967D01*
X183041700Y-106834967D01*
X183041700Y-106834967D01*
G37*
G36*
X127641648Y-103359613D02*
G01*
X127781579Y-103387447D01*
X127994037Y-103475450D01*
X128011579Y-103482716D01*
X128082042Y-103511903D01*
X128352451Y-103692585D01*
X128582415Y-103922549D01*
X128706751Y-104108631D01*
X128763098Y-104192960D01*
X128787553Y-104252000D01*
X128887553Y-104493421D01*
X128893732Y-104524484D01*
X128951000Y-104812389D01*
X128951000Y-105137611D01*
X128913082Y-105328238D01*
X128887553Y-105456579D01*
X128763097Y-105757042D01*
X128582415Y-106027451D01*
X128352451Y-106257415D01*
X128082042Y-106438097D01*
X128082041Y-106438098D01*
X128082040Y-106438098D01*
X127994037Y-106474550D01*
X127781579Y-106562553D01*
X127675256Y-106583702D01*
X127462611Y-106626000D01*
X127137389Y-106626000D01*
X126924744Y-106583702D01*
X126818421Y-106562553D01*
X126605963Y-106474550D01*
X126517960Y-106438098D01*
X126517959Y-106438098D01*
X126517958Y-106438097D01*
X126247549Y-106257415D01*
X126017585Y-106027451D01*
X125836903Y-105757042D01*
X125712447Y-105456579D01*
X125686918Y-105328238D01*
X125649000Y-105137611D01*
X125649000Y-104812389D01*
X125706268Y-104524484D01*
X125712447Y-104493421D01*
X125812447Y-104252000D01*
X125836902Y-104192960D01*
X125893249Y-104108631D01*
X126017585Y-103922549D01*
X126247549Y-103692585D01*
X126517958Y-103511903D01*
X126588422Y-103482716D01*
X126605963Y-103475450D01*
X126818421Y-103387447D01*
X126958352Y-103359613D01*
X127137389Y-103324000D01*
X127462611Y-103324000D01*
X127641648Y-103359613D01*
X127641648Y-103359613D01*
G37*
G36*
X175998334Y-104280883D02*
G01*
X176135116Y-104337540D01*
X176258217Y-104419794D01*
X176362906Y-104524483D01*
X176445160Y-104647584D01*
X176501817Y-104784366D01*
X176530700Y-104929574D01*
X176530700Y-105077626D01*
X176501817Y-105222834D01*
X176445160Y-105359616D01*
X176362906Y-105482717D01*
X176258217Y-105587406D01*
X176135116Y-105669660D01*
X175998334Y-105726317D01*
X175853126Y-105755200D01*
X175705074Y-105755200D01*
X175559866Y-105726317D01*
X175423084Y-105669660D01*
X175299983Y-105587406D01*
X175195294Y-105482717D01*
X175113040Y-105359616D01*
X175056383Y-105222834D01*
X175027500Y-105077626D01*
X175027500Y-104929574D01*
X175056383Y-104784366D01*
X175113040Y-104647584D01*
X175195294Y-104524483D01*
X175299983Y-104419794D01*
X175423084Y-104337540D01*
X175559866Y-104280883D01*
X175705074Y-104252000D01*
X175853126Y-104252000D01*
X175998334Y-104280883D01*
X175998334Y-104280883D01*
G37*
G36*
X169533749Y-103978961D02*
G01*
X169661431Y-104031849D01*
X169661432Y-104031850D01*
X169776344Y-104108631D01*
X169874069Y-104206356D01*
X169874070Y-104206358D01*
X169950851Y-104321269D01*
X170003739Y-104448951D01*
X170030700Y-104584497D01*
X170030700Y-104722703D01*
X170003739Y-104858249D01*
X169950851Y-104985931D01*
X169950850Y-104985932D01*
X169874069Y-105100844D01*
X169776344Y-105198569D01*
X169740027Y-105222835D01*
X169661431Y-105275351D01*
X169533749Y-105328239D01*
X169398203Y-105355200D01*
X169259997Y-105355200D01*
X169124451Y-105328239D01*
X168996769Y-105275351D01*
X168918173Y-105222835D01*
X168881856Y-105198569D01*
X168784131Y-105100844D01*
X168707350Y-104985932D01*
X168707349Y-104985931D01*
X168654461Y-104858249D01*
X168627500Y-104722703D01*
X168627500Y-104584497D01*
X168654461Y-104448951D01*
X168707349Y-104321269D01*
X168784130Y-104206358D01*
X168784131Y-104206356D01*
X168881856Y-104108631D01*
X168996768Y-104031850D01*
X168996769Y-104031849D01*
X169124451Y-103978961D01*
X169259997Y-103952000D01*
X169398203Y-103952000D01*
X169533749Y-103978961D01*
X169533749Y-103978961D01*
G37*
G36*
X172073749Y-103978961D02*
G01*
X172201431Y-104031849D01*
X172201432Y-104031850D01*
X172316344Y-104108631D01*
X172414069Y-104206356D01*
X172414070Y-104206358D01*
X172490851Y-104321269D01*
X172543739Y-104448951D01*
X172570700Y-104584497D01*
X172570700Y-104722703D01*
X172543739Y-104858249D01*
X172490851Y-104985931D01*
X172490850Y-104985932D01*
X172414069Y-105100844D01*
X172316344Y-105198569D01*
X172280027Y-105222835D01*
X172201431Y-105275351D01*
X172073749Y-105328239D01*
X171938203Y-105355200D01*
X171799997Y-105355200D01*
X171664451Y-105328239D01*
X171536769Y-105275351D01*
X171458173Y-105222835D01*
X171421856Y-105198569D01*
X171324131Y-105100844D01*
X171247350Y-104985932D01*
X171247349Y-104985931D01*
X171194461Y-104858249D01*
X171167500Y-104722703D01*
X171167500Y-104584497D01*
X171194461Y-104448951D01*
X171247349Y-104321269D01*
X171324130Y-104206358D01*
X171324131Y-104206356D01*
X171421856Y-104108631D01*
X171536768Y-104031850D01*
X171536769Y-104031849D01*
X171664451Y-103978961D01*
X171799997Y-103952000D01*
X171938203Y-103952000D01*
X172073749Y-103978961D01*
X172073749Y-103978961D01*
G37*
G36*
X175998334Y-102280883D02*
G01*
X176135116Y-102337540D01*
X176258217Y-102419794D01*
X176362906Y-102524483D01*
X176445160Y-102647584D01*
X176501817Y-102784366D01*
X176530700Y-102929574D01*
X176530700Y-103077626D01*
X176501817Y-103222834D01*
X176445160Y-103359616D01*
X176362906Y-103482717D01*
X176258217Y-103587406D01*
X176135116Y-103669660D01*
X175998334Y-103726317D01*
X175853126Y-103755200D01*
X175705074Y-103755200D01*
X175559866Y-103726317D01*
X175423084Y-103669660D01*
X175299983Y-103587406D01*
X175195294Y-103482717D01*
X175113040Y-103359616D01*
X175056383Y-103222834D01*
X175027500Y-103077626D01*
X175027500Y-102929574D01*
X175056383Y-102784366D01*
X175113040Y-102647584D01*
X175195294Y-102524483D01*
X175299983Y-102419794D01*
X175423084Y-102337540D01*
X175559866Y-102280883D01*
X175705074Y-102252000D01*
X175853126Y-102252000D01*
X175998334Y-102280883D01*
X175998334Y-102280883D01*
G37*
G36*
X116048000Y-103554567D02*
G01*
X114946000Y-103554567D01*
X114946000Y-100652567D01*
X116048000Y-100652567D01*
X116048000Y-103554567D01*
X116048000Y-103554567D01*
G37*
G36*
X166594000Y-103554567D02*
G01*
X165492000Y-103554567D01*
X165492000Y-100652567D01*
X166594000Y-100652567D01*
X166594000Y-103554567D01*
X166594000Y-103554567D01*
G37*
G36*
X162594000Y-103554567D02*
G01*
X161492000Y-103554567D01*
X161492000Y-100652567D01*
X162594000Y-100652567D01*
X162594000Y-103554567D01*
X162594000Y-103554567D01*
G37*
G36*
X160039500Y-103554567D02*
G01*
X158937500Y-103554567D01*
X158937500Y-100652567D01*
X160039500Y-100652567D01*
X160039500Y-103554567D01*
X160039500Y-103554567D01*
G37*
G36*
X156039500Y-103554567D02*
G01*
X154937500Y-103554567D01*
X154937500Y-100652567D01*
X156039500Y-100652567D01*
X156039500Y-103554567D01*
X156039500Y-103554567D01*
G37*
G36*
X120048000Y-103554567D02*
G01*
X118946000Y-103554567D01*
X118946000Y-100652567D01*
X120048000Y-100652567D01*
X120048000Y-103554567D01*
X120048000Y-103554567D01*
G37*
G36*
X122684911Y-100979567D02*
G01*
X122791325Y-101000734D01*
X122874365Y-101035130D01*
X122991802Y-101083774D01*
X123172228Y-101204331D01*
X123325669Y-101357772D01*
X123446226Y-101538198D01*
X123468824Y-101592756D01*
X123529266Y-101738675D01*
X123571600Y-101951502D01*
X123571600Y-102168498D01*
X123529266Y-102381325D01*
X123494870Y-102464365D01*
X123446226Y-102581802D01*
X123325669Y-102762228D01*
X123172228Y-102915669D01*
X122991802Y-103036226D01*
X122874365Y-103084870D01*
X122791325Y-103119266D01*
X122684911Y-103140433D01*
X122578499Y-103161600D01*
X122361501Y-103161600D01*
X122255089Y-103140433D01*
X122148675Y-103119266D01*
X122065635Y-103084870D01*
X121948198Y-103036226D01*
X121767772Y-102915669D01*
X121614331Y-102762228D01*
X121493774Y-102581802D01*
X121445130Y-102464365D01*
X121410734Y-102381325D01*
X121368400Y-102168498D01*
X121368400Y-101951502D01*
X121410734Y-101738675D01*
X121471176Y-101592756D01*
X121493774Y-101538198D01*
X121614331Y-101357772D01*
X121767772Y-101204331D01*
X121948198Y-101083774D01*
X122065635Y-101035130D01*
X122148675Y-101000734D01*
X122255089Y-100979567D01*
X122361501Y-100958400D01*
X122578499Y-100958400D01*
X122684911Y-100979567D01*
X122684911Y-100979567D01*
G37*
G36*
X176056670Y-99988569D02*
G01*
X176229853Y-100060304D01*
X176385707Y-100164442D01*
X176518258Y-100296993D01*
X176622396Y-100452847D01*
X176694131Y-100626030D01*
X176730700Y-100809874D01*
X176730700Y-100997326D01*
X176694131Y-101181170D01*
X176622396Y-101354353D01*
X176518258Y-101510207D01*
X176385707Y-101642758D01*
X176229853Y-101746896D01*
X176056670Y-101818631D01*
X175872826Y-101855200D01*
X175685374Y-101855200D01*
X175501530Y-101818631D01*
X175328347Y-101746896D01*
X175172493Y-101642758D01*
X175039942Y-101510207D01*
X174935804Y-101354353D01*
X174864069Y-101181170D01*
X174827500Y-100997326D01*
X174827500Y-100809874D01*
X174864069Y-100626030D01*
X174935804Y-100452847D01*
X175039942Y-100296993D01*
X175172493Y-100164442D01*
X175328347Y-100060304D01*
X175501530Y-99988569D01*
X175685374Y-99952000D01*
X175872826Y-99952000D01*
X176056670Y-99988569D01*
X176056670Y-99988569D01*
G37*
G36*
X182418670Y-99938569D02*
G01*
X182591853Y-100010304D01*
X182747707Y-100114442D01*
X182880258Y-100246993D01*
X182984396Y-100402847D01*
X183056131Y-100576030D01*
X183092700Y-100759874D01*
X183092700Y-100947326D01*
X183056131Y-101131170D01*
X182984396Y-101304353D01*
X182880258Y-101460207D01*
X182747707Y-101592758D01*
X182591853Y-101696896D01*
X182418670Y-101768631D01*
X182234826Y-101805200D01*
X182047374Y-101805200D01*
X181863530Y-101768631D01*
X181690347Y-101696896D01*
X181534493Y-101592758D01*
X181401942Y-101460207D01*
X181297804Y-101304353D01*
X181226069Y-101131170D01*
X181189500Y-100947326D01*
X181189500Y-100759874D01*
X181226069Y-100576030D01*
X181297804Y-100402847D01*
X181401942Y-100246993D01*
X181534493Y-100114442D01*
X181690347Y-100010304D01*
X181863530Y-99938569D01*
X182047374Y-99902000D01*
X182234826Y-99902000D01*
X182418670Y-99938569D01*
X182418670Y-99938569D01*
G37*
G36*
X170664356Y-95894898D02*
G01*
X170770679Y-95916047D01*
X171071142Y-96040503D01*
X171341551Y-96221185D01*
X171571515Y-96451149D01*
X171752197Y-96721558D01*
X171876653Y-97022021D01*
X171940100Y-97340991D01*
X171940100Y-97666209D01*
X171876653Y-97985179D01*
X171752197Y-98285642D01*
X171571515Y-98556051D01*
X171341551Y-98786015D01*
X171071142Y-98966697D01*
X170770679Y-99091153D01*
X170664356Y-99112302D01*
X170451711Y-99154600D01*
X170126489Y-99154600D01*
X169913844Y-99112302D01*
X169807521Y-99091153D01*
X169507058Y-98966697D01*
X169236649Y-98786015D01*
X169006685Y-98556051D01*
X168826003Y-98285642D01*
X168701547Y-97985179D01*
X168638100Y-97666209D01*
X168638100Y-97340991D01*
X168701547Y-97022021D01*
X168826003Y-96721558D01*
X169006685Y-96451149D01*
X169236649Y-96221185D01*
X169507058Y-96040503D01*
X169807521Y-95916047D01*
X169913844Y-95894898D01*
X170126489Y-95852600D01*
X170451711Y-95852600D01*
X170664356Y-95894898D01*
X170664356Y-95894898D01*
G37*
G36*
X116524356Y-95894898D02*
G01*
X116630679Y-95916047D01*
X116931142Y-96040503D01*
X117201551Y-96221185D01*
X117431515Y-96451149D01*
X117612197Y-96721558D01*
X117736653Y-97022021D01*
X117800100Y-97340991D01*
X117800100Y-97666209D01*
X117736653Y-97985179D01*
X117612197Y-98285642D01*
X117431515Y-98556051D01*
X117201551Y-98786015D01*
X116931142Y-98966697D01*
X116630679Y-99091153D01*
X116524356Y-99112302D01*
X116311711Y-99154600D01*
X115986489Y-99154600D01*
X115773844Y-99112302D01*
X115667521Y-99091153D01*
X115367058Y-98966697D01*
X115096649Y-98786015D01*
X114866685Y-98556051D01*
X114686003Y-98285642D01*
X114561547Y-97985179D01*
X114498100Y-97666209D01*
X114498100Y-97340991D01*
X114561547Y-97022021D01*
X114686003Y-96721558D01*
X114866685Y-96451149D01*
X115096649Y-96221185D01*
X115367058Y-96040503D01*
X115667521Y-95916047D01*
X115773844Y-95894898D01*
X115986489Y-95852600D01*
X116311711Y-95852600D01*
X116524356Y-95894898D01*
X116524356Y-95894898D01*
G37*
M02*
