G04 #@! TF.GenerationSoftware,KiCad,Pcbnew,(5.1.0-rc1-70-gd15876595)*
G04 #@! TF.CreationDate,2019-03-06T11:27:39+01:00
G04 #@! TF.ProjectId,spwm3.3,7370776d-332e-4332-9e6b-696361645f70,rev?*
G04 #@! TF.SameCoordinates,Original*
G04 #@! TF.FileFunction,Legend,Top*
G04 #@! TF.FilePolarity,Positive*
%FSLAX46Y46*%
G04 Gerber Fmt 4.6, Leading zero omitted, Abs format (unit mm)*
G04 Created by KiCad (PCBNEW (5.1.0-rc1-70-gd15876595)) date 2019-03-06 11:27:39*
%MOMM*%
%LPD*%
G04 APERTURE LIST*
%ADD10C,0.150000*%
%ADD11C,0.081400*%
%ADD12C,0.200000*%
%ADD13C,0.250000*%
G04 APERTURE END LIST*
D10*
X183501100Y-113603599D02*
G75*
G02X182101100Y-115003600I-1399828J-173D01*
G01*
X183501100Y-113603600D02*
X183501100Y-111153600D01*
X183501100Y-111153600D02*
X183501100Y-96403600D01*
X182101100Y-95003599D02*
G75*
G02X183501100Y-96403600I172J-1399828D01*
G01*
X182101100Y-95003600D02*
X116676100Y-95003600D01*
X113501100Y-98178599D02*
G75*
G02X116676100Y-95003600I3175218J-219D01*
G01*
X113501100Y-98178600D02*
X113501100Y-111828600D01*
X116676100Y-115003599D02*
G75*
G02X113501100Y-111828600I218J3175218D01*
G01*
X116676100Y-115003600D02*
X182101100Y-115003600D01*
X182101100Y-115003600D02*
X182101100Y-115003600D01*
X151978100Y-112081600D02*
X151978100Y-97821600D01*
X151978100Y-97821600D02*
X129178100Y-97821600D01*
X129178100Y-97821600D02*
X129178100Y-112081600D01*
X129178100Y-112081600D02*
X151978100Y-112081600D01*
D11*
X156899914Y-109563647D02*
X157000343Y-109597123D01*
X157167724Y-109597123D01*
X157234676Y-109563647D01*
X157268152Y-109530171D01*
X157301629Y-109463219D01*
X157301629Y-109396266D01*
X157268152Y-109329314D01*
X157234676Y-109295838D01*
X157167724Y-109262361D01*
X157033819Y-109228885D01*
X156966867Y-109195409D01*
X156933390Y-109161933D01*
X156899914Y-109094980D01*
X156899914Y-109028028D01*
X156933390Y-108961076D01*
X156966867Y-108927600D01*
X157033819Y-108894123D01*
X157201200Y-108894123D01*
X157301629Y-108927600D01*
X157569438Y-108961076D02*
X157602914Y-108927600D01*
X157669867Y-108894123D01*
X157837248Y-108894123D01*
X157904200Y-108927600D01*
X157937676Y-108961076D01*
X157971152Y-109028028D01*
X157971152Y-109094980D01*
X157937676Y-109195409D01*
X157535962Y-109597123D01*
X157971152Y-109597123D01*
X163449914Y-109563647D02*
X163550343Y-109597123D01*
X163717724Y-109597123D01*
X163784676Y-109563647D01*
X163818152Y-109530171D01*
X163851629Y-109463219D01*
X163851629Y-109396266D01*
X163818152Y-109329314D01*
X163784676Y-109295838D01*
X163717724Y-109262361D01*
X163583819Y-109228885D01*
X163516867Y-109195409D01*
X163483390Y-109161933D01*
X163449914Y-109094980D01*
X163449914Y-109028028D01*
X163483390Y-108961076D01*
X163516867Y-108927600D01*
X163583819Y-108894123D01*
X163751200Y-108894123D01*
X163851629Y-108927600D01*
X164085962Y-108894123D02*
X164521152Y-108894123D01*
X164286819Y-109161933D01*
X164387248Y-109161933D01*
X164454200Y-109195409D01*
X164487676Y-109228885D01*
X164521152Y-109295838D01*
X164521152Y-109463219D01*
X164487676Y-109530171D01*
X164454200Y-109563647D01*
X164387248Y-109597123D01*
X164186390Y-109597123D01*
X164119438Y-109563647D01*
X164085962Y-109530171D01*
X175149914Y-111013647D02*
X175250343Y-111047123D01*
X175417724Y-111047123D01*
X175484676Y-111013647D01*
X175518152Y-110980171D01*
X175551629Y-110913219D01*
X175551629Y-110846266D01*
X175518152Y-110779314D01*
X175484676Y-110745838D01*
X175417724Y-110712361D01*
X175283819Y-110678885D01*
X175216867Y-110645409D01*
X175183390Y-110611933D01*
X175149914Y-110544980D01*
X175149914Y-110478028D01*
X175183390Y-110411076D01*
X175216867Y-110377600D01*
X175283819Y-110344123D01*
X175451200Y-110344123D01*
X175551629Y-110377600D01*
X176154200Y-110578457D02*
X176154200Y-111047123D01*
X175986819Y-110310647D02*
X175819438Y-110812790D01*
X176254629Y-110812790D01*
X170535105Y-110297123D02*
X170300771Y-109962361D01*
X170133390Y-110297123D02*
X170133390Y-109594123D01*
X170401200Y-109594123D01*
X170468152Y-109627600D01*
X170501629Y-109661076D01*
X170535105Y-109728028D01*
X170535105Y-109828457D01*
X170501629Y-109895409D01*
X170468152Y-109928885D01*
X170401200Y-109962361D01*
X170133390Y-109962361D01*
X171204629Y-110297123D02*
X170802914Y-110297123D01*
X171003771Y-110297123D02*
X171003771Y-109594123D01*
X170936819Y-109694552D01*
X170869867Y-109761504D01*
X170802914Y-109794980D01*
X157333390Y-99894123D02*
X157333390Y-100463219D01*
X157366867Y-100530171D01*
X157400343Y-100563647D01*
X157467295Y-100597123D01*
X157601200Y-100597123D01*
X157668152Y-100563647D01*
X157701629Y-100530171D01*
X157735105Y-100463219D01*
X157735105Y-99894123D01*
X163883390Y-100597123D02*
X163883390Y-99894123D01*
X164050771Y-99894123D01*
X164151200Y-99927600D01*
X164218152Y-99994552D01*
X164251629Y-100061504D01*
X164285105Y-100195409D01*
X164285105Y-100295838D01*
X164251629Y-100429742D01*
X164218152Y-100496695D01*
X164151200Y-100563647D01*
X164050771Y-100597123D01*
X163883390Y-100597123D01*
X170233390Y-101947123D02*
X170233390Y-101244123D01*
X170400771Y-101244123D01*
X170501200Y-101277600D01*
X170568152Y-101344552D01*
X170601629Y-101411504D01*
X170635105Y-101545409D01*
X170635105Y-101645838D01*
X170601629Y-101779742D01*
X170568152Y-101846695D01*
X170501200Y-101913647D01*
X170400771Y-101947123D01*
X170233390Y-101947123D01*
X171304629Y-101947123D02*
X170902914Y-101947123D01*
X171103771Y-101947123D02*
X171103771Y-101244123D01*
X171036819Y-101344552D01*
X170969867Y-101411504D01*
X170902914Y-101444980D01*
X175317295Y-98444123D02*
X175451200Y-98444123D01*
X175518152Y-98477600D01*
X175585105Y-98544552D01*
X175618581Y-98678457D01*
X175618581Y-98912790D01*
X175585105Y-99046695D01*
X175518152Y-99113647D01*
X175451200Y-99147123D01*
X175317295Y-99147123D01*
X175250343Y-99113647D01*
X175183390Y-99046695D01*
X175149914Y-98912790D01*
X175149914Y-98678457D01*
X175183390Y-98544552D01*
X175250343Y-98477600D01*
X175317295Y-98444123D01*
X175919867Y-99147123D02*
X175919867Y-98444123D01*
X176321581Y-99147123D01*
X176321581Y-98444123D01*
D12*
G04 #@! TO.C,D1*
X172899100Y-104053600D02*
X172899100Y-105253600D01*
X173399100Y-105903600D02*
X172199100Y-105903600D01*
X172199100Y-105903600D02*
G75*
G02X168999100Y-105903600I-1600000J1331591D01*
G01*
X168999100Y-103403600D02*
G75*
G02X172199100Y-103403600I1600000J-1331591D01*
G01*
X173399100Y-103403600D02*
X173399100Y-105903600D01*
X173399100Y-103403600D02*
X172199100Y-103403600D01*
D13*
G04 #@! TO.C,S2*
X157488500Y-104003567D02*
X157488500Y-106003567D01*
X158488500Y-105003567D02*
X156488500Y-105003567D01*
X154488500Y-108003567D02*
X154688500Y-108003567D01*
X154488500Y-102003567D02*
X154688500Y-102003567D01*
X160488500Y-108003567D02*
X160288500Y-108003567D01*
X158688500Y-108003567D02*
X156288500Y-108003567D01*
X158688500Y-102003567D02*
X156288500Y-102003567D01*
X154488500Y-102003567D02*
X154488500Y-108003567D01*
X160488500Y-102003567D02*
X160488500Y-108003567D01*
X160488500Y-102003567D02*
X160288500Y-102003567D01*
G04 #@! TO.C,S3*
X164043000Y-106003567D02*
X164043000Y-104003567D01*
X163043000Y-105003567D02*
X165043000Y-105003567D01*
X167043000Y-102003567D02*
X166843000Y-102003567D01*
X167043000Y-108003567D02*
X166843000Y-108003567D01*
X161043000Y-102003567D02*
X161243000Y-102003567D01*
X162843000Y-102003567D02*
X165243000Y-102003567D01*
X162843000Y-108003567D02*
X165243000Y-108003567D01*
X167043000Y-108003567D02*
X167043000Y-102003567D01*
X161043000Y-108003567D02*
X161043000Y-102003567D01*
X161043000Y-108003567D02*
X161243000Y-108003567D01*
D12*
G04 #@! TO.C,S4*
X174279100Y-109304600D02*
X173629100Y-109304600D01*
X174279100Y-100702600D02*
X173629100Y-100702600D01*
X177929100Y-109304600D02*
X177279100Y-109304600D01*
X173629100Y-100702600D02*
X173629100Y-109304600D01*
X177929100Y-100702600D02*
X177929100Y-109304600D01*
X177929100Y-100702600D02*
X177279100Y-100702600D01*
G04 #@! TD*
M02*
