G04 #@! TF.GenerationSoftware,KiCad,Pcbnew,5.1.0-unknown-9e240db~82~ubuntu18.04.1*
G04 #@! TF.CreationDate,2019-04-08T01:00:59+02:00*
G04 #@! TF.ProjectId,VoltMax PWM,566f6c74-4d61-4782-9050-574d2e6b6963,rev?*
G04 #@! TF.SameCoordinates,Original*
G04 #@! TF.FileFunction,Copper,L2,Bot*
G04 #@! TF.FilePolarity,Positive*
%FSLAX46Y46*%
G04 Gerber Fmt 4.6, Leading zero omitted, Abs format (unit mm)*
G04 Created by KiCad (PCBNEW 5.1.0-unknown-9e240db~82~ubuntu18.04.1) date 2019-04-08 01:00:59*
%MOMM*%
%LPD*%
G04 APERTURE LIST*
%ADD10C,0.100000*%
%ADD11R,4.700000X1.500000*%
%ADD12R,4.200000X3.100000*%
%ADD13R,0.700000X1.150000*%
%ADD14C,5.000000*%
%ADD15C,1.700000*%
%ADD16C,1.300000*%
%ADD17C,3.200000*%
%ADD18R,1.800000X1.800000*%
%ADD19R,1.000000X0.670000*%
%ADD20R,1.000000X1.000000*%
%ADD21R,1.120000X1.720000*%
%ADD22R,1.525000X0.650000*%
%ADD23R,2.200000X3.800000*%
%ADD24R,2.200000X1.500000*%
%ADD25R,0.620000X0.575000*%
%ADD26R,0.600000X1.200000*%
%ADD27C,1.800000*%
%ADD28C,0.600000*%
%ADD29C,0.400000*%
%ADD30C,0.500000*%
G04 APERTURE END LIST*
D10*
G36*
X176980000Y-105089000D02*
G01*
X177113000Y-105079000D01*
X177242000Y-105047000D01*
X177365000Y-104996000D01*
X177479000Y-104927000D01*
X177580000Y-104840000D01*
X177667000Y-104739000D01*
X177736000Y-104625000D01*
X177787000Y-104502000D01*
X177819000Y-104373000D01*
X177829000Y-104240000D01*
X177819000Y-104107000D01*
X177787000Y-103978000D01*
X177736000Y-103855000D01*
X177667000Y-103741000D01*
X177580000Y-103640000D01*
X177479000Y-103553000D01*
X177365000Y-103484000D01*
X177242000Y-103433000D01*
X177113000Y-103401000D01*
X176980000Y-103391000D01*
X176480000Y-103391000D01*
X176347000Y-103401000D01*
X176218000Y-103433000D01*
X176095000Y-103484000D01*
X175981000Y-103553000D01*
X175880000Y-103640000D01*
X175793000Y-103741000D01*
X175724000Y-103855000D01*
X175673000Y-103978000D01*
X175641000Y-104107000D01*
X175631000Y-104240000D01*
X175641000Y-104373000D01*
X175673000Y-104502000D01*
X175724000Y-104625000D01*
X175793000Y-104739000D01*
X175880000Y-104840000D01*
X175981000Y-104927000D01*
X176095000Y-104996000D01*
X176218000Y-105047000D01*
X176347000Y-105079000D01*
X176480000Y-105089000D01*
X176980000Y-105089000D01*
G37*
G36*
X176980000Y-96889000D02*
G01*
X177113000Y-96879000D01*
X177242000Y-96847000D01*
X177365000Y-96796000D01*
X177479000Y-96727000D01*
X177580000Y-96640000D01*
X177667000Y-96539000D01*
X177736000Y-96425000D01*
X177787000Y-96302000D01*
X177819000Y-96173000D01*
X177829000Y-96040000D01*
X177819000Y-95907000D01*
X177787000Y-95778000D01*
X177736000Y-95655000D01*
X177667000Y-95541000D01*
X177580000Y-95440000D01*
X177479000Y-95353000D01*
X177365000Y-95284000D01*
X177242000Y-95233000D01*
X177113000Y-95201000D01*
X176980000Y-95191000D01*
X176480000Y-95191000D01*
X176347000Y-95201000D01*
X176218000Y-95233000D01*
X176095000Y-95284000D01*
X175981000Y-95353000D01*
X175880000Y-95440000D01*
X175793000Y-95541000D01*
X175724000Y-95655000D01*
X175673000Y-95778000D01*
X175641000Y-95907000D01*
X175631000Y-96040000D01*
X175641000Y-96173000D01*
X175673000Y-96302000D01*
X175724000Y-96425000D01*
X175793000Y-96539000D01*
X175880000Y-96640000D01*
X175981000Y-96727000D01*
X176095000Y-96796000D01*
X176218000Y-96847000D01*
X176347000Y-96879000D01*
X176480000Y-96889000D01*
X176980000Y-96889000D01*
G37*
G36*
X176980000Y-102789000D02*
G01*
X177082000Y-102781000D01*
X177181000Y-102757000D01*
X177275000Y-102718000D01*
X177361000Y-102665000D01*
X177439000Y-102599000D01*
X177505000Y-102521000D01*
X177558000Y-102435000D01*
X177597000Y-102341000D01*
X177621000Y-102242000D01*
X177629000Y-102140000D01*
X177621000Y-102038000D01*
X177597000Y-101939000D01*
X177558000Y-101845000D01*
X177505000Y-101759000D01*
X177439000Y-101681000D01*
X177361000Y-101615000D01*
X177275000Y-101562000D01*
X177181000Y-101523000D01*
X177082000Y-101499000D01*
X176980000Y-101491000D01*
X176480000Y-101491000D01*
X176378000Y-101499000D01*
X176279000Y-101523000D01*
X176185000Y-101562000D01*
X176099000Y-101615000D01*
X176021000Y-101681000D01*
X175955000Y-101759000D01*
X175902000Y-101845000D01*
X175863000Y-101939000D01*
X175839000Y-102038000D01*
X175831000Y-102140000D01*
X175839000Y-102242000D01*
X175863000Y-102341000D01*
X175902000Y-102435000D01*
X175955000Y-102521000D01*
X176021000Y-102599000D01*
X176099000Y-102665000D01*
X176185000Y-102718000D01*
X176279000Y-102757000D01*
X176378000Y-102781000D01*
X176480000Y-102789000D01*
X176980000Y-102789000D01*
G37*
G36*
X176980000Y-100789000D02*
G01*
X177082000Y-100781000D01*
X177181000Y-100757000D01*
X177275000Y-100718000D01*
X177361000Y-100665000D01*
X177439000Y-100599000D01*
X177505000Y-100521000D01*
X177558000Y-100435000D01*
X177597000Y-100341000D01*
X177621000Y-100242000D01*
X177629000Y-100140000D01*
X177621000Y-100038000D01*
X177597000Y-99939000D01*
X177558000Y-99845000D01*
X177505000Y-99759000D01*
X177439000Y-99681000D01*
X177361000Y-99615000D01*
X177275000Y-99562000D01*
X177181000Y-99523000D01*
X177082000Y-99499000D01*
X176980000Y-99491000D01*
X176480000Y-99491000D01*
X176378000Y-99499000D01*
X176279000Y-99523000D01*
X176185000Y-99562000D01*
X176099000Y-99615000D01*
X176021000Y-99681000D01*
X175955000Y-99759000D01*
X175902000Y-99845000D01*
X175863000Y-99939000D01*
X175839000Y-100038000D01*
X175831000Y-100140000D01*
X175839000Y-100242000D01*
X175863000Y-100341000D01*
X175902000Y-100435000D01*
X175955000Y-100521000D01*
X176021000Y-100599000D01*
X176099000Y-100665000D01*
X176185000Y-100718000D01*
X176279000Y-100757000D01*
X176378000Y-100781000D01*
X176480000Y-100789000D01*
X176980000Y-100789000D01*
G37*
G36*
X176980000Y-98789000D02*
G01*
X177082000Y-98781000D01*
X177181000Y-98757000D01*
X177275000Y-98718000D01*
X177361000Y-98665000D01*
X177439000Y-98599000D01*
X177505000Y-98521000D01*
X177558000Y-98435000D01*
X177597000Y-98341000D01*
X177621000Y-98242000D01*
X177629000Y-98140000D01*
X177621000Y-98038000D01*
X177597000Y-97939000D01*
X177558000Y-97845000D01*
X177505000Y-97759000D01*
X177439000Y-97681000D01*
X177361000Y-97615000D01*
X177275000Y-97562000D01*
X177181000Y-97523000D01*
X177082000Y-97499000D01*
X176980000Y-97491000D01*
X176480000Y-97491000D01*
X176378000Y-97499000D01*
X176279000Y-97523000D01*
X176185000Y-97562000D01*
X176099000Y-97615000D01*
X176021000Y-97681000D01*
X175955000Y-97759000D01*
X175902000Y-97845000D01*
X175863000Y-97939000D01*
X175839000Y-98038000D01*
X175831000Y-98140000D01*
X175839000Y-98242000D01*
X175863000Y-98341000D01*
X175902000Y-98435000D01*
X175955000Y-98521000D01*
X176021000Y-98599000D01*
X176099000Y-98665000D01*
X176185000Y-98718000D01*
X176279000Y-98757000D01*
X176378000Y-98781000D01*
X176480000Y-98789000D01*
X176980000Y-98789000D01*
G37*
D11*
X181800000Y-97450000D03*
D12*
X181800000Y-99750000D03*
D13*
X179895000Y-102925000D03*
X181165000Y-102925000D03*
X182435000Y-102925000D03*
X183705000Y-102925000D03*
D14*
X181600000Y-93090000D03*
X181600000Y-107220000D03*
D15*
X176730000Y-104240000D03*
X176730000Y-96040000D03*
D16*
X176730000Y-102140000D03*
X176730000Y-100140000D03*
X176730000Y-98140000D03*
D17*
X117169000Y-107644000D03*
X117169000Y-92643600D03*
X171309000Y-92643600D03*
X127515000Y-100115000D03*
D18*
X170340000Y-100144000D03*
X172880000Y-100144000D03*
D19*
X168900000Y-102225000D03*
X168900000Y-103975000D03*
X170800000Y-102225000D03*
X170800000Y-103975000D03*
X172600000Y-102225000D03*
X172600000Y-103975000D03*
X174400000Y-102225000D03*
X174400000Y-103975000D03*
D20*
X160150000Y-93600000D03*
X158250000Y-93600000D03*
X158250000Y-96000000D03*
X160150000Y-96000000D03*
D21*
X126875000Y-95100000D03*
X122725000Y-95100000D03*
D22*
X167912000Y-98305000D03*
X167912000Y-97035000D03*
X167912000Y-95765000D03*
X167912000Y-94495000D03*
X162488000Y-94495000D03*
X162488000Y-95765000D03*
X162488000Y-97035000D03*
X162488000Y-98305000D03*
D23*
X165650000Y-103800000D03*
D24*
X159350000Y-106100000D03*
X159350000Y-103800000D03*
X159350000Y-101500000D03*
D25*
X155600000Y-106988000D03*
X156550000Y-104612000D03*
X154650000Y-104612000D03*
D19*
X168400000Y-106525000D03*
X168400000Y-108275000D03*
X170800000Y-106525000D03*
X170800000Y-108275000D03*
X173100000Y-106525000D03*
X173100000Y-108275000D03*
X175400000Y-106525000D03*
X175400000Y-108275000D03*
D26*
X156350000Y-93550000D03*
X154450000Y-93550000D03*
X154450000Y-96050000D03*
X155400000Y-96050000D03*
X156350000Y-96050000D03*
D27*
X173100000Y-96500000D03*
X123000000Y-101400000D03*
X122980000Y-98910000D03*
X122800000Y-106200000D03*
X125500000Y-106200000D03*
D28*
X165969200Y-97099300D03*
X159350500Y-100016900D03*
X167516900Y-105358100D03*
X158986100Y-97447500D03*
X181075000Y-102975000D03*
X182425000Y-102975000D03*
X183775000Y-102975000D03*
X183775000Y-102275000D03*
X182425000Y-102275000D03*
X181075000Y-102275000D03*
X163523800Y-105050500D03*
X155540600Y-94800000D03*
X161006100Y-105050500D03*
X166639900Y-99874800D03*
X165778700Y-95365500D03*
X165574700Y-101235700D03*
X181750000Y-102275000D03*
X183100000Y-102275000D03*
X183775000Y-103675000D03*
X183775000Y-104375000D03*
X183100000Y-102975000D03*
X183100000Y-103675000D03*
X183100000Y-104375000D03*
X182425000Y-103675000D03*
X181750000Y-102975000D03*
X181750000Y-103675000D03*
X181075000Y-103675000D03*
X182425000Y-104375000D03*
X181750000Y-104375000D03*
X181075000Y-104375000D03*
X180400000Y-104400000D03*
X183800000Y-105100000D03*
X178500000Y-108400000D03*
X179200000Y-109100000D03*
X178500000Y-109100000D03*
X178500000Y-107700000D03*
X178500000Y-107000000D03*
X178500000Y-106300000D03*
X179725000Y-104400000D03*
X179600000Y-105100000D03*
X157894557Y-98058843D03*
X182400000Y-96900000D03*
X179600000Y-96900000D03*
X180300000Y-96900000D03*
X181000000Y-96900000D03*
X181700000Y-96900000D03*
X183100000Y-96900000D03*
X183800000Y-96900000D03*
X183800000Y-97600000D03*
X180300000Y-97600000D03*
X181700000Y-97600000D03*
X183100000Y-97600000D03*
X181000000Y-97600000D03*
X179600000Y-97600000D03*
X182400000Y-97600000D03*
X179600000Y-98300000D03*
X180300000Y-98300000D03*
X183100000Y-98300000D03*
X183800000Y-98300000D03*
X182400000Y-98300000D03*
X181700000Y-98300000D03*
X181000000Y-98300000D03*
X183800000Y-99000000D03*
X180300000Y-99000000D03*
X181700000Y-99000000D03*
X183100000Y-99000000D03*
X181000000Y-99000000D03*
X179600000Y-99000000D03*
X182400000Y-99000000D03*
X183800000Y-99700000D03*
X181000000Y-99700000D03*
X183100000Y-99700000D03*
X180300000Y-99700000D03*
X179600000Y-99700000D03*
X182400000Y-99700000D03*
X181700000Y-99700000D03*
X180300000Y-100400000D03*
X183800000Y-100400000D03*
X181700000Y-100400000D03*
X183100000Y-100400000D03*
X182400000Y-100400000D03*
X179600000Y-100400000D03*
X181000000Y-100400000D03*
X181700000Y-101100000D03*
X182400000Y-101100000D03*
X183100000Y-101100000D03*
X183800000Y-101100000D03*
X180300000Y-101100000D03*
X181000000Y-101100000D03*
X179600000Y-101100000D03*
X179600000Y-96200000D03*
X183800000Y-96200000D03*
X183100000Y-96200000D03*
X182400000Y-96200000D03*
X181700000Y-96200000D03*
X181000000Y-96200000D03*
X180300000Y-96200000D03*
X179600000Y-95500000D03*
X183800000Y-95500000D03*
X177900000Y-93000000D03*
X179300000Y-90900000D03*
X177900000Y-90900000D03*
X177200000Y-90900000D03*
X178600000Y-90900000D03*
X176500000Y-90900000D03*
X178600000Y-93700000D03*
X178600000Y-92300000D03*
X178600000Y-93000000D03*
X177200000Y-93700000D03*
X177200000Y-92300000D03*
X176500000Y-92300000D03*
X177900000Y-92300000D03*
X176500000Y-91600000D03*
X177900000Y-91600000D03*
X177900000Y-93700000D03*
X177200000Y-91600000D03*
X177200000Y-93000000D03*
X178600000Y-91600000D03*
X176500000Y-93000000D03*
X176500000Y-93700000D03*
X171961500Y-105424900D03*
X155105785Y-97250000D03*
X173830600Y-94669400D03*
X175599990Y-107460004D03*
X169827600Y-94744000D03*
X173900006Y-98400000D03*
X173947500Y-107427500D03*
X159615400Y-92105600D03*
D29*
X167912000Y-97035000D02*
X166649200Y-97035000D01*
X166649200Y-97035000D02*
X166584900Y-97099300D01*
X166584900Y-97099300D02*
X165969200Y-97099300D01*
X168900000Y-103975000D02*
X168900000Y-104810300D01*
X167516900Y-105358100D02*
X168064700Y-104810300D01*
X168064700Y-104810300D02*
X168900000Y-104810300D01*
X158250000Y-96000000D02*
X158250000Y-97000300D01*
X158250000Y-97000300D02*
X158538900Y-97000300D01*
X158538900Y-97000300D02*
X158986100Y-97447500D01*
X158250000Y-94999700D02*
X158750300Y-94999700D01*
X158750300Y-94999700D02*
X160150000Y-93600000D01*
X158250000Y-96000000D02*
X158250000Y-94999700D01*
X156350000Y-97050000D02*
X156234900Y-97165100D01*
X158926236Y-100016900D02*
X159350500Y-100016900D01*
X156350000Y-96050000D02*
X156350000Y-97050000D01*
X157731264Y-100016900D02*
X158926236Y-100016900D01*
X156234900Y-98520536D02*
X157731264Y-100016900D01*
X156234900Y-97165100D02*
X156234900Y-98520536D01*
X172600000Y-102225000D02*
X174400000Y-102225000D01*
X170800000Y-102225000D02*
X172600000Y-102225000D01*
X165650000Y-103800000D02*
X165650000Y-105050500D01*
X163523800Y-105050500D02*
X165650000Y-105050500D01*
X161006100Y-105050500D02*
X163523800Y-105050500D01*
X160950300Y-103800000D02*
X160950300Y-104994700D01*
X160950300Y-104994700D02*
X161006100Y-105050500D01*
X155400000Y-96050000D02*
X155400000Y-94940600D01*
X155400000Y-94940600D02*
X155540600Y-94800000D01*
X154650000Y-103824200D02*
X154674200Y-103800000D01*
X154674200Y-103800000D02*
X157749700Y-103800000D01*
X165650000Y-103644900D02*
X165650000Y-103800000D01*
X159350000Y-103800000D02*
X160950300Y-103800000D01*
X158549900Y-103800000D02*
X159350000Y-103800000D01*
X158549900Y-103800000D02*
X157749700Y-103800000D01*
X154650000Y-104612000D02*
X154650000Y-103824200D01*
X165650000Y-103644900D02*
X165650000Y-101399700D01*
X165650000Y-101399700D02*
X165574700Y-101324400D01*
X165574700Y-101324400D02*
X165574700Y-101235700D01*
X166649200Y-94495000D02*
X165778700Y-95365500D01*
X167912000Y-94495000D02*
X166649200Y-94495000D01*
X168900000Y-102225000D02*
X168900000Y-101807300D01*
X166225000Y-106525000D02*
X168400000Y-106525000D01*
X165650000Y-105050500D02*
X165650000Y-105950000D01*
X165650000Y-105950000D02*
X166225000Y-106525000D01*
X168925000Y-102225000D02*
X170800000Y-102225000D01*
X168900000Y-101807300D02*
X168900000Y-102200000D01*
X168900000Y-102200000D02*
X168925000Y-102225000D01*
X168900000Y-101500000D02*
X168900000Y-101807300D01*
X166639900Y-99874800D02*
X167274800Y-99874800D01*
X167274800Y-99874800D02*
X168900000Y-101500000D01*
X159982700Y-98277500D02*
X158537478Y-98277500D01*
X158318821Y-98058843D02*
X157894557Y-98058843D01*
X161225200Y-97035000D02*
X159982700Y-98277500D01*
X162488000Y-97035000D02*
X161225200Y-97035000D01*
X158537478Y-98277500D02*
X158318821Y-98058843D01*
X173100000Y-106525000D02*
X172099600Y-107525400D01*
X172099600Y-107525400D02*
X172099600Y-108564800D01*
X172099600Y-108564800D02*
X171554100Y-109110300D01*
X171554100Y-109110300D02*
X168400000Y-109110300D01*
X168400000Y-108275000D02*
X168400000Y-109110300D01*
X172935000Y-106525000D02*
X173100000Y-106525000D01*
X172099999Y-107360001D02*
X172935000Y-106525000D01*
X176400001Y-109010001D02*
X176300001Y-109110001D01*
X176400000Y-106515998D02*
X176400001Y-109010001D01*
X172099999Y-109010001D02*
X172099999Y-107360001D01*
X172199999Y-109110001D02*
X172099999Y-109010001D01*
X176300001Y-109110001D02*
X172199999Y-109110001D01*
X179595000Y-103320998D02*
X176400000Y-106515998D01*
X176080001Y-97490001D02*
X176730000Y-98140000D01*
X173100000Y-96500000D02*
X175090000Y-96500000D01*
X175090000Y-96500000D02*
X176080001Y-97490001D01*
X153288000Y-109300000D02*
X155600000Y-106988000D01*
X121300000Y-109300000D02*
X153288000Y-109300000D01*
X123000000Y-101400000D02*
X121300000Y-103100000D01*
X121300000Y-103100000D02*
X121300000Y-109300000D01*
X171961500Y-105424900D02*
X171900100Y-105424900D01*
X171900100Y-105424900D02*
X170800000Y-106525000D01*
X154450000Y-96050000D02*
X154450000Y-96718615D01*
X154981385Y-97250000D02*
X155105785Y-97250000D01*
X154450000Y-96718615D02*
X154981385Y-97250000D01*
X160150200Y-101500000D02*
X159350000Y-101500000D01*
X166649200Y-98305000D02*
X165839600Y-99114600D01*
X165839600Y-99114600D02*
X165839600Y-100345100D01*
X165839600Y-100345100D02*
X165967400Y-100345100D01*
X165967400Y-100345100D02*
X167250400Y-101628100D01*
X167250400Y-101628100D02*
X167250400Y-102174800D01*
X167250400Y-102174800D02*
X168215300Y-103139700D01*
X168215300Y-103139700D02*
X172600000Y-103139700D01*
X160950300Y-101500000D02*
X162105200Y-100345100D01*
X162105200Y-100345100D02*
X165839600Y-100345100D01*
X167912000Y-98305000D02*
X166649200Y-98305000D01*
X160150200Y-101500000D02*
X160950300Y-101500000D01*
X172600000Y-103975000D02*
X172600000Y-103139700D01*
X127413410Y-92386590D02*
X126875000Y-92925000D01*
X153573110Y-92723424D02*
X153236276Y-92386590D01*
X153573110Y-92801810D02*
X153573110Y-92723424D01*
X153574000Y-92802700D02*
X153573110Y-92801810D01*
X126875000Y-92925000D02*
X126875000Y-95100000D01*
X153574000Y-96849600D02*
X153574000Y-92802700D01*
X158224400Y-101500000D02*
X153574000Y-96849600D01*
X153236276Y-92386590D02*
X127413410Y-92386590D01*
X159350000Y-101500000D02*
X158224400Y-101500000D01*
X160150000Y-96000000D02*
X160150000Y-94999700D01*
X162488000Y-94495000D02*
X161225200Y-94495000D01*
X161225200Y-94495000D02*
X160720500Y-94999700D01*
X160720500Y-94999700D02*
X160150000Y-94999700D01*
X157350000Y-93600000D02*
X158250000Y-93600000D01*
X162050500Y-98305000D02*
X161325500Y-99030000D01*
X157734328Y-99030000D02*
X156935300Y-98230972D01*
X156935300Y-97586000D02*
X157202400Y-97318900D01*
X156935300Y-98230972D02*
X156935300Y-97586000D01*
X161325500Y-99030000D02*
X157734328Y-99030000D01*
X162488000Y-98305000D02*
X162050500Y-98305000D01*
X157202400Y-93747600D02*
X157350000Y-93600000D01*
X157202400Y-97318900D02*
X157202400Y-93747600D01*
X175400000Y-108275000D02*
X175565000Y-108275000D01*
X171158100Y-95765000D02*
X172253700Y-94669400D01*
X167912000Y-95765000D02*
X171158100Y-95765000D01*
X172253700Y-94669400D02*
X173830600Y-94669400D01*
X175599990Y-108100010D02*
X175599990Y-107884268D01*
X175599990Y-107884268D02*
X175599990Y-107460004D01*
X175400000Y-108300000D02*
X175599990Y-108100010D01*
X163750800Y-95765000D02*
X163750800Y-93658700D01*
X162488000Y-95765000D02*
X163750800Y-95765000D01*
X122725000Y-93840000D02*
X122725000Y-95100000D01*
X122725000Y-92371614D02*
X122725000Y-93840000D01*
X124110046Y-90986568D02*
X122725000Y-92371614D01*
X163750800Y-93658700D02*
X161078668Y-90986568D01*
X161078668Y-90986568D02*
X124110046Y-90986568D01*
X169174501Y-94090901D02*
X169827600Y-94744000D01*
X163750800Y-93658700D02*
X169063202Y-93658700D01*
X169174501Y-93769999D02*
X169174501Y-94090901D01*
X169063202Y-93658700D02*
X169174501Y-93769999D01*
X174400000Y-98899994D02*
X173900006Y-98400000D01*
X174689999Y-101389999D02*
X174400000Y-101100000D01*
X175300001Y-101389999D02*
X174689999Y-101389999D01*
X174565000Y-103975000D02*
X175405800Y-103134200D01*
X174400000Y-103975000D02*
X174565000Y-103975000D01*
X175400001Y-101489999D02*
X175300001Y-101389999D01*
X175405800Y-103134200D02*
X175405800Y-102105800D01*
X175405800Y-102105800D02*
X175400001Y-102100001D01*
X174400000Y-101100000D02*
X174400000Y-98899994D01*
X175400001Y-102100001D02*
X175400001Y-101489999D01*
X156350000Y-93550000D02*
X156350000Y-92449700D01*
X173947500Y-107427500D02*
X173100000Y-108275000D01*
X174399700Y-106525000D02*
X174399700Y-106975300D01*
X174399700Y-106975300D02*
X173947500Y-107427500D01*
X156350000Y-92449700D02*
X159271300Y-92449700D01*
X159271300Y-92449700D02*
X159615400Y-92105600D01*
X175400000Y-106525000D02*
X174399700Y-106525000D01*
X169768700Y-107439700D02*
X170800000Y-107439700D01*
X158549900Y-106100000D02*
X159889600Y-107439700D01*
X159889600Y-107439700D02*
X169768700Y-107439700D01*
X169768700Y-107439700D02*
X169768700Y-105841600D01*
X169768700Y-105841600D02*
X170800000Y-104810300D01*
X170800000Y-103975000D02*
X170800000Y-104810300D01*
X170800000Y-108275000D02*
X170800000Y-107439700D01*
X158549900Y-106100000D02*
X157749700Y-106100000D01*
X159350000Y-106100000D02*
X158549900Y-106100000D01*
X156550000Y-105308800D02*
X156958500Y-105308800D01*
X156958500Y-105308800D02*
X157749700Y-106100000D01*
X156550000Y-105050400D02*
X156550000Y-105308800D01*
X156550000Y-105049900D02*
X156550000Y-105050400D01*
X156550000Y-104612000D02*
X156550000Y-105049900D01*
X154450000Y-92610349D02*
X154450000Y-93550000D01*
X124400000Y-92400000D02*
X125113421Y-91686579D01*
X124400000Y-104600000D02*
X124400000Y-92400000D01*
X125500000Y-107900000D02*
X125500000Y-105700000D01*
X125113421Y-91686579D02*
X153526230Y-91686579D01*
X152527300Y-108500000D02*
X126100000Y-108500000D01*
X155718500Y-105308800D02*
X153573110Y-107454190D01*
X153573110Y-107454190D02*
X153573110Y-107459776D01*
X126100000Y-108500000D02*
X125500000Y-107900000D01*
X156550000Y-105308800D02*
X155718500Y-105308800D01*
X125500000Y-105700000D02*
X124400000Y-104600000D01*
X153230690Y-107796610D02*
X152527300Y-108500000D01*
X153573110Y-107459776D02*
X153236276Y-107796610D01*
X153526230Y-91686579D02*
X154450000Y-92610349D01*
X153236276Y-107796610D02*
X153230690Y-107796610D01*
D30*
G36*
X183271097Y-90786278D02*
G01*
X183415306Y-90829798D01*
X183548321Y-90900502D01*
X183665061Y-90995689D01*
X183761095Y-91111745D01*
X183832758Y-91244245D01*
X183877319Y-91388135D01*
X183896101Y-91566618D01*
X183896100Y-101250000D01*
X179450000Y-101250000D01*
X179450000Y-94100000D01*
X179445196Y-94051227D01*
X179430970Y-94004329D01*
X179407867Y-93961107D01*
X179376777Y-93923223D01*
X179338893Y-93892133D01*
X179295671Y-93869030D01*
X179248773Y-93854804D01*
X179200000Y-93850000D01*
X176250000Y-93850000D01*
X176250000Y-90768600D01*
X183090577Y-90768600D01*
X183271097Y-90786278D01*
X183271097Y-90786278D01*
G37*
X183271097Y-90786278D02*
X183415306Y-90829798D01*
X183548321Y-90900502D01*
X183665061Y-90995689D01*
X183761095Y-91111745D01*
X183832758Y-91244245D01*
X183877319Y-91388135D01*
X183896101Y-91566618D01*
X183896100Y-101250000D01*
X179450000Y-101250000D01*
X179450000Y-94100000D01*
X179445196Y-94051227D01*
X179430970Y-94004329D01*
X179407867Y-93961107D01*
X179376777Y-93923223D01*
X179338893Y-93892133D01*
X179295671Y-93869030D01*
X179248773Y-93854804D01*
X179200000Y-93850000D01*
X176250000Y-93850000D01*
X176250000Y-90768600D01*
X183090577Y-90768600D01*
X183271097Y-90786278D01*
G36*
X183896100Y-106324303D02*
G01*
X183896101Y-106324313D01*
X183896100Y-108713066D01*
X183878421Y-108893595D01*
X183834901Y-109037805D01*
X183764199Y-109170817D01*
X183669009Y-109287561D01*
X183552954Y-109383594D01*
X183420452Y-109455259D01*
X183276565Y-109499819D01*
X183098091Y-109518600D01*
X178050000Y-109518600D01*
X178050000Y-106150000D01*
X179200000Y-106150000D01*
X179248773Y-106145196D01*
X179295671Y-106130970D01*
X179338893Y-106107867D01*
X179376777Y-106076777D01*
X179407867Y-106038893D01*
X179430970Y-105995671D01*
X179445196Y-105948773D01*
X179450000Y-105900000D01*
X179450000Y-104526659D01*
X179923998Y-104052661D01*
X180245000Y-104052661D01*
X180272018Y-104050000D01*
X180600000Y-104050000D01*
X180648773Y-104045196D01*
X180695671Y-104030970D01*
X180738893Y-104007867D01*
X180776777Y-103976777D01*
X180807867Y-103938893D01*
X180830970Y-103895671D01*
X180845196Y-103848773D01*
X180850000Y-103800000D01*
X180850000Y-102150000D01*
X183896100Y-102150000D01*
X183896100Y-106324303D01*
X183896100Y-106324303D01*
G37*
X183896100Y-106324303D02*
X183896101Y-106324313D01*
X183896100Y-108713066D01*
X183878421Y-108893595D01*
X183834901Y-109037805D01*
X183764199Y-109170817D01*
X183669009Y-109287561D01*
X183552954Y-109383594D01*
X183420452Y-109455259D01*
X183276565Y-109499819D01*
X183098091Y-109518600D01*
X178050000Y-109518600D01*
X178050000Y-106150000D01*
X179200000Y-106150000D01*
X179248773Y-106145196D01*
X179295671Y-106130970D01*
X179338893Y-106107867D01*
X179376777Y-106076777D01*
X179407867Y-106038893D01*
X179430970Y-105995671D01*
X179445196Y-105948773D01*
X179450000Y-105900000D01*
X179450000Y-104526659D01*
X179923998Y-104052661D01*
X180245000Y-104052661D01*
X180272018Y-104050000D01*
X180600000Y-104050000D01*
X180648773Y-104045196D01*
X180695671Y-104030970D01*
X180738893Y-104007867D01*
X180776777Y-103976777D01*
X180807867Y-103938893D01*
X180830970Y-103895671D01*
X180845196Y-103848773D01*
X180850000Y-103800000D01*
X180850000Y-102150000D01*
X183896100Y-102150000D01*
X183896100Y-106324303D01*
M02*
