G04 #@! TF.GenerationSoftware,KiCad,Pcbnew,5.1.0-unknown-9e240db~82~ubuntu18.04.1*
G04 #@! TF.CreationDate,2019-04-08T00:45:16+02:00*
G04 #@! TF.ProjectId,VoltMax PWM,566f6c74-4d61-4782-9050-574d2e6b6963,rev?*
G04 #@! TF.SameCoordinates,Original*
G04 #@! TF.FileFunction,Paste,Bot*
G04 #@! TF.FilePolarity,Positive*
%FSLAX46Y46*%
G04 Gerber Fmt 4.6, Leading zero omitted, Abs format (unit mm)*
G04 Created by KiCad (PCBNEW 5.1.0-unknown-9e240db~82~ubuntu18.04.1) date 2019-04-08 00:45:16*
%MOMM*%
%LPD*%
G04 APERTURE LIST*
%ADD10R,4.700000X1.500000*%
%ADD11R,4.200000X3.100000*%
%ADD12R,0.700000X1.150000*%
%ADD13R,1.000000X0.670000*%
%ADD14R,1.000000X1.000000*%
%ADD15R,1.120000X1.720000*%
%ADD16R,1.525000X0.650000*%
%ADD17R,2.200000X3.800000*%
%ADD18R,2.200000X1.500000*%
%ADD19R,0.620000X0.575000*%
%ADD20R,0.600000X1.200000*%
G04 APERTURE END LIST*
D10*
X181800000Y-97450000D03*
D11*
X181800000Y-99750000D03*
D12*
X179895000Y-102925000D03*
X181165000Y-102925000D03*
X182435000Y-102925000D03*
X183705000Y-102925000D03*
D13*
X168900000Y-102225000D03*
X168900000Y-103975000D03*
X170800000Y-102225000D03*
X170800000Y-103975000D03*
X172600000Y-102225000D03*
X172600000Y-103975000D03*
X174400000Y-102225000D03*
X174400000Y-103975000D03*
D14*
X160150000Y-93600000D03*
X158250000Y-93600000D03*
X158250000Y-96000000D03*
X160150000Y-96000000D03*
D15*
X126875000Y-95100000D03*
X122725000Y-95100000D03*
D16*
X167912000Y-98305000D03*
X167912000Y-97035000D03*
X167912000Y-95765000D03*
X167912000Y-94495000D03*
X162488000Y-94495000D03*
X162488000Y-95765000D03*
X162488000Y-97035000D03*
X162488000Y-98305000D03*
D17*
X165650000Y-103800000D03*
D18*
X159350000Y-106100000D03*
X159350000Y-103800000D03*
X159350000Y-101500000D03*
D19*
X155600000Y-106988000D03*
X156550000Y-104612000D03*
X154650000Y-104612000D03*
D13*
X168400000Y-106525000D03*
X168400000Y-108275000D03*
X170800000Y-106525000D03*
X170800000Y-108275000D03*
X173100000Y-106525000D03*
X173100000Y-108275000D03*
X175400000Y-106525000D03*
X175400000Y-108275000D03*
D20*
X156350000Y-93550000D03*
X154450000Y-93550000D03*
X154450000Y-96050000D03*
X155400000Y-96050000D03*
X156350000Y-96050000D03*
M02*
