G04 #@! TF.GenerationSoftware,KiCad,Pcbnew,5.1.0-unknown-9e240db~82~ubuntu18.04.1*
G04 #@! TF.CreationDate,2019-04-15T00:46:05+02:00*
G04 #@! TF.ProjectId,VoltMax PWM,566f6c74-4d61-4782-9050-574d2e6b6963,rev?*
G04 #@! TF.SameCoordinates,Original*
G04 #@! TF.FileFunction,Legend,Bot*
G04 #@! TF.FilePolarity,Positive*
%FSLAX46Y46*%
G04 Gerber Fmt 4.6, Leading zero omitted, Abs format (unit mm)*
G04 Created by KiCad (PCBNEW 5.1.0-unknown-9e240db~82~ubuntu18.04.1) date 2019-04-15 00:46:05*
%MOMM*%
%LPD*%
G04 APERTURE LIST*
%ADD10C,0.200000*%
%ADD11C,0.100000*%
%ADD12C,0.120000*%
%ADD13C,0.254000*%
%ADD14C,0.150000*%
G04 APERTURE END LIST*
D10*
X121168095Y-98928571D02*
X121501428Y-98928571D01*
X121501428Y-99452380D02*
X121501428Y-98452380D01*
X121025238Y-98452380D01*
X120691904Y-98547619D02*
X120644285Y-98500000D01*
X120549047Y-98452380D01*
X120310952Y-98452380D01*
X120215714Y-98500000D01*
X120168095Y-98547619D01*
X120120476Y-98642857D01*
X120120476Y-98738095D01*
X120168095Y-98880952D01*
X120739523Y-99452380D01*
X120120476Y-99452380D01*
X121168095Y-101408571D02*
X121501428Y-101408571D01*
X121501428Y-101932380D02*
X121501428Y-100932380D01*
X121025238Y-100932380D01*
X120120476Y-101932380D02*
X120691904Y-101932380D01*
X120406190Y-101932380D02*
X120406190Y-100932380D01*
X120501428Y-101075238D01*
X120596666Y-101170476D01*
X120691904Y-101218095D01*
X183650000Y-103900000D02*
G75*
G02X183450000Y-103900000I-100000J0D01*
G01*
X183450000Y-103900000D02*
G75*
G02X183650000Y-103900000I100000J0D01*
G01*
X183450000Y-103900000D02*
X183450000Y-103900000D01*
X183650000Y-103900000D02*
X183650000Y-103900000D01*
D11*
X179200000Y-101950000D02*
X179200000Y-98500000D01*
X184100000Y-101950000D02*
X179200000Y-101950000D01*
X184100000Y-98500000D02*
X184100000Y-101950000D01*
D12*
X167790000Y-103320000D02*
X167790000Y-102880000D01*
X168810000Y-103320000D02*
X168810000Y-102880000D01*
X169790000Y-103320000D02*
X169790000Y-102880000D01*
X170810000Y-103320000D02*
X170810000Y-102880000D01*
X171790000Y-103320000D02*
X171790000Y-102880000D01*
X172810000Y-103320000D02*
X172810000Y-102880000D01*
X173790000Y-103320000D02*
X173790000Y-102880000D01*
X174810000Y-103320000D02*
X174810000Y-102880000D01*
D13*
X160140000Y-107523000D02*
G75*
G03X160140000Y-107523000I-52000J0D01*
G01*
X157650000Y-105200000D02*
X157650000Y-105800000D01*
X160550000Y-105200000D02*
X160550000Y-105800000D01*
D10*
X156650000Y-92950000D02*
X156650000Y-96650000D01*
X154150000Y-92165000D02*
X154150000Y-96650000D01*
X166480000Y-107475000D02*
X166480000Y-105950000D01*
X161450000Y-105600000D02*
X166350000Y-105600000D01*
X161450000Y-102400000D02*
X161450000Y-105600000D01*
X166350000Y-102400000D02*
X161450000Y-102400000D01*
X166350000Y-105600000D02*
X166350000Y-102400000D01*
D11*
X164075000Y-92825000D02*
X163775000Y-92825000D01*
X164075000Y-93200000D02*
X164075000Y-92825000D01*
X164075000Y-99375000D02*
X163675000Y-99375000D01*
X164075000Y-98875000D02*
X164075000Y-99375000D01*
X160525000Y-92825000D02*
X160525000Y-93275000D01*
X161000000Y-92825000D02*
X160525000Y-92825000D01*
X160525000Y-99075000D02*
X160330000Y-99075000D01*
X160850000Y-99375000D02*
X160525000Y-99075000D01*
X161325000Y-99375000D02*
X160850000Y-99375000D01*
D10*
X168225000Y-98310000D02*
X168800000Y-98310000D01*
X169150000Y-95350000D02*
X169150000Y-98250000D01*
X170250000Y-95350000D02*
X169150000Y-95350000D01*
X170250000Y-98250000D02*
X170250000Y-95350000D01*
X169150000Y-98250000D02*
X170250000Y-98250000D01*
D12*
X175820000Y-107510000D02*
X175380000Y-107510000D01*
X175820000Y-106490000D02*
X175380000Y-106490000D01*
X171880000Y-106490000D02*
X172320000Y-106490000D01*
X171880000Y-107510000D02*
X172320000Y-107510000D01*
X168280000Y-106490000D02*
X168720000Y-106490000D01*
X168280000Y-107510000D02*
X168720000Y-107510000D01*
D10*
X156600000Y-107250000D02*
X156600000Y-106050000D01*
X153650000Y-105700000D02*
X156550000Y-105700000D01*
X153650000Y-105100000D02*
X153650000Y-105700000D01*
X156550000Y-105100000D02*
X153650000Y-105100000D01*
X156550000Y-105700000D02*
X156550000Y-105100000D01*
D14*
X178947619Y-99804761D02*
X178900000Y-99709523D01*
X178804761Y-99614285D01*
X178661904Y-99471428D01*
X178614285Y-99376190D01*
X178614285Y-99280952D01*
X178852380Y-99328571D02*
X178804761Y-99233333D01*
X178709523Y-99138095D01*
X178519047Y-99090476D01*
X178185714Y-99090476D01*
X177995238Y-99138095D01*
X177900000Y-99233333D01*
X177852380Y-99328571D01*
X177852380Y-99519047D01*
X177900000Y-99614285D01*
X177995238Y-99709523D01*
X178185714Y-99757142D01*
X178519047Y-99757142D01*
X178709523Y-99709523D01*
X178804761Y-99614285D01*
X178852380Y-99519047D01*
X178852380Y-99328571D01*
X177947619Y-100138095D02*
X177900000Y-100185714D01*
X177852380Y-100280952D01*
X177852380Y-100519047D01*
X177900000Y-100614285D01*
X177947619Y-100661904D01*
X178042857Y-100709523D01*
X178138095Y-100709523D01*
X178280952Y-100661904D01*
X178852380Y-100090476D01*
X178852380Y-100709523D01*
X168466666Y-105457142D02*
X168514285Y-105504761D01*
X168657142Y-105552380D01*
X168752380Y-105552380D01*
X168895238Y-105504761D01*
X168990476Y-105409523D01*
X169038095Y-105314285D01*
X169085714Y-105123809D01*
X169085714Y-104980952D01*
X169038095Y-104790476D01*
X168990476Y-104695238D01*
X168895238Y-104600000D01*
X168752380Y-104552380D01*
X168657142Y-104552380D01*
X168514285Y-104600000D01*
X168466666Y-104647619D01*
X167514285Y-105552380D02*
X168085714Y-105552380D01*
X167800000Y-105552380D02*
X167800000Y-104552380D01*
X167895238Y-104695238D01*
X167990476Y-104790476D01*
X168085714Y-104838095D01*
X170466666Y-105457142D02*
X170514285Y-105504761D01*
X170657142Y-105552380D01*
X170752380Y-105552380D01*
X170895238Y-105504761D01*
X170990476Y-105409523D01*
X171038095Y-105314285D01*
X171085714Y-105123809D01*
X171085714Y-104980952D01*
X171038095Y-104790476D01*
X170990476Y-104695238D01*
X170895238Y-104600000D01*
X170752380Y-104552380D01*
X170657142Y-104552380D01*
X170514285Y-104600000D01*
X170466666Y-104647619D01*
X170085714Y-104647619D02*
X170038095Y-104600000D01*
X169942857Y-104552380D01*
X169704761Y-104552380D01*
X169609523Y-104600000D01*
X169561904Y-104647619D01*
X169514285Y-104742857D01*
X169514285Y-104838095D01*
X169561904Y-104980952D01*
X170133333Y-105552380D01*
X169514285Y-105552380D01*
X172466666Y-105457142D02*
X172514285Y-105504761D01*
X172657142Y-105552380D01*
X172752380Y-105552380D01*
X172895238Y-105504761D01*
X172990476Y-105409523D01*
X173038095Y-105314285D01*
X173085714Y-105123809D01*
X173085714Y-104980952D01*
X173038095Y-104790476D01*
X172990476Y-104695238D01*
X172895238Y-104600000D01*
X172752380Y-104552380D01*
X172657142Y-104552380D01*
X172514285Y-104600000D01*
X172466666Y-104647619D01*
X172133333Y-104552380D02*
X171514285Y-104552380D01*
X171847619Y-104933333D01*
X171704761Y-104933333D01*
X171609523Y-104980952D01*
X171561904Y-105028571D01*
X171514285Y-105123809D01*
X171514285Y-105361904D01*
X171561904Y-105457142D01*
X171609523Y-105504761D01*
X171704761Y-105552380D01*
X171990476Y-105552380D01*
X172085714Y-105504761D01*
X172133333Y-105457142D01*
X174466666Y-105457142D02*
X174514285Y-105504761D01*
X174657142Y-105552380D01*
X174752380Y-105552380D01*
X174895238Y-105504761D01*
X174990476Y-105409523D01*
X175038095Y-105314285D01*
X175085714Y-105123809D01*
X175085714Y-104980952D01*
X175038095Y-104790476D01*
X174990476Y-104695238D01*
X174895238Y-104600000D01*
X174752380Y-104552380D01*
X174657142Y-104552380D01*
X174514285Y-104600000D01*
X174466666Y-104647619D01*
X173609523Y-104885714D02*
X173609523Y-105552380D01*
X173847619Y-104504761D02*
X174085714Y-105219047D01*
X173466666Y-105219047D01*
X159838095Y-103152380D02*
X159838095Y-102152380D01*
X159600000Y-102152380D01*
X159457142Y-102200000D01*
X159361904Y-102295238D01*
X159314285Y-102390476D01*
X159266666Y-102580952D01*
X159266666Y-102723809D01*
X159314285Y-102914285D01*
X159361904Y-103009523D01*
X159457142Y-103104761D01*
X159600000Y-103152380D01*
X159838095Y-103152380D01*
X158314285Y-103152380D02*
X158885714Y-103152380D01*
X158600000Y-103152380D02*
X158600000Y-102152380D01*
X158695238Y-102295238D01*
X158790476Y-102390476D01*
X158885714Y-102438095D01*
X156238095Y-91652380D02*
X156238095Y-90652380D01*
X156000000Y-90652380D01*
X155857142Y-90700000D01*
X155761904Y-90795238D01*
X155714285Y-90890476D01*
X155666666Y-91080952D01*
X155666666Y-91223809D01*
X155714285Y-91414285D01*
X155761904Y-91509523D01*
X155857142Y-91604761D01*
X156000000Y-91652380D01*
X156238095Y-91652380D01*
X155285714Y-90747619D02*
X155238095Y-90700000D01*
X155142857Y-90652380D01*
X154904761Y-90652380D01*
X154809523Y-90700000D01*
X154761904Y-90747619D01*
X154714285Y-90842857D01*
X154714285Y-90938095D01*
X154761904Y-91080952D01*
X155333333Y-91652380D01*
X154714285Y-91652380D01*
X164876190Y-108952380D02*
X164876190Y-107952380D01*
X163828571Y-108857142D02*
X163876190Y-108904761D01*
X164019047Y-108952380D01*
X164114285Y-108952380D01*
X164257142Y-108904761D01*
X164352380Y-108809523D01*
X164400000Y-108714285D01*
X164447619Y-108523809D01*
X164447619Y-108380952D01*
X164400000Y-108190476D01*
X164352380Y-108095238D01*
X164257142Y-108000000D01*
X164114285Y-107952380D01*
X164019047Y-107952380D01*
X163876190Y-108000000D01*
X163828571Y-108047619D01*
X162876190Y-108952380D02*
X163447619Y-108952380D01*
X163161904Y-108952380D02*
X163161904Y-107952380D01*
X163257142Y-108095238D01*
X163352380Y-108190476D01*
X163447619Y-108238095D01*
X163276190Y-92352380D02*
X163276190Y-91352380D01*
X162228571Y-92257142D02*
X162276190Y-92304761D01*
X162419047Y-92352380D01*
X162514285Y-92352380D01*
X162657142Y-92304761D01*
X162752380Y-92209523D01*
X162800000Y-92114285D01*
X162847619Y-91923809D01*
X162847619Y-91780952D01*
X162800000Y-91590476D01*
X162752380Y-91495238D01*
X162657142Y-91400000D01*
X162514285Y-91352380D01*
X162419047Y-91352380D01*
X162276190Y-91400000D01*
X162228571Y-91447619D01*
X161847619Y-91447619D02*
X161800000Y-91400000D01*
X161704761Y-91352380D01*
X161466666Y-91352380D01*
X161371428Y-91400000D01*
X161323809Y-91447619D01*
X161276190Y-91542857D01*
X161276190Y-91638095D01*
X161323809Y-91780952D01*
X161895238Y-92352380D01*
X161276190Y-92352380D01*
X169295238Y-94947619D02*
X169390476Y-94900000D01*
X169485714Y-94804761D01*
X169628571Y-94661904D01*
X169723809Y-94614285D01*
X169819047Y-94614285D01*
X169771428Y-94852380D02*
X169866666Y-94804761D01*
X169961904Y-94709523D01*
X170009523Y-94519047D01*
X170009523Y-94185714D01*
X169961904Y-93995238D01*
X169866666Y-93900000D01*
X169771428Y-93852380D01*
X169580952Y-93852380D01*
X169485714Y-93900000D01*
X169390476Y-93995238D01*
X169342857Y-94185714D01*
X169342857Y-94519047D01*
X169390476Y-94709523D01*
X169485714Y-94804761D01*
X169580952Y-94852380D01*
X169771428Y-94852380D01*
X168390476Y-94852380D02*
X168961904Y-94852380D01*
X168676190Y-94852380D02*
X168676190Y-93852380D01*
X168771428Y-93995238D01*
X168866666Y-94090476D01*
X168961904Y-94138095D01*
X175766666Y-109052380D02*
X176100000Y-108576190D01*
X176338095Y-109052380D02*
X176338095Y-108052380D01*
X175957142Y-108052380D01*
X175861904Y-108100000D01*
X175814285Y-108147619D01*
X175766666Y-108242857D01*
X175766666Y-108385714D01*
X175814285Y-108480952D01*
X175861904Y-108528571D01*
X175957142Y-108576190D01*
X176338095Y-108576190D01*
X174814285Y-109052380D02*
X175385714Y-109052380D01*
X175100000Y-109052380D02*
X175100000Y-108052380D01*
X175195238Y-108195238D01*
X175290476Y-108290476D01*
X175385714Y-108338095D01*
X172266666Y-109052380D02*
X172600000Y-108576190D01*
X172838095Y-109052380D02*
X172838095Y-108052380D01*
X172457142Y-108052380D01*
X172361904Y-108100000D01*
X172314285Y-108147619D01*
X172266666Y-108242857D01*
X172266666Y-108385714D01*
X172314285Y-108480952D01*
X172361904Y-108528571D01*
X172457142Y-108576190D01*
X172838095Y-108576190D01*
X171885714Y-108147619D02*
X171838095Y-108100000D01*
X171742857Y-108052380D01*
X171504761Y-108052380D01*
X171409523Y-108100000D01*
X171361904Y-108147619D01*
X171314285Y-108242857D01*
X171314285Y-108338095D01*
X171361904Y-108480952D01*
X171933333Y-109052380D01*
X171314285Y-109052380D01*
X168666666Y-109052380D02*
X169000000Y-108576190D01*
X169238095Y-109052380D02*
X169238095Y-108052380D01*
X168857142Y-108052380D01*
X168761904Y-108100000D01*
X168714285Y-108147619D01*
X168666666Y-108242857D01*
X168666666Y-108385714D01*
X168714285Y-108480952D01*
X168761904Y-108528571D01*
X168857142Y-108576190D01*
X169238095Y-108576190D01*
X168333333Y-108052380D02*
X167714285Y-108052380D01*
X168047619Y-108433333D01*
X167904761Y-108433333D01*
X167809523Y-108480952D01*
X167761904Y-108528571D01*
X167714285Y-108623809D01*
X167714285Y-108861904D01*
X167761904Y-108957142D01*
X167809523Y-109004761D01*
X167904761Y-109052380D01*
X168190476Y-109052380D01*
X168285714Y-109004761D01*
X168333333Y-108957142D01*
X155861904Y-102052380D02*
X155861904Y-102861904D01*
X155814285Y-102957142D01*
X155766666Y-103004761D01*
X155671428Y-103052380D01*
X155480952Y-103052380D01*
X155385714Y-103004761D01*
X155338095Y-102957142D01*
X155290476Y-102861904D01*
X155290476Y-102052380D01*
X154290476Y-103052380D02*
X154861904Y-103052380D01*
X154576190Y-103052380D02*
X154576190Y-102052380D01*
X154671428Y-102195238D01*
X154766666Y-102290476D01*
X154861904Y-102338095D01*
X123823809Y-107952380D02*
X123490476Y-108952380D01*
X123157142Y-107952380D01*
X122823809Y-108952380D02*
X122823809Y-107952380D01*
X122490476Y-108666666D01*
X122157142Y-107952380D01*
X122157142Y-108952380D01*
X121680952Y-108571428D02*
X120919047Y-108571428D01*
X127023809Y-107952380D02*
X126690476Y-108952380D01*
X126357142Y-107952380D01*
X126023809Y-108952380D02*
X126023809Y-107952380D01*
X125690476Y-108666666D01*
X125357142Y-107952380D01*
X125357142Y-108952380D01*
X124880952Y-108571428D02*
X124119047Y-108571428D01*
X124500000Y-108952380D02*
X124500000Y-108190476D01*
M02*
