G04 #@! TF.GenerationSoftware,KiCad,Pcbnew,5.1.0-unknown-9e240db~82~ubuntu18.04.1*
G04 #@! TF.CreationDate,2019-04-14T22:46:31+02:00*
G04 #@! TF.ProjectId,VoltMax PWM,566f6c74-4d61-4782-9050-574d2e6b6963,rev?*
G04 #@! TF.SameCoordinates,Original*
G04 #@! TF.FileFunction,Legend,Bot*
G04 #@! TF.FilePolarity,Positive*
%FSLAX46Y46*%
G04 Gerber Fmt 4.6, Leading zero omitted, Abs format (unit mm)*
G04 Created by KiCad (PCBNEW 5.1.0-unknown-9e240db~82~ubuntu18.04.1) date 2019-04-14 22:46:31*
%MOMM*%
%LPD*%
G04 APERTURE LIST*
%ADD10C,0.200000*%
%ADD11C,0.100000*%
%ADD12C,0.120000*%
%ADD13C,0.254000*%
%ADD14C,0.150000*%
G04 APERTURE END LIST*
D10*
X121168095Y-98928571D02*
X121501428Y-98928571D01*
X121501428Y-99452380D02*
X121501428Y-98452380D01*
X121025238Y-98452380D01*
X120691904Y-98547619D02*
X120644285Y-98500000D01*
X120549047Y-98452380D01*
X120310952Y-98452380D01*
X120215714Y-98500000D01*
X120168095Y-98547619D01*
X120120476Y-98642857D01*
X120120476Y-98738095D01*
X120168095Y-98880952D01*
X120739523Y-99452380D01*
X120120476Y-99452380D01*
X121168095Y-101408571D02*
X121501428Y-101408571D01*
X121501428Y-101932380D02*
X121501428Y-100932380D01*
X121025238Y-100932380D01*
X120120476Y-101932380D02*
X120691904Y-101932380D01*
X120406190Y-101932380D02*
X120406190Y-100932380D01*
X120501428Y-101075238D01*
X120596666Y-101170476D01*
X120691904Y-101218095D01*
X183650000Y-103900000D02*
G75*
G02X183450000Y-103900000I-100000J0D01*
G01*
X183450000Y-103900000D02*
G75*
G02X183650000Y-103900000I100000J0D01*
G01*
X183450000Y-103900000D02*
X183450000Y-103900000D01*
X183650000Y-103900000D02*
X183650000Y-103900000D01*
D11*
X179200000Y-101950000D02*
X179200000Y-98500000D01*
X184100000Y-101950000D02*
X179200000Y-101950000D01*
X184100000Y-98500000D02*
X184100000Y-101950000D01*
D12*
X167790000Y-103320000D02*
X167790000Y-102880000D01*
X168810000Y-103320000D02*
X168810000Y-102880000D01*
X169790000Y-103320000D02*
X169790000Y-102880000D01*
X170810000Y-103320000D02*
X170810000Y-102880000D01*
X171790000Y-103320000D02*
X171790000Y-102880000D01*
X172810000Y-103320000D02*
X172810000Y-102880000D01*
X173790000Y-103320000D02*
X173790000Y-102880000D01*
X174810000Y-103320000D02*
X174810000Y-102880000D01*
D13*
X160140000Y-107523000D02*
G75*
G03X160140000Y-107523000I-52000J0D01*
G01*
X157650000Y-105200000D02*
X157650000Y-105800000D01*
X160550000Y-105200000D02*
X160550000Y-105800000D01*
D10*
X156650000Y-92950000D02*
X156650000Y-96650000D01*
X154150000Y-92165000D02*
X154150000Y-96650000D01*
X166480000Y-107475000D02*
X166480000Y-105950000D01*
X161450000Y-105600000D02*
X166350000Y-105600000D01*
X161450000Y-102400000D02*
X161450000Y-105600000D01*
X166350000Y-102400000D02*
X161450000Y-102400000D01*
X166350000Y-105600000D02*
X166350000Y-102400000D01*
D11*
X164075000Y-92825000D02*
X163775000Y-92825000D01*
X164075000Y-93200000D02*
X164075000Y-92825000D01*
X164075000Y-99375000D02*
X163675000Y-99375000D01*
X164075000Y-98875000D02*
X164075000Y-99375000D01*
X160525000Y-92825000D02*
X160525000Y-93275000D01*
X161000000Y-92825000D02*
X160525000Y-92825000D01*
X160525000Y-99075000D02*
X160330000Y-99075000D01*
X160850000Y-99375000D02*
X160525000Y-99075000D01*
X161325000Y-99375000D02*
X160850000Y-99375000D01*
D10*
X168225000Y-98310000D02*
X168800000Y-98310000D01*
X169150000Y-95350000D02*
X169150000Y-98250000D01*
X170250000Y-95350000D02*
X169150000Y-95350000D01*
X170250000Y-98250000D02*
X170250000Y-95350000D01*
X169150000Y-98250000D02*
X170250000Y-98250000D01*
D12*
X175820000Y-107510000D02*
X175380000Y-107510000D01*
X175820000Y-106490000D02*
X175380000Y-106490000D01*
X171880000Y-106490000D02*
X172320000Y-106490000D01*
X171880000Y-107510000D02*
X172320000Y-107510000D01*
X168280000Y-106490000D02*
X168720000Y-106490000D01*
X168280000Y-107510000D02*
X168720000Y-107510000D01*
D10*
X156600000Y-107250000D02*
X156600000Y-106050000D01*
X153650000Y-105700000D02*
X156550000Y-105700000D01*
X153650000Y-105100000D02*
X153650000Y-105700000D01*
X156550000Y-105100000D02*
X153650000Y-105100000D01*
X156550000Y-105700000D02*
X156550000Y-105100000D01*
D14*
X179097619Y-99754761D02*
X179050000Y-99659523D01*
X178954761Y-99564285D01*
X178811904Y-99421428D01*
X178764285Y-99326190D01*
X178764285Y-99230952D01*
X179002380Y-99278571D02*
X178954761Y-99183333D01*
X178859523Y-99088095D01*
X178669047Y-99040476D01*
X178335714Y-99040476D01*
X178145238Y-99088095D01*
X178050000Y-99183333D01*
X178002380Y-99278571D01*
X178002380Y-99469047D01*
X178050000Y-99564285D01*
X178145238Y-99659523D01*
X178335714Y-99707142D01*
X178669047Y-99707142D01*
X178859523Y-99659523D01*
X178954761Y-99564285D01*
X179002380Y-99469047D01*
X179002380Y-99278571D01*
X178097619Y-100088095D02*
X178050000Y-100135714D01*
X178002380Y-100230952D01*
X178002380Y-100469047D01*
X178050000Y-100564285D01*
X178097619Y-100611904D01*
X178192857Y-100659523D01*
X178288095Y-100659523D01*
X178430952Y-100611904D01*
X179002380Y-100040476D01*
X179002380Y-100659523D01*
X168466666Y-105457142D02*
X168514285Y-105504761D01*
X168657142Y-105552380D01*
X168752380Y-105552380D01*
X168895238Y-105504761D01*
X168990476Y-105409523D01*
X169038095Y-105314285D01*
X169085714Y-105123809D01*
X169085714Y-104980952D01*
X169038095Y-104790476D01*
X168990476Y-104695238D01*
X168895238Y-104600000D01*
X168752380Y-104552380D01*
X168657142Y-104552380D01*
X168514285Y-104600000D01*
X168466666Y-104647619D01*
X167514285Y-105552380D02*
X168085714Y-105552380D01*
X167800000Y-105552380D02*
X167800000Y-104552380D01*
X167895238Y-104695238D01*
X167990476Y-104790476D01*
X168085714Y-104838095D01*
X170466666Y-105457142D02*
X170514285Y-105504761D01*
X170657142Y-105552380D01*
X170752380Y-105552380D01*
X170895238Y-105504761D01*
X170990476Y-105409523D01*
X171038095Y-105314285D01*
X171085714Y-105123809D01*
X171085714Y-104980952D01*
X171038095Y-104790476D01*
X170990476Y-104695238D01*
X170895238Y-104600000D01*
X170752380Y-104552380D01*
X170657142Y-104552380D01*
X170514285Y-104600000D01*
X170466666Y-104647619D01*
X170085714Y-104647619D02*
X170038095Y-104600000D01*
X169942857Y-104552380D01*
X169704761Y-104552380D01*
X169609523Y-104600000D01*
X169561904Y-104647619D01*
X169514285Y-104742857D01*
X169514285Y-104838095D01*
X169561904Y-104980952D01*
X170133333Y-105552380D01*
X169514285Y-105552380D01*
X172466666Y-105457142D02*
X172514285Y-105504761D01*
X172657142Y-105552380D01*
X172752380Y-105552380D01*
X172895238Y-105504761D01*
X172990476Y-105409523D01*
X173038095Y-105314285D01*
X173085714Y-105123809D01*
X173085714Y-104980952D01*
X173038095Y-104790476D01*
X172990476Y-104695238D01*
X172895238Y-104600000D01*
X172752380Y-104552380D01*
X172657142Y-104552380D01*
X172514285Y-104600000D01*
X172466666Y-104647619D01*
X172133333Y-104552380D02*
X171514285Y-104552380D01*
X171847619Y-104933333D01*
X171704761Y-104933333D01*
X171609523Y-104980952D01*
X171561904Y-105028571D01*
X171514285Y-105123809D01*
X171514285Y-105361904D01*
X171561904Y-105457142D01*
X171609523Y-105504761D01*
X171704761Y-105552380D01*
X171990476Y-105552380D01*
X172085714Y-105504761D01*
X172133333Y-105457142D01*
X174466666Y-105457142D02*
X174514285Y-105504761D01*
X174657142Y-105552380D01*
X174752380Y-105552380D01*
X174895238Y-105504761D01*
X174990476Y-105409523D01*
X175038095Y-105314285D01*
X175085714Y-105123809D01*
X175085714Y-104980952D01*
X175038095Y-104790476D01*
X174990476Y-104695238D01*
X174895238Y-104600000D01*
X174752380Y-104552380D01*
X174657142Y-104552380D01*
X174514285Y-104600000D01*
X174466666Y-104647619D01*
X173609523Y-104885714D02*
X173609523Y-105552380D01*
X173847619Y-104504761D02*
X174085714Y-105219047D01*
X173466666Y-105219047D01*
X159738095Y-103052380D02*
X159738095Y-102052380D01*
X159500000Y-102052380D01*
X159357142Y-102100000D01*
X159261904Y-102195238D01*
X159214285Y-102290476D01*
X159166666Y-102480952D01*
X159166666Y-102623809D01*
X159214285Y-102814285D01*
X159261904Y-102909523D01*
X159357142Y-103004761D01*
X159500000Y-103052380D01*
X159738095Y-103052380D01*
X158214285Y-103052380D02*
X158785714Y-103052380D01*
X158500000Y-103052380D02*
X158500000Y-102052380D01*
X158595238Y-102195238D01*
X158690476Y-102290476D01*
X158785714Y-102338095D01*
X155852380Y-94061904D02*
X154852380Y-94061904D01*
X154852380Y-94300000D01*
X154900000Y-94442857D01*
X154995238Y-94538095D01*
X155090476Y-94585714D01*
X155280952Y-94633333D01*
X155423809Y-94633333D01*
X155614285Y-94585714D01*
X155709523Y-94538095D01*
X155804761Y-94442857D01*
X155852380Y-94300000D01*
X155852380Y-94061904D01*
X154947619Y-95014285D02*
X154900000Y-95061904D01*
X154852380Y-95157142D01*
X154852380Y-95395238D01*
X154900000Y-95490476D01*
X154947619Y-95538095D01*
X155042857Y-95585714D01*
X155138095Y-95585714D01*
X155280952Y-95538095D01*
X155852380Y-94966666D01*
X155852380Y-95585714D01*
X162852380Y-103023809D02*
X161852380Y-103023809D01*
X162757142Y-104071428D02*
X162804761Y-104023809D01*
X162852380Y-103880952D01*
X162852380Y-103785714D01*
X162804761Y-103642857D01*
X162709523Y-103547619D01*
X162614285Y-103500000D01*
X162423809Y-103452380D01*
X162280952Y-103452380D01*
X162090476Y-103500000D01*
X161995238Y-103547619D01*
X161900000Y-103642857D01*
X161852380Y-103785714D01*
X161852380Y-103880952D01*
X161900000Y-104023809D01*
X161947619Y-104071428D01*
X162852380Y-105023809D02*
X162852380Y-104452380D01*
X162852380Y-104738095D02*
X161852380Y-104738095D01*
X161995238Y-104642857D01*
X162090476Y-104547619D01*
X162138095Y-104452380D01*
X163652380Y-95123809D02*
X162652380Y-95123809D01*
X163557142Y-96171428D02*
X163604761Y-96123809D01*
X163652380Y-95980952D01*
X163652380Y-95885714D01*
X163604761Y-95742857D01*
X163509523Y-95647619D01*
X163414285Y-95600000D01*
X163223809Y-95552380D01*
X163080952Y-95552380D01*
X162890476Y-95600000D01*
X162795238Y-95647619D01*
X162700000Y-95742857D01*
X162652380Y-95885714D01*
X162652380Y-95980952D01*
X162700000Y-96123809D01*
X162747619Y-96171428D01*
X162747619Y-96552380D02*
X162700000Y-96600000D01*
X162652380Y-96695238D01*
X162652380Y-96933333D01*
X162700000Y-97028571D01*
X162747619Y-97076190D01*
X162842857Y-97123809D01*
X162938095Y-97123809D01*
X163080952Y-97076190D01*
X163652380Y-96504761D01*
X163652380Y-97123809D01*
X169195238Y-95047619D02*
X169290476Y-95000000D01*
X169385714Y-94904761D01*
X169528571Y-94761904D01*
X169623809Y-94714285D01*
X169719047Y-94714285D01*
X169671428Y-94952380D02*
X169766666Y-94904761D01*
X169861904Y-94809523D01*
X169909523Y-94619047D01*
X169909523Y-94285714D01*
X169861904Y-94095238D01*
X169766666Y-94000000D01*
X169671428Y-93952380D01*
X169480952Y-93952380D01*
X169385714Y-94000000D01*
X169290476Y-94095238D01*
X169242857Y-94285714D01*
X169242857Y-94619047D01*
X169290476Y-94809523D01*
X169385714Y-94904761D01*
X169480952Y-94952380D01*
X169671428Y-94952380D01*
X168290476Y-94952380D02*
X168861904Y-94952380D01*
X168576190Y-94952380D02*
X168576190Y-93952380D01*
X168671428Y-94095238D01*
X168766666Y-94190476D01*
X168861904Y-94238095D01*
X175766666Y-109052380D02*
X176100000Y-108576190D01*
X176338095Y-109052380D02*
X176338095Y-108052380D01*
X175957142Y-108052380D01*
X175861904Y-108100000D01*
X175814285Y-108147619D01*
X175766666Y-108242857D01*
X175766666Y-108385714D01*
X175814285Y-108480952D01*
X175861904Y-108528571D01*
X175957142Y-108576190D01*
X176338095Y-108576190D01*
X174814285Y-109052380D02*
X175385714Y-109052380D01*
X175100000Y-109052380D02*
X175100000Y-108052380D01*
X175195238Y-108195238D01*
X175290476Y-108290476D01*
X175385714Y-108338095D01*
X172266666Y-109052380D02*
X172600000Y-108576190D01*
X172838095Y-109052380D02*
X172838095Y-108052380D01*
X172457142Y-108052380D01*
X172361904Y-108100000D01*
X172314285Y-108147619D01*
X172266666Y-108242857D01*
X172266666Y-108385714D01*
X172314285Y-108480952D01*
X172361904Y-108528571D01*
X172457142Y-108576190D01*
X172838095Y-108576190D01*
X171885714Y-108147619D02*
X171838095Y-108100000D01*
X171742857Y-108052380D01*
X171504761Y-108052380D01*
X171409523Y-108100000D01*
X171361904Y-108147619D01*
X171314285Y-108242857D01*
X171314285Y-108338095D01*
X171361904Y-108480952D01*
X171933333Y-109052380D01*
X171314285Y-109052380D01*
X168666666Y-109052380D02*
X169000000Y-108576190D01*
X169238095Y-109052380D02*
X169238095Y-108052380D01*
X168857142Y-108052380D01*
X168761904Y-108100000D01*
X168714285Y-108147619D01*
X168666666Y-108242857D01*
X168666666Y-108385714D01*
X168714285Y-108480952D01*
X168761904Y-108528571D01*
X168857142Y-108576190D01*
X169238095Y-108576190D01*
X168333333Y-108052380D02*
X167714285Y-108052380D01*
X168047619Y-108433333D01*
X167904761Y-108433333D01*
X167809523Y-108480952D01*
X167761904Y-108528571D01*
X167714285Y-108623809D01*
X167714285Y-108861904D01*
X167761904Y-108957142D01*
X167809523Y-109004761D01*
X167904761Y-109052380D01*
X168190476Y-109052380D01*
X168285714Y-109004761D01*
X168333333Y-108957142D01*
X155761904Y-101752380D02*
X155761904Y-102561904D01*
X155714285Y-102657142D01*
X155666666Y-102704761D01*
X155571428Y-102752380D01*
X155380952Y-102752380D01*
X155285714Y-102704761D01*
X155238095Y-102657142D01*
X155190476Y-102561904D01*
X155190476Y-101752380D01*
X154190476Y-102752380D02*
X154761904Y-102752380D01*
X154476190Y-102752380D02*
X154476190Y-101752380D01*
X154571428Y-101895238D01*
X154666666Y-101990476D01*
X154761904Y-102038095D01*
X123823809Y-107952380D02*
X123490476Y-108952380D01*
X123157142Y-107952380D01*
X122823809Y-108952380D02*
X122823809Y-107952380D01*
X122490476Y-108666666D01*
X122157142Y-107952380D01*
X122157142Y-108952380D01*
X121680952Y-108571428D02*
X120919047Y-108571428D01*
X127023809Y-107952380D02*
X126690476Y-108952380D01*
X126357142Y-107952380D01*
X126023809Y-108952380D02*
X126023809Y-107952380D01*
X125690476Y-108666666D01*
X125357142Y-107952380D01*
X125357142Y-108952380D01*
X124880952Y-108571428D02*
X124119047Y-108571428D01*
X124500000Y-108952380D02*
X124500000Y-108190476D01*
M02*
