M48
; DRILL file {KiCad 5.1.0-unknown-9e240db~82~ubuntu18.04.1} date Mon 08 Apr 2019 12:45:14 AM CEST
; FORMAT={-:-/ absolute / metric / decimal}
; #@! TF.CreationDate,2019-04-08T00:45:14+02:00
; #@! TF.GenerationSoftware,Kicad,Pcbnew,5.1.0-unknown-9e240db~82~ubuntu18.04.1
; #@! TF.FileFunction,Plated,1,2,PTH
FMAT,2
METRIC
T1C0.300
T2C0.900
T3C1.100
T4C1.300
T5C1.700
T6C2.750
%
G90
G05
T1
X155.106Y-97.25
X155.541Y-94.8
X157.895Y-98.059
X158.986Y-97.447
X159.35Y-100.017
X159.615Y-92.106
X161.006Y-105.05
X163.524Y-105.05
X165.575Y-101.236
X165.779Y-95.365
X165.969Y-97.099
X166.64Y-99.875
X167.517Y-105.358
X169.828Y-94.744
X171.962Y-105.425
X173.831Y-94.669
X173.9Y-98.4
X173.947Y-107.427
X175.6Y-107.46
X176.5Y-90.9
X176.5Y-91.6
X176.5Y-92.3
X176.5Y-93.0
X176.5Y-93.7
X177.2Y-90.9
X177.2Y-91.6
X177.2Y-92.3
X177.2Y-93.0
X177.2Y-93.7
X177.9Y-90.9
X177.9Y-91.6
X177.9Y-92.3
X177.9Y-93.0
X177.9Y-93.7
X178.2Y-106.5
X178.2Y-107.2
X178.2Y-107.9
X178.2Y-108.6
X178.2Y-109.3
X178.6Y-90.9
X178.6Y-91.6
X178.6Y-92.3
X178.6Y-93.0
X178.6Y-93.7
X178.9Y-109.3
X179.3Y-90.9
X179.6Y-95.5
X179.6Y-96.2
X179.6Y-96.9
X179.6Y-97.6
X179.6Y-98.3
X179.6Y-99.0
X179.6Y-99.7
X179.6Y-100.4
X179.6Y-101.1
X179.6Y-105.1
X179.725Y-104.4
X180.3Y-96.2
X180.3Y-96.9
X180.3Y-97.6
X180.3Y-98.3
X180.3Y-99.0
X180.3Y-99.7
X180.3Y-100.4
X180.3Y-101.1
X180.4Y-104.4
X181.0Y-96.2
X181.0Y-96.9
X181.0Y-97.6
X181.0Y-98.3
X181.0Y-99.0
X181.0Y-99.7
X181.0Y-100.4
X181.0Y-101.1
X181.075Y-102.275
X181.075Y-102.975
X181.075Y-103.675
X181.075Y-104.375
X181.7Y-96.2
X181.7Y-96.9
X181.7Y-97.6
X181.7Y-98.3
X181.7Y-99.0
X181.7Y-99.7
X181.7Y-100.4
X181.7Y-101.1
X181.75Y-102.275
X181.75Y-102.975
X181.75Y-103.675
X181.75Y-104.375
X182.4Y-96.2
X182.4Y-96.9
X182.4Y-97.6
X182.4Y-98.3
X182.4Y-99.0
X182.4Y-99.7
X182.4Y-100.4
X182.4Y-101.1
X182.425Y-102.275
X182.425Y-102.975
X182.425Y-103.675
X182.425Y-104.375
X183.1Y-96.2
X183.1Y-96.9
X183.1Y-97.6
X183.1Y-98.3
X183.1Y-99.0
X183.1Y-99.7
X183.1Y-100.4
X183.1Y-101.1
X183.1Y-102.275
X183.1Y-102.975
X183.1Y-103.675
X183.1Y-104.375
X183.775Y-102.275
X183.775Y-102.975
X183.775Y-103.675
X183.775Y-104.375
X183.8Y-95.5
X183.8Y-96.2
X183.8Y-96.9
X183.8Y-97.6
X183.8Y-98.3
X183.8Y-99.0
X183.8Y-99.7
X183.8Y-100.4
X183.8Y-101.1
X183.8Y-105.1
T2
X170.34Y-100.144
X172.88Y-100.144
X176.73Y-98.14
X176.73Y-100.14
X176.73Y-102.14
T3
X122.98Y-98.91
X123.0Y-101.4
X173.1Y-96.5
X125.5Y-106.2
X122.8Y-106.2
T4
X176.73Y-96.04
X176.73Y-104.24
T5
X117.169Y-92.644
X117.169Y-107.644
X127.515Y-100.115
X171.309Y-92.644
T6
X181.6Y-107.22
X181.6Y-93.09
T0
M30
