G04 #@! TF.GenerationSoftware,KiCad,Pcbnew,5.1.0-unknown-9e240db~82~ubuntu18.04.1*
G04 #@! TF.CreationDate,2019-04-08T00:45:16+02:00*
G04 #@! TF.ProjectId,VoltMax PWM,566f6c74-4d61-4782-9050-574d2e6b6963,rev?*
G04 #@! TF.SameCoordinates,Original*
G04 #@! TF.FileFunction,Legend,Top*
G04 #@! TF.FilePolarity,Positive*
%FSLAX46Y46*%
G04 Gerber Fmt 4.6, Leading zero omitted, Abs format (unit mm)*
G04 Created by KiCad (PCBNEW 5.1.0-unknown-9e240db~82~ubuntu18.04.1) date 2019-04-08 00:45:16*
%MOMM*%
%LPD*%
G04 APERTURE LIST*
%ADD10C,0.150000*%
%ADD11C,0.200000*%
%ADD12C,0.250000*%
%ADD13C,0.120000*%
G04 APERTURE END LIST*
D10*
X176126071Y-93752380D02*
X176316547Y-93752380D01*
X176411785Y-93800000D01*
X176507023Y-93895238D01*
X176554642Y-94085714D01*
X176554642Y-94419047D01*
X176507023Y-94609523D01*
X176411785Y-94704761D01*
X176316547Y-94752380D01*
X176126071Y-94752380D01*
X176030833Y-94704761D01*
X175935595Y-94609523D01*
X175887976Y-94419047D01*
X175887976Y-94085714D01*
X175935595Y-93895238D01*
X176030833Y-93800000D01*
X176126071Y-93752380D01*
X176983214Y-94752380D02*
X176983214Y-93752380D01*
X177554642Y-94752380D01*
X177554642Y-93752380D01*
X118828928Y-97996171D02*
X118495595Y-97996171D01*
X118495595Y-98519980D02*
X118495595Y-97519980D01*
X118971785Y-97519980D01*
X164818695Y-98552380D02*
X164818695Y-97552380D01*
X165056790Y-97552380D01*
X165199647Y-97600000D01*
X165294885Y-97695238D01*
X165342504Y-97790476D01*
X165390123Y-97980952D01*
X165390123Y-98123809D01*
X165342504Y-98314285D01*
X165294885Y-98409523D01*
X165199647Y-98504761D01*
X165056790Y-98552380D01*
X164818695Y-98552380D01*
X158245595Y-97552380D02*
X158245595Y-98361904D01*
X158293214Y-98457142D01*
X158340833Y-98504761D01*
X158436071Y-98552380D01*
X158626547Y-98552380D01*
X158721785Y-98504761D01*
X158769404Y-98457142D01*
X158817023Y-98361904D01*
X158817023Y-97552380D01*
X137054309Y-108098380D02*
X137054309Y-108812666D01*
X137006690Y-108955523D01*
X136911452Y-109050761D01*
X136768595Y-109098380D01*
X136673357Y-109098380D01*
X138006690Y-109098380D02*
X137530500Y-109098380D01*
X137530500Y-108098380D01*
X138911452Y-109003142D02*
X138863833Y-109050761D01*
X138720976Y-109098380D01*
X138625738Y-109098380D01*
X138482880Y-109050761D01*
X138387642Y-108955523D01*
X138340023Y-108860285D01*
X138292404Y-108669809D01*
X138292404Y-108526952D01*
X138340023Y-108336476D01*
X138387642Y-108241238D01*
X138482880Y-108146000D01*
X138625738Y-108098380D01*
X138720976Y-108098380D01*
X138863833Y-108146000D01*
X138911452Y-108193619D01*
X139625738Y-108098380D02*
X139625738Y-108812666D01*
X139578119Y-108955523D01*
X139482880Y-109050761D01*
X139340023Y-109098380D01*
X139244785Y-109098380D01*
X140578119Y-109098380D02*
X140101928Y-109098380D01*
X140101928Y-108098380D01*
X141482880Y-109003142D02*
X141435261Y-109050761D01*
X141292404Y-109098380D01*
X141197166Y-109098380D01*
X141054309Y-109050761D01*
X140959071Y-108955523D01*
X140911452Y-108860285D01*
X140863833Y-108669809D01*
X140863833Y-108526952D01*
X140911452Y-108336476D01*
X140959071Y-108241238D01*
X141054309Y-108146000D01*
X141197166Y-108098380D01*
X141292404Y-108098380D01*
X141435261Y-108146000D01*
X141482880Y-108193619D01*
X142197166Y-108098380D02*
X142197166Y-108812666D01*
X142149547Y-108955523D01*
X142054309Y-109050761D01*
X141911452Y-109098380D01*
X141816214Y-109098380D01*
X143149547Y-109098380D02*
X142673357Y-109098380D01*
X142673357Y-108098380D01*
X144054309Y-109003142D02*
X144006690Y-109050761D01*
X143863833Y-109098380D01*
X143768595Y-109098380D01*
X143625738Y-109050761D01*
X143530500Y-108955523D01*
X143482880Y-108860285D01*
X143435261Y-108669809D01*
X143435261Y-108526952D01*
X143482880Y-108336476D01*
X143530500Y-108241238D01*
X143625738Y-108146000D01*
X143768595Y-108098380D01*
X143863833Y-108098380D01*
X144006690Y-108146000D01*
X144054309Y-108193619D01*
X144768595Y-108098380D02*
X144768595Y-108812666D01*
X144720976Y-108955523D01*
X144625738Y-109050761D01*
X144482880Y-109098380D01*
X144387642Y-109098380D01*
X145720976Y-109098380D02*
X145244785Y-109098380D01*
X145244785Y-108098380D01*
X146625738Y-109003142D02*
X146578119Y-109050761D01*
X146435261Y-109098380D01*
X146340023Y-109098380D01*
X146197166Y-109050761D01*
X146101928Y-108955523D01*
X146054309Y-108860285D01*
X146006690Y-108669809D01*
X146006690Y-108526952D01*
X146054309Y-108336476D01*
X146101928Y-108241238D01*
X146197166Y-108146000D01*
X146340023Y-108098380D01*
X146435261Y-108098380D01*
X146578119Y-108146000D01*
X146625738Y-108193619D01*
D11*
X175230000Y-104441000D02*
X174580000Y-104441000D01*
X175230000Y-95839000D02*
X174580000Y-95839000D01*
X178880000Y-104441000D02*
X178230000Y-104441000D01*
X174580000Y-95839000D02*
X174580000Y-104441000D01*
X178880000Y-95839000D02*
X178880000Y-104441000D01*
X178880000Y-95839000D02*
X178230000Y-95839000D01*
D10*
X171801000Y-100144000D02*
X171439000Y-100144000D01*
X171619000Y-101766000D02*
X171621000Y-98535000D01*
D12*
X173670000Y-99054000D02*
X173670000Y-98735000D01*
X173670000Y-101533000D02*
X173670000Y-101214000D01*
X169918194Y-99067201D02*
G75*
G02X173293330Y-99054000I1691806J-1076799D01*
G01*
X169936379Y-101229124D02*
G75*
G03X173293330Y-101214000I1673621J1085124D01*
G01*
X169358107Y-99068291D02*
G75*
G02X173670000Y-98735251I2251893J-1075709D01*
G01*
X169375410Y-101229739D02*
G75*
G03X173670000Y-101532749I2234590J1085739D01*
G01*
D13*
X171380000Y-104210000D02*
X171820000Y-104210000D01*
X171380000Y-103190000D02*
X171820000Y-103190000D01*
D12*
X121523000Y-97144000D02*
X121323000Y-97144000D01*
X121523000Y-97144000D02*
X121523000Y-103144000D01*
X115523000Y-97144000D02*
X115523000Y-103144000D01*
X119723000Y-97144000D02*
X117323000Y-97144000D01*
X119723000Y-103144000D02*
X117323000Y-103144000D01*
X121523000Y-103144000D02*
X121323000Y-103144000D01*
X115523000Y-97144000D02*
X115723000Y-97144000D01*
X115523000Y-103144000D02*
X115723000Y-103144000D01*
X119523000Y-100144000D02*
X117523000Y-100144000D01*
X118523000Y-99144000D02*
X118523000Y-101144000D01*
X161510000Y-97150000D02*
X161310000Y-97150000D01*
X161510000Y-97150000D02*
X161510000Y-103150000D01*
X155510000Y-97150000D02*
X155510000Y-103150000D01*
X159710000Y-97150000D02*
X157310000Y-97150000D01*
X159710000Y-103150000D02*
X157310000Y-103150000D01*
X161510000Y-103150000D02*
X161310000Y-103150000D01*
X155510000Y-97150000D02*
X155710000Y-97150000D01*
X155510000Y-103150000D02*
X155710000Y-103150000D01*
X159510000Y-100150000D02*
X157510000Y-100150000D01*
X158510000Y-99150000D02*
X158510000Y-101150000D01*
X165070000Y-101150000D02*
X165070000Y-99150000D01*
X164070000Y-100150000D02*
X166070000Y-100150000D01*
X168070000Y-97150000D02*
X167870000Y-97150000D01*
X168070000Y-103150000D02*
X167870000Y-103150000D01*
X162070000Y-97150000D02*
X162270000Y-97150000D01*
X163870000Y-97150000D02*
X166270000Y-97150000D01*
X163870000Y-103150000D02*
X166270000Y-103150000D01*
X168070000Y-103150000D02*
X168070000Y-97150000D01*
X162070000Y-103150000D02*
X162070000Y-97150000D01*
X162070000Y-103150000D02*
X162270000Y-103150000D01*
D10*
X180466666Y-96042380D02*
X179990476Y-96042380D01*
X179942857Y-96518571D01*
X179990476Y-96470952D01*
X180085714Y-96423333D01*
X180323809Y-96423333D01*
X180419047Y-96470952D01*
X180466666Y-96518571D01*
X180514285Y-96613809D01*
X180514285Y-96851904D01*
X180466666Y-96947142D01*
X180419047Y-96994761D01*
X180323809Y-97042380D01*
X180085714Y-97042380D01*
X179990476Y-96994761D01*
X179942857Y-96947142D01*
X181466666Y-97042380D02*
X180895238Y-97042380D01*
X181180952Y-97042380D02*
X181180952Y-96042380D01*
X181085714Y-96185238D01*
X180990476Y-96280476D01*
X180895238Y-96328095D01*
X182085714Y-96042380D02*
X182180952Y-96042380D01*
X182276190Y-96090000D01*
X182323809Y-96137619D01*
X182371428Y-96232857D01*
X182419047Y-96423333D01*
X182419047Y-96661428D01*
X182371428Y-96851904D01*
X182323809Y-96947142D01*
X182276190Y-96994761D01*
X182180952Y-97042380D01*
X182085714Y-97042380D01*
X181990476Y-96994761D01*
X181942857Y-96947142D01*
X181895238Y-96851904D01*
X181847619Y-96661428D01*
X181847619Y-96423333D01*
X181895238Y-96232857D01*
X181942857Y-96137619D01*
X181990476Y-96090000D01*
X182085714Y-96042380D01*
X182847619Y-96661428D02*
X183609523Y-96661428D01*
X180642857Y-103548571D02*
X180785714Y-103596190D01*
X180833333Y-103643809D01*
X180880952Y-103739047D01*
X180880952Y-103881904D01*
X180833333Y-103977142D01*
X180785714Y-104024761D01*
X180690476Y-104072380D01*
X180309523Y-104072380D01*
X180309523Y-103072380D01*
X180642857Y-103072380D01*
X180738095Y-103120000D01*
X180785714Y-103167619D01*
X180833333Y-103262857D01*
X180833333Y-103358095D01*
X180785714Y-103453333D01*
X180738095Y-103500952D01*
X180642857Y-103548571D01*
X180309523Y-103548571D01*
X181261904Y-103786666D02*
X181738095Y-103786666D01*
X181166666Y-104072380D02*
X181500000Y-103072380D01*
X181833333Y-104072380D01*
X182023809Y-103072380D02*
X182595238Y-103072380D01*
X182309523Y-104072380D02*
X182309523Y-103072380D01*
X182928571Y-103691428D02*
X183690476Y-103691428D01*
X169561904Y-97252380D02*
X169561904Y-96252380D01*
X169800000Y-96252380D01*
X169942857Y-96300000D01*
X170038095Y-96395238D01*
X170085714Y-96490476D01*
X170133333Y-96680952D01*
X170133333Y-96823809D01*
X170085714Y-97014285D01*
X170038095Y-97109523D01*
X169942857Y-97204761D01*
X169800000Y-97252380D01*
X169561904Y-97252380D01*
X170466666Y-96252380D02*
X171085714Y-96252380D01*
X170752380Y-96633333D01*
X170895238Y-96633333D01*
X170990476Y-96680952D01*
X171038095Y-96728571D01*
X171085714Y-96823809D01*
X171085714Y-97061904D01*
X171038095Y-97157142D01*
X170990476Y-97204761D01*
X170895238Y-97252380D01*
X170609523Y-97252380D01*
X170514285Y-97204761D01*
X170466666Y-97157142D01*
X171785714Y-94152380D02*
X172119047Y-95152380D01*
X172452380Y-94152380D01*
X172785714Y-95152380D02*
X172785714Y-94152380D01*
X173261904Y-95152380D02*
X173261904Y-94152380D01*
X173833333Y-95152380D01*
X173833333Y-94152380D01*
X174309523Y-94771428D02*
X175071428Y-94771428D01*
X174690476Y-95152380D02*
X174690476Y-94390476D01*
X171433333Y-105852380D02*
X171100000Y-105376190D01*
X170861904Y-105852380D02*
X170861904Y-104852380D01*
X171242857Y-104852380D01*
X171338095Y-104900000D01*
X171385714Y-104947619D01*
X171433333Y-105042857D01*
X171433333Y-105185714D01*
X171385714Y-105280952D01*
X171338095Y-105328571D01*
X171242857Y-105376190D01*
X170861904Y-105376190D01*
X172338095Y-104852380D02*
X171861904Y-104852380D01*
X171814285Y-105328571D01*
X171861904Y-105280952D01*
X171957142Y-105233333D01*
X172195238Y-105233333D01*
X172290476Y-105280952D01*
X172338095Y-105328571D01*
X172385714Y-105423809D01*
X172385714Y-105661904D01*
X172338095Y-105757142D01*
X172290476Y-105804761D01*
X172195238Y-105852380D01*
X171957142Y-105852380D01*
X171861904Y-105804761D01*
X171814285Y-105757142D01*
X123177761Y-100905904D02*
X123225380Y-100763047D01*
X123225380Y-100524952D01*
X123177761Y-100429714D01*
X123130142Y-100382095D01*
X123034904Y-100334476D01*
X122939666Y-100334476D01*
X122844428Y-100382095D01*
X122796809Y-100429714D01*
X122749190Y-100524952D01*
X122701571Y-100715428D01*
X122653952Y-100810666D01*
X122606333Y-100858285D01*
X122511095Y-100905904D01*
X122415857Y-100905904D01*
X122320619Y-100858285D01*
X122273000Y-100810666D01*
X122225380Y-100715428D01*
X122225380Y-100477333D01*
X122273000Y-100334476D01*
X123225380Y-99382095D02*
X123225380Y-99953523D01*
X123225380Y-99667809D02*
X122225380Y-99667809D01*
X122368238Y-99763047D01*
X122463476Y-99858285D01*
X122511095Y-99953523D01*
X163164761Y-100911904D02*
X163212380Y-100769047D01*
X163212380Y-100530952D01*
X163164761Y-100435714D01*
X163117142Y-100388095D01*
X163021904Y-100340476D01*
X162926666Y-100340476D01*
X162831428Y-100388095D01*
X162783809Y-100435714D01*
X162736190Y-100530952D01*
X162688571Y-100721428D01*
X162640952Y-100816666D01*
X162593333Y-100864285D01*
X162498095Y-100911904D01*
X162402857Y-100911904D01*
X162307619Y-100864285D01*
X162260000Y-100816666D01*
X162212380Y-100721428D01*
X162212380Y-100483333D01*
X162260000Y-100340476D01*
X162307619Y-99959523D02*
X162260000Y-99911904D01*
X162212380Y-99816666D01*
X162212380Y-99578571D01*
X162260000Y-99483333D01*
X162307619Y-99435714D01*
X162402857Y-99388095D01*
X162498095Y-99388095D01*
X162640952Y-99435714D01*
X163212380Y-100007142D01*
X163212380Y-99388095D01*
X161224761Y-100911904D02*
X161272380Y-100769047D01*
X161272380Y-100530952D01*
X161224761Y-100435714D01*
X161177142Y-100388095D01*
X161081904Y-100340476D01*
X160986666Y-100340476D01*
X160891428Y-100388095D01*
X160843809Y-100435714D01*
X160796190Y-100530952D01*
X160748571Y-100721428D01*
X160700952Y-100816666D01*
X160653333Y-100864285D01*
X160558095Y-100911904D01*
X160462857Y-100911904D01*
X160367619Y-100864285D01*
X160320000Y-100816666D01*
X160272380Y-100721428D01*
X160272380Y-100483333D01*
X160320000Y-100340476D01*
X160272380Y-100007142D02*
X160272380Y-99388095D01*
X160653333Y-99721428D01*
X160653333Y-99578571D01*
X160700952Y-99483333D01*
X160748571Y-99435714D01*
X160843809Y-99388095D01*
X161081904Y-99388095D01*
X161177142Y-99435714D01*
X161224761Y-99483333D01*
X161272380Y-99578571D01*
X161272380Y-99864285D01*
X161224761Y-99959523D01*
X161177142Y-100007142D01*
M02*
