M48
; DRILL file {KiCad 5.1.0-unknown-ff73f69~82~ubuntu18.04.1} date Tue 26 Mar 2019 10:56:04 PM CET
; FORMAT={-:-/ absolute / metric / decimal}
; #@! TF.CreationDate,2019-03-26T22:56:04+01:00
; #@! TF.GenerationSoftware,Kicad,Pcbnew,5.1.0-unknown-ff73f69~82~ubuntu18.04.1
; #@! TF.FileFunction,Plated,1,2,PTH
FMAT,2
METRIC
T1C0.300
T2C0.800
T3C0.900
T4C1.000
T5C1.100
T6C1.300
T7C1.700
%
G90
G05
T1
X164.32Y-107.57
T2
X159.462Y-108.844
X155.262Y-108.844
X157.362Y-108.844
T3
X170.34Y-100.144
X172.88Y-100.144
X176.73Y-98.14
X176.73Y-100.14
X176.73Y-102.14
T4
X167.783Y-108.668
X170.323Y-108.668
X172.863Y-108.668
X175.403Y-108.668
X177.943Y-108.668
X180.483Y-108.668
X183.023Y-101.048
X183.023Y-103.588
X183.023Y-106.128
X183.023Y-108.668
T5
X182.898Y-98.13
X123.45Y-103.064
X123.446Y-97.203
T6
X176.73Y-96.04
X176.73Y-104.24
T7
X171.309Y-92.644
X127.515Y-100.115
X117.169Y-107.644
X117.169Y-92.644
T0
M30
