G04 #@! TF.GenerationSoftware,KiCad,Pcbnew,5.1.0-unknown-ff73f69~82~ubuntu18.04.1*
G04 #@! TF.CreationDate,2019-03-26T22:56:15+01:00*
G04 #@! TF.ProjectId,ATI DNA-C PCB Smart PWM v3,41544920-444e-4412-9d43-205043422053,rev?*
G04 #@! TF.SameCoordinates,Original*
G04 #@! TF.FileFunction,Copper,L1,Top*
G04 #@! TF.FilePolarity,Positive*
%FSLAX46Y46*%
G04 Gerber Fmt 4.6, Leading zero omitted, Abs format (unit mm)*
G04 Created by KiCad (PCBNEW 5.1.0-unknown-ff73f69~82~ubuntu18.04.1) date 2019-03-26 22:56:15*
%MOMM*%
%LPD*%
G04 APERTURE LIST*
%ADD10C,0.100000*%
%ADD11C,1.700000*%
%ADD12R,1.700000X1.700000*%
%ADD13C,1.400000*%
%ADD14C,1.800000*%
%ADD15C,2.000000*%
%ADD16R,1.800000X1.800000*%
%ADD17C,1.300000*%
%ADD18C,3.200000*%
%ADD19R,0.970000X1.500000*%
%ADD20R,1.000000X2.800000*%
%ADD21C,0.600000*%
%ADD22C,0.600000*%
G04 APERTURE END LIST*
D10*
G36*
X176980000Y-98789000D02*
G01*
X177082000Y-98781000D01*
X177181000Y-98757000D01*
X177275000Y-98718000D01*
X177361000Y-98665000D01*
X177439000Y-98599000D01*
X177505000Y-98521000D01*
X177558000Y-98435000D01*
X177597000Y-98341000D01*
X177621000Y-98242000D01*
X177629000Y-98140000D01*
X177621000Y-98038000D01*
X177597000Y-97939000D01*
X177558000Y-97845000D01*
X177505000Y-97759000D01*
X177439000Y-97681000D01*
X177361000Y-97615000D01*
X177275000Y-97562000D01*
X177181000Y-97523000D01*
X177082000Y-97499000D01*
X176980000Y-97491000D01*
X176480000Y-97491000D01*
X176378000Y-97499000D01*
X176279000Y-97523000D01*
X176185000Y-97562000D01*
X176099000Y-97615000D01*
X176021000Y-97681000D01*
X175955000Y-97759000D01*
X175902000Y-97845000D01*
X175863000Y-97939000D01*
X175839000Y-98038000D01*
X175831000Y-98140000D01*
X175839000Y-98242000D01*
X175863000Y-98341000D01*
X175902000Y-98435000D01*
X175955000Y-98521000D01*
X176021000Y-98599000D01*
X176099000Y-98665000D01*
X176185000Y-98718000D01*
X176279000Y-98757000D01*
X176378000Y-98781000D01*
X176480000Y-98789000D01*
X176980000Y-98789000D01*
G37*
G36*
X176980000Y-100789000D02*
G01*
X177082000Y-100781000D01*
X177181000Y-100757000D01*
X177275000Y-100718000D01*
X177361000Y-100665000D01*
X177439000Y-100599000D01*
X177505000Y-100521000D01*
X177558000Y-100435000D01*
X177597000Y-100341000D01*
X177621000Y-100242000D01*
X177629000Y-100140000D01*
X177621000Y-100038000D01*
X177597000Y-99939000D01*
X177558000Y-99845000D01*
X177505000Y-99759000D01*
X177439000Y-99681000D01*
X177361000Y-99615000D01*
X177275000Y-99562000D01*
X177181000Y-99523000D01*
X177082000Y-99499000D01*
X176980000Y-99491000D01*
X176480000Y-99491000D01*
X176378000Y-99499000D01*
X176279000Y-99523000D01*
X176185000Y-99562000D01*
X176099000Y-99615000D01*
X176021000Y-99681000D01*
X175955000Y-99759000D01*
X175902000Y-99845000D01*
X175863000Y-99939000D01*
X175839000Y-100038000D01*
X175831000Y-100140000D01*
X175839000Y-100242000D01*
X175863000Y-100341000D01*
X175902000Y-100435000D01*
X175955000Y-100521000D01*
X176021000Y-100599000D01*
X176099000Y-100665000D01*
X176185000Y-100718000D01*
X176279000Y-100757000D01*
X176378000Y-100781000D01*
X176480000Y-100789000D01*
X176980000Y-100789000D01*
G37*
G36*
X176980000Y-102789000D02*
G01*
X177082000Y-102781000D01*
X177181000Y-102757000D01*
X177275000Y-102718000D01*
X177361000Y-102665000D01*
X177439000Y-102599000D01*
X177505000Y-102521000D01*
X177558000Y-102435000D01*
X177597000Y-102341000D01*
X177621000Y-102242000D01*
X177629000Y-102140000D01*
X177621000Y-102038000D01*
X177597000Y-101939000D01*
X177558000Y-101845000D01*
X177505000Y-101759000D01*
X177439000Y-101681000D01*
X177361000Y-101615000D01*
X177275000Y-101562000D01*
X177181000Y-101523000D01*
X177082000Y-101499000D01*
X176980000Y-101491000D01*
X176480000Y-101491000D01*
X176378000Y-101499000D01*
X176279000Y-101523000D01*
X176185000Y-101562000D01*
X176099000Y-101615000D01*
X176021000Y-101681000D01*
X175955000Y-101759000D01*
X175902000Y-101845000D01*
X175863000Y-101939000D01*
X175839000Y-102038000D01*
X175831000Y-102140000D01*
X175839000Y-102242000D01*
X175863000Y-102341000D01*
X175902000Y-102435000D01*
X175955000Y-102521000D01*
X176021000Y-102599000D01*
X176099000Y-102665000D01*
X176185000Y-102718000D01*
X176279000Y-102757000D01*
X176378000Y-102781000D01*
X176480000Y-102789000D01*
X176980000Y-102789000D01*
G37*
G36*
X176980000Y-96889000D02*
G01*
X177113000Y-96879000D01*
X177242000Y-96847000D01*
X177365000Y-96796000D01*
X177479000Y-96727000D01*
X177580000Y-96640000D01*
X177667000Y-96539000D01*
X177736000Y-96425000D01*
X177787000Y-96302000D01*
X177819000Y-96173000D01*
X177829000Y-96040000D01*
X177819000Y-95907000D01*
X177787000Y-95778000D01*
X177736000Y-95655000D01*
X177667000Y-95541000D01*
X177580000Y-95440000D01*
X177479000Y-95353000D01*
X177365000Y-95284000D01*
X177242000Y-95233000D01*
X177113000Y-95201000D01*
X176980000Y-95191000D01*
X176480000Y-95191000D01*
X176347000Y-95201000D01*
X176218000Y-95233000D01*
X176095000Y-95284000D01*
X175981000Y-95353000D01*
X175880000Y-95440000D01*
X175793000Y-95541000D01*
X175724000Y-95655000D01*
X175673000Y-95778000D01*
X175641000Y-95907000D01*
X175631000Y-96040000D01*
X175641000Y-96173000D01*
X175673000Y-96302000D01*
X175724000Y-96425000D01*
X175793000Y-96539000D01*
X175880000Y-96640000D01*
X175981000Y-96727000D01*
X176095000Y-96796000D01*
X176218000Y-96847000D01*
X176347000Y-96879000D01*
X176480000Y-96889000D01*
X176980000Y-96889000D01*
G37*
G36*
X176980000Y-105089000D02*
G01*
X177113000Y-105079000D01*
X177242000Y-105047000D01*
X177365000Y-104996000D01*
X177479000Y-104927000D01*
X177580000Y-104840000D01*
X177667000Y-104739000D01*
X177736000Y-104625000D01*
X177787000Y-104502000D01*
X177819000Y-104373000D01*
X177829000Y-104240000D01*
X177819000Y-104107000D01*
X177787000Y-103978000D01*
X177736000Y-103855000D01*
X177667000Y-103741000D01*
X177580000Y-103640000D01*
X177479000Y-103553000D01*
X177365000Y-103484000D01*
X177242000Y-103433000D01*
X177113000Y-103401000D01*
X176980000Y-103391000D01*
X176480000Y-103391000D01*
X176347000Y-103401000D01*
X176218000Y-103433000D01*
X176095000Y-103484000D01*
X175981000Y-103553000D01*
X175880000Y-103640000D01*
X175793000Y-103741000D01*
X175724000Y-103855000D01*
X175673000Y-103978000D01*
X175641000Y-104107000D01*
X175631000Y-104240000D01*
X175641000Y-104373000D01*
X175673000Y-104502000D01*
X175724000Y-104625000D01*
X175793000Y-104739000D01*
X175880000Y-104840000D01*
X175981000Y-104927000D01*
X176095000Y-104996000D01*
X176218000Y-105047000D01*
X176347000Y-105079000D01*
X176480000Y-105089000D01*
X176980000Y-105089000D01*
G37*
D11*
X159462000Y-108844000D03*
X155262000Y-108844000D03*
X157362000Y-108844000D03*
D12*
X167783000Y-108668000D03*
D13*
X170323000Y-108668000D03*
D14*
X172863000Y-108668000D03*
D13*
X175403000Y-108668000D03*
D14*
X177943000Y-108668000D03*
X183023000Y-108668000D03*
X183023000Y-106128000D03*
X183023000Y-103588000D03*
D12*
X183023000Y-101048000D03*
D14*
X180483000Y-108668000D03*
D15*
X123446000Y-97203000D03*
X123450000Y-103064000D03*
D16*
X170340000Y-100144000D03*
X172880000Y-100144000D03*
D15*
X182898000Y-98130000D03*
D17*
X176730000Y-98140000D03*
X176730000Y-100140000D03*
X176730000Y-102140000D03*
D11*
X176730000Y-96040000D03*
X176730000Y-104240000D03*
D18*
X127515000Y-100115000D03*
X171309000Y-92643600D03*
X117169000Y-107644000D03*
X117169000Y-92643600D03*
D19*
X170704000Y-104111000D03*
X172614000Y-104111000D03*
D20*
X120523000Y-97244000D03*
X120523000Y-103044000D03*
X116523000Y-97244000D03*
X116523000Y-103044000D03*
X160510000Y-97244000D03*
X160510000Y-103044000D03*
X156510000Y-97244000D03*
X156510000Y-103044000D03*
X163062000Y-103044000D03*
X163062000Y-97244000D03*
X167062000Y-103044000D03*
X167062000Y-97244000D03*
D21*
X164320000Y-107570000D03*
D22*
X116523000Y-103044000D02*
X116523000Y-105044000D01*
X116523000Y-105044000D02*
X121470000Y-105044000D01*
X121470000Y-105044000D02*
X123450000Y-103064000D01*
X116523000Y-103044000D02*
X116523000Y-97244000D01*
X128566000Y-108180000D02*
X123450000Y-103064000D01*
X171155000Y-106960000D02*
X166274200Y-106960000D01*
X172863000Y-108668000D02*
X171155000Y-106960000D01*
X166274200Y-106960000D02*
X165283100Y-105968900D01*
X165283100Y-105968900D02*
X156017700Y-105968900D01*
X153806600Y-108180000D02*
X128566000Y-108180000D01*
X156017700Y-105968900D02*
X153806600Y-108180000D01*
X156510000Y-103044000D02*
X156510000Y-97244000D01*
X179880000Y-102090000D02*
X181378000Y-103588000D01*
X179880000Y-95390000D02*
X179880000Y-102090000D01*
X179115000Y-94625000D02*
X179880000Y-95390000D01*
X174375000Y-94625000D02*
X179115000Y-94625000D01*
X156510000Y-95244000D02*
X157614000Y-94140000D01*
X156510000Y-97244000D02*
X156510000Y-95244000D01*
X181378000Y-103588000D02*
X183023000Y-103588000D01*
X157614000Y-94140000D02*
X168630000Y-94140000D01*
X168630000Y-94140000D02*
X169740000Y-95250000D01*
X169740000Y-95250000D02*
X173750000Y-95250000D01*
X173750000Y-95250000D02*
X174375000Y-94625000D01*
X167062000Y-105044000D02*
X168146000Y-106128000D01*
X168146000Y-106128000D02*
X183023000Y-106128000D01*
X167062000Y-97244000D02*
X167062000Y-103044000D01*
X167062000Y-103044000D02*
X167062000Y-105044000D01*
X163062000Y-97994000D02*
X163062000Y-99244000D01*
X163062000Y-97244000D02*
X163062000Y-97994000D01*
X161261300Y-99244000D02*
X160510000Y-99244000D01*
X163062000Y-99244000D02*
X161261300Y-99244000D01*
X161261300Y-99244000D02*
X161261300Y-101044000D01*
X120523000Y-97244000D02*
X120523000Y-95244000D01*
X123446000Y-97203000D02*
X121487000Y-95244000D01*
X121487000Y-95244000D02*
X120523000Y-95244000D01*
X120523000Y-97244000D02*
X120523000Y-103044000D01*
X160510000Y-103044000D02*
X160510000Y-101044000D01*
X161261300Y-101044000D02*
X160510000Y-101044000D01*
X161261300Y-101044000D02*
X163062000Y-101044000D01*
X163062000Y-103044000D02*
X163062000Y-101044000D01*
X160510000Y-97244000D02*
X160510000Y-99244000D01*
X157336800Y-106769200D02*
X155262000Y-108844000D01*
X167783000Y-108668000D02*
X166721000Y-108668000D01*
X164822200Y-106769200D02*
X157336800Y-106769200D01*
X166721000Y-108668000D02*
X164822200Y-106769200D01*
X167766000Y-95030000D02*
X172880000Y-100144000D01*
X163062000Y-97994000D02*
X166026000Y-95030000D01*
X166026000Y-95030000D02*
X167766000Y-95030000D01*
X176686758Y-100140000D02*
X176730000Y-100140000D01*
X173699000Y-103127758D02*
X176686758Y-100140000D01*
X172614000Y-104111000D02*
X173699000Y-104111000D01*
X173699000Y-104111000D02*
X173699000Y-103127758D01*
X170346294Y-100150294D02*
X170340000Y-100144000D01*
X170704000Y-104111000D02*
X170704000Y-102761000D01*
X170346294Y-102403294D02*
X170346294Y-100150294D01*
X170704000Y-102761000D02*
X170346294Y-102403294D01*
X158636500Y-107569500D02*
X164327000Y-107569500D01*
X157362000Y-108844000D02*
X158636500Y-107569500D01*
M02*
