G04 #@! TF.GenerationSoftware,KiCad,Pcbnew,5.1.0-unknown-7e34a5a~82~ubuntu18.04.1*
G04 #@! TF.CreationDate,2019-03-18T01:41:40+01:00*
G04 #@! TF.ProjectId,ATI DNA-C PCB Smart PWM v3,41544920-444e-4412-9d43-205043422053,rev?*
G04 #@! TF.SameCoordinates,Original*
G04 #@! TF.FileFunction,Legend,Top*
G04 #@! TF.FilePolarity,Positive*
%FSLAX46Y46*%
G04 Gerber Fmt 4.6, Leading zero omitted, Abs format (unit mm)*
G04 Created by KiCad (PCBNEW 5.1.0-unknown-7e34a5a~82~ubuntu18.04.1) date 2019-03-18 01:41:40*
%MOMM*%
%LPD*%
G04 APERTURE LIST*
%ADD10C,0.150000*%
%ADD11C,0.250000*%
%ADD12C,0.200000*%
G04 APERTURE END LIST*
D10*
X176186071Y-93322380D02*
X176376547Y-93322380D01*
X176471785Y-93370000D01*
X176567023Y-93465238D01*
X176614642Y-93655714D01*
X176614642Y-93989047D01*
X176567023Y-94179523D01*
X176471785Y-94274761D01*
X176376547Y-94322380D01*
X176186071Y-94322380D01*
X176090833Y-94274761D01*
X175995595Y-94179523D01*
X175947976Y-93989047D01*
X175947976Y-93655714D01*
X175995595Y-93465238D01*
X176090833Y-93370000D01*
X176186071Y-93322380D01*
X177043214Y-94322380D02*
X177043214Y-93322380D01*
X177614642Y-94322380D01*
X177614642Y-93322380D01*
X118828928Y-95496171D02*
X118495595Y-95496171D01*
X118495595Y-96019980D02*
X118495595Y-95019980D01*
X118971785Y-95019980D01*
X165018695Y-96352380D02*
X165018695Y-95352380D01*
X165256790Y-95352380D01*
X165399647Y-95400000D01*
X165494885Y-95495238D01*
X165542504Y-95590476D01*
X165590123Y-95780952D01*
X165590123Y-95923809D01*
X165542504Y-96114285D01*
X165494885Y-96209523D01*
X165399647Y-96304761D01*
X165256790Y-96352380D01*
X165018695Y-96352380D01*
X158245595Y-95352380D02*
X158245595Y-96161904D01*
X158293214Y-96257142D01*
X158340833Y-96304761D01*
X158436071Y-96352380D01*
X158626547Y-96352380D01*
X158721785Y-96304761D01*
X158769404Y-96257142D01*
X158817023Y-96161904D01*
X158817023Y-95352380D01*
X137054309Y-108098380D02*
X137054309Y-108812666D01*
X137006690Y-108955523D01*
X136911452Y-109050761D01*
X136768595Y-109098380D01*
X136673357Y-109098380D01*
X138006690Y-109098380D02*
X137530500Y-109098380D01*
X137530500Y-108098380D01*
X138911452Y-109003142D02*
X138863833Y-109050761D01*
X138720976Y-109098380D01*
X138625738Y-109098380D01*
X138482880Y-109050761D01*
X138387642Y-108955523D01*
X138340023Y-108860285D01*
X138292404Y-108669809D01*
X138292404Y-108526952D01*
X138340023Y-108336476D01*
X138387642Y-108241238D01*
X138482880Y-108146000D01*
X138625738Y-108098380D01*
X138720976Y-108098380D01*
X138863833Y-108146000D01*
X138911452Y-108193619D01*
X139625738Y-108098380D02*
X139625738Y-108812666D01*
X139578119Y-108955523D01*
X139482880Y-109050761D01*
X139340023Y-109098380D01*
X139244785Y-109098380D01*
X140578119Y-109098380D02*
X140101928Y-109098380D01*
X140101928Y-108098380D01*
X141482880Y-109003142D02*
X141435261Y-109050761D01*
X141292404Y-109098380D01*
X141197166Y-109098380D01*
X141054309Y-109050761D01*
X140959071Y-108955523D01*
X140911452Y-108860285D01*
X140863833Y-108669809D01*
X140863833Y-108526952D01*
X140911452Y-108336476D01*
X140959071Y-108241238D01*
X141054309Y-108146000D01*
X141197166Y-108098380D01*
X141292404Y-108098380D01*
X141435261Y-108146000D01*
X141482880Y-108193619D01*
X142197166Y-108098380D02*
X142197166Y-108812666D01*
X142149547Y-108955523D01*
X142054309Y-109050761D01*
X141911452Y-109098380D01*
X141816214Y-109098380D01*
X143149547Y-109098380D02*
X142673357Y-109098380D01*
X142673357Y-108098380D01*
X144054309Y-109003142D02*
X144006690Y-109050761D01*
X143863833Y-109098380D01*
X143768595Y-109098380D01*
X143625738Y-109050761D01*
X143530500Y-108955523D01*
X143482880Y-108860285D01*
X143435261Y-108669809D01*
X143435261Y-108526952D01*
X143482880Y-108336476D01*
X143530500Y-108241238D01*
X143625738Y-108146000D01*
X143768595Y-108098380D01*
X143863833Y-108098380D01*
X144006690Y-108146000D01*
X144054309Y-108193619D01*
X144768595Y-108098380D02*
X144768595Y-108812666D01*
X144720976Y-108955523D01*
X144625738Y-109050761D01*
X144482880Y-109098380D01*
X144387642Y-109098380D01*
X145720976Y-109098380D02*
X145244785Y-109098380D01*
X145244785Y-108098380D01*
X146625738Y-109003142D02*
X146578119Y-109050761D01*
X146435261Y-109098380D01*
X146340023Y-109098380D01*
X146197166Y-109050761D01*
X146101928Y-108955523D01*
X146054309Y-108860285D01*
X146006690Y-108669809D01*
X146006690Y-108526952D01*
X146054309Y-108336476D01*
X146101928Y-108241238D01*
X146197166Y-108146000D01*
X146340023Y-108098380D01*
X146435261Y-108098380D01*
X146578119Y-108146000D01*
X146625738Y-108193619D01*
X171801000Y-100144000D02*
X171439000Y-100144000D01*
X171619000Y-101766000D02*
X171621000Y-98535000D01*
D11*
X173670000Y-99054000D02*
X173670000Y-98735000D01*
X173670000Y-101533000D02*
X173670000Y-101214000D01*
X169918194Y-99067201D02*
G75*
G02X173293330Y-99054000I1691806J-1076799D01*
G01*
X169936379Y-101229124D02*
G75*
G03X173293330Y-101214000I1673621J1085124D01*
G01*
X169358107Y-99068291D02*
G75*
G02X173670000Y-98735251I2251893J-1075709D01*
G01*
X169375410Y-101229739D02*
G75*
G03X173670000Y-101532749I2234590J1085739D01*
G01*
D12*
X178880000Y-95839000D02*
X178230000Y-95839000D01*
X178880000Y-95839000D02*
X178880000Y-104441000D01*
X174580000Y-95839000D02*
X174580000Y-104441000D01*
X178880000Y-104441000D02*
X178230000Y-104441000D01*
X175230000Y-95839000D02*
X174580000Y-95839000D01*
X175230000Y-104441000D02*
X174580000Y-104441000D01*
D11*
X171809000Y-103401000D02*
X171509000Y-103401000D01*
X171809000Y-104821000D02*
X171509000Y-104821000D01*
X121523000Y-97144000D02*
X121323000Y-97144000D01*
X121523000Y-97144000D02*
X121523000Y-103144000D01*
X115523000Y-97144000D02*
X115523000Y-103144000D01*
X119723000Y-97144000D02*
X117323000Y-97144000D01*
X119723000Y-103144000D02*
X117323000Y-103144000D01*
X121523000Y-103144000D02*
X121323000Y-103144000D01*
X115523000Y-97144000D02*
X115723000Y-97144000D01*
X115523000Y-103144000D02*
X115723000Y-103144000D01*
X119523000Y-100144000D02*
X117523000Y-100144000D01*
X118523000Y-99144000D02*
X118523000Y-101144000D01*
X161510000Y-97144000D02*
X161310000Y-97144000D01*
X161510000Y-97144000D02*
X161510000Y-103144000D01*
X155510000Y-97144000D02*
X155510000Y-103144000D01*
X159710000Y-97144000D02*
X157310000Y-97144000D01*
X159710000Y-103144000D02*
X157310000Y-103144000D01*
X161510000Y-103144000D02*
X161310000Y-103144000D01*
X155510000Y-97144000D02*
X155710000Y-97144000D01*
X155510000Y-103144000D02*
X155710000Y-103144000D01*
X159510000Y-100144000D02*
X157510000Y-100144000D01*
X158510000Y-99144000D02*
X158510000Y-101144000D01*
X162062000Y-103144000D02*
X162262000Y-103144000D01*
X162062000Y-103144000D02*
X162062000Y-97144000D01*
X168062000Y-103144000D02*
X168062000Y-97144000D01*
X163862000Y-103144000D02*
X166262000Y-103144000D01*
X163862000Y-97144000D02*
X166262000Y-97144000D01*
X162062000Y-97144000D02*
X162262000Y-97144000D01*
X168062000Y-103144000D02*
X167862000Y-103144000D01*
X168062000Y-97144000D02*
X167862000Y-97144000D01*
X164062000Y-100144000D02*
X166062000Y-100144000D01*
X165062000Y-101144000D02*
X165062000Y-99144000D01*
D10*
X170891904Y-96889380D02*
X170891904Y-95889380D01*
X171130000Y-95889380D01*
X171272857Y-95937000D01*
X171368095Y-96032238D01*
X171415714Y-96127476D01*
X171463333Y-96317952D01*
X171463333Y-96460809D01*
X171415714Y-96651285D01*
X171368095Y-96746523D01*
X171272857Y-96841761D01*
X171130000Y-96889380D01*
X170891904Y-96889380D01*
X172415714Y-96889380D02*
X171844285Y-96889380D01*
X172130000Y-96889380D02*
X172130000Y-95889380D01*
X172034761Y-96032238D01*
X171939523Y-96127476D01*
X171844285Y-96175095D01*
X171489333Y-106605380D02*
X171156000Y-106129190D01*
X170917904Y-106605380D02*
X170917904Y-105605380D01*
X171298857Y-105605380D01*
X171394095Y-105653000D01*
X171441714Y-105700619D01*
X171489333Y-105795857D01*
X171489333Y-105938714D01*
X171441714Y-106033952D01*
X171394095Y-106081571D01*
X171298857Y-106129190D01*
X170917904Y-106129190D01*
X172441714Y-106605380D02*
X171870285Y-106605380D01*
X172156000Y-106605380D02*
X172156000Y-105605380D01*
X172060761Y-105748238D01*
X171965523Y-105843476D01*
X171870285Y-105891095D01*
M02*
