G04 #@! TF.GenerationSoftware,KiCad,Pcbnew,5.1.0-unknown-ff73f69~82~ubuntu18.04.1*
G04 #@! TF.CreationDate,2019-03-26T22:56:15+01:00*
G04 #@! TF.ProjectId,ATI DNA-C PCB Smart PWM v3,41544920-444e-4412-9d43-205043422053,rev?*
G04 #@! TF.SameCoordinates,Original*
G04 #@! TF.FileFunction,Legend,Bot*
G04 #@! TF.FilePolarity,Positive*
%FSLAX46Y46*%
G04 Gerber Fmt 4.6, Leading zero omitted, Abs format (unit mm)*
G04 Created by KiCad (PCBNEW 5.1.0-unknown-ff73f69~82~ubuntu18.04.1) date 2019-03-26 22:56:15*
%MOMM*%
%LPD*%
G04 APERTURE LIST*
%ADD10C,0.167160*%
%ADD11C,0.367753*%
%ADD12C,0.150000*%
%ADD13C,0.200000*%
G04 APERTURE END LIST*
D10*
X158798882Y-97523828D02*
X158742825Y-97459356D01*
X156223441Y-97338815D02*
X156161501Y-97397648D01*
X155854382Y-97807115D02*
X155814995Y-97883728D01*
D11*
X156893786Y-99025393D02*
X156924288Y-98994115D01*
X156857971Y-99057002D02*
X156893786Y-99025393D01*
X156770681Y-99114600D02*
X156794439Y-99101420D01*
X156745649Y-99126624D02*
X156770681Y-99114600D01*
D10*
X158990889Y-97807115D02*
X158947945Y-97732706D01*
X156892273Y-96957109D02*
X156809404Y-96985044D01*
X157422636Y-100430891D02*
X157514415Y-100428579D01*
X157422636Y-100430891D02*
X157422636Y-100430891D01*
D11*
X156984385Y-98919465D02*
X156973737Y-98941844D01*
X156994583Y-98900496D02*
X156984385Y-98919465D01*
X156994583Y-98900496D02*
X156994583Y-98900496D01*
X157471896Y-99662707D02*
X157503170Y-99659564D01*
X157439401Y-99663453D02*
X157471896Y-99662707D01*
X157405693Y-99661598D02*
X157439401Y-99663453D01*
D10*
X157422636Y-96877226D02*
X157422636Y-96877226D01*
D11*
X157728192Y-99557543D02*
X157764008Y-99525934D01*
X157687133Y-99587829D02*
X157728192Y-99557543D01*
X157664660Y-99601960D02*
X157687133Y-99587829D01*
D10*
X157330856Y-96879538D02*
X157240282Y-96886399D01*
X159097927Y-98043124D02*
X159065993Y-97962435D01*
X157151024Y-100410418D02*
X157240282Y-100421718D01*
X157063195Y-100394792D02*
X157151024Y-100410418D01*
X156572507Y-100216437D02*
X156649409Y-100255676D01*
X158851829Y-97590951D02*
X158798882Y-97523828D01*
X156809404Y-100323074D02*
X156892273Y-100351008D01*
D11*
X158719808Y-98926756D02*
X158301108Y-99649251D01*
X158719808Y-98926756D02*
X158719808Y-98926756D01*
X158730006Y-98907787D02*
X158719808Y-98926756D01*
X158753132Y-98855616D02*
X158730006Y-98907787D01*
X156124362Y-98399956D02*
X156114164Y-98418924D01*
X156124362Y-98399956D02*
X156124362Y-98399956D01*
X156388694Y-99123479D02*
X156427163Y-99137810D01*
X156349057Y-99105514D02*
X156388694Y-99123479D01*
X157509493Y-97677460D02*
X157546785Y-97688362D01*
X157473387Y-97669780D02*
X157509493Y-97677460D01*
X157438475Y-97665115D02*
X157473387Y-97669780D01*
X157404768Y-97663259D02*
X157438475Y-97665115D01*
X156078129Y-98507414D02*
X156066189Y-98549370D01*
X156091038Y-98471096D02*
X156078129Y-98507414D01*
X157860975Y-98407933D02*
X157875105Y-98387557D01*
X157849585Y-98426216D02*
X157860975Y-98407933D01*
X157849585Y-98426216D02*
X157849585Y-98426216D01*
X157430885Y-99148711D02*
X157849585Y-98426216D01*
X156308261Y-99083707D02*
X156349057Y-99105514D01*
X156308261Y-99083707D02*
X156308261Y-99083707D01*
D10*
X156102446Y-99848761D02*
X156161501Y-99910469D01*
X155719305Y-98125683D02*
X155695271Y-98210000D01*
X155695271Y-98210000D02*
X155675356Y-98295965D01*
X157604990Y-96886399D02*
X157514415Y-96879538D01*
D11*
X158535908Y-98243007D02*
X158535908Y-98243007D01*
X158495112Y-98221200D02*
X158535908Y-98243007D01*
X158455475Y-98203234D02*
X158495112Y-98221200D01*
X158417006Y-98188903D02*
X158455475Y-98203234D01*
D10*
X159125967Y-98125683D02*
X159097927Y-98043124D01*
X156161501Y-99910469D02*
X156223441Y-99969302D01*
X157330856Y-100428579D02*
X157422636Y-100430891D01*
X157240282Y-100421718D02*
X157330856Y-100428579D01*
X159125967Y-99182434D02*
X159150000Y-99098117D01*
X159097927Y-99264993D02*
X159125967Y-99182434D01*
X159206150Y-98654059D02*
X159206150Y-98654059D01*
X159203829Y-98745494D02*
X159206150Y-98654059D01*
D11*
X156061021Y-98572185D02*
X156056620Y-98596076D01*
X156066189Y-98549370D02*
X156061021Y-98572185D01*
D10*
X156976908Y-100374952D02*
X157063195Y-100394792D01*
X156892273Y-100351008D02*
X156976908Y-100374952D01*
D11*
X158782153Y-98542577D02*
X158788028Y-98570897D01*
X158774110Y-98514069D02*
X158782153Y-98542577D01*
X158763723Y-98485482D02*
X158774110Y-98514069D01*
X158750818Y-98456928D02*
X158763723Y-98485482D01*
D10*
X155993443Y-99717166D02*
X156046389Y-99784289D01*
X157604990Y-100421718D02*
X157694247Y-100410418D01*
X157514415Y-100428579D02*
X157604990Y-100421718D01*
D11*
X157413283Y-98178003D02*
X156994583Y-98900496D01*
X156994583Y-98900496D02*
X157413283Y-98178003D01*
X156994583Y-98900496D02*
X156994583Y-98900496D01*
D10*
X156728412Y-97016858D02*
X156649409Y-97052441D01*
D11*
X156919996Y-99173639D02*
X156920417Y-99200727D01*
X156921043Y-99147184D02*
X156919996Y-99173639D01*
X156923383Y-99121473D02*
X156921043Y-99147184D01*
X158242494Y-98164547D02*
X158274989Y-98163801D01*
X158211220Y-98167690D02*
X158242494Y-98164547D01*
X158181177Y-98173022D02*
X158211220Y-98167690D01*
X158152373Y-98180337D02*
X158181177Y-98173022D01*
X156662992Y-99153691D02*
X156691795Y-99146376D01*
X156632948Y-99159023D02*
X156662992Y-99153691D01*
X157254596Y-97688886D02*
X157282152Y-97679795D01*
X157228298Y-97699547D02*
X157254596Y-97688886D01*
X157203266Y-97711571D02*
X157228298Y-97699547D01*
X157179508Y-97724752D02*
X157203266Y-97711571D01*
X158794394Y-98653614D02*
X158793347Y-98680069D01*
X158793974Y-98626526D02*
X158794394Y-98653614D01*
X158791910Y-98598917D02*
X158793974Y-98626526D01*
X158788028Y-98570897D02*
X158791910Y-98598917D01*
X158766041Y-98819298D02*
X158753132Y-98855616D01*
X158777980Y-98777342D02*
X158766041Y-98819298D01*
X158787549Y-98730637D02*
X158777980Y-98777342D01*
X158793347Y-98680069D02*
X158787549Y-98730637D01*
X158735219Y-98428519D02*
X158750818Y-98456928D01*
X158716752Y-98400365D02*
X158735219Y-98428519D01*
X158695242Y-98372576D02*
X158716752Y-98400365D01*
X158670513Y-98345265D02*
X158695242Y-98372576D01*
D10*
X156046389Y-97523828D02*
X155993443Y-97590951D01*
X158557116Y-100025149D02*
X158621830Y-99969302D01*
X158489741Y-100077898D02*
X158557116Y-100025149D01*
D11*
X156535472Y-99161057D02*
X156569180Y-99162912D01*
X156500561Y-99156392D02*
X156535472Y-99161057D01*
X156080446Y-98841231D02*
X156093351Y-98869785D01*
X156070060Y-98812645D02*
X156080446Y-98841231D01*
X158027257Y-98239424D02*
X158049730Y-98225293D01*
X158006076Y-98254299D02*
X158027257Y-98239424D01*
X157986198Y-98269710D02*
X158006076Y-98254299D01*
X157967630Y-98285453D02*
X157986198Y-98269710D01*
D10*
X155854382Y-99501003D02*
X155897327Y-99575411D01*
X155747345Y-98043124D02*
X155719305Y-98125683D01*
X155779279Y-97962435D02*
X155747345Y-98043124D01*
D11*
X156926841Y-99096616D02*
X156923383Y-99121473D01*
X156931242Y-99072725D02*
X156926841Y-99096616D01*
X156936410Y-99049910D02*
X156931242Y-99072725D01*
X157665686Y-97742467D02*
X157665686Y-97742467D01*
X157624890Y-97720659D02*
X157665686Y-97742467D01*
X157585253Y-97702693D02*
X157624890Y-97720659D01*
X157546785Y-97688362D02*
X157585253Y-97702693D01*
D10*
X155814995Y-97883728D02*
X155779279Y-97962435D01*
X156046389Y-99784289D02*
X156102446Y-99848761D01*
X156161501Y-97397648D02*
X156102446Y-97459356D01*
D11*
X158124818Y-98189428D02*
X158152373Y-98180337D01*
X158098520Y-98200088D02*
X158124818Y-98189428D01*
X158073487Y-98212112D02*
X158098520Y-98200088D01*
X158049730Y-98225293D02*
X158073487Y-98212112D01*
D10*
X158990889Y-99501003D02*
X159030276Y-99424389D01*
X158947945Y-99575411D02*
X158990889Y-99501003D01*
D11*
X156201779Y-99008173D02*
X156233471Y-99034197D01*
X156173656Y-98981449D02*
X156201779Y-99008173D01*
D10*
X155659671Y-98383464D02*
X155648329Y-98472388D01*
X156572507Y-97091680D02*
X156497819Y-97134464D01*
D11*
X156948350Y-99007955D02*
X156936410Y-99049910D01*
X156961259Y-98971637D02*
X156948350Y-99007955D01*
X156973737Y-98941844D02*
X156961259Y-98971637D01*
D10*
X159065993Y-99345682D02*
X159097927Y-99264993D01*
X159030276Y-99424389D02*
X159065993Y-99345682D01*
X155675356Y-99012152D02*
X155695271Y-99098117D01*
D11*
X156268907Y-99059412D02*
X156308261Y-99083707D01*
X156233471Y-99034197D02*
X156268907Y-99059412D01*
D10*
X155814995Y-99424389D02*
X155854382Y-99501003D01*
X155719305Y-99182434D02*
X155747345Y-99264993D01*
D11*
X156601675Y-99162166D02*
X156632948Y-99159023D01*
X156569180Y-99162912D02*
X156601675Y-99162166D01*
D10*
X158901554Y-99647503D02*
X158947945Y-99575411D01*
X158851829Y-99717166D02*
X158901554Y-99647503D01*
D11*
X157372272Y-97664006D02*
X157404768Y-97663259D01*
X157340999Y-97667149D02*
X157372272Y-97664006D01*
X157310956Y-97672480D02*
X157340999Y-97667149D01*
X157282152Y-97679795D02*
X157310956Y-97672480D01*
X157895819Y-98318758D02*
X157882909Y-98355075D01*
X157907758Y-98276802D02*
X157895819Y-98318758D01*
X157917327Y-98230097D02*
X157907758Y-98276802D01*
X157923125Y-98179529D02*
X157917327Y-98230097D01*
X157370782Y-99656933D02*
X157405693Y-99661598D01*
X157334676Y-99649253D02*
X157370782Y-99656933D01*
X157297384Y-99638351D02*
X157334676Y-99649253D01*
D10*
X158947945Y-97732706D02*
X158901554Y-97660614D01*
X158419815Y-100127436D02*
X158489741Y-100077898D01*
X158347453Y-100173653D02*
X158419815Y-100127436D01*
X156976908Y-96933165D02*
X156892273Y-96957109D01*
X157063195Y-96913325D02*
X156976908Y-96933165D01*
X157952998Y-100351008D02*
X158035868Y-100323074D01*
X157868364Y-100374952D02*
X157952998Y-100351008D01*
D11*
X156148927Y-98954137D02*
X156173656Y-98981449D01*
X156127417Y-98926349D02*
X156148927Y-98954137D01*
D10*
X158272764Y-100216437D02*
X158347453Y-100173653D01*
X158195863Y-100255676D02*
X158272764Y-100216437D01*
X158195863Y-97052441D02*
X158116860Y-97016858D01*
D11*
X157157035Y-97738883D02*
X157179508Y-97724752D01*
X157135855Y-97753757D02*
X157157035Y-97738883D01*
X157115976Y-97769169D02*
X157135855Y-97753757D01*
X157097408Y-97784911D02*
X157115976Y-97769169D01*
X158642390Y-98318541D02*
X158670513Y-98345265D01*
X158610698Y-98292516D02*
X158642390Y-98318541D01*
X158575262Y-98267301D02*
X158610698Y-98292516D01*
X158535908Y-98243007D02*
X158575262Y-98267301D01*
X156816912Y-99087289D02*
X156857971Y-99057002D01*
X156794439Y-99101420D02*
X156816912Y-99087289D01*
D10*
X158683771Y-99910469D02*
X158742825Y-99848761D01*
X158621830Y-99969302D02*
X158683771Y-99910469D01*
X158116860Y-100291259D02*
X158195863Y-100255676D01*
X158035868Y-100323074D02*
X158116860Y-100291259D01*
X158557116Y-97282968D02*
X158489741Y-97230220D01*
X156425456Y-100127436D02*
X156497819Y-100173653D01*
X158489741Y-97230220D02*
X158419815Y-97180681D01*
D11*
X156103516Y-98441304D02*
X156091038Y-98471096D01*
X156114164Y-98418924D02*
X156103516Y-98441304D01*
D10*
X155747345Y-99264993D02*
X155779279Y-99345682D01*
X159065993Y-97962435D02*
X159030276Y-97883728D01*
X157514415Y-96879538D02*
X157422636Y-96877226D01*
X157151024Y-96897699D02*
X157063195Y-96913325D01*
X158035868Y-96985044D02*
X157952998Y-96957109D01*
X158742825Y-97459356D02*
X158683771Y-97397648D01*
D11*
X156990753Y-97907392D02*
X157004884Y-97887016D01*
X156979363Y-97925676D02*
X156990753Y-97907392D01*
X156979363Y-97925676D02*
X156979363Y-97925676D01*
X156560664Y-98648170D02*
X156979363Y-97925676D01*
X156062016Y-98784136D02*
X156070060Y-98812645D01*
X156056141Y-98755816D02*
X156062016Y-98784136D01*
D10*
X155639121Y-98654059D02*
X155641442Y-98745494D01*
D11*
X158379714Y-98178001D02*
X158417006Y-98188903D01*
X158343608Y-98170321D02*
X158379714Y-98178001D01*
X158308697Y-98165657D02*
X158343608Y-98170321D01*
X158274989Y-98163801D02*
X158308697Y-98165657D01*
D10*
X155641442Y-98562623D02*
X155639121Y-98654059D01*
X158272764Y-97091680D02*
X158195863Y-97052441D01*
X156288155Y-100025149D02*
X156355531Y-100077898D01*
X155659671Y-98924653D02*
X155675356Y-99012152D01*
X156497819Y-97134464D02*
X156425456Y-97180681D01*
X157868364Y-96933165D02*
X157782076Y-96913325D01*
D11*
X157819626Y-99465358D02*
X157853416Y-99419320D01*
X157794510Y-99494655D02*
X157819626Y-99465358D01*
X157764008Y-99525934D02*
X157794510Y-99494655D01*
D10*
X155993443Y-97590951D02*
X155943718Y-97660614D01*
X155943718Y-97660614D02*
X155897327Y-97732706D01*
X158116860Y-97016858D02*
X158035868Y-96985044D01*
X155943718Y-99647503D02*
X155993443Y-99717166D01*
X156355531Y-97230220D02*
X156288155Y-97282968D01*
X157694247Y-96897699D02*
X157604990Y-96886399D01*
X157952998Y-96957109D02*
X157868364Y-96933165D01*
D11*
X157911931Y-98042037D02*
X157917806Y-98070357D01*
X157903888Y-98013528D02*
X157911931Y-98042037D01*
X157893501Y-97984942D02*
X157903888Y-98013528D01*
X157880596Y-97956388D02*
X157893501Y-97984942D01*
X156464455Y-99148712D02*
X156500561Y-99156392D01*
X156427163Y-99137810D02*
X156464455Y-99148712D01*
D10*
X159030276Y-97883728D02*
X158990889Y-97807115D01*
X158798882Y-99784289D02*
X158851829Y-99717166D01*
X158742825Y-99848761D02*
X158798882Y-99784289D01*
D11*
X157950382Y-98301319D02*
X157967630Y-98285453D01*
X157919880Y-98332598D02*
X157950382Y-98301319D01*
X157894764Y-98361894D02*
X157919880Y-98332598D01*
X157875105Y-98387557D02*
X157894764Y-98361894D01*
X157849585Y-98426216D02*
X157430885Y-99148711D01*
X157849585Y-98426216D02*
X157849585Y-98426216D01*
X157859784Y-98407247D02*
X157849585Y-98426216D01*
X157882909Y-98355075D02*
X157859784Y-98407247D01*
D10*
X156809404Y-96985044D02*
X156728412Y-97016858D01*
X156649409Y-97052441D02*
X156572507Y-97091680D01*
D11*
X157924172Y-98153074D02*
X157923125Y-98179529D01*
X157923752Y-98125986D02*
X157924172Y-98153074D01*
X157921688Y-98098377D02*
X157923752Y-98125986D01*
X157917806Y-98070357D02*
X157921688Y-98098377D01*
X156052259Y-98727796D02*
X156056141Y-98755816D01*
X156050196Y-98700186D02*
X156052259Y-98727796D01*
D10*
X155897327Y-97732706D02*
X155854382Y-97807115D01*
X156288155Y-97282968D02*
X156223441Y-97338815D01*
D11*
X157772168Y-97818001D02*
X157800291Y-97844724D01*
X157740476Y-97791976D02*
X157772168Y-97818001D01*
X157705041Y-97766761D02*
X157740476Y-97791976D01*
X157665686Y-97742467D02*
X157705041Y-97766761D01*
D10*
X158683771Y-97397648D02*
X158621830Y-97338815D01*
D11*
X156997638Y-99426889D02*
X157019148Y-99454677D01*
X156979171Y-99398734D02*
X156997638Y-99426889D01*
X156963572Y-99370325D02*
X156979171Y-99398734D01*
X157072000Y-99508713D02*
X157103692Y-99534738D01*
X157043877Y-99481989D02*
X157072000Y-99508713D01*
X157019148Y-99454677D02*
X157043877Y-99481989D01*
X157864806Y-99401036D02*
X158283505Y-98678545D01*
X157864806Y-99401036D02*
X157864806Y-99401036D01*
X157853416Y-99419320D02*
X157864806Y-99401036D01*
D10*
X156728412Y-100291259D02*
X156809404Y-100323074D01*
X157422636Y-96877226D02*
X157330856Y-96879538D01*
X155695271Y-99098117D02*
X155719305Y-99182434D01*
D11*
X156108950Y-98898194D02*
X156127417Y-98926349D01*
X156093351Y-98869785D02*
X156108950Y-98898194D01*
X156983193Y-98918779D02*
X156994583Y-98900496D01*
X156949404Y-98964818D02*
X156983193Y-98918779D01*
X156924288Y-98994115D02*
X156949404Y-98964818D01*
X157562017Y-99646917D02*
X157589572Y-99637826D01*
X157533213Y-99654232D02*
X157562017Y-99646917D01*
X157503170Y-99659564D02*
X157533213Y-99654232D01*
X157258915Y-99624020D02*
X157297384Y-99638351D01*
X157219278Y-99606054D02*
X157258915Y-99624020D01*
X157178482Y-99584247D02*
X157219278Y-99606054D01*
D10*
X155639121Y-98654059D02*
X155639121Y-98654059D01*
D11*
X157080160Y-97800778D02*
X157097408Y-97784911D01*
X157049659Y-97832057D02*
X157080160Y-97800778D01*
X157024543Y-97861354D02*
X157049659Y-97832057D01*
X157004884Y-97887016D02*
X157024543Y-97861354D01*
D10*
X157782076Y-100394792D02*
X157868364Y-100374952D01*
X157694247Y-100410418D02*
X157782076Y-100394792D01*
D11*
X156543060Y-97677463D02*
X156124362Y-98399956D01*
D10*
X159206150Y-98654059D02*
X159206150Y-98654059D01*
X158419815Y-97180681D02*
X158347453Y-97134464D01*
X156425456Y-97180681D02*
X156355531Y-97230220D01*
X156355531Y-100077898D02*
X156425456Y-100127436D01*
X156223441Y-99969302D02*
X156288155Y-100025149D01*
X155648329Y-98472388D02*
X155641442Y-98562623D01*
X157240282Y-96886399D02*
X157151024Y-96897699D01*
X155779279Y-99345682D02*
X155814995Y-99424389D01*
D11*
X157864998Y-97927979D02*
X157880596Y-97956388D01*
X157846531Y-97899824D02*
X157864998Y-97927979D01*
X157825020Y-97872036D02*
X157846531Y-97899824D01*
X157800291Y-97844724D02*
X157825020Y-97872036D01*
X156950667Y-99341771D02*
X156963572Y-99370325D01*
X156940281Y-99313185D02*
X156950667Y-99341771D01*
X156932237Y-99284676D02*
X156940281Y-99313185D01*
D10*
X157782076Y-96913325D02*
X157694247Y-96897699D01*
X158347453Y-97134464D02*
X158272764Y-97091680D01*
X156497819Y-100173653D02*
X156572507Y-100216437D01*
D11*
X156049775Y-98673099D02*
X156050196Y-98700186D01*
X156050822Y-98646644D02*
X156049775Y-98673099D01*
D10*
X155641442Y-98745494D02*
X155648329Y-98835729D01*
X159196942Y-98835729D02*
X159203829Y-98745494D01*
X159185600Y-98924653D02*
X159196942Y-98835729D01*
X159169915Y-99012152D02*
X159185600Y-98924653D01*
X159150000Y-99098117D02*
X159169915Y-99012152D01*
X158901554Y-97660614D02*
X158851829Y-97590951D01*
X158621830Y-97338815D02*
X158557116Y-97282968D01*
X156102446Y-97459356D02*
X156046389Y-97523828D01*
D11*
X156053162Y-98620932D02*
X156050822Y-98646644D01*
X156056620Y-98596076D02*
X156053162Y-98620932D01*
D10*
X156649409Y-100255676D02*
X156728412Y-100291259D01*
X155648329Y-98835729D02*
X155659671Y-98924653D01*
D11*
X157178482Y-99584247D02*
X157178482Y-99584247D01*
X157139128Y-99559953D02*
X157178482Y-99584247D01*
X157103692Y-99534738D02*
X157139128Y-99559953D01*
X156926362Y-99256356D02*
X156932237Y-99284676D01*
X156922480Y-99228336D02*
X156926362Y-99256356D01*
X156920417Y-99200727D02*
X156922480Y-99228336D01*
D10*
X159206150Y-98654059D02*
X159203829Y-98562623D01*
D11*
X157640903Y-99615141D02*
X157664660Y-99601960D01*
X157615871Y-99627165D02*
X157640903Y-99615141D01*
X157589572Y-99637826D02*
X157615871Y-99627165D01*
D10*
X159203829Y-98562623D02*
X159196942Y-98472388D01*
X155675356Y-98295965D02*
X155659671Y-98383464D01*
D11*
X156719351Y-99137285D02*
X156745649Y-99126624D01*
X156691795Y-99146376D02*
X156719351Y-99137285D01*
D10*
X159196942Y-98472388D02*
X159185600Y-98383464D01*
X159185600Y-98383464D02*
X159169915Y-98295965D01*
X159169915Y-98295965D02*
X159150000Y-98210000D01*
X155897327Y-99575411D02*
X155943718Y-99647503D01*
X159150000Y-98210000D02*
X159125967Y-98125683D01*
D12*
X168271428Y-99232380D02*
X168271428Y-98232380D01*
X167890476Y-98232380D01*
X167795238Y-98280000D01*
X167747619Y-98327619D01*
X167700000Y-98422857D01*
X167700000Y-98565714D01*
X167747619Y-98660952D01*
X167795238Y-98708571D01*
X167890476Y-98756190D01*
X168271428Y-98756190D01*
X167128571Y-99232380D02*
X167223809Y-99184761D01*
X167271428Y-99137142D01*
X167319047Y-99041904D01*
X167319047Y-98756190D01*
X167271428Y-98660952D01*
X167223809Y-98613333D01*
X167128571Y-98565714D01*
X166985714Y-98565714D01*
X166890476Y-98613333D01*
X166842857Y-98660952D01*
X166795238Y-98756190D01*
X166795238Y-99041904D01*
X166842857Y-99137142D01*
X166890476Y-99184761D01*
X166985714Y-99232380D01*
X167128571Y-99232380D01*
X166461904Y-98565714D02*
X166271428Y-99232380D01*
X166080952Y-98756190D01*
X165890476Y-99232380D01*
X165700000Y-98565714D01*
X164938095Y-99184761D02*
X165033333Y-99232380D01*
X165223809Y-99232380D01*
X165319047Y-99184761D01*
X165366666Y-99089523D01*
X165366666Y-98708571D01*
X165319047Y-98613333D01*
X165223809Y-98565714D01*
X165033333Y-98565714D01*
X164938095Y-98613333D01*
X164890476Y-98708571D01*
X164890476Y-98803809D01*
X165366666Y-98899047D01*
X164461904Y-99232380D02*
X164461904Y-98565714D01*
X164461904Y-98756190D02*
X164414285Y-98660952D01*
X164366666Y-98613333D01*
X164271428Y-98565714D01*
X164176190Y-98565714D01*
X163461904Y-99184761D02*
X163557142Y-99232380D01*
X163747619Y-99232380D01*
X163842857Y-99184761D01*
X163890476Y-99089523D01*
X163890476Y-98708571D01*
X163842857Y-98613333D01*
X163747619Y-98565714D01*
X163557142Y-98565714D01*
X163461904Y-98613333D01*
X163414285Y-98708571D01*
X163414285Y-98803809D01*
X163890476Y-98899047D01*
X162557142Y-99232380D02*
X162557142Y-98232380D01*
X162557142Y-99184761D02*
X162652380Y-99232380D01*
X162842857Y-99232380D01*
X162938095Y-99184761D01*
X162985714Y-99137142D01*
X163033333Y-99041904D01*
X163033333Y-98756190D01*
X162985714Y-98660952D01*
X162938095Y-98613333D01*
X162842857Y-98565714D01*
X162652380Y-98565714D01*
X162557142Y-98613333D01*
X161319047Y-99232380D02*
X161319047Y-98232380D01*
X161319047Y-98613333D02*
X161223809Y-98565714D01*
X161033333Y-98565714D01*
X160938095Y-98613333D01*
X160890476Y-98660952D01*
X160842857Y-98756190D01*
X160842857Y-99041904D01*
X160890476Y-99137142D01*
X160938095Y-99184761D01*
X161033333Y-99232380D01*
X161223809Y-99232380D01*
X161319047Y-99184761D01*
X160509523Y-98565714D02*
X160271428Y-99232380D01*
X160033333Y-98565714D02*
X160271428Y-99232380D01*
X160366666Y-99470476D01*
X160414285Y-99518095D01*
X160509523Y-99565714D01*
D13*
X120708095Y-97218571D02*
X121041428Y-97218571D01*
X121041428Y-97742380D02*
X121041428Y-96742380D01*
X120565238Y-96742380D01*
X120231904Y-96837619D02*
X120184285Y-96790000D01*
X120089047Y-96742380D01*
X119850952Y-96742380D01*
X119755714Y-96790000D01*
X119708095Y-96837619D01*
X119660476Y-96932857D01*
X119660476Y-97028095D01*
X119708095Y-97170952D01*
X120279523Y-97742380D01*
X119660476Y-97742380D01*
X120708095Y-103058571D02*
X121041428Y-103058571D01*
X121041428Y-103582380D02*
X121041428Y-102582380D01*
X120565238Y-102582380D01*
X119660476Y-103582380D02*
X120231904Y-103582380D01*
X119946190Y-103582380D02*
X119946190Y-102582380D01*
X120041428Y-102725238D01*
X120136666Y-102820476D01*
X120231904Y-102868095D01*
M02*
