G04 #@! TF.GenerationSoftware,KiCad,Pcbnew,5.1.0-unknown-ff73f69~82~ubuntu18.04.1*
G04 #@! TF.CreationDate,2019-03-26T22:56:15+01:00*
G04 #@! TF.ProjectId,ATI DNA-C PCB Smart PWM v3,41544920-444e-4412-9d43-205043422053,rev?*
G04 #@! TF.SameCoordinates,Original*
G04 #@! TF.FileFunction,Soldermask,Top*
G04 #@! TF.FilePolarity,Negative*
%FSLAX46Y46*%
G04 Gerber Fmt 4.6, Leading zero omitted, Abs format (unit mm)*
G04 Created by KiCad (PCBNEW 5.1.0-unknown-ff73f69~82~ubuntu18.04.1) date 2019-03-26 22:56:15*
%MOMM*%
%LPD*%
G04 APERTURE LIST*
%ADD10C,0.100000*%
G04 APERTURE END LIST*
D10*
G36*
X176480000Y-97388000D02*
G01*
X176362000Y-97397000D01*
X176248000Y-97425000D01*
X176139000Y-97470000D01*
X176038000Y-97532000D01*
X175948000Y-97608000D01*
X175872000Y-97698000D01*
X175810000Y-97799000D01*
X175765000Y-97908000D01*
X175737000Y-98022000D01*
X175728000Y-98140000D01*
X175737000Y-98258000D01*
X175765000Y-98372000D01*
X175810000Y-98481000D01*
X175872000Y-98582000D01*
X175948000Y-98672000D01*
X176038000Y-98748000D01*
X176139000Y-98810000D01*
X176248000Y-98855000D01*
X176362000Y-98883000D01*
X176480000Y-98892000D01*
X176980000Y-98892000D01*
X177098000Y-98883000D01*
X177212000Y-98855000D01*
X177321000Y-98810000D01*
X177422000Y-98748000D01*
X177512000Y-98672000D01*
X177588000Y-98582000D01*
X177650000Y-98481000D01*
X177695000Y-98372000D01*
X177723000Y-98258000D01*
X177732000Y-98140000D01*
X177723000Y-98022000D01*
X177695000Y-97908000D01*
X177650000Y-97799000D01*
X177588000Y-97698000D01*
X177512000Y-97608000D01*
X177422000Y-97532000D01*
X177321000Y-97470000D01*
X177212000Y-97425000D01*
X177098000Y-97397000D01*
X176980000Y-97388000D01*
X176480000Y-97388000D01*
G37*
G36*
X176480000Y-99388000D02*
G01*
X176362000Y-99397000D01*
X176248000Y-99425000D01*
X176139000Y-99470000D01*
X176038000Y-99532000D01*
X175948000Y-99608000D01*
X175872000Y-99698000D01*
X175810000Y-99799000D01*
X175765000Y-99908000D01*
X175737000Y-100022000D01*
X175728000Y-100140000D01*
X175737000Y-100258000D01*
X175765000Y-100372000D01*
X175810000Y-100481000D01*
X175872000Y-100582000D01*
X175948000Y-100672000D01*
X176038000Y-100748000D01*
X176139000Y-100810000D01*
X176248000Y-100855000D01*
X176362000Y-100883000D01*
X176480000Y-100892000D01*
X176980000Y-100892000D01*
X177098000Y-100883000D01*
X177212000Y-100855000D01*
X177321000Y-100810000D01*
X177422000Y-100748000D01*
X177512000Y-100672000D01*
X177588000Y-100582000D01*
X177650000Y-100481000D01*
X177695000Y-100372000D01*
X177723000Y-100258000D01*
X177732000Y-100140000D01*
X177723000Y-100022000D01*
X177695000Y-99908000D01*
X177650000Y-99799000D01*
X177588000Y-99698000D01*
X177512000Y-99608000D01*
X177422000Y-99532000D01*
X177321000Y-99470000D01*
X177212000Y-99425000D01*
X177098000Y-99397000D01*
X176980000Y-99388000D01*
X176480000Y-99388000D01*
G37*
G36*
X176480000Y-101388000D02*
G01*
X176362000Y-101397000D01*
X176248000Y-101425000D01*
X176139000Y-101470000D01*
X176038000Y-101532000D01*
X175948000Y-101608000D01*
X175872000Y-101698000D01*
X175810000Y-101799000D01*
X175765000Y-101908000D01*
X175737000Y-102022000D01*
X175728000Y-102140000D01*
X175737000Y-102258000D01*
X175765000Y-102372000D01*
X175810000Y-102481000D01*
X175872000Y-102582000D01*
X175948000Y-102672000D01*
X176038000Y-102748000D01*
X176139000Y-102810000D01*
X176248000Y-102855000D01*
X176362000Y-102883000D01*
X176480000Y-102892000D01*
X176980000Y-102892000D01*
X177098000Y-102883000D01*
X177212000Y-102855000D01*
X177321000Y-102810000D01*
X177422000Y-102748000D01*
X177512000Y-102672000D01*
X177588000Y-102582000D01*
X177650000Y-102481000D01*
X177695000Y-102372000D01*
X177723000Y-102258000D01*
X177732000Y-102140000D01*
X177723000Y-102022000D01*
X177695000Y-101908000D01*
X177650000Y-101799000D01*
X177588000Y-101698000D01*
X177512000Y-101608000D01*
X177422000Y-101532000D01*
X177321000Y-101470000D01*
X177212000Y-101425000D01*
X177098000Y-101397000D01*
X176980000Y-101388000D01*
X176480000Y-101388000D01*
G37*
G36*
X176480000Y-95088000D02*
G01*
X176331000Y-95100000D01*
X176186000Y-95135000D01*
X176048000Y-95192000D01*
X175920000Y-95270000D01*
X175807000Y-95367000D01*
X175710000Y-95480000D01*
X175632000Y-95608000D01*
X175575000Y-95746000D01*
X175540000Y-95891000D01*
X175528000Y-96040000D01*
X175540000Y-96189000D01*
X175575000Y-96334000D01*
X175632000Y-96472000D01*
X175710000Y-96600000D01*
X175807000Y-96713000D01*
X175920000Y-96810000D01*
X176048000Y-96888000D01*
X176186000Y-96945000D01*
X176331000Y-96980000D01*
X176480000Y-96992000D01*
X176980000Y-96992000D01*
X177129000Y-96980000D01*
X177274000Y-96945000D01*
X177412000Y-96888000D01*
X177540000Y-96810000D01*
X177653000Y-96713000D01*
X177750000Y-96600000D01*
X177828000Y-96472000D01*
X177885000Y-96334000D01*
X177920000Y-96189000D01*
X177932000Y-96040000D01*
X177920000Y-95891000D01*
X177885000Y-95746000D01*
X177828000Y-95608000D01*
X177750000Y-95480000D01*
X177653000Y-95367000D01*
X177540000Y-95270000D01*
X177412000Y-95192000D01*
X177274000Y-95135000D01*
X177129000Y-95100000D01*
X176980000Y-95088000D01*
X176480000Y-95088000D01*
G37*
G36*
X176480000Y-103288000D02*
G01*
X176331000Y-103300000D01*
X176186000Y-103335000D01*
X176048000Y-103392000D01*
X175920000Y-103470000D01*
X175807000Y-103567000D01*
X175710000Y-103680000D01*
X175632000Y-103808000D01*
X175575000Y-103946000D01*
X175540000Y-104091000D01*
X175528000Y-104240000D01*
X175540000Y-104389000D01*
X175575000Y-104534000D01*
X175632000Y-104672000D01*
X175710000Y-104800000D01*
X175807000Y-104913000D01*
X175920000Y-105010000D01*
X176048000Y-105088000D01*
X176186000Y-105145000D01*
X176331000Y-105180000D01*
X176480000Y-105192000D01*
X176980000Y-105192000D01*
X177129000Y-105180000D01*
X177274000Y-105145000D01*
X177412000Y-105088000D01*
X177540000Y-105010000D01*
X177653000Y-104913000D01*
X177750000Y-104800000D01*
X177828000Y-104672000D01*
X177885000Y-104534000D01*
X177920000Y-104389000D01*
X177932000Y-104240000D01*
X177920000Y-104091000D01*
X177885000Y-103946000D01*
X177828000Y-103808000D01*
X177750000Y-103680000D01*
X177653000Y-103567000D01*
X177540000Y-103470000D01*
X177412000Y-103392000D01*
X177274000Y-103335000D01*
X177129000Y-103300000D01*
X176980000Y-103288000D01*
X176480000Y-103288000D01*
G37*
G36*
X155539570Y-107928969D02*
G01*
X155712753Y-108000704D01*
X155868607Y-108104842D01*
X156001158Y-108237393D01*
X156105296Y-108393247D01*
X156177031Y-108566430D01*
X156189403Y-108628628D01*
X156196516Y-108652077D01*
X156208067Y-108673688D01*
X156223612Y-108692630D01*
X156242554Y-108708175D01*
X156264165Y-108719726D01*
X156287614Y-108726839D01*
X156312000Y-108729241D01*
X156336386Y-108726839D01*
X156359835Y-108719726D01*
X156381446Y-108708175D01*
X156400388Y-108692630D01*
X156415933Y-108673688D01*
X156427484Y-108652077D01*
X156434597Y-108628628D01*
X156446969Y-108566430D01*
X156518704Y-108393247D01*
X156622842Y-108237393D01*
X156755393Y-108104842D01*
X156911247Y-108000704D01*
X157084430Y-107928969D01*
X157268274Y-107892400D01*
X157455726Y-107892400D01*
X157639570Y-107928969D01*
X157812753Y-108000704D01*
X157968607Y-108104842D01*
X158101158Y-108237393D01*
X158205296Y-108393247D01*
X158277031Y-108566430D01*
X158289403Y-108628628D01*
X158296516Y-108652077D01*
X158308067Y-108673688D01*
X158323612Y-108692630D01*
X158342554Y-108708175D01*
X158364165Y-108719726D01*
X158387614Y-108726839D01*
X158412000Y-108729241D01*
X158436386Y-108726839D01*
X158459835Y-108719726D01*
X158481446Y-108708175D01*
X158500388Y-108692630D01*
X158515933Y-108673688D01*
X158527484Y-108652077D01*
X158534597Y-108628628D01*
X158546969Y-108566430D01*
X158618704Y-108393247D01*
X158722842Y-108237393D01*
X158855393Y-108104842D01*
X159011247Y-108000704D01*
X159184430Y-107928969D01*
X159368274Y-107892400D01*
X159555726Y-107892400D01*
X159739570Y-107928969D01*
X159912753Y-108000704D01*
X160068607Y-108104842D01*
X160201158Y-108237393D01*
X160305296Y-108393247D01*
X160377031Y-108566430D01*
X160413600Y-108750274D01*
X160413600Y-108937726D01*
X160377031Y-109121570D01*
X160305296Y-109294753D01*
X160201158Y-109450607D01*
X160068607Y-109583158D01*
X159912753Y-109687296D01*
X159739570Y-109759031D01*
X159555726Y-109795600D01*
X159368274Y-109795600D01*
X159184430Y-109759031D01*
X159011247Y-109687296D01*
X158855393Y-109583158D01*
X158722842Y-109450607D01*
X158618704Y-109294753D01*
X158546969Y-109121570D01*
X158534597Y-109059372D01*
X158527484Y-109035923D01*
X158515933Y-109014312D01*
X158500388Y-108995370D01*
X158481446Y-108979825D01*
X158459835Y-108968274D01*
X158436386Y-108961161D01*
X158412000Y-108958759D01*
X158387614Y-108961161D01*
X158364165Y-108968274D01*
X158342554Y-108979825D01*
X158323612Y-108995370D01*
X158308067Y-109014312D01*
X158296516Y-109035923D01*
X158289403Y-109059372D01*
X158277031Y-109121570D01*
X158205296Y-109294753D01*
X158101158Y-109450607D01*
X157968607Y-109583158D01*
X157812753Y-109687296D01*
X157639570Y-109759031D01*
X157455726Y-109795600D01*
X157268274Y-109795600D01*
X157084430Y-109759031D01*
X156911247Y-109687296D01*
X156755393Y-109583158D01*
X156622842Y-109450607D01*
X156518704Y-109294753D01*
X156446969Y-109121570D01*
X156434597Y-109059372D01*
X156427484Y-109035923D01*
X156415933Y-109014312D01*
X156400388Y-108995370D01*
X156381446Y-108979825D01*
X156359835Y-108968274D01*
X156336386Y-108961161D01*
X156312000Y-108958759D01*
X156287614Y-108961161D01*
X156264165Y-108968274D01*
X156242554Y-108979825D01*
X156223612Y-108995370D01*
X156208067Y-109014312D01*
X156196516Y-109035923D01*
X156189403Y-109059372D01*
X156177031Y-109121570D01*
X156105296Y-109294753D01*
X156001158Y-109450607D01*
X155868607Y-109583158D01*
X155712753Y-109687296D01*
X155539570Y-109759031D01*
X155355726Y-109795600D01*
X155168274Y-109795600D01*
X154984430Y-109759031D01*
X154811247Y-109687296D01*
X154655393Y-109583158D01*
X154522842Y-109450607D01*
X154418704Y-109294753D01*
X154346969Y-109121570D01*
X154310400Y-108937726D01*
X154310400Y-108750274D01*
X154346969Y-108566430D01*
X154418704Y-108393247D01*
X154522842Y-108237393D01*
X154655393Y-108104842D01*
X154811247Y-108000704D01*
X154984430Y-107928969D01*
X155168274Y-107892400D01*
X155355726Y-107892400D01*
X155539570Y-107928969D01*
X155539570Y-107928969D01*
G37*
G36*
X183300395Y-107753546D02*
G01*
X183473466Y-107825234D01*
X183473467Y-107825235D01*
X183629227Y-107929310D01*
X183761690Y-108061773D01*
X183790469Y-108104844D01*
X183865766Y-108217534D01*
X183937454Y-108390605D01*
X183974000Y-108574333D01*
X183974000Y-108761667D01*
X183937454Y-108945395D01*
X183865766Y-109118466D01*
X183846877Y-109146735D01*
X183761690Y-109274227D01*
X183629227Y-109406690D01*
X183563500Y-109450607D01*
X183473466Y-109510766D01*
X183300395Y-109582454D01*
X183116667Y-109619000D01*
X182929333Y-109619000D01*
X182745605Y-109582454D01*
X182572534Y-109510766D01*
X182482500Y-109450607D01*
X182416773Y-109406690D01*
X182284310Y-109274227D01*
X182199123Y-109146735D01*
X182180234Y-109118466D01*
X182108546Y-108945395D01*
X182072000Y-108761667D01*
X182072000Y-108574333D01*
X182108546Y-108390605D01*
X182180234Y-108217534D01*
X182255531Y-108104844D01*
X182284310Y-108061773D01*
X182416773Y-107929310D01*
X182572533Y-107825235D01*
X182572534Y-107825234D01*
X182745605Y-107753546D01*
X182929333Y-107717000D01*
X183116667Y-107717000D01*
X183300395Y-107753546D01*
X183300395Y-107753546D01*
G37*
G36*
X178220395Y-107753546D02*
G01*
X178393466Y-107825234D01*
X178393467Y-107825235D01*
X178549227Y-107929310D01*
X178681690Y-108061773D01*
X178710469Y-108104844D01*
X178785766Y-108217534D01*
X178857454Y-108390605D01*
X178894000Y-108574333D01*
X178894000Y-108761667D01*
X178857454Y-108945395D01*
X178785766Y-109118466D01*
X178766877Y-109146735D01*
X178681690Y-109274227D01*
X178549227Y-109406690D01*
X178483500Y-109450607D01*
X178393466Y-109510766D01*
X178220395Y-109582454D01*
X178036667Y-109619000D01*
X177849333Y-109619000D01*
X177665605Y-109582454D01*
X177492534Y-109510766D01*
X177402500Y-109450607D01*
X177336773Y-109406690D01*
X177204310Y-109274227D01*
X177119123Y-109146735D01*
X177100234Y-109118466D01*
X177028546Y-108945395D01*
X176992000Y-108761667D01*
X176992000Y-108574333D01*
X177028546Y-108390605D01*
X177100234Y-108217534D01*
X177175531Y-108104844D01*
X177204310Y-108061773D01*
X177336773Y-107929310D01*
X177492533Y-107825235D01*
X177492534Y-107825234D01*
X177665605Y-107753546D01*
X177849333Y-107717000D01*
X178036667Y-107717000D01*
X178220395Y-107753546D01*
X178220395Y-107753546D01*
G37*
G36*
X180760395Y-107753546D02*
G01*
X180933466Y-107825234D01*
X180933467Y-107825235D01*
X181089227Y-107929310D01*
X181221690Y-108061773D01*
X181250469Y-108104844D01*
X181325766Y-108217534D01*
X181397454Y-108390605D01*
X181434000Y-108574333D01*
X181434000Y-108761667D01*
X181397454Y-108945395D01*
X181325766Y-109118466D01*
X181306877Y-109146735D01*
X181221690Y-109274227D01*
X181089227Y-109406690D01*
X181023500Y-109450607D01*
X180933466Y-109510766D01*
X180760395Y-109582454D01*
X180576667Y-109619000D01*
X180389333Y-109619000D01*
X180205605Y-109582454D01*
X180032534Y-109510766D01*
X179942500Y-109450607D01*
X179876773Y-109406690D01*
X179744310Y-109274227D01*
X179659123Y-109146735D01*
X179640234Y-109118466D01*
X179568546Y-108945395D01*
X179532000Y-108761667D01*
X179532000Y-108574333D01*
X179568546Y-108390605D01*
X179640234Y-108217534D01*
X179715531Y-108104844D01*
X179744310Y-108061773D01*
X179876773Y-107929310D01*
X180032533Y-107825235D01*
X180032534Y-107825234D01*
X180205605Y-107753546D01*
X180389333Y-107717000D01*
X180576667Y-107717000D01*
X180760395Y-107753546D01*
X180760395Y-107753546D01*
G37*
G36*
X173140395Y-107753546D02*
G01*
X173313466Y-107825234D01*
X173313467Y-107825235D01*
X173469227Y-107929310D01*
X173601690Y-108061773D01*
X173630469Y-108104844D01*
X173705766Y-108217534D01*
X173777454Y-108390605D01*
X173814000Y-108574333D01*
X173814000Y-108761667D01*
X173777454Y-108945395D01*
X173705766Y-109118466D01*
X173686877Y-109146735D01*
X173601690Y-109274227D01*
X173469227Y-109406690D01*
X173403500Y-109450607D01*
X173313466Y-109510766D01*
X173140395Y-109582454D01*
X172956667Y-109619000D01*
X172769333Y-109619000D01*
X172585605Y-109582454D01*
X172412534Y-109510766D01*
X172322500Y-109450607D01*
X172256773Y-109406690D01*
X172124310Y-109274227D01*
X172039123Y-109146735D01*
X172020234Y-109118466D01*
X171948546Y-108945395D01*
X171912000Y-108761667D01*
X171912000Y-108574333D01*
X171948546Y-108390605D01*
X172020234Y-108217534D01*
X172095531Y-108104844D01*
X172124310Y-108061773D01*
X172256773Y-107929310D01*
X172412533Y-107825235D01*
X172412534Y-107825234D01*
X172585605Y-107753546D01*
X172769333Y-107717000D01*
X172956667Y-107717000D01*
X173140395Y-107753546D01*
X173140395Y-107753546D01*
G37*
G36*
X168684000Y-109569000D02*
G01*
X166882000Y-109569000D01*
X166882000Y-107767000D01*
X168684000Y-107767000D01*
X168684000Y-109569000D01*
X168684000Y-109569000D01*
G37*
G36*
X175622059Y-107945860D02*
G01*
X175754462Y-108000703D01*
X175758732Y-108002472D01*
X175881735Y-108084660D01*
X175986340Y-108189265D01*
X176068528Y-108312268D01*
X176125140Y-108448941D01*
X176154000Y-108594033D01*
X176154000Y-108741967D01*
X176125140Y-108887059D01*
X176068528Y-109023732D01*
X175986340Y-109146735D01*
X175881735Y-109251340D01*
X175758732Y-109333528D01*
X175758731Y-109333529D01*
X175758730Y-109333529D01*
X175622059Y-109390140D01*
X175476968Y-109419000D01*
X175329032Y-109419000D01*
X175183941Y-109390140D01*
X175047270Y-109333529D01*
X175047269Y-109333529D01*
X175047268Y-109333528D01*
X174924265Y-109251340D01*
X174819660Y-109146735D01*
X174737472Y-109023732D01*
X174680860Y-108887059D01*
X174652000Y-108741967D01*
X174652000Y-108594033D01*
X174680860Y-108448941D01*
X174737472Y-108312268D01*
X174819660Y-108189265D01*
X174924265Y-108084660D01*
X175047268Y-108002472D01*
X175051539Y-108000703D01*
X175183941Y-107945860D01*
X175329032Y-107917000D01*
X175476968Y-107917000D01*
X175622059Y-107945860D01*
X175622059Y-107945860D01*
G37*
G36*
X170542059Y-107945860D02*
G01*
X170674462Y-108000703D01*
X170678732Y-108002472D01*
X170801735Y-108084660D01*
X170906340Y-108189265D01*
X170988528Y-108312268D01*
X171045140Y-108448941D01*
X171074000Y-108594033D01*
X171074000Y-108741967D01*
X171045140Y-108887059D01*
X170988528Y-109023732D01*
X170906340Y-109146735D01*
X170801735Y-109251340D01*
X170678732Y-109333528D01*
X170678731Y-109333529D01*
X170678730Y-109333529D01*
X170542059Y-109390140D01*
X170396968Y-109419000D01*
X170249032Y-109419000D01*
X170103941Y-109390140D01*
X169967270Y-109333529D01*
X169967269Y-109333529D01*
X169967268Y-109333528D01*
X169844265Y-109251340D01*
X169739660Y-109146735D01*
X169657472Y-109023732D01*
X169600860Y-108887059D01*
X169572000Y-108741967D01*
X169572000Y-108594033D01*
X169600860Y-108448941D01*
X169657472Y-108312268D01*
X169739660Y-108189265D01*
X169844265Y-108084660D01*
X169967268Y-108002472D01*
X169971539Y-108000703D01*
X170103941Y-107945860D01*
X170249032Y-107917000D01*
X170396968Y-107917000D01*
X170542059Y-107945860D01*
X170542059Y-107945860D01*
G37*
G36*
X117539404Y-106034333D02*
G01*
X117650579Y-106056447D01*
X117951042Y-106180903D01*
X118221451Y-106361585D01*
X118451415Y-106591549D01*
X118632097Y-106861958D01*
X118632098Y-106861960D01*
X118668550Y-106949963D01*
X118706861Y-107042453D01*
X118756553Y-107162422D01*
X118820000Y-107481389D01*
X118820000Y-107806611D01*
X118777702Y-108019256D01*
X118756553Y-108125579D01*
X118632097Y-108426042D01*
X118451415Y-108696451D01*
X118221451Y-108926415D01*
X117951042Y-109107097D01*
X117951041Y-109107098D01*
X117951040Y-109107098D01*
X117916101Y-109121570D01*
X117650579Y-109231553D01*
X117551103Y-109251340D01*
X117331611Y-109295000D01*
X117006389Y-109295000D01*
X116786897Y-109251340D01*
X116687421Y-109231553D01*
X116421899Y-109121570D01*
X116386960Y-109107098D01*
X116386959Y-109107098D01*
X116386958Y-109107097D01*
X116116549Y-108926415D01*
X115886585Y-108696451D01*
X115705903Y-108426042D01*
X115581447Y-108125579D01*
X115560298Y-108019256D01*
X115518000Y-107806611D01*
X115518000Y-107481389D01*
X115581447Y-107162422D01*
X115631140Y-107042453D01*
X115669450Y-106949963D01*
X115705902Y-106861960D01*
X115705903Y-106861958D01*
X115886585Y-106591549D01*
X116116549Y-106361585D01*
X116386958Y-106180903D01*
X116687421Y-106056447D01*
X116798596Y-106034333D01*
X117006389Y-105993000D01*
X117331611Y-105993000D01*
X117539404Y-106034333D01*
X117539404Y-106034333D01*
G37*
G36*
X183300395Y-105213546D02*
G01*
X183473466Y-105285234D01*
X183473467Y-105285235D01*
X183629227Y-105389310D01*
X183761690Y-105521773D01*
X183761691Y-105521775D01*
X183865766Y-105677534D01*
X183937454Y-105850605D01*
X183974000Y-106034333D01*
X183974000Y-106221667D01*
X183937454Y-106405395D01*
X183865766Y-106578466D01*
X183865765Y-106578467D01*
X183761690Y-106734227D01*
X183629227Y-106866690D01*
X183550818Y-106919081D01*
X183473466Y-106970766D01*
X183300395Y-107042454D01*
X183116667Y-107079000D01*
X182929333Y-107079000D01*
X182745605Y-107042454D01*
X182572534Y-106970766D01*
X182495182Y-106919081D01*
X182416773Y-106866690D01*
X182284310Y-106734227D01*
X182180235Y-106578467D01*
X182180234Y-106578466D01*
X182108546Y-106405395D01*
X182072000Y-106221667D01*
X182072000Y-106034333D01*
X182108546Y-105850605D01*
X182180234Y-105677534D01*
X182284309Y-105521775D01*
X182284310Y-105521773D01*
X182416773Y-105389310D01*
X182572533Y-105285235D01*
X182572534Y-105285234D01*
X182745605Y-105213546D01*
X182929333Y-105177000D01*
X183116667Y-105177000D01*
X183300395Y-105213546D01*
X183300395Y-105213546D01*
G37*
G36*
X177007570Y-103324969D02*
G01*
X177180753Y-103396704D01*
X177336607Y-103500842D01*
X177469158Y-103633393D01*
X177573296Y-103789247D01*
X177645031Y-103962430D01*
X177681600Y-104146274D01*
X177681600Y-104333726D01*
X177645031Y-104517570D01*
X177573296Y-104690753D01*
X177469158Y-104846607D01*
X177336607Y-104979158D01*
X177180753Y-105083296D01*
X177007570Y-105155031D01*
X176823726Y-105191600D01*
X176636274Y-105191600D01*
X176452430Y-105155031D01*
X176279247Y-105083296D01*
X176123393Y-104979158D01*
X175990842Y-104846607D01*
X175886704Y-104690753D01*
X175814969Y-104517570D01*
X175778400Y-104333726D01*
X175778400Y-104146274D01*
X175814969Y-103962430D01*
X175886704Y-103789247D01*
X175990842Y-103633393D01*
X176123393Y-103500842D01*
X176279247Y-103396704D01*
X176452430Y-103324969D01*
X176636274Y-103288400D01*
X176823726Y-103288400D01*
X177007570Y-103324969D01*
X177007570Y-103324969D01*
G37*
G36*
X173150000Y-104912000D02*
G01*
X172078000Y-104912000D01*
X172078000Y-103310000D01*
X173150000Y-103310000D01*
X173150000Y-104912000D01*
X173150000Y-104912000D01*
G37*
G36*
X171240000Y-104912000D02*
G01*
X170168000Y-104912000D01*
X170168000Y-103310000D01*
X171240000Y-103310000D01*
X171240000Y-104912000D01*
X171240000Y-104912000D01*
G37*
G36*
X183300395Y-102673546D02*
G01*
X183473466Y-102745234D01*
X183473467Y-102745235D01*
X183629227Y-102849310D01*
X183761690Y-102981773D01*
X183761691Y-102981775D01*
X183865766Y-103137534D01*
X183937454Y-103310605D01*
X183974000Y-103494333D01*
X183974000Y-103681667D01*
X183937454Y-103865395D01*
X183865766Y-104038466D01*
X183864590Y-104040226D01*
X183761690Y-104194227D01*
X183629227Y-104326690D01*
X183550818Y-104379081D01*
X183473466Y-104430766D01*
X183300395Y-104502454D01*
X183116667Y-104539000D01*
X182929333Y-104539000D01*
X182745605Y-104502454D01*
X182572534Y-104430766D01*
X182495182Y-104379081D01*
X182416773Y-104326690D01*
X182284310Y-104194227D01*
X182181410Y-104040226D01*
X182180234Y-104038466D01*
X182108546Y-103865395D01*
X182072000Y-103681667D01*
X182072000Y-103494333D01*
X182108546Y-103310605D01*
X182180234Y-103137534D01*
X182284309Y-102981775D01*
X182284310Y-102981773D01*
X182416773Y-102849310D01*
X182572533Y-102745235D01*
X182572534Y-102745234D01*
X182745605Y-102673546D01*
X182929333Y-102637000D01*
X183116667Y-102637000D01*
X183300395Y-102673546D01*
X183300395Y-102673546D01*
G37*
G36*
X163613000Y-104495000D02*
G01*
X162511000Y-104495000D01*
X162511000Y-101593000D01*
X163613000Y-101593000D01*
X163613000Y-104495000D01*
X163613000Y-104495000D01*
G37*
G36*
X167613000Y-104495000D02*
G01*
X166511000Y-104495000D01*
X166511000Y-101593000D01*
X167613000Y-101593000D01*
X167613000Y-104495000D01*
X167613000Y-104495000D01*
G37*
G36*
X157061000Y-104495000D02*
G01*
X155959000Y-104495000D01*
X155959000Y-101593000D01*
X157061000Y-101593000D01*
X157061000Y-104495000D01*
X157061000Y-104495000D01*
G37*
G36*
X117074000Y-104495000D02*
G01*
X115972000Y-104495000D01*
X115972000Y-101593000D01*
X117074000Y-101593000D01*
X117074000Y-104495000D01*
X117074000Y-104495000D01*
G37*
G36*
X161061000Y-104495000D02*
G01*
X159959000Y-104495000D01*
X159959000Y-101593000D01*
X161061000Y-101593000D01*
X161061000Y-104495000D01*
X161061000Y-104495000D01*
G37*
G36*
X121074000Y-104495000D02*
G01*
X119972000Y-104495000D01*
X119972000Y-101593000D01*
X121074000Y-101593000D01*
X121074000Y-104495000D01*
X121074000Y-104495000D01*
G37*
G36*
X123771325Y-102004734D02*
G01*
X123854365Y-102039130D01*
X123971802Y-102087774D01*
X124152228Y-102208331D01*
X124305669Y-102361772D01*
X124426226Y-102542198D01*
X124509266Y-102742676D01*
X124533144Y-102862715D01*
X124551600Y-102955502D01*
X124551600Y-103172498D01*
X124509266Y-103385325D01*
X124474870Y-103468365D01*
X124426226Y-103585802D01*
X124305669Y-103766228D01*
X124152228Y-103919669D01*
X123971802Y-104040226D01*
X123854365Y-104088870D01*
X123771325Y-104123266D01*
X123664911Y-104144433D01*
X123558499Y-104165600D01*
X123341501Y-104165600D01*
X123235089Y-104144433D01*
X123128675Y-104123266D01*
X123045635Y-104088870D01*
X122928198Y-104040226D01*
X122747772Y-103919669D01*
X122594331Y-103766228D01*
X122473774Y-103585802D01*
X122425130Y-103468365D01*
X122390734Y-103385325D01*
X122348400Y-103172498D01*
X122348400Y-102955502D01*
X122366857Y-102862715D01*
X122390734Y-102742676D01*
X122473774Y-102542198D01*
X122594331Y-102361772D01*
X122747772Y-102208331D01*
X122928198Y-102087774D01*
X123045635Y-102039130D01*
X123128675Y-102004734D01*
X123341501Y-101962400D01*
X123558499Y-101962400D01*
X123771325Y-102004734D01*
X123771325Y-102004734D01*
G37*
G36*
X176949234Y-101417283D02*
G01*
X177086016Y-101473940D01*
X177209117Y-101556194D01*
X177313806Y-101660883D01*
X177396060Y-101783984D01*
X177452717Y-101920766D01*
X177481600Y-102065974D01*
X177481600Y-102214026D01*
X177452717Y-102359234D01*
X177396060Y-102496016D01*
X177313806Y-102619117D01*
X177209117Y-102723806D01*
X177086016Y-102806060D01*
X176949234Y-102862717D01*
X176804026Y-102891600D01*
X176655974Y-102891600D01*
X176510766Y-102862717D01*
X176373984Y-102806060D01*
X176250883Y-102723806D01*
X176146194Y-102619117D01*
X176063940Y-102496016D01*
X176007283Y-102359234D01*
X175978400Y-102214026D01*
X175978400Y-102065974D01*
X176007283Y-101920766D01*
X176063940Y-101783984D01*
X176146194Y-101660883D01*
X176250883Y-101556194D01*
X176373984Y-101473940D01*
X176510766Y-101417283D01*
X176655974Y-101388400D01*
X176804026Y-101388400D01*
X176949234Y-101417283D01*
X176949234Y-101417283D01*
G37*
G36*
X183924000Y-101949000D02*
G01*
X182122000Y-101949000D01*
X182122000Y-100147000D01*
X183924000Y-100147000D01*
X183924000Y-101949000D01*
X183924000Y-101949000D01*
G37*
G36*
X127890256Y-98506298D02*
G01*
X127996579Y-98527447D01*
X128209037Y-98615450D01*
X128296799Y-98651802D01*
X128297042Y-98651903D01*
X128567451Y-98832585D01*
X128797415Y-99062549D01*
X128978097Y-99332958D01*
X129102553Y-99633421D01*
X129108016Y-99660884D01*
X129159710Y-99920766D01*
X129166000Y-99952391D01*
X129166000Y-100277609D01*
X129102553Y-100596579D01*
X128978097Y-100897042D01*
X128797415Y-101167451D01*
X128567451Y-101397415D01*
X128297042Y-101578097D01*
X127996579Y-101702553D01*
X127890256Y-101723702D01*
X127677611Y-101766000D01*
X127352389Y-101766000D01*
X127139744Y-101723702D01*
X127033421Y-101702553D01*
X126732958Y-101578097D01*
X126462549Y-101397415D01*
X126232585Y-101167451D01*
X126051903Y-100897042D01*
X125927447Y-100596579D01*
X125864000Y-100277609D01*
X125864000Y-99952391D01*
X125870291Y-99920766D01*
X125921984Y-99660884D01*
X125927447Y-99633421D01*
X126051903Y-99332958D01*
X126232585Y-99062549D01*
X126462549Y-98832585D01*
X126732958Y-98651903D01*
X126733202Y-98651802D01*
X126820963Y-98615450D01*
X127033421Y-98527447D01*
X127139744Y-98506298D01*
X127352389Y-98464000D01*
X127677611Y-98464000D01*
X127890256Y-98506298D01*
X127890256Y-98506298D01*
G37*
G36*
X171291000Y-101095000D02*
G01*
X169389000Y-101095000D01*
X169389000Y-99193000D01*
X171291000Y-99193000D01*
X171291000Y-101095000D01*
X171291000Y-101095000D01*
G37*
G36*
X173831000Y-101095000D02*
G01*
X171929000Y-101095000D01*
X171929000Y-99193000D01*
X173831000Y-99193000D01*
X173831000Y-101095000D01*
X173831000Y-101095000D01*
G37*
G36*
X176949234Y-99417283D02*
G01*
X177086016Y-99473940D01*
X177209117Y-99556194D01*
X177313806Y-99660883D01*
X177396060Y-99783984D01*
X177452717Y-99920766D01*
X177481600Y-100065974D01*
X177481600Y-100214026D01*
X177452717Y-100359234D01*
X177396060Y-100496016D01*
X177313806Y-100619117D01*
X177209117Y-100723806D01*
X177086016Y-100806060D01*
X176949234Y-100862717D01*
X176804026Y-100891600D01*
X176655974Y-100891600D01*
X176510766Y-100862717D01*
X176373984Y-100806060D01*
X176250883Y-100723806D01*
X176146194Y-100619117D01*
X176063940Y-100496016D01*
X176007283Y-100359234D01*
X175978400Y-100214026D01*
X175978400Y-100065974D01*
X176007283Y-99920766D01*
X176063940Y-99783984D01*
X176146194Y-99660883D01*
X176250883Y-99556194D01*
X176373984Y-99473940D01*
X176510766Y-99417283D01*
X176655974Y-99388400D01*
X176804026Y-99388400D01*
X176949234Y-99417283D01*
X176949234Y-99417283D01*
G37*
G36*
X183112911Y-97049567D02*
G01*
X183219325Y-97070734D01*
X183276703Y-97094501D01*
X183419802Y-97153774D01*
X183600228Y-97274331D01*
X183753669Y-97427772D01*
X183874226Y-97608198D01*
X183896049Y-97660884D01*
X183947039Y-97783984D01*
X183957266Y-97808676D01*
X183999600Y-98021501D01*
X183999600Y-98238499D01*
X183957266Y-98451325D01*
X183938754Y-98496016D01*
X183874226Y-98651802D01*
X183753669Y-98832228D01*
X183600228Y-98985669D01*
X183419802Y-99106226D01*
X183302365Y-99154870D01*
X183219325Y-99189266D01*
X183112911Y-99210433D01*
X183006499Y-99231600D01*
X182789501Y-99231600D01*
X182683089Y-99210433D01*
X182576675Y-99189266D01*
X182493635Y-99154870D01*
X182376198Y-99106226D01*
X182195772Y-98985669D01*
X182042331Y-98832228D01*
X181921774Y-98651802D01*
X181857246Y-98496016D01*
X181838734Y-98451325D01*
X181796400Y-98238499D01*
X181796400Y-98021501D01*
X181838734Y-97808676D01*
X181848962Y-97783984D01*
X181899951Y-97660884D01*
X181921774Y-97608198D01*
X182042331Y-97427772D01*
X182195772Y-97274331D01*
X182376198Y-97153774D01*
X182519297Y-97094501D01*
X182576675Y-97070734D01*
X182683089Y-97049567D01*
X182789501Y-97028400D01*
X183006499Y-97028400D01*
X183112911Y-97049567D01*
X183112911Y-97049567D01*
G37*
G36*
X176949234Y-97417283D02*
G01*
X177086016Y-97473940D01*
X177209117Y-97556194D01*
X177313806Y-97660883D01*
X177396060Y-97783984D01*
X177452717Y-97920766D01*
X177481600Y-98065974D01*
X177481600Y-98214026D01*
X177452717Y-98359234D01*
X177396060Y-98496016D01*
X177313806Y-98619117D01*
X177209117Y-98723806D01*
X177086016Y-98806060D01*
X176949234Y-98862717D01*
X176804026Y-98891600D01*
X176655974Y-98891600D01*
X176510766Y-98862717D01*
X176373984Y-98806060D01*
X176250883Y-98723806D01*
X176146194Y-98619117D01*
X176063940Y-98496016D01*
X176007283Y-98359234D01*
X175978400Y-98214026D01*
X175978400Y-98065974D01*
X176007283Y-97920766D01*
X176063940Y-97783984D01*
X176146194Y-97660883D01*
X176250883Y-97556194D01*
X176373984Y-97473940D01*
X176510766Y-97417283D01*
X176655974Y-97388400D01*
X176804026Y-97388400D01*
X176949234Y-97417283D01*
X176949234Y-97417283D01*
G37*
G36*
X117074000Y-98695000D02*
G01*
X115972000Y-98695000D01*
X115972000Y-95793000D01*
X117074000Y-95793000D01*
X117074000Y-98695000D01*
X117074000Y-98695000D01*
G37*
G36*
X121074000Y-98695000D02*
G01*
X119972000Y-98695000D01*
X119972000Y-95793000D01*
X121074000Y-95793000D01*
X121074000Y-98695000D01*
X121074000Y-98695000D01*
G37*
G36*
X161061000Y-98695000D02*
G01*
X159959000Y-98695000D01*
X159959000Y-95793000D01*
X161061000Y-95793000D01*
X161061000Y-98695000D01*
X161061000Y-98695000D01*
G37*
G36*
X157061000Y-98695000D02*
G01*
X155959000Y-98695000D01*
X155959000Y-95793000D01*
X157061000Y-95793000D01*
X157061000Y-98695000D01*
X157061000Y-98695000D01*
G37*
G36*
X163613000Y-98695000D02*
G01*
X162511000Y-98695000D01*
X162511000Y-95793000D01*
X163613000Y-95793000D01*
X163613000Y-98695000D01*
X163613000Y-98695000D01*
G37*
G36*
X167613000Y-98695000D02*
G01*
X166511000Y-98695000D01*
X166511000Y-95793000D01*
X167613000Y-95793000D01*
X167613000Y-98695000D01*
X167613000Y-98695000D01*
G37*
G36*
X123660911Y-96122567D02*
G01*
X123767325Y-96143734D01*
X123850365Y-96178130D01*
X123967802Y-96226774D01*
X124148228Y-96347331D01*
X124301669Y-96500772D01*
X124422226Y-96681198D01*
X124462801Y-96779156D01*
X124505266Y-96881675D01*
X124519857Y-96955030D01*
X124547600Y-97094501D01*
X124547600Y-97311499D01*
X124505266Y-97524324D01*
X124422226Y-97724802D01*
X124301669Y-97905228D01*
X124148228Y-98058669D01*
X123967802Y-98179226D01*
X123850365Y-98227870D01*
X123767325Y-98262266D01*
X123660911Y-98283433D01*
X123554499Y-98304600D01*
X123337501Y-98304600D01*
X123231089Y-98283433D01*
X123124675Y-98262266D01*
X123041635Y-98227870D01*
X122924198Y-98179226D01*
X122743772Y-98058669D01*
X122590331Y-97905228D01*
X122469774Y-97724802D01*
X122386734Y-97524324D01*
X122344400Y-97311499D01*
X122344400Y-97094501D01*
X122372143Y-96955030D01*
X122386734Y-96881675D01*
X122429199Y-96779156D01*
X122469774Y-96681198D01*
X122590331Y-96500772D01*
X122743772Y-96347331D01*
X122924198Y-96226774D01*
X123041635Y-96178130D01*
X123124675Y-96143734D01*
X123231089Y-96122567D01*
X123337501Y-96101400D01*
X123554499Y-96101400D01*
X123660911Y-96122567D01*
X123660911Y-96122567D01*
G37*
G36*
X177007570Y-95124969D02*
G01*
X177180753Y-95196704D01*
X177336607Y-95300842D01*
X177469158Y-95433393D01*
X177573296Y-95589247D01*
X177645031Y-95762430D01*
X177681600Y-95946274D01*
X177681600Y-96133726D01*
X177645031Y-96317570D01*
X177573296Y-96490753D01*
X177469158Y-96646607D01*
X177336607Y-96779158D01*
X177180753Y-96883296D01*
X177007570Y-96955031D01*
X176823726Y-96991600D01*
X176636274Y-96991600D01*
X176452430Y-96955031D01*
X176279247Y-96883296D01*
X176123393Y-96779158D01*
X175990842Y-96646607D01*
X175886704Y-96490753D01*
X175814969Y-96317570D01*
X175778400Y-96133726D01*
X175778400Y-95946274D01*
X175814969Y-95762430D01*
X175886704Y-95589247D01*
X175990842Y-95433393D01*
X176123393Y-95300842D01*
X176279247Y-95196704D01*
X176452430Y-95124969D01*
X176636274Y-95088400D01*
X176823726Y-95088400D01*
X177007570Y-95124969D01*
X177007570Y-95124969D01*
G37*
G36*
X117544256Y-91034898D02*
G01*
X117650579Y-91056047D01*
X117951042Y-91180503D01*
X118221451Y-91361185D01*
X118451415Y-91591149D01*
X118632097Y-91861558D01*
X118756553Y-92162021D01*
X118820000Y-92480991D01*
X118820000Y-92806209D01*
X118756553Y-93125179D01*
X118632097Y-93425642D01*
X118451415Y-93696051D01*
X118221451Y-93926015D01*
X117951042Y-94106697D01*
X117650579Y-94231153D01*
X117544256Y-94252302D01*
X117331611Y-94294600D01*
X117006389Y-94294600D01*
X116793744Y-94252302D01*
X116687421Y-94231153D01*
X116386958Y-94106697D01*
X116116549Y-93926015D01*
X115886585Y-93696051D01*
X115705903Y-93425642D01*
X115581447Y-93125179D01*
X115518000Y-92806209D01*
X115518000Y-92480991D01*
X115581447Y-92162021D01*
X115705903Y-91861558D01*
X115886585Y-91591149D01*
X116116549Y-91361185D01*
X116386958Y-91180503D01*
X116687421Y-91056047D01*
X116793744Y-91034898D01*
X117006389Y-90992600D01*
X117331611Y-90992600D01*
X117544256Y-91034898D01*
X117544256Y-91034898D01*
G37*
G36*
X171684256Y-91034898D02*
G01*
X171790579Y-91056047D01*
X172091042Y-91180503D01*
X172361451Y-91361185D01*
X172591415Y-91591149D01*
X172772097Y-91861558D01*
X172896553Y-92162021D01*
X172960000Y-92480991D01*
X172960000Y-92806209D01*
X172896553Y-93125179D01*
X172772097Y-93425642D01*
X172591415Y-93696051D01*
X172361451Y-93926015D01*
X172091042Y-94106697D01*
X171790579Y-94231153D01*
X171684256Y-94252302D01*
X171471611Y-94294600D01*
X171146389Y-94294600D01*
X170933744Y-94252302D01*
X170827421Y-94231153D01*
X170526958Y-94106697D01*
X170256549Y-93926015D01*
X170026585Y-93696051D01*
X169845903Y-93425642D01*
X169721447Y-93125179D01*
X169658000Y-92806209D01*
X169658000Y-92480991D01*
X169721447Y-92162021D01*
X169845903Y-91861558D01*
X170026585Y-91591149D01*
X170256549Y-91361185D01*
X170526958Y-91180503D01*
X170827421Y-91056047D01*
X170933744Y-91034898D01*
X171146389Y-90992600D01*
X171471611Y-90992600D01*
X171684256Y-91034898D01*
X171684256Y-91034898D01*
G37*
M02*
