M48
; DRILL file {KiCad 5.1.0-unknown-9e240db~82~ubuntu18.04.1} date Fri 19 Apr 2019 11:10:59 AM CEST
; FORMAT={-:-/ absolute / metric / decimal}
; #@! TF.CreationDate,2019-04-19T11:10:59+02:00
; #@! TF.GenerationSoftware,Kicad,Pcbnew,5.1.0-unknown-9e240db~82~ubuntu18.04.1
; #@! TF.FileFunction,Plated,1,2,PTH
FMAT,2
METRIC
T1C0.300
T2C0.900
T3C1.100
T4C1.300
T5C1.700
T6C2.400
%
G90
G05
T1
X155.1Y-104.8
X156.783Y-92.703
X157.1Y-95.2
X157.5Y-105.4
X161.571Y-103.161
X164.0Y-99.5
X164.6Y-105.2
X165.1Y-104.0
X165.802Y-105.446
X166.2Y-99.5
X167.316Y-94.592
X169.532Y-105.489
X174.3Y-105.064
X175.634Y-105.866
X176.4Y-90.9
X176.4Y-91.6
X176.4Y-92.3
X176.4Y-93.0
X176.4Y-93.7
X177.1Y-90.9
X177.1Y-91.6
X177.1Y-92.3
X177.1Y-93.0
X177.1Y-93.7
X177.75Y-90.9
X177.75Y-91.6
X177.75Y-92.3
X177.75Y-93.0
X177.75Y-93.7
X178.1Y-106.4
X178.1Y-107.1
X178.1Y-107.8
X178.1Y-108.5
X178.1Y-109.2
X178.4Y-90.9
X178.4Y-91.6
X178.4Y-92.3
X178.4Y-93.0
X178.4Y-93.7
X178.8Y-106.4
X178.8Y-107.1
X178.8Y-107.8
X178.8Y-108.5
X178.8Y-109.2
X179.1Y-90.9
X179.5Y-109.2
X179.6Y-95.4
X179.6Y-96.1
X179.6Y-96.8
X179.6Y-97.5
X179.6Y-98.2
X179.6Y-98.9
X179.6Y-99.6
X179.6Y-100.3
X179.6Y-101.0
X179.6Y-104.3
X179.6Y-105.0
X180.3Y-96.1
X180.3Y-96.8
X180.3Y-97.5
X180.3Y-98.2
X180.3Y-98.9
X180.3Y-99.6
X180.3Y-100.3
X180.3Y-101.0
X180.3Y-104.3
X181.0Y-96.1
X181.0Y-96.8
X181.0Y-97.5
X181.0Y-98.2
X181.0Y-98.9
X181.0Y-99.6
X181.0Y-100.3
X181.0Y-101.0
X181.0Y-102.2
X181.0Y-102.9
X181.0Y-103.6
X181.0Y-104.3
X181.7Y-96.1
X181.7Y-96.8
X181.7Y-97.5
X181.7Y-98.2
X181.7Y-98.9
X181.7Y-99.6
X181.7Y-100.3
X181.7Y-101.0
X181.7Y-102.2
X181.7Y-102.9
X181.7Y-103.6
X181.7Y-104.3
X182.4Y-96.1
X182.4Y-96.8
X182.4Y-97.5
X182.4Y-98.2
X182.4Y-98.9
X182.4Y-99.6
X182.4Y-100.3
X182.4Y-101.0
X182.4Y-102.2
X182.4Y-102.9
X182.4Y-103.6
X182.4Y-104.3
X183.1Y-96.1
X183.1Y-96.8
X183.1Y-97.5
X183.1Y-98.2
X183.1Y-98.9
X183.1Y-99.6
X183.1Y-100.3
X183.1Y-101.0
X183.1Y-102.2
X183.1Y-102.9
X183.1Y-103.6
X183.1Y-104.3
X183.8Y-95.4
X183.8Y-96.1
X183.8Y-96.8
X183.8Y-97.5
X183.8Y-98.2
X183.8Y-98.9
X183.8Y-99.6
X183.8Y-100.3
X183.8Y-101.0
X183.8Y-102.2
X183.8Y-102.9
X183.8Y-103.6
X183.8Y-104.3
X183.8Y-105.0
T2
X170.34Y-100.144
X172.88Y-100.144
X176.73Y-98.14
X176.73Y-100.14
X176.73Y-102.14
T3
X125.8Y-96.1
X173.1Y-96.5
X123.1Y-96.1
X122.8Y-106.2
X125.5Y-106.2
T4
X176.73Y-96.04
X176.73Y-104.24
T5
X171.309Y-92.644
X117.169Y-107.644
X125.3Y-100.1
X117.169Y-92.644
X153.4Y-100.1
T6
X181.6Y-107.22
X181.6Y-93.09
T0
M30
