G04 #@! TF.GenerationSoftware,KiCad,Pcbnew,5.1.0-unknown-9e240db~82~ubuntu18.04.1*
G04 #@! TF.CreationDate,2019-04-16T23:19:22+02:00*
G04 #@! TF.ProjectId,VoltMax PWM Board B,566f6c74-4d61-4782-9050-574d20426f61,rev?*
G04 #@! TF.SameCoordinates,Original*
G04 #@! TF.FileFunction,Copper,L2,Bot*
G04 #@! TF.FilePolarity,Positive*
%FSLAX46Y46*%
G04 Gerber Fmt 4.6, Leading zero omitted, Abs format (unit mm)*
G04 Created by KiCad (PCBNEW 5.1.0-unknown-9e240db~82~ubuntu18.04.1) date 2019-04-16 23:19:22*
%MOMM*%
%LPD*%
G04 APERTURE LIST*
%ADD10C,0.100000*%
%ADD11C,3.200000*%
%ADD12C,1.700000*%
%ADD13C,1.300000*%
%ADD14R,4.700000X1.500000*%
%ADD15R,4.200000X3.100000*%
%ADD16R,0.700000X1.150000*%
%ADD17C,5.000000*%
%ADD18R,1.800000X1.800000*%
%ADD19R,1.000000X0.670000*%
%ADD20R,1.000000X1.000000*%
%ADD21R,1.720000X1.120000*%
%ADD22R,0.650000X1.525000*%
%ADD23R,2.200000X3.800000*%
%ADD24R,2.200000X1.500000*%
%ADD25R,0.575000X0.620000*%
%ADD26R,0.670000X1.000000*%
%ADD27R,0.600000X1.200000*%
%ADD28C,1.800000*%
%ADD29C,0.400000*%
%ADD30C,0.400000*%
%ADD31C,0.500000*%
G04 APERTURE END LIST*
D10*
G36*
X176980000Y-105089000D02*
G01*
X177113000Y-105079000D01*
X177242000Y-105047000D01*
X177365000Y-104996000D01*
X177479000Y-104927000D01*
X177580000Y-104840000D01*
X177667000Y-104739000D01*
X177736000Y-104625000D01*
X177787000Y-104502000D01*
X177819000Y-104373000D01*
X177829000Y-104240000D01*
X177819000Y-104107000D01*
X177787000Y-103978000D01*
X177736000Y-103855000D01*
X177667000Y-103741000D01*
X177580000Y-103640000D01*
X177479000Y-103553000D01*
X177365000Y-103484000D01*
X177242000Y-103433000D01*
X177113000Y-103401000D01*
X176980000Y-103391000D01*
X176480000Y-103391000D01*
X176347000Y-103401000D01*
X176218000Y-103433000D01*
X176095000Y-103484000D01*
X175981000Y-103553000D01*
X175880000Y-103640000D01*
X175793000Y-103741000D01*
X175724000Y-103855000D01*
X175673000Y-103978000D01*
X175641000Y-104107000D01*
X175631000Y-104240000D01*
X175641000Y-104373000D01*
X175673000Y-104502000D01*
X175724000Y-104625000D01*
X175793000Y-104739000D01*
X175880000Y-104840000D01*
X175981000Y-104927000D01*
X176095000Y-104996000D01*
X176218000Y-105047000D01*
X176347000Y-105079000D01*
X176480000Y-105089000D01*
X176980000Y-105089000D01*
G37*
G36*
X176980000Y-96889000D02*
G01*
X177113000Y-96879000D01*
X177242000Y-96847000D01*
X177365000Y-96796000D01*
X177479000Y-96727000D01*
X177580000Y-96640000D01*
X177667000Y-96539000D01*
X177736000Y-96425000D01*
X177787000Y-96302000D01*
X177819000Y-96173000D01*
X177829000Y-96040000D01*
X177819000Y-95907000D01*
X177787000Y-95778000D01*
X177736000Y-95655000D01*
X177667000Y-95541000D01*
X177580000Y-95440000D01*
X177479000Y-95353000D01*
X177365000Y-95284000D01*
X177242000Y-95233000D01*
X177113000Y-95201000D01*
X176980000Y-95191000D01*
X176480000Y-95191000D01*
X176347000Y-95201000D01*
X176218000Y-95233000D01*
X176095000Y-95284000D01*
X175981000Y-95353000D01*
X175880000Y-95440000D01*
X175793000Y-95541000D01*
X175724000Y-95655000D01*
X175673000Y-95778000D01*
X175641000Y-95907000D01*
X175631000Y-96040000D01*
X175641000Y-96173000D01*
X175673000Y-96302000D01*
X175724000Y-96425000D01*
X175793000Y-96539000D01*
X175880000Y-96640000D01*
X175981000Y-96727000D01*
X176095000Y-96796000D01*
X176218000Y-96847000D01*
X176347000Y-96879000D01*
X176480000Y-96889000D01*
X176980000Y-96889000D01*
G37*
G36*
X176980000Y-102789000D02*
G01*
X177082000Y-102781000D01*
X177181000Y-102757000D01*
X177275000Y-102718000D01*
X177361000Y-102665000D01*
X177439000Y-102599000D01*
X177505000Y-102521000D01*
X177558000Y-102435000D01*
X177597000Y-102341000D01*
X177621000Y-102242000D01*
X177629000Y-102140000D01*
X177621000Y-102038000D01*
X177597000Y-101939000D01*
X177558000Y-101845000D01*
X177505000Y-101759000D01*
X177439000Y-101681000D01*
X177361000Y-101615000D01*
X177275000Y-101562000D01*
X177181000Y-101523000D01*
X177082000Y-101499000D01*
X176980000Y-101491000D01*
X176480000Y-101491000D01*
X176378000Y-101499000D01*
X176279000Y-101523000D01*
X176185000Y-101562000D01*
X176099000Y-101615000D01*
X176021000Y-101681000D01*
X175955000Y-101759000D01*
X175902000Y-101845000D01*
X175863000Y-101939000D01*
X175839000Y-102038000D01*
X175831000Y-102140000D01*
X175839000Y-102242000D01*
X175863000Y-102341000D01*
X175902000Y-102435000D01*
X175955000Y-102521000D01*
X176021000Y-102599000D01*
X176099000Y-102665000D01*
X176185000Y-102718000D01*
X176279000Y-102757000D01*
X176378000Y-102781000D01*
X176480000Y-102789000D01*
X176980000Y-102789000D01*
G37*
G36*
X176980000Y-100789000D02*
G01*
X177082000Y-100781000D01*
X177181000Y-100757000D01*
X177275000Y-100718000D01*
X177361000Y-100665000D01*
X177439000Y-100599000D01*
X177505000Y-100521000D01*
X177558000Y-100435000D01*
X177597000Y-100341000D01*
X177621000Y-100242000D01*
X177629000Y-100140000D01*
X177621000Y-100038000D01*
X177597000Y-99939000D01*
X177558000Y-99845000D01*
X177505000Y-99759000D01*
X177439000Y-99681000D01*
X177361000Y-99615000D01*
X177275000Y-99562000D01*
X177181000Y-99523000D01*
X177082000Y-99499000D01*
X176980000Y-99491000D01*
X176480000Y-99491000D01*
X176378000Y-99499000D01*
X176279000Y-99523000D01*
X176185000Y-99562000D01*
X176099000Y-99615000D01*
X176021000Y-99681000D01*
X175955000Y-99759000D01*
X175902000Y-99845000D01*
X175863000Y-99939000D01*
X175839000Y-100038000D01*
X175831000Y-100140000D01*
X175839000Y-100242000D01*
X175863000Y-100341000D01*
X175902000Y-100435000D01*
X175955000Y-100521000D01*
X176021000Y-100599000D01*
X176099000Y-100665000D01*
X176185000Y-100718000D01*
X176279000Y-100757000D01*
X176378000Y-100781000D01*
X176480000Y-100789000D01*
X176980000Y-100789000D01*
G37*
G36*
X176980000Y-98789000D02*
G01*
X177082000Y-98781000D01*
X177181000Y-98757000D01*
X177275000Y-98718000D01*
X177361000Y-98665000D01*
X177439000Y-98599000D01*
X177505000Y-98521000D01*
X177558000Y-98435000D01*
X177597000Y-98341000D01*
X177621000Y-98242000D01*
X177629000Y-98140000D01*
X177621000Y-98038000D01*
X177597000Y-97939000D01*
X177558000Y-97845000D01*
X177505000Y-97759000D01*
X177439000Y-97681000D01*
X177361000Y-97615000D01*
X177275000Y-97562000D01*
X177181000Y-97523000D01*
X177082000Y-97499000D01*
X176980000Y-97491000D01*
X176480000Y-97491000D01*
X176378000Y-97499000D01*
X176279000Y-97523000D01*
X176185000Y-97562000D01*
X176099000Y-97615000D01*
X176021000Y-97681000D01*
X175955000Y-97759000D01*
X175902000Y-97845000D01*
X175863000Y-97939000D01*
X175839000Y-98038000D01*
X175831000Y-98140000D01*
X175839000Y-98242000D01*
X175863000Y-98341000D01*
X175902000Y-98435000D01*
X175955000Y-98521000D01*
X176021000Y-98599000D01*
X176099000Y-98665000D01*
X176185000Y-98718000D01*
X176279000Y-98757000D01*
X176378000Y-98781000D01*
X176480000Y-98789000D01*
X176980000Y-98789000D01*
G37*
D11*
X153400000Y-100100000D03*
D12*
X176730000Y-104240000D03*
X176730000Y-96040000D03*
D13*
X176730000Y-102140000D03*
X176730000Y-100140000D03*
X176730000Y-98140000D03*
D14*
X181650000Y-97450000D03*
D15*
X181650000Y-99750000D03*
D16*
X179745000Y-102925000D03*
X181015000Y-102925000D03*
X182285000Y-102925000D03*
X183555000Y-102925000D03*
D17*
X181600000Y-93090000D03*
X181600000Y-107220000D03*
D11*
X117169000Y-107644000D03*
X117169000Y-92643600D03*
X171309000Y-92643600D03*
X125300000Y-100100000D03*
D18*
X170340000Y-100144000D03*
X172880000Y-100144000D03*
D19*
X168300000Y-102225000D03*
X168300000Y-103975000D03*
X170300000Y-102225000D03*
X170300000Y-103975000D03*
X172300000Y-102225000D03*
X172300000Y-103975000D03*
X174300000Y-102225000D03*
X174300000Y-103975000D03*
D20*
X160050000Y-104300000D03*
X158150000Y-104300000D03*
X158150000Y-106700000D03*
X160050000Y-106700000D03*
D21*
X155400000Y-96875000D03*
X155400000Y-92725000D03*
D22*
X165805000Y-101288000D03*
X164535000Y-101288000D03*
X163265000Y-101288000D03*
X161995000Y-101288000D03*
X161995000Y-106712000D03*
X163265000Y-106712000D03*
X164535000Y-106712000D03*
X165805000Y-106712000D03*
D23*
X165450000Y-96100000D03*
D24*
X159150000Y-98400000D03*
X159150000Y-96100000D03*
X159150000Y-93800000D03*
D25*
X170888000Y-96800000D03*
X168512000Y-95850000D03*
X168512000Y-97750000D03*
D26*
X174725000Y-107000000D03*
X176475000Y-107000000D03*
X172975000Y-107000000D03*
X171225000Y-107000000D03*
X169375000Y-107000000D03*
X167625000Y-107000000D03*
D27*
X156050000Y-104150000D03*
X154150000Y-104150000D03*
X154150000Y-106650000D03*
X155100000Y-106650000D03*
X156050000Y-106650000D03*
D28*
X173100000Y-96500000D03*
X125800000Y-96100000D03*
X123100000Y-96100000D03*
X122800000Y-106200000D03*
X125500000Y-106200000D03*
D29*
X166200000Y-99500000D03*
X167316200Y-94592000D03*
X161571400Y-103161200D03*
X179500000Y-109200000D03*
X178100000Y-109200000D03*
X178800000Y-109200000D03*
X178800000Y-108500000D03*
X178100000Y-108500000D03*
X178100000Y-107800000D03*
X178800000Y-107800000D03*
X178100000Y-107100000D03*
X178800000Y-107100000D03*
X178800000Y-106400000D03*
X183800000Y-105000000D03*
X179600000Y-105000000D03*
X179600000Y-104300000D03*
X180300000Y-104300000D03*
X183800000Y-104300000D03*
X183100000Y-104300000D03*
X181700000Y-104300000D03*
X181000000Y-104300000D03*
X182400000Y-104300000D03*
X183100000Y-103600000D03*
X181000000Y-103600000D03*
X181700000Y-103600000D03*
X182400000Y-103600000D03*
X183800000Y-103600000D03*
X182400000Y-102900000D03*
X181000000Y-102900000D03*
X183800000Y-102900000D03*
X181700000Y-102900000D03*
X183100000Y-102900000D03*
X183800000Y-102200000D03*
X183100000Y-102200000D03*
X182400000Y-102200000D03*
X181700000Y-102200000D03*
X181000000Y-102200000D03*
X178100000Y-106400000D03*
X175634150Y-105865850D03*
X157100004Y-95199996D03*
X164000000Y-99500000D03*
X164599982Y-105199979D03*
X179600000Y-95400000D03*
X183800000Y-95400000D03*
X183800000Y-96100000D03*
X183100000Y-96100000D03*
X182400000Y-96100000D03*
X183100000Y-96800000D03*
X182400000Y-96800000D03*
X183800000Y-96800000D03*
X183100000Y-97500000D03*
X183800000Y-97500000D03*
X182400000Y-97500000D03*
X182400000Y-98200000D03*
X182400000Y-98900000D03*
X183800000Y-98200000D03*
X183800000Y-100300000D03*
X183800000Y-99600000D03*
X183800000Y-98900000D03*
X183800000Y-101000000D03*
X180300000Y-101000000D03*
X183100000Y-100300000D03*
X181000000Y-101000000D03*
X182400000Y-100300000D03*
X181000000Y-100300000D03*
X181700000Y-99600000D03*
X183100000Y-101000000D03*
X183100000Y-98200000D03*
X181700000Y-100300000D03*
X181000000Y-99600000D03*
X179600000Y-99600000D03*
X179600000Y-101000000D03*
X182400000Y-101000000D03*
X180300000Y-100300000D03*
X182400000Y-99600000D03*
X180300000Y-99600000D03*
X179600000Y-100300000D03*
X183100000Y-99600000D03*
X183100000Y-98900000D03*
X181700000Y-101000000D03*
X180300000Y-96800000D03*
X181700000Y-98900000D03*
X181700000Y-96800000D03*
X180300000Y-97500000D03*
X181000000Y-98900000D03*
X181700000Y-97500000D03*
X181700000Y-96100000D03*
X180300000Y-98900000D03*
X181000000Y-96800000D03*
X181000000Y-96100000D03*
X179600000Y-97500000D03*
X179600000Y-98900000D03*
X181000000Y-97500000D03*
X181700000Y-98200000D03*
X179600000Y-96100000D03*
X180300000Y-96100000D03*
X179600000Y-96800000D03*
X179600000Y-98200000D03*
X180300000Y-98200000D03*
X181000000Y-98200000D03*
X178400000Y-93700000D03*
X176400000Y-93700000D03*
X177100000Y-93700000D03*
X177750000Y-93700000D03*
X177100000Y-93000000D03*
X178400000Y-93000000D03*
X176400000Y-93000000D03*
X177750000Y-93000000D03*
X177100000Y-92300000D03*
X178400000Y-92300000D03*
X177750000Y-92300000D03*
X176400000Y-92300000D03*
X178400000Y-91600000D03*
X177750000Y-91600000D03*
X177100000Y-91600000D03*
X179100000Y-90900000D03*
X178400000Y-90900000D03*
X176400000Y-91600000D03*
X177750000Y-90900000D03*
X177100000Y-90900000D03*
X176400000Y-90900000D03*
X165801800Y-105446000D03*
X157500000Y-105400000D03*
X156782600Y-92702700D03*
X174300001Y-105064490D03*
X165100000Y-104000000D03*
X169532000Y-105488900D03*
X155100011Y-104799989D03*
D30*
X164535000Y-101288000D02*
X164535000Y-100125500D01*
X165917158Y-99500000D02*
X166200000Y-99500000D01*
X165160500Y-99500000D02*
X165917158Y-99500000D01*
X164535000Y-100125500D02*
X165160500Y-99500000D01*
X156050000Y-106650000D02*
X156100000Y-106700000D01*
X156200000Y-106700000D02*
X158150000Y-106700000D01*
X156100000Y-106700000D02*
X156200000Y-106700000D01*
X158150000Y-106700000D02*
X158286000Y-106700000D01*
X158400000Y-105900000D02*
X158400000Y-106450000D01*
X158800000Y-105500000D02*
X158400000Y-105900000D01*
X160050000Y-104300000D02*
X160050000Y-105500000D01*
X160050000Y-105500000D02*
X158800000Y-105500000D01*
X168460001Y-107900001D02*
X168460001Y-104260001D01*
X168360001Y-108000001D02*
X168460001Y-107900001D01*
X158150000Y-106700000D02*
X158150000Y-107750000D01*
X158150000Y-107750000D02*
X158400000Y-108000001D01*
X158400000Y-108000001D02*
X168360001Y-108000001D01*
X172300000Y-102225000D02*
X171300300Y-102225000D01*
X170300000Y-102225000D02*
X171300300Y-102225000D01*
X170300000Y-102225000D02*
X168300000Y-102225000D01*
X172300000Y-102225000D02*
X174300000Y-102225000D01*
X172936000Y-100200000D02*
X172880000Y-100144000D01*
X174300000Y-102225000D02*
X174300000Y-100200000D01*
X174300000Y-100200000D02*
X172936000Y-100200000D01*
X174600000Y-107000000D02*
X173075000Y-107000000D01*
X174725000Y-105975000D02*
X174834150Y-105865850D01*
X174725000Y-107000000D02*
X174725000Y-105975000D01*
X174834150Y-105865850D02*
X175634150Y-105865850D01*
X161995000Y-102737600D02*
X161571400Y-103161200D01*
X161995000Y-101288000D02*
X161995000Y-102737600D01*
X159150000Y-96100000D02*
X157650000Y-96100000D01*
X157650000Y-96100000D02*
X157100004Y-95550004D01*
X157100004Y-95550004D02*
X157100004Y-95482838D01*
X157100004Y-95482838D02*
X157100004Y-95199996D01*
X166800000Y-96100000D02*
X165450000Y-96100000D01*
X167316200Y-94592000D02*
X167316200Y-95583800D01*
X167316200Y-95583800D02*
X166800000Y-96100000D01*
X165450000Y-97150000D02*
X165450000Y-96100000D01*
X168512000Y-97750000D02*
X166050000Y-97750000D01*
X166050000Y-97750000D02*
X165450000Y-97150000D01*
X164600000Y-96650000D02*
X164600000Y-98900000D01*
X164600000Y-98900000D02*
X164199999Y-99300001D01*
X164199999Y-99300001D02*
X164000000Y-99500000D01*
X173965850Y-105865850D02*
X174834150Y-105865850D01*
X173300000Y-105200000D02*
X173965850Y-105865850D01*
X174300000Y-102225000D02*
X173300000Y-102225000D01*
X173300000Y-102225000D02*
X173300000Y-105200000D01*
X161571400Y-103161200D02*
X157541300Y-103161200D01*
X157000000Y-104818900D02*
X156269200Y-105549700D01*
X156269200Y-105549700D02*
X155386302Y-105549700D01*
X157541300Y-103161200D02*
X157000000Y-103702500D01*
X157000000Y-103702500D02*
X157000000Y-104818900D01*
X155386302Y-105549700D02*
X155100000Y-105836002D01*
X155100000Y-105836002D02*
X155100000Y-106650000D01*
X164600000Y-106647039D02*
X164600000Y-105200000D01*
X179670000Y-103000000D02*
X179745000Y-102925000D01*
X176475000Y-106025000D02*
X176600000Y-105900000D01*
X176475000Y-106800000D02*
X176475000Y-106025000D01*
X176600000Y-105900000D02*
X177068002Y-105900000D01*
X177068002Y-105900000D02*
X178600000Y-104368002D01*
X178600000Y-104368002D02*
X178600000Y-103000000D01*
X178600000Y-103000000D02*
X179670000Y-103000000D01*
X170289999Y-106099999D02*
X170289999Y-106645039D01*
X171860001Y-105999999D02*
X170389999Y-105999999D01*
X170389999Y-105999999D02*
X170289999Y-106099999D01*
X172100000Y-106239998D02*
X171860001Y-105999999D01*
X175740000Y-107000000D02*
X175600000Y-107140000D01*
X170135038Y-106800000D02*
X169475000Y-106800000D01*
X176475000Y-107000000D02*
X175740000Y-107000000D01*
X175600000Y-107140000D02*
X175600000Y-108000000D01*
X170289999Y-106645039D02*
X170135038Y-106800000D01*
X175600000Y-108000000D02*
X175500000Y-108100000D01*
X175500000Y-108100000D02*
X172100000Y-108100000D01*
X172100000Y-108100000D02*
X172100000Y-106239998D01*
X176285000Y-98140000D02*
X176730000Y-98140000D01*
X173100000Y-96500000D02*
X174645000Y-96500000D01*
X174645000Y-96500000D02*
X176285000Y-98140000D01*
X174690000Y-98100000D02*
X176730000Y-100140000D01*
X171600000Y-98100000D02*
X174690000Y-98100000D01*
X170900000Y-96900000D02*
X170900000Y-97400000D01*
X170900000Y-97400000D02*
X171600000Y-98100000D01*
X160100000Y-106700000D02*
X160050000Y-106700000D01*
X161995000Y-106712000D02*
X160112000Y-106712000D01*
X160112000Y-106712000D02*
X160100000Y-106700000D01*
X165805000Y-105449200D02*
X165801800Y-105446000D01*
X165805000Y-106712000D02*
X165805000Y-105449200D01*
X157500000Y-105400000D02*
X157900000Y-105400000D01*
X157900000Y-105400000D02*
X157900000Y-105000000D01*
X157900000Y-104349989D02*
X157900000Y-105000000D01*
X157900000Y-105000000D02*
X157900000Y-105200000D01*
X174300000Y-103975000D02*
X174300001Y-104781648D01*
X174300001Y-104781648D02*
X174300001Y-105064490D01*
X164717158Y-104000000D02*
X164817158Y-104000000D01*
X163265000Y-106712000D02*
X163265000Y-105452158D01*
X163265000Y-105452158D02*
X164717158Y-104000000D01*
X164817158Y-104000000D02*
X165100000Y-104000000D01*
X156779900Y-92700000D02*
X156782600Y-92702700D01*
X155400000Y-92725000D02*
X155425000Y-92700000D01*
X155425000Y-92700000D02*
X156779900Y-92700000D01*
X163265000Y-102450500D02*
X163265000Y-101288000D01*
X163365300Y-102550800D02*
X163265000Y-102450500D01*
X167600000Y-105510035D02*
X164640765Y-102550800D01*
X167725000Y-106800000D02*
X167600000Y-106675000D01*
X164640765Y-102550800D02*
X163365300Y-102550800D01*
X167600000Y-106675000D02*
X167600000Y-105510035D01*
X163265000Y-100201004D02*
X163265000Y-101288000D01*
X156050000Y-103350000D02*
X157100000Y-102300000D01*
X156050000Y-104150000D02*
X156050000Y-103350000D01*
X157100000Y-102300000D02*
X158995498Y-102300000D01*
X161359496Y-99936002D02*
X162999998Y-99936002D01*
X162999998Y-99936002D02*
X163265000Y-100201004D01*
X158995498Y-102300000D02*
X161359496Y-99936002D01*
X170300000Y-104720900D02*
X169532000Y-105488900D01*
X170300000Y-103975000D02*
X170300000Y-104720900D01*
X161100000Y-98400000D02*
X159150000Y-98400000D01*
X161100000Y-95800000D02*
X161100000Y-98400000D01*
X167414200Y-93699600D02*
X163200400Y-93699600D01*
X163200400Y-93699600D02*
X161100000Y-95800000D01*
X168512000Y-95850000D02*
X168512000Y-94797400D01*
X168512000Y-94797400D02*
X167414200Y-93699600D01*
X155100011Y-104517147D02*
X155100011Y-104799989D01*
X155100011Y-103299987D02*
X155100011Y-104517147D01*
X156899998Y-101500000D02*
X155100011Y-103299987D01*
X157700000Y-101500000D02*
X156899998Y-101500000D01*
X159150000Y-98400000D02*
X159150000Y-100050000D01*
X159150000Y-100050000D02*
X157700000Y-101500000D01*
X159150000Y-93800000D02*
X157549700Y-93800000D01*
X155400000Y-94384900D02*
X155400000Y-96875000D01*
X155400000Y-94384900D02*
X156964800Y-94384900D01*
X156964800Y-94384900D02*
X157549700Y-93800000D01*
X166966500Y-101288000D02*
X166966500Y-102446500D01*
X166966500Y-102446500D02*
X167659700Y-103139700D01*
X167659700Y-103139700D02*
X172300000Y-103139700D01*
X160750300Y-93800000D02*
X161551000Y-92999300D01*
X161551000Y-92999300D02*
X167715600Y-92999300D01*
X167715600Y-92999300D02*
X169299800Y-94583500D01*
X169299800Y-94583500D02*
X169299800Y-98271200D01*
X169299800Y-98271200D02*
X166966500Y-100604500D01*
X166966500Y-100604500D02*
X166966500Y-101288000D01*
X166966500Y-101288000D02*
X165805000Y-101288000D01*
X172300000Y-103975000D02*
X172300000Y-103139700D01*
X159150000Y-93800000D02*
X160750300Y-93800000D01*
X156875000Y-96875000D02*
X155400000Y-96875000D01*
X154150000Y-104150000D02*
X154200000Y-104100000D01*
X157300000Y-97300000D02*
X156875000Y-96875000D01*
X157300000Y-99920072D02*
X157300000Y-97300000D01*
X154200000Y-103020072D02*
X157300000Y-99920072D01*
X154200000Y-104100000D02*
X154200000Y-103020072D01*
X127800000Y-92400000D02*
X126900000Y-92400000D01*
X127813410Y-92386590D02*
X127800000Y-92400000D01*
X126900000Y-92400000D02*
X123200000Y-96100000D01*
X155400000Y-94384900D02*
X153034586Y-94384900D01*
X151036276Y-92386590D02*
X127813410Y-92386590D01*
X153034586Y-94384900D02*
X151036276Y-92386590D01*
X154150000Y-106650000D02*
X154150000Y-107750300D01*
X171200000Y-108000000D02*
X171200000Y-106875000D01*
X170499988Y-108700012D02*
X171200000Y-108000000D01*
X154600012Y-108700012D02*
X170499988Y-108700012D01*
X154150000Y-107750300D02*
X154150000Y-108250000D01*
X154150000Y-108250000D02*
X154600012Y-108700012D01*
X154149700Y-107750300D02*
X154150000Y-107750300D01*
X127423090Y-97723090D02*
X127423090Y-107459776D01*
X154100000Y-107800000D02*
X154149700Y-107750300D01*
X125800000Y-96100000D02*
X127423090Y-97723090D01*
X154096610Y-107796610D02*
X154100000Y-107800000D01*
X127423090Y-107459776D02*
X127759924Y-107796610D01*
X127759924Y-107796610D02*
X154096610Y-107796610D01*
D31*
G36*
X183271097Y-90786278D02*
G01*
X183415306Y-90829798D01*
X183548321Y-90900502D01*
X183665061Y-90995689D01*
X183761095Y-91111745D01*
X183832758Y-91244245D01*
X183877319Y-91388135D01*
X183896101Y-91566618D01*
X183896100Y-101250000D01*
X179450000Y-101250000D01*
X179450000Y-94100000D01*
X179445196Y-94051227D01*
X179430970Y-94004329D01*
X179407867Y-93961107D01*
X179376777Y-93923223D01*
X179338893Y-93892133D01*
X179295671Y-93869030D01*
X179248773Y-93854804D01*
X179200000Y-93850000D01*
X176250000Y-93850000D01*
X176250000Y-90768600D01*
X183090577Y-90768600D01*
X183271097Y-90786278D01*
X183271097Y-90786278D01*
G37*
X183271097Y-90786278D02*
X183415306Y-90829798D01*
X183548321Y-90900502D01*
X183665061Y-90995689D01*
X183761095Y-91111745D01*
X183832758Y-91244245D01*
X183877319Y-91388135D01*
X183896101Y-91566618D01*
X183896100Y-101250000D01*
X179450000Y-101250000D01*
X179450000Y-94100000D01*
X179445196Y-94051227D01*
X179430970Y-94004329D01*
X179407867Y-93961107D01*
X179376777Y-93923223D01*
X179338893Y-93892133D01*
X179295671Y-93869030D01*
X179248773Y-93854804D01*
X179200000Y-93850000D01*
X176250000Y-93850000D01*
X176250000Y-90768600D01*
X183090577Y-90768600D01*
X183271097Y-90786278D01*
G36*
X183896100Y-106324303D02*
G01*
X183896101Y-106324313D01*
X183896100Y-108713066D01*
X183878421Y-108893595D01*
X183834901Y-109037805D01*
X183764199Y-109170817D01*
X183669009Y-109287561D01*
X183552954Y-109383594D01*
X183420452Y-109455259D01*
X183276565Y-109499819D01*
X183098091Y-109518600D01*
X178050000Y-109518600D01*
X178050000Y-106150000D01*
X179200000Y-106150000D01*
X179248773Y-106145196D01*
X179295671Y-106130970D01*
X179338893Y-106107867D01*
X179376777Y-106076777D01*
X179407867Y-106038893D01*
X179430970Y-105995671D01*
X179445196Y-105948773D01*
X179450000Y-105900000D01*
X179450000Y-104052661D01*
X180095000Y-104052661D01*
X180122018Y-104050000D01*
X180600000Y-104050000D01*
X180648773Y-104045196D01*
X180695671Y-104030970D01*
X180738893Y-104007867D01*
X180776777Y-103976777D01*
X180807867Y-103938893D01*
X180830970Y-103895671D01*
X180845196Y-103848773D01*
X180850000Y-103800000D01*
X180850000Y-102150000D01*
X183896100Y-102150000D01*
X183896100Y-106324303D01*
X183896100Y-106324303D01*
G37*
X183896100Y-106324303D02*
X183896101Y-106324313D01*
X183896100Y-108713066D01*
X183878421Y-108893595D01*
X183834901Y-109037805D01*
X183764199Y-109170817D01*
X183669009Y-109287561D01*
X183552954Y-109383594D01*
X183420452Y-109455259D01*
X183276565Y-109499819D01*
X183098091Y-109518600D01*
X178050000Y-109518600D01*
X178050000Y-106150000D01*
X179200000Y-106150000D01*
X179248773Y-106145196D01*
X179295671Y-106130970D01*
X179338893Y-106107867D01*
X179376777Y-106076777D01*
X179407867Y-106038893D01*
X179430970Y-105995671D01*
X179445196Y-105948773D01*
X179450000Y-105900000D01*
X179450000Y-104052661D01*
X180095000Y-104052661D01*
X180122018Y-104050000D01*
X180600000Y-104050000D01*
X180648773Y-104045196D01*
X180695671Y-104030970D01*
X180738893Y-104007867D01*
X180776777Y-103976777D01*
X180807867Y-103938893D01*
X180830970Y-103895671D01*
X180845196Y-103848773D01*
X180850000Y-103800000D01*
X180850000Y-102150000D01*
X183896100Y-102150000D01*
X183896100Y-106324303D01*
M02*
