G04 #@! TF.GenerationSoftware,KiCad,Pcbnew,5.1.0-unknown-9e240db~82~ubuntu18.04.1*
G04 #@! TF.CreationDate,2019-04-16T23:19:22+02:00*
G04 #@! TF.ProjectId,VoltMax PWM Board B,566f6c74-4d61-4782-9050-574d20426f61,rev?*
G04 #@! TF.SameCoordinates,Original*
G04 #@! TF.FileFunction,Soldermask,Bot*
G04 #@! TF.FilePolarity,Negative*
%FSLAX46Y46*%
G04 Gerber Fmt 4.6, Leading zero omitted, Abs format (unit mm)*
G04 Created by KiCad (PCBNEW 5.1.0-unknown-9e240db~82~ubuntu18.04.1) date 2019-04-16 23:19:22*
%MOMM*%
%LPD*%
G04 APERTURE LIST*
%ADD10C,0.100000*%
G04 APERTURE END LIST*
D10*
G36*
X176480000Y-103288000D02*
G01*
X176331000Y-103300000D01*
X176186000Y-103335000D01*
X176048000Y-103392000D01*
X175920000Y-103470000D01*
X175807000Y-103567000D01*
X175710000Y-103680000D01*
X175632000Y-103808000D01*
X175575000Y-103946000D01*
X175540000Y-104091000D01*
X175528000Y-104240000D01*
X175540000Y-104389000D01*
X175575000Y-104534000D01*
X175632000Y-104672000D01*
X175710000Y-104800000D01*
X175807000Y-104913000D01*
X175920000Y-105010000D01*
X176048000Y-105088000D01*
X176186000Y-105145000D01*
X176331000Y-105180000D01*
X176480000Y-105192000D01*
X176980000Y-105192000D01*
X177129000Y-105180000D01*
X177274000Y-105145000D01*
X177412000Y-105088000D01*
X177540000Y-105010000D01*
X177653000Y-104913000D01*
X177750000Y-104800000D01*
X177828000Y-104672000D01*
X177885000Y-104534000D01*
X177920000Y-104389000D01*
X177932000Y-104240000D01*
X177920000Y-104091000D01*
X177885000Y-103946000D01*
X177828000Y-103808000D01*
X177750000Y-103680000D01*
X177653000Y-103567000D01*
X177540000Y-103470000D01*
X177412000Y-103392000D01*
X177274000Y-103335000D01*
X177129000Y-103300000D01*
X176980000Y-103288000D01*
X176480000Y-103288000D01*
G37*
G36*
X176480000Y-95088000D02*
G01*
X176331000Y-95100000D01*
X176186000Y-95135000D01*
X176048000Y-95192000D01*
X175920000Y-95270000D01*
X175807000Y-95367000D01*
X175710000Y-95480000D01*
X175632000Y-95608000D01*
X175575000Y-95746000D01*
X175540000Y-95891000D01*
X175528000Y-96040000D01*
X175540000Y-96189000D01*
X175575000Y-96334000D01*
X175632000Y-96472000D01*
X175710000Y-96600000D01*
X175807000Y-96713000D01*
X175920000Y-96810000D01*
X176048000Y-96888000D01*
X176186000Y-96945000D01*
X176331000Y-96980000D01*
X176480000Y-96992000D01*
X176980000Y-96992000D01*
X177129000Y-96980000D01*
X177274000Y-96945000D01*
X177412000Y-96888000D01*
X177540000Y-96810000D01*
X177653000Y-96713000D01*
X177750000Y-96600000D01*
X177828000Y-96472000D01*
X177885000Y-96334000D01*
X177920000Y-96189000D01*
X177932000Y-96040000D01*
X177920000Y-95891000D01*
X177885000Y-95746000D01*
X177828000Y-95608000D01*
X177750000Y-95480000D01*
X177653000Y-95367000D01*
X177540000Y-95270000D01*
X177412000Y-95192000D01*
X177274000Y-95135000D01*
X177129000Y-95100000D01*
X176980000Y-95088000D01*
X176480000Y-95088000D01*
G37*
G36*
X176480000Y-101388000D02*
G01*
X176362000Y-101397000D01*
X176248000Y-101425000D01*
X176139000Y-101470000D01*
X176038000Y-101532000D01*
X175948000Y-101608000D01*
X175872000Y-101698000D01*
X175810000Y-101799000D01*
X175765000Y-101908000D01*
X175737000Y-102022000D01*
X175728000Y-102140000D01*
X175737000Y-102258000D01*
X175765000Y-102372000D01*
X175810000Y-102481000D01*
X175872000Y-102582000D01*
X175948000Y-102672000D01*
X176038000Y-102748000D01*
X176139000Y-102810000D01*
X176248000Y-102855000D01*
X176362000Y-102883000D01*
X176480000Y-102892000D01*
X176980000Y-102892000D01*
X177098000Y-102883000D01*
X177212000Y-102855000D01*
X177321000Y-102810000D01*
X177422000Y-102748000D01*
X177512000Y-102672000D01*
X177588000Y-102582000D01*
X177650000Y-102481000D01*
X177695000Y-102372000D01*
X177723000Y-102258000D01*
X177732000Y-102140000D01*
X177723000Y-102022000D01*
X177695000Y-101908000D01*
X177650000Y-101799000D01*
X177588000Y-101698000D01*
X177512000Y-101608000D01*
X177422000Y-101532000D01*
X177321000Y-101470000D01*
X177212000Y-101425000D01*
X177098000Y-101397000D01*
X176980000Y-101388000D01*
X176480000Y-101388000D01*
G37*
G36*
X176480000Y-99388000D02*
G01*
X176362000Y-99397000D01*
X176248000Y-99425000D01*
X176139000Y-99470000D01*
X176038000Y-99532000D01*
X175948000Y-99608000D01*
X175872000Y-99698000D01*
X175810000Y-99799000D01*
X175765000Y-99908000D01*
X175737000Y-100022000D01*
X175728000Y-100140000D01*
X175737000Y-100258000D01*
X175765000Y-100372000D01*
X175810000Y-100481000D01*
X175872000Y-100582000D01*
X175948000Y-100672000D01*
X176038000Y-100748000D01*
X176139000Y-100810000D01*
X176248000Y-100855000D01*
X176362000Y-100883000D01*
X176480000Y-100892000D01*
X176980000Y-100892000D01*
X177098000Y-100883000D01*
X177212000Y-100855000D01*
X177321000Y-100810000D01*
X177422000Y-100748000D01*
X177512000Y-100672000D01*
X177588000Y-100582000D01*
X177650000Y-100481000D01*
X177695000Y-100372000D01*
X177723000Y-100258000D01*
X177732000Y-100140000D01*
X177723000Y-100022000D01*
X177695000Y-99908000D01*
X177650000Y-99799000D01*
X177588000Y-99698000D01*
X177512000Y-99608000D01*
X177422000Y-99532000D01*
X177321000Y-99470000D01*
X177212000Y-99425000D01*
X177098000Y-99397000D01*
X176980000Y-99388000D01*
X176480000Y-99388000D01*
G37*
G36*
X176480000Y-97388000D02*
G01*
X176362000Y-97397000D01*
X176248000Y-97425000D01*
X176139000Y-97470000D01*
X176038000Y-97532000D01*
X175948000Y-97608000D01*
X175872000Y-97698000D01*
X175810000Y-97799000D01*
X175765000Y-97908000D01*
X175737000Y-98022000D01*
X175728000Y-98140000D01*
X175737000Y-98258000D01*
X175765000Y-98372000D01*
X175810000Y-98481000D01*
X175872000Y-98582000D01*
X175948000Y-98672000D01*
X176038000Y-98748000D01*
X176139000Y-98810000D01*
X176248000Y-98855000D01*
X176362000Y-98883000D01*
X176480000Y-98892000D01*
X176980000Y-98892000D01*
X177098000Y-98883000D01*
X177212000Y-98855000D01*
X177321000Y-98810000D01*
X177422000Y-98748000D01*
X177512000Y-98672000D01*
X177588000Y-98582000D01*
X177650000Y-98481000D01*
X177695000Y-98372000D01*
X177723000Y-98258000D01*
X177732000Y-98140000D01*
X177723000Y-98022000D01*
X177695000Y-97908000D01*
X177650000Y-97799000D01*
X177588000Y-97698000D01*
X177512000Y-97608000D01*
X177422000Y-97532000D01*
X177321000Y-97470000D01*
X177212000Y-97425000D01*
X177098000Y-97397000D01*
X176980000Y-97388000D01*
X176480000Y-97388000D01*
G37*
G36*
X182344098Y-104767033D02*
G01*
X182808350Y-104959332D01*
X182808352Y-104959333D01*
X183226168Y-105238509D01*
X183581491Y-105593832D01*
X183852216Y-105999000D01*
X183860668Y-106011650D01*
X184052967Y-106475902D01*
X184151000Y-106968747D01*
X184151000Y-107471253D01*
X184052967Y-107964098D01*
X183861625Y-108426040D01*
X183860667Y-108428352D01*
X183581491Y-108846168D01*
X183226168Y-109201491D01*
X182808352Y-109480667D01*
X182808351Y-109480668D01*
X182808350Y-109480668D01*
X182344098Y-109672967D01*
X181851253Y-109771000D01*
X181348747Y-109771000D01*
X180855902Y-109672967D01*
X180391650Y-109480668D01*
X180391649Y-109480668D01*
X180391648Y-109480667D01*
X179973832Y-109201491D01*
X179618509Y-108846168D01*
X179339333Y-108428352D01*
X179338375Y-108426040D01*
X179147033Y-107964098D01*
X179049000Y-107471253D01*
X179049000Y-106968747D01*
X179147033Y-106475902D01*
X179339332Y-106011650D01*
X179347784Y-105999000D01*
X179618509Y-105593832D01*
X179973832Y-105238509D01*
X180391648Y-104959333D01*
X180391650Y-104959332D01*
X180855902Y-104767033D01*
X181348747Y-104669000D01*
X181851253Y-104669000D01*
X182344098Y-104767033D01*
X182344098Y-104767033D01*
G37*
G36*
X117544256Y-106035298D02*
G01*
X117650579Y-106056447D01*
X117951042Y-106180903D01*
X118221451Y-106361585D01*
X118451415Y-106591549D01*
X118632097Y-106861958D01*
X118725564Y-107087606D01*
X118756553Y-107162422D01*
X118817984Y-107471253D01*
X118820000Y-107481391D01*
X118820000Y-107806609D01*
X118756553Y-108125579D01*
X118632097Y-108426042D01*
X118451415Y-108696451D01*
X118221451Y-108926415D01*
X117951042Y-109107097D01*
X117650579Y-109231553D01*
X117544256Y-109252702D01*
X117331611Y-109295000D01*
X117006389Y-109295000D01*
X116793744Y-109252702D01*
X116687421Y-109231553D01*
X116386958Y-109107097D01*
X116116549Y-108926415D01*
X115886585Y-108696451D01*
X115705903Y-108426042D01*
X115581447Y-108125579D01*
X115518000Y-107806609D01*
X115518000Y-107481391D01*
X115520017Y-107471253D01*
X115581447Y-107162422D01*
X115612437Y-107087606D01*
X115705903Y-106861958D01*
X115886585Y-106591549D01*
X116116549Y-106361585D01*
X116386958Y-106180903D01*
X116687421Y-106056447D01*
X116793744Y-106035298D01*
X117006389Y-105993000D01*
X117331611Y-105993000D01*
X117544256Y-106035298D01*
X117544256Y-106035298D01*
G37*
G36*
X171611000Y-107551000D02*
G01*
X170839000Y-107551000D01*
X170839000Y-106449000D01*
X171611000Y-106449000D01*
X171611000Y-107551000D01*
X171611000Y-107551000D01*
G37*
G36*
X176861000Y-107551000D02*
G01*
X176089000Y-107551000D01*
X176089000Y-106449000D01*
X176861000Y-106449000D01*
X176861000Y-107551000D01*
X176861000Y-107551000D01*
G37*
G36*
X173361000Y-107551000D02*
G01*
X172589000Y-107551000D01*
X172589000Y-106449000D01*
X173361000Y-106449000D01*
X173361000Y-107551000D01*
X173361000Y-107551000D01*
G37*
G36*
X169761000Y-107551000D02*
G01*
X168989000Y-107551000D01*
X168989000Y-106449000D01*
X169761000Y-106449000D01*
X169761000Y-107551000D01*
X169761000Y-107551000D01*
G37*
G36*
X168011000Y-107551000D02*
G01*
X167239000Y-107551000D01*
X167239000Y-106449000D01*
X168011000Y-106449000D01*
X168011000Y-107551000D01*
X168011000Y-107551000D01*
G37*
G36*
X175111000Y-107551000D02*
G01*
X174339000Y-107551000D01*
X174339000Y-106449000D01*
X175111000Y-106449000D01*
X175111000Y-107551000D01*
X175111000Y-107551000D01*
G37*
G36*
X162371000Y-107525500D02*
G01*
X161619000Y-107525500D01*
X161619000Y-105898500D01*
X162371000Y-105898500D01*
X162371000Y-107525500D01*
X162371000Y-107525500D01*
G37*
G36*
X163641000Y-107525500D02*
G01*
X162889000Y-107525500D01*
X162889000Y-105898500D01*
X163641000Y-105898500D01*
X163641000Y-107525500D01*
X163641000Y-107525500D01*
G37*
G36*
X164911000Y-107525500D02*
G01*
X164159000Y-107525500D01*
X164159000Y-105898500D01*
X164911000Y-105898500D01*
X164911000Y-107525500D01*
X164911000Y-107525500D01*
G37*
G36*
X166181000Y-107525500D02*
G01*
X165429000Y-107525500D01*
X165429000Y-105898500D01*
X166181000Y-105898500D01*
X166181000Y-107525500D01*
X166181000Y-107525500D01*
G37*
G36*
X156401000Y-107301000D02*
G01*
X153799000Y-107301000D01*
X153799000Y-105999000D01*
X156401000Y-105999000D01*
X156401000Y-107301000D01*
X156401000Y-107301000D01*
G37*
G36*
X158701000Y-107251000D02*
G01*
X157599000Y-107251000D01*
X157599000Y-106149000D01*
X158701000Y-106149000D01*
X158701000Y-107251000D01*
X158701000Y-107251000D01*
G37*
G36*
X160601000Y-107251000D02*
G01*
X159499000Y-107251000D01*
X159499000Y-106149000D01*
X160601000Y-106149000D01*
X160601000Y-107251000D01*
X160601000Y-107251000D01*
G37*
G36*
X125695403Y-105217646D02*
G01*
X125792156Y-105236891D01*
X125867658Y-105268165D01*
X125974434Y-105312393D01*
X125974435Y-105312394D01*
X126138483Y-105422007D01*
X126277993Y-105561517D01*
X126277994Y-105561519D01*
X126387607Y-105725566D01*
X126431835Y-105832342D01*
X126459239Y-105898500D01*
X126463109Y-105907845D01*
X126501600Y-106101350D01*
X126501600Y-106298650D01*
X126463109Y-106492155D01*
X126387607Y-106674434D01*
X126387606Y-106674435D01*
X126277993Y-106838483D01*
X126138483Y-106977993D01*
X126055902Y-107033172D01*
X125974434Y-107087607D01*
X125867658Y-107131835D01*
X125792156Y-107163109D01*
X125695403Y-107182354D01*
X125598650Y-107201600D01*
X125401350Y-107201600D01*
X125304597Y-107182354D01*
X125207844Y-107163109D01*
X125132342Y-107131835D01*
X125025566Y-107087607D01*
X124944098Y-107033172D01*
X124861517Y-106977993D01*
X124722007Y-106838483D01*
X124612394Y-106674435D01*
X124612393Y-106674434D01*
X124536891Y-106492155D01*
X124498400Y-106298650D01*
X124498400Y-106101350D01*
X124536891Y-105907845D01*
X124540762Y-105898500D01*
X124568165Y-105832342D01*
X124612393Y-105725566D01*
X124722006Y-105561519D01*
X124722007Y-105561517D01*
X124861517Y-105422007D01*
X125025565Y-105312394D01*
X125025566Y-105312393D01*
X125132342Y-105268165D01*
X125207844Y-105236891D01*
X125304597Y-105217646D01*
X125401350Y-105198400D01*
X125598650Y-105198400D01*
X125695403Y-105217646D01*
X125695403Y-105217646D01*
G37*
G36*
X122995403Y-105217646D02*
G01*
X123092156Y-105236891D01*
X123167658Y-105268165D01*
X123274434Y-105312393D01*
X123274435Y-105312394D01*
X123438483Y-105422007D01*
X123577993Y-105561517D01*
X123577994Y-105561519D01*
X123687607Y-105725566D01*
X123731835Y-105832342D01*
X123759239Y-105898500D01*
X123763109Y-105907845D01*
X123801600Y-106101350D01*
X123801600Y-106298650D01*
X123763109Y-106492155D01*
X123687607Y-106674434D01*
X123687606Y-106674435D01*
X123577993Y-106838483D01*
X123438483Y-106977993D01*
X123355902Y-107033172D01*
X123274434Y-107087607D01*
X123167658Y-107131835D01*
X123092156Y-107163109D01*
X122995403Y-107182354D01*
X122898650Y-107201600D01*
X122701350Y-107201600D01*
X122604597Y-107182354D01*
X122507844Y-107163109D01*
X122432342Y-107131835D01*
X122325566Y-107087607D01*
X122244098Y-107033172D01*
X122161517Y-106977993D01*
X122022007Y-106838483D01*
X121912394Y-106674435D01*
X121912393Y-106674434D01*
X121836891Y-106492155D01*
X121798400Y-106298650D01*
X121798400Y-106101350D01*
X121836891Y-105907845D01*
X121840762Y-105898500D01*
X121868165Y-105832342D01*
X121912393Y-105725566D01*
X122022006Y-105561519D01*
X122022007Y-105561517D01*
X122161517Y-105422007D01*
X122325565Y-105312394D01*
X122325566Y-105312393D01*
X122432342Y-105268165D01*
X122507844Y-105236891D01*
X122604597Y-105217646D01*
X122701350Y-105198400D01*
X122898650Y-105198400D01*
X122995403Y-105217646D01*
X122995403Y-105217646D01*
G37*
G36*
X177007570Y-103324969D02*
G01*
X177180753Y-103396704D01*
X177336607Y-103500842D01*
X177469158Y-103633393D01*
X177573296Y-103789247D01*
X177645031Y-103962430D01*
X177681600Y-104146274D01*
X177681600Y-104333726D01*
X177645031Y-104517570D01*
X177573296Y-104690753D01*
X177469158Y-104846607D01*
X177336607Y-104979158D01*
X177180753Y-105083296D01*
X177007570Y-105155031D01*
X176823726Y-105191600D01*
X176636274Y-105191600D01*
X176452430Y-105155031D01*
X176279247Y-105083296D01*
X176123393Y-104979158D01*
X175990842Y-104846607D01*
X175886704Y-104690753D01*
X175814969Y-104517570D01*
X175778400Y-104333726D01*
X175778400Y-104146274D01*
X175814969Y-103962430D01*
X175886704Y-103789247D01*
X175990842Y-103633393D01*
X176123393Y-103500842D01*
X176279247Y-103396704D01*
X176452430Y-103324969D01*
X176636274Y-103288400D01*
X176823726Y-103288400D01*
X177007570Y-103324969D01*
X177007570Y-103324969D01*
G37*
G36*
X158701000Y-104851000D02*
G01*
X157599000Y-104851000D01*
X157599000Y-103749000D01*
X158701000Y-103749000D01*
X158701000Y-104851000D01*
X158701000Y-104851000D01*
G37*
G36*
X160601000Y-104851000D02*
G01*
X159499000Y-104851000D01*
X159499000Y-103749000D01*
X160601000Y-103749000D01*
X160601000Y-104851000D01*
X160601000Y-104851000D01*
G37*
G36*
X154501000Y-104801000D02*
G01*
X153799000Y-104801000D01*
X153799000Y-103499000D01*
X154501000Y-103499000D01*
X154501000Y-104801000D01*
X154501000Y-104801000D01*
G37*
G36*
X156401000Y-104801000D02*
G01*
X155699000Y-104801000D01*
X155699000Y-103499000D01*
X156401000Y-103499000D01*
X156401000Y-104801000D01*
X156401000Y-104801000D01*
G37*
G36*
X172851000Y-104361000D02*
G01*
X171749000Y-104361000D01*
X171749000Y-103589000D01*
X172851000Y-103589000D01*
X172851000Y-104361000D01*
X172851000Y-104361000D01*
G37*
G36*
X168851000Y-104361000D02*
G01*
X167749000Y-104361000D01*
X167749000Y-103589000D01*
X168851000Y-103589000D01*
X168851000Y-104361000D01*
X168851000Y-104361000D01*
G37*
G36*
X174851000Y-104361000D02*
G01*
X173749000Y-104361000D01*
X173749000Y-103589000D01*
X174851000Y-103589000D01*
X174851000Y-104361000D01*
X174851000Y-104361000D01*
G37*
G36*
X170851000Y-104361000D02*
G01*
X169749000Y-104361000D01*
X169749000Y-103589000D01*
X170851000Y-103589000D01*
X170851000Y-104361000D01*
X170851000Y-104361000D01*
G37*
G36*
X180146000Y-103551000D02*
G01*
X179344000Y-103551000D01*
X179344000Y-102299000D01*
X180146000Y-102299000D01*
X180146000Y-103551000D01*
X180146000Y-103551000D01*
G37*
G36*
X181416000Y-103551000D02*
G01*
X180614000Y-103551000D01*
X180614000Y-102299000D01*
X181416000Y-102299000D01*
X181416000Y-103551000D01*
X181416000Y-103551000D01*
G37*
G36*
X182686000Y-103551000D02*
G01*
X181884000Y-103551000D01*
X181884000Y-102299000D01*
X182686000Y-102299000D01*
X182686000Y-103551000D01*
X182686000Y-103551000D01*
G37*
G36*
X183956000Y-103551000D02*
G01*
X183154000Y-103551000D01*
X183154000Y-102299000D01*
X183956000Y-102299000D01*
X183956000Y-103551000D01*
X183956000Y-103551000D01*
G37*
G36*
X176949234Y-101417283D02*
G01*
X177086016Y-101473940D01*
X177209117Y-101556194D01*
X177313806Y-101660883D01*
X177396060Y-101783984D01*
X177452717Y-101920766D01*
X177481600Y-102065974D01*
X177481600Y-102214026D01*
X177452717Y-102359234D01*
X177396060Y-102496016D01*
X177313806Y-102619117D01*
X177209117Y-102723806D01*
X177086016Y-102806060D01*
X176949234Y-102862717D01*
X176804026Y-102891600D01*
X176655974Y-102891600D01*
X176510766Y-102862717D01*
X176373984Y-102806060D01*
X176250883Y-102723806D01*
X176146194Y-102619117D01*
X176063940Y-102496016D01*
X176007283Y-102359234D01*
X175978400Y-102214026D01*
X175978400Y-102065974D01*
X176007283Y-101920766D01*
X176063940Y-101783984D01*
X176146194Y-101660883D01*
X176250883Y-101556194D01*
X176373984Y-101473940D01*
X176510766Y-101417283D01*
X176655974Y-101388400D01*
X176804026Y-101388400D01*
X176949234Y-101417283D01*
X176949234Y-101417283D01*
G37*
G36*
X168851000Y-102611000D02*
G01*
X167749000Y-102611000D01*
X167749000Y-101839000D01*
X168851000Y-101839000D01*
X168851000Y-102611000D01*
X168851000Y-102611000D01*
G37*
G36*
X174851000Y-102611000D02*
G01*
X173749000Y-102611000D01*
X173749000Y-101839000D01*
X174851000Y-101839000D01*
X174851000Y-102611000D01*
X174851000Y-102611000D01*
G37*
G36*
X170851000Y-102611000D02*
G01*
X169749000Y-102611000D01*
X169749000Y-101839000D01*
X170851000Y-101839000D01*
X170851000Y-102611000D01*
X170851000Y-102611000D01*
G37*
G36*
X172851000Y-102611000D02*
G01*
X171749000Y-102611000D01*
X171749000Y-101839000D01*
X172851000Y-101839000D01*
X172851000Y-102611000D01*
X172851000Y-102611000D01*
G37*
G36*
X166181000Y-102101500D02*
G01*
X165429000Y-102101500D01*
X165429000Y-100474500D01*
X166181000Y-100474500D01*
X166181000Y-102101500D01*
X166181000Y-102101500D01*
G37*
G36*
X164911000Y-102101500D02*
G01*
X164159000Y-102101500D01*
X164159000Y-100474500D01*
X164911000Y-100474500D01*
X164911000Y-102101500D01*
X164911000Y-102101500D01*
G37*
G36*
X163641000Y-102101500D02*
G01*
X162889000Y-102101500D01*
X162889000Y-100474500D01*
X163641000Y-100474500D01*
X163641000Y-102101500D01*
X163641000Y-102101500D01*
G37*
G36*
X162371000Y-102101500D02*
G01*
X161619000Y-102101500D01*
X161619000Y-100474500D01*
X162371000Y-100474500D01*
X162371000Y-102101500D01*
X162371000Y-102101500D01*
G37*
G36*
X153775256Y-98491298D02*
G01*
X153881579Y-98512447D01*
X154094037Y-98600450D01*
X154139101Y-98619116D01*
X154182042Y-98636903D01*
X154452451Y-98817585D01*
X154682415Y-99047549D01*
X154863097Y-99317958D01*
X154961778Y-99556194D01*
X154987553Y-99618422D01*
X155020486Y-99783984D01*
X155051000Y-99937391D01*
X155051000Y-100262609D01*
X154987553Y-100581579D01*
X154863097Y-100882042D01*
X154682415Y-101152451D01*
X154452451Y-101382415D01*
X154182042Y-101563097D01*
X153881579Y-101687553D01*
X153775256Y-101708702D01*
X153562611Y-101751000D01*
X153237389Y-101751000D01*
X153024744Y-101708702D01*
X152918421Y-101687553D01*
X152617958Y-101563097D01*
X152347549Y-101382415D01*
X152117585Y-101152451D01*
X151936903Y-100882042D01*
X151812447Y-100581579D01*
X151749000Y-100262609D01*
X151749000Y-99937391D01*
X151779515Y-99783984D01*
X151812447Y-99618422D01*
X151838223Y-99556194D01*
X151936903Y-99317958D01*
X152117585Y-99047549D01*
X152347549Y-98817585D01*
X152617958Y-98636903D01*
X152660900Y-98619116D01*
X152705963Y-98600450D01*
X152918421Y-98512447D01*
X153024744Y-98491298D01*
X153237389Y-98449000D01*
X153562611Y-98449000D01*
X153775256Y-98491298D01*
X153775256Y-98491298D01*
G37*
G36*
X125675256Y-98491298D02*
G01*
X125781579Y-98512447D01*
X125994037Y-98600450D01*
X126039101Y-98619116D01*
X126082042Y-98636903D01*
X126352451Y-98817585D01*
X126582415Y-99047549D01*
X126763097Y-99317958D01*
X126861778Y-99556194D01*
X126887553Y-99618422D01*
X126920486Y-99783984D01*
X126951000Y-99937391D01*
X126951000Y-100262609D01*
X126887553Y-100581579D01*
X126763097Y-100882042D01*
X126582415Y-101152451D01*
X126352451Y-101382415D01*
X126082042Y-101563097D01*
X125781579Y-101687553D01*
X125675256Y-101708702D01*
X125462611Y-101751000D01*
X125137389Y-101751000D01*
X124924744Y-101708702D01*
X124818421Y-101687553D01*
X124517958Y-101563097D01*
X124247549Y-101382415D01*
X124017585Y-101152451D01*
X123836903Y-100882042D01*
X123712447Y-100581579D01*
X123649000Y-100262609D01*
X123649000Y-99937391D01*
X123679515Y-99783984D01*
X123712447Y-99618422D01*
X123738223Y-99556194D01*
X123836903Y-99317958D01*
X124017585Y-99047549D01*
X124247549Y-98817585D01*
X124517958Y-98636903D01*
X124560900Y-98619116D01*
X124605963Y-98600450D01*
X124818421Y-98512447D01*
X124924744Y-98491298D01*
X125137389Y-98449000D01*
X125462611Y-98449000D01*
X125675256Y-98491298D01*
X125675256Y-98491298D01*
G37*
G36*
X184051000Y-98251000D02*
G01*
X183925999Y-98251000D01*
X183901613Y-98253402D01*
X183878164Y-98260515D01*
X183856553Y-98272066D01*
X183837611Y-98287611D01*
X183822066Y-98306553D01*
X183810515Y-98328164D01*
X183803402Y-98351613D01*
X183801000Y-98375999D01*
X183801000Y-101351000D01*
X179499000Y-101351000D01*
X179499000Y-98375999D01*
X179496598Y-98351613D01*
X179489485Y-98328164D01*
X179477934Y-98306553D01*
X179462389Y-98287611D01*
X179443447Y-98272066D01*
X179421836Y-98260515D01*
X179398387Y-98253402D01*
X179374001Y-98251000D01*
X179249000Y-98251000D01*
X179249000Y-96649000D01*
X184051000Y-96649000D01*
X184051000Y-98251000D01*
X184051000Y-98251000D01*
G37*
G36*
X173831000Y-101095000D02*
G01*
X171929000Y-101095000D01*
X171929000Y-99193000D01*
X173831000Y-99193000D01*
X173831000Y-101095000D01*
X173831000Y-101095000D01*
G37*
G36*
X171291000Y-101095000D02*
G01*
X169389000Y-101095000D01*
X169389000Y-99193000D01*
X171291000Y-99193000D01*
X171291000Y-101095000D01*
X171291000Y-101095000D01*
G37*
G36*
X176949234Y-99417283D02*
G01*
X177086016Y-99473940D01*
X177209117Y-99556194D01*
X177313806Y-99660883D01*
X177396060Y-99783984D01*
X177452717Y-99920766D01*
X177481600Y-100065974D01*
X177481600Y-100214026D01*
X177452717Y-100359234D01*
X177396060Y-100496016D01*
X177313806Y-100619117D01*
X177209117Y-100723806D01*
X177086016Y-100806060D01*
X176949234Y-100862717D01*
X176804026Y-100891600D01*
X176655974Y-100891600D01*
X176510766Y-100862717D01*
X176373984Y-100806060D01*
X176250883Y-100723806D01*
X176146194Y-100619117D01*
X176063940Y-100496016D01*
X176007283Y-100359234D01*
X175978400Y-100214026D01*
X175978400Y-100065974D01*
X176007283Y-99920766D01*
X176063940Y-99783984D01*
X176146194Y-99660883D01*
X176250883Y-99556194D01*
X176373984Y-99473940D01*
X176510766Y-99417283D01*
X176655974Y-99388400D01*
X176804026Y-99388400D01*
X176949234Y-99417283D01*
X176949234Y-99417283D01*
G37*
G36*
X160301000Y-99201000D02*
G01*
X157999000Y-99201000D01*
X157999000Y-97599000D01*
X160301000Y-97599000D01*
X160301000Y-99201000D01*
X160301000Y-99201000D01*
G37*
G36*
X176949234Y-97417283D02*
G01*
X177086016Y-97473940D01*
X177209117Y-97556194D01*
X177313806Y-97660883D01*
X177396060Y-97783984D01*
X177452717Y-97920766D01*
X177481600Y-98065974D01*
X177481600Y-98214026D01*
X177452717Y-98359234D01*
X177396060Y-98496016D01*
X177313806Y-98619117D01*
X177209117Y-98723806D01*
X177086016Y-98806060D01*
X176949234Y-98862717D01*
X176804026Y-98891600D01*
X176655974Y-98891600D01*
X176510766Y-98862717D01*
X176373984Y-98806060D01*
X176250883Y-98723806D01*
X176146194Y-98619117D01*
X176063940Y-98496016D01*
X176007283Y-98359234D01*
X175978400Y-98214026D01*
X175978400Y-98065974D01*
X176007283Y-97920766D01*
X176063940Y-97783984D01*
X176146194Y-97660883D01*
X176250883Y-97556194D01*
X176373984Y-97473940D01*
X176510766Y-97417283D01*
X176655974Y-97388400D01*
X176804026Y-97388400D01*
X176949234Y-97417283D01*
X176949234Y-97417283D01*
G37*
G36*
X168850500Y-98111000D02*
G01*
X168173500Y-98111000D01*
X168173500Y-97389000D01*
X168850500Y-97389000D01*
X168850500Y-98111000D01*
X168850500Y-98111000D01*
G37*
G36*
X166601000Y-98051000D02*
G01*
X164299000Y-98051000D01*
X164299000Y-94149000D01*
X166601000Y-94149000D01*
X166601000Y-98051000D01*
X166601000Y-98051000D01*
G37*
G36*
X173295403Y-95517646D02*
G01*
X173392156Y-95536891D01*
X173467658Y-95568165D01*
X173574434Y-95612393D01*
X173617247Y-95641000D01*
X173738483Y-95722007D01*
X173877993Y-95861517D01*
X173877994Y-95861519D01*
X173987607Y-96025566D01*
X174031835Y-96132342D01*
X174059301Y-96198650D01*
X174063109Y-96207845D01*
X174101600Y-96401350D01*
X174101600Y-96598650D01*
X174063109Y-96792155D01*
X173987607Y-96974434D01*
X173978805Y-96987607D01*
X173877993Y-97138483D01*
X173738483Y-97277993D01*
X173655902Y-97333172D01*
X173574434Y-97387607D01*
X173467658Y-97431835D01*
X173392156Y-97463109D01*
X173337710Y-97473939D01*
X173198650Y-97501600D01*
X173001350Y-97501600D01*
X172862290Y-97473939D01*
X172807844Y-97463109D01*
X172732342Y-97431835D01*
X172625566Y-97387607D01*
X172544098Y-97333172D01*
X172461517Y-97277993D01*
X172322007Y-97138483D01*
X172221195Y-96987607D01*
X172212393Y-96974434D01*
X172136891Y-96792155D01*
X172098400Y-96598650D01*
X172098400Y-96401350D01*
X172136891Y-96207845D01*
X172140700Y-96198650D01*
X172168165Y-96132342D01*
X172212393Y-96025566D01*
X172322006Y-95861519D01*
X172322007Y-95861517D01*
X172461517Y-95722007D01*
X172582753Y-95641000D01*
X172625566Y-95612393D01*
X172732342Y-95568165D01*
X172807844Y-95536891D01*
X172904598Y-95517645D01*
X173001350Y-95498400D01*
X173198650Y-95498400D01*
X173295403Y-95517646D01*
X173295403Y-95517646D01*
G37*
G36*
X156311000Y-97486000D02*
G01*
X154489000Y-97486000D01*
X154489000Y-96264000D01*
X156311000Y-96264000D01*
X156311000Y-97486000D01*
X156311000Y-97486000D01*
G37*
G36*
X171226500Y-97161000D02*
G01*
X170549500Y-97161000D01*
X170549500Y-96439000D01*
X171226500Y-96439000D01*
X171226500Y-97161000D01*
X171226500Y-97161000D01*
G37*
G36*
X125995402Y-95117645D02*
G01*
X126092156Y-95136891D01*
X126167658Y-95168165D01*
X126274434Y-95212393D01*
X126274435Y-95212394D01*
X126438483Y-95322007D01*
X126577993Y-95461517D01*
X126577994Y-95461519D01*
X126687607Y-95625566D01*
X126763109Y-95807845D01*
X126790645Y-95946274D01*
X126801600Y-96001351D01*
X126801600Y-96198649D01*
X126763109Y-96392156D01*
X126759300Y-96401351D01*
X126687607Y-96574434D01*
X126687606Y-96574435D01*
X126577993Y-96738483D01*
X126438483Y-96877993D01*
X126430546Y-96883296D01*
X126274434Y-96987607D01*
X126167658Y-97031835D01*
X126092156Y-97063109D01*
X125995403Y-97082354D01*
X125898650Y-97101600D01*
X125701350Y-97101600D01*
X125604597Y-97082354D01*
X125507844Y-97063109D01*
X125432342Y-97031835D01*
X125325566Y-96987607D01*
X125169454Y-96883296D01*
X125161517Y-96877993D01*
X125022007Y-96738483D01*
X124912394Y-96574435D01*
X124912393Y-96574434D01*
X124840700Y-96401351D01*
X124836891Y-96392156D01*
X124798400Y-96198649D01*
X124798400Y-96001351D01*
X124809356Y-95946274D01*
X124836891Y-95807845D01*
X124912393Y-95625566D01*
X125022006Y-95461519D01*
X125022007Y-95461517D01*
X125161517Y-95322007D01*
X125325565Y-95212394D01*
X125325566Y-95212393D01*
X125432342Y-95168165D01*
X125507844Y-95136891D01*
X125604598Y-95117645D01*
X125701350Y-95098400D01*
X125898650Y-95098400D01*
X125995402Y-95117645D01*
X125995402Y-95117645D01*
G37*
G36*
X123295402Y-95117645D02*
G01*
X123392156Y-95136891D01*
X123467658Y-95168165D01*
X123574434Y-95212393D01*
X123574435Y-95212394D01*
X123738483Y-95322007D01*
X123877993Y-95461517D01*
X123877994Y-95461519D01*
X123987607Y-95625566D01*
X124063109Y-95807845D01*
X124090645Y-95946274D01*
X124101600Y-96001351D01*
X124101600Y-96198649D01*
X124063109Y-96392156D01*
X124059300Y-96401351D01*
X123987607Y-96574434D01*
X123987606Y-96574435D01*
X123877993Y-96738483D01*
X123738483Y-96877993D01*
X123730546Y-96883296D01*
X123574434Y-96987607D01*
X123467658Y-97031835D01*
X123392156Y-97063109D01*
X123295403Y-97082354D01*
X123198650Y-97101600D01*
X123001350Y-97101600D01*
X122904597Y-97082354D01*
X122807844Y-97063109D01*
X122732342Y-97031835D01*
X122625566Y-96987607D01*
X122469454Y-96883296D01*
X122461517Y-96877993D01*
X122322007Y-96738483D01*
X122212394Y-96574435D01*
X122212393Y-96574434D01*
X122140700Y-96401351D01*
X122136891Y-96392156D01*
X122098400Y-96198649D01*
X122098400Y-96001351D01*
X122109356Y-95946274D01*
X122136891Y-95807845D01*
X122212393Y-95625566D01*
X122322006Y-95461519D01*
X122322007Y-95461517D01*
X122461517Y-95322007D01*
X122625565Y-95212394D01*
X122625566Y-95212393D01*
X122732342Y-95168165D01*
X122807844Y-95136891D01*
X122904598Y-95117645D01*
X123001350Y-95098400D01*
X123198650Y-95098400D01*
X123295402Y-95117645D01*
X123295402Y-95117645D01*
G37*
G36*
X177007570Y-95124969D02*
G01*
X177180753Y-95196704D01*
X177336607Y-95300842D01*
X177469158Y-95433393D01*
X177573296Y-95589247D01*
X177645031Y-95762430D01*
X177681600Y-95946274D01*
X177681600Y-96133726D01*
X177645031Y-96317570D01*
X177573296Y-96490753D01*
X177469158Y-96646607D01*
X177336607Y-96779158D01*
X177180753Y-96883296D01*
X177007570Y-96955031D01*
X176823726Y-96991600D01*
X176636274Y-96991600D01*
X176452430Y-96955031D01*
X176279247Y-96883296D01*
X176123393Y-96779158D01*
X175990842Y-96646607D01*
X175886704Y-96490753D01*
X175814969Y-96317570D01*
X175778400Y-96133726D01*
X175778400Y-95946274D01*
X175814969Y-95762430D01*
X175886704Y-95589247D01*
X175990842Y-95433393D01*
X176123393Y-95300842D01*
X176279247Y-95196704D01*
X176452430Y-95124969D01*
X176636274Y-95088400D01*
X176823726Y-95088400D01*
X177007570Y-95124969D01*
X177007570Y-95124969D01*
G37*
G36*
X160301000Y-96901000D02*
G01*
X157999000Y-96901000D01*
X157999000Y-95299000D01*
X160301000Y-95299000D01*
X160301000Y-96901000D01*
X160301000Y-96901000D01*
G37*
G36*
X168850500Y-96211000D02*
G01*
X168173500Y-96211000D01*
X168173500Y-95489000D01*
X168850500Y-95489000D01*
X168850500Y-96211000D01*
X168850500Y-96211000D01*
G37*
G36*
X182344098Y-90637033D02*
G01*
X182808350Y-90829332D01*
X182808352Y-90829333D01*
X183226168Y-91108509D01*
X183581491Y-91463832D01*
X183860667Y-91881648D01*
X183860668Y-91881650D01*
X184052967Y-92345902D01*
X184151000Y-92838747D01*
X184151000Y-93341253D01*
X184052967Y-93834098D01*
X183888502Y-94231153D01*
X183860667Y-94298352D01*
X183581491Y-94716168D01*
X183226168Y-95071491D01*
X182808352Y-95350667D01*
X182808351Y-95350668D01*
X182808350Y-95350668D01*
X182344098Y-95542967D01*
X181851253Y-95641000D01*
X181348747Y-95641000D01*
X180855902Y-95542967D01*
X180391650Y-95350668D01*
X180391649Y-95350668D01*
X180391648Y-95350667D01*
X179973832Y-95071491D01*
X179618509Y-94716168D01*
X179339333Y-94298352D01*
X179311498Y-94231153D01*
X179147033Y-93834098D01*
X179049000Y-93341253D01*
X179049000Y-92838747D01*
X179147033Y-92345902D01*
X179339332Y-91881650D01*
X179339333Y-91881648D01*
X179618509Y-91463832D01*
X179973832Y-91108509D01*
X180391648Y-90829333D01*
X180391650Y-90829332D01*
X180855902Y-90637033D01*
X181348747Y-90539000D01*
X181851253Y-90539000D01*
X182344098Y-90637033D01*
X182344098Y-90637033D01*
G37*
G36*
X160301000Y-94601000D02*
G01*
X157999000Y-94601000D01*
X157999000Y-92999000D01*
X160301000Y-92999000D01*
X160301000Y-94601000D01*
X160301000Y-94601000D01*
G37*
G36*
X117544256Y-91034898D02*
G01*
X117650579Y-91056047D01*
X117951042Y-91180503D01*
X118221451Y-91361185D01*
X118451415Y-91591149D01*
X118451416Y-91591151D01*
X118632098Y-91861560D01*
X118668550Y-91949563D01*
X118756553Y-92162021D01*
X118820000Y-92480991D01*
X118820000Y-92806209D01*
X118756553Y-93125179D01*
X118632097Y-93425642D01*
X118451415Y-93696051D01*
X118221451Y-93926015D01*
X117951042Y-94106697D01*
X117650579Y-94231153D01*
X117544256Y-94252302D01*
X117331611Y-94294600D01*
X117006389Y-94294600D01*
X116793744Y-94252302D01*
X116687421Y-94231153D01*
X116386958Y-94106697D01*
X116116549Y-93926015D01*
X115886585Y-93696051D01*
X115705903Y-93425642D01*
X115581447Y-93125179D01*
X115518000Y-92806209D01*
X115518000Y-92480991D01*
X115581447Y-92162021D01*
X115669450Y-91949563D01*
X115705902Y-91861560D01*
X115886584Y-91591151D01*
X115886585Y-91591149D01*
X116116549Y-91361185D01*
X116386958Y-91180503D01*
X116687421Y-91056047D01*
X116793744Y-91034898D01*
X117006389Y-90992600D01*
X117331611Y-90992600D01*
X117544256Y-91034898D01*
X117544256Y-91034898D01*
G37*
G36*
X171684256Y-91034898D02*
G01*
X171790579Y-91056047D01*
X172091042Y-91180503D01*
X172361451Y-91361185D01*
X172591415Y-91591149D01*
X172591416Y-91591151D01*
X172772098Y-91861560D01*
X172808550Y-91949563D01*
X172896553Y-92162021D01*
X172960000Y-92480991D01*
X172960000Y-92806209D01*
X172896553Y-93125179D01*
X172772097Y-93425642D01*
X172591415Y-93696051D01*
X172361451Y-93926015D01*
X172091042Y-94106697D01*
X171790579Y-94231153D01*
X171684256Y-94252302D01*
X171471611Y-94294600D01*
X171146389Y-94294600D01*
X170933744Y-94252302D01*
X170827421Y-94231153D01*
X170526958Y-94106697D01*
X170256549Y-93926015D01*
X170026585Y-93696051D01*
X169845903Y-93425642D01*
X169721447Y-93125179D01*
X169658000Y-92806209D01*
X169658000Y-92480991D01*
X169721447Y-92162021D01*
X169809450Y-91949563D01*
X169845902Y-91861560D01*
X170026584Y-91591151D01*
X170026585Y-91591149D01*
X170256549Y-91361185D01*
X170526958Y-91180503D01*
X170827421Y-91056047D01*
X170933744Y-91034898D01*
X171146389Y-90992600D01*
X171471611Y-90992600D01*
X171684256Y-91034898D01*
X171684256Y-91034898D01*
G37*
G36*
X156311000Y-93336000D02*
G01*
X154489000Y-93336000D01*
X154489000Y-92114000D01*
X156311000Y-92114000D01*
X156311000Y-93336000D01*
X156311000Y-93336000D01*
G37*
M02*
